<svg xmlns="http://www.w3.org/2000/svg" viewBox="0 0 291.95 95.3"><defs><style>.cls-1{fill:#f47920;}</style></defs><g id="Layer_2" data-name="Layer 2"><g id="Layer_1-2" data-name="Layer 1"><path class="cls-1" d="M31.66,34.25c.08.16.17.34.25.52a.74.74,0,0,0,.43.4,6.94,6.94,0,0,1-.19,1.44c-.12.59-.22,1.22-.3,1.87a13.39,13.39,0,0,0-.13,1.81,1.89,1.89,0,0,0,.37,1.26.43.43,0,0,1-.12.31c-.08.08,0,.22.12.43a2,2,0,0,0,0,1.13.66.66,0,0,1-.21.77,2.91,2.91,0,0,1,.24,1.72,5.68,5.68,0,0,1-.43,1.72,3.51,3.51,0,0,1-.55.21c-.2.06-.41.11-.61.15a2.64,2.64,0,0,1-.43-.52L29.7,47c.08-.33.15-.68.21-1.07a1.51,1.51,0,0,0-.21-1.08,1,1,0,0,0,.18-.55,6.56,6.56,0,0,0,.06-.92,3.66,3.66,0,0,0-.09-.86c-.06-.24-.15-.39-.27-.43a.47.47,0,0,0,.24-.61,2.82,2.82,0,0,1-.12-.74,5.57,5.57,0,0,1,.12-1.13,1.65,1.65,0,0,0-.12-1.08c.12-.08.19-.26.21-.55a3.08,3.08,0,0,1,.1-.67,3.48,3.48,0,0,1-.59-.59q0-.09-.21-.15a1,1,0,0,0-.62.12,4,4,0,0,1-.73.25,10.73,10.73,0,0,1-1.47.15,3.16,3.16,0,0,1-1.48-.28.76.76,0,0,1-.83.22,6.08,6.08,0,0,0-.89-.22,2.35,2.35,0,0,1-.88.07.88.88,0,0,0-.28-.07,1.53,1.53,0,0,0-.4.07,1.49,1.49,0,0,1-.4.06c-.57-.21-.95-.26-1.13-.16a.48.48,0,0,1-.59-.09c-.41,0-.64,0-.7,0a.5.5,0,0,1-.34.09,1.85,1.85,0,0,1-.64-.12,2.12,2.12,0,0,0-.71-.12l-1.47.12a2.56,2.56,0,0,0-.62.22,1.5,1.5,0,0,1-.67.15,10.41,10.41,0,0,1,.09,1.78,17.42,17.42,0,0,0,0,1.78,1.17,1.17,0,0,0,0,.64.69.69,0,0,1,.09.34,5.07,5.07,0,0,1,0,1.23,3.63,3.63,0,0,0,0,1.23c0,.16.09.3.13.42s.08.27.12.43a7,7,0,0,1-.09,1.78,2.66,2.66,0,0,0,.4,1.78,5.71,5.71,0,0,0,.12,2.06,20,20,0,0,1,.37,2.05,11.91,11.91,0,0,1,.06,2.06,11.88,11.88,0,0,0,.06,2.06A1.73,1.73,0,0,0,17,57a1.2,1.2,0,0,1,1.13.37A14.33,14.33,0,0,1,20,57.2,8,8,0,0,0,21.78,57c0-.28,0-.7,0-1.25s0-1.12,0-1.69a15.24,15.24,0,0,1,.13-1.6,1.8,1.8,0,0,1,.39-1,.67.67,0,0,0,.13-.49,1,1,0,0,1,.12-.55,2.69,2.69,0,0,0,.61-.28,1.18,1.18,0,0,1,.74-.09,1.25,1.25,0,0,0,.28.46.62.62,0,0,1,.15.46,1.27,1.27,0,0,1-.09.43l-.19.49c-.06.16-.11.32-.15.46a.29.29,0,0,0,.12.34,1.05,1.05,0,0,1-.12.52,1.05,1.05,0,0,0-.12.52,3.08,3.08,0,0,0,.06.61,3.26,3.26,0,0,1,.06.62c0,.24,0,.48,0,.7a2.86,2.86,0,0,0,0,.71L24,57c0,.21.08.41.13.62a1.15,1.15,0,0,1-.07.36,1.1,1.1,0,0,0-.06.31,1.93,1.93,0,0,1-.06,1.11.69.69,0,0,0,.06.73c.17.25.22.42.16.52a.25.25,0,0,0,0,.28c.16.41.22.64.18.71a.37.37,0,0,0-.06.21,6.32,6.32,0,0,0,0,1.35,4.78,4.78,0,0,1,0,1.17,1.1,1.1,0,0,1-.28.61,1,1,0,0,1-.52.43,1,1,0,0,1-.73-.06L22,65a.46.46,0,0,0,0-.55,1.38,1.38,0,0,1-.25-.55.88.88,0,0,1,.1-.4c.06-.15.11-.28.15-.4a4,4,0,0,0,.06-1.17,1.28,1.28,0,0,0-.37-.79,2.69,2.69,0,0,0,.06-1.72,3.17,3.17,0,0,0-1.07-.16c-.27,0-.62.08-1.07.16a.86.86,0,0,1-.65-.16.38.38,0,0,0-.58.16,1.57,1.57,0,0,0-.34-.19,4.34,4.34,0,0,0-.61-.21,4.57,4.57,0,0,1-.59-.19,1.29,1.29,0,0,0-.3-.09,7.33,7.33,0,0,0-.4,1.6,12.08,12.08,0,0,0-.09,1.47,11.76,11.76,0,0,0,.06,1.2,11.71,11.71,0,0,1,.06,1.19V68a4.16,4.16,0,0,0,.06.67,4.27,4.27,0,0,1,.06.68c0,.33,0,.67,0,1a5.88,5.88,0,0,0,0,1,.64.64,0,0,0,.09.34,1.33,1.33,0,0,1,.16.34,1.76,1.76,0,0,1,0,.55,1.12,1.12,0,0,0,.09.55.8.8,0,0,1,.06.53,2.37,2.37,0,0,0-.06.52q.12.06,0,.3a.5.5,0,0,0,0,.37,1.14,1.14,0,0,0,.09.46,1.22,1.22,0,0,1,.09.46,4.25,4.25,0,0,1-.15,1.44,2.29,2.29,0,0,0,0,1.32c.08.29.24.43.46.43a5.12,5.12,0,0,0,.74-.06,5.93,5.93,0,0,1,.89-.06,1.18,1.18,0,0,1,.86.37,1.53,1.53,0,0,1,.43.67,3.73,3.73,0,0,0-.31.89.39.39,0,0,1-.12.28,3.26,3.26,0,0,0-.62.06,3.15,3.15,0,0,1-.61.06A2.87,2.87,0,0,1,18,81.1a.81.81,0,0,0-.37-.09.78.78,0,0,0-.49,0,.61.61,0,0,1-.49,0q-.92-.06-1.26-.06a.73.73,0,0,0-.58.3,1.55,1.55,0,0,0-1,0,1.58,1.58,0,0,1-1.05,0c-.16-.16-.29-.22-.4-.18a.74.74,0,0,1-.27.06,2.52,2.52,0,0,1-.52-.15,1.21,1.21,0,0,0-.52-.1.74.74,0,0,0-.34.07,1,1,0,0,1-.34.06A18.56,18.56,0,0,1,8,80.85a8.79,8.79,0,0,0-2.4,0,5.08,5.08,0,0,1-.86.19,6.44,6.44,0,0,0-.85.18.64.64,0,0,0-.34.09.59.59,0,0,1-.34.1,3.26,3.26,0,0,1-1,.09,5.33,5.33,0,0,0-1,0,.86.86,0,0,0-.37-.19c-.16,0-.23-.16-.19-.36A.59.59,0,0,1,0,80.58c0-.58.3-.86.77-.86A11.5,11.5,0,0,0,2,79.66l.71-.13.71-.12a3.35,3.35,0,0,1,.76,0A1.63,1.63,0,0,0,5,79.17a1.62,1.62,0,0,1,0-.62,2.48,2.48,0,0,0,.06-.43A6.71,6.71,0,0,1,5.25,76a4.13,4.13,0,0,0,0-1.91c.16.05.26,0,.3-.27s0-.36-.06-.4a1.6,1.6,0,0,0,.22-.28,1.39,1.39,0,0,1,.21-.27A4.24,4.24,0,0,1,6,70.79,4,4,0,0,0,6,68.67,1.59,1.59,0,0,0,6.29,68a6.4,6.4,0,0,0,.12-.92c0-.33,0-.65,0-1a4.07,4.07,0,0,1,.06-.77c0-.53.12-.82.22-.86s.07-.22-.09-.55a2.05,2.05,0,0,0,.09-.68.48.48,0,0,1,0-.3,1.4,1.4,0,0,1,.09-.53,1.31,1.31,0,0,0,.09-.52,2.44,2.44,0,0,0,0-.67c0-.25,0-.47,0-.68a7.54,7.54,0,0,1,.22-1.25,2.13,2.13,0,0,0-.09-1.26,2.21,2.21,0,0,0,.18-1,1.5,1.5,0,0,0-.18-.52,1.05,1.05,0,0,0,.21-.89,5.83,5.83,0,0,1-.09-1,4.62,4.62,0,0,1,.24-1.5,5.62,5.62,0,0,0,.31-1.51,1.27,1.27,0,0,0,0-.61,2.15,2.15,0,0,1-.09-.61A8.37,8.37,0,0,0,8,49.25c.06-.31.12-.63.18-1s.11-.66.15-1,.07-.45.07-.49a1.57,1.57,0,0,1,.09-1.08.86.86,0,0,0-.09-.89.74.74,0,0,0,.18-.76,3.39,3.39,0,0,1-.12-.83l.27-1.2a3.7,3.7,0,0,0,.09-.83,3.63,3.63,0,0,1,0-1c0-.12.09-.26.13-.43A3.77,3.77,0,0,0,9,39.22c0-.29.08-.58.12-.89a6.67,6.67,0,0,0,.06-.86,2,2,0,0,0-.06-.58A3.16,3.16,0,0,0,8,36.58a1.08,1.08,0,0,1-.71-.25,1.21,1.21,0,0,1-.67.13l-1,0a5,5,0,0,1-1-.16,1.45,1.45,0,0,1-.67-.3,5.69,5.69,0,0,1-.19-.62,1.13,1.13,0,0,1,.06-.61,4.22,4.22,0,0,1,1.14-.25,9.38,9.38,0,0,1,1.5,0l1.54.16a10.82,10.82,0,0,1,1.22.21,2.39,2.39,0,0,0,.37-.15,1,1,0,0,1,.43-.09,2.87,2.87,0,0,0,1,.06.83.83,0,0,1,.52.06l.37.12a1.4,1.4,0,0,0,.43.06,2.53,2.53,0,0,0,1.26-.06,3.27,3.27,0,0,1,1.26-.12,3.33,3.33,0,0,0,1.38-.15,1.11,1.11,0,0,1,1,0c.33-.08.5-.1.52-.06s.07.06.16.06a1.53,1.53,0,0,1,.82,0,3.53,3.53,0,0,0,.46.15,2.22,2.22,0,0,0,.37,0,1.09,1.09,0,0,1,.43,0l1.32.12q.64.06,1.32.06a3.63,3.63,0,0,0,1.07-.18.89.89,0,0,1,.95.18,2.38,2.38,0,0,1,.93,0,.82.82,0,0,0,.42.1,4.76,4.76,0,0,0,1.85-.43H29a1.09,1.09,0,0,1,.92-.37,4.46,4.46,0,0,1,1,.24c.24.09.37.07.4-.06S31.46,34.25,31.66,34.25Zm-20,2.64a4.49,4.49,0,0,1-.61,1.35,2.68,2.68,0,0,1,.12,1.35c-.08.41-.17.84-.25,1.29a1.86,1.86,0,0,1,0,1.07.89.89,0,0,0-.15.52,3.88,3.88,0,0,1,0,1.26l-.19.86a4.41,4.41,0,0,0-.09.86,1,1,0,0,0,.13.58,1.87,1.87,0,0,0-.25,1.14,2.72,2.72,0,0,1-.12,1.13c-.09.25-.16.48-.22.71a2.69,2.69,0,0,0-.09.7.71.71,0,0,0,0,.46,1.22,1.22,0,0,1,.09.46,7.36,7.36,0,0,1-.3,1.26,1.43,1.43,0,0,0,.06,1.26.63.63,0,0,0-.25.43c0,.2-.08.43-.12.67s-.07.47-.09.68a.78.78,0,0,1-.09.37.68.68,0,0,0,0,.46q.09.27,0,.33a2.93,2.93,0,0,0-.07,1.14,1.43,1.43,0,0,0,.37,1c-.2,0-.28.11-.24.34a.85.85,0,0,1,0,.46,1.18,1.18,0,0,1-.09.46,1,1,0,0,0-.1.46,1.7,1.7,0,0,0,0,.71,5.1,5.1,0,0,1,.16.7,2.88,2.88,0,0,0-.43,1.44c0,.6-.09,1.2-.13,1.81s-.08,1.21-.12,1.78a2.43,2.43,0,0,1-.43,1.35c.13.29.13.46,0,.52s-.16.2-.12.4A2.67,2.67,0,0,0,8,69.9a.42.42,0,0,1-.06.49,5.16,5.16,0,0,0-.19.92,7.72,7.72,0,0,0-.06.92,1.4,1.4,0,0,1,0,.89l-.31.58a1.82,1.82,0,0,0-.18.62.52.52,0,0,0,.21.49.59.59,0,0,0-.18.64,1.23,1.23,0,0,1,.06.65A3.82,3.82,0,0,0,7,77.6a7.17,7.17,0,0,1,0,1.14,2,2,0,0,0,.83.15c.23,0,.48,0,.77,0L9.3,79c.22,0,.46,0,.7,0s.59,0,1.05-.06a1.52,1.52,0,0,1,.73-.06l.77.15.83.19a1.5,1.5,0,0,0,.79,0,1.36,1.36,0,0,1,.22-.92,2.28,2.28,0,0,0,.34-.93,1.76,1.76,0,0,0-.06-.42,1.52,1.52,0,0,1-.07-.43,5.54,5.54,0,0,1,0-.59,1.93,1.93,0,0,0,0-.58,2.52,2.52,0,0,0-.24-.68,2.62,2.62,0,0,1,.12-1q.12-.24-.24-.3a3,3,0,0,0,.12-.8.93.93,0,0,0-.31-.68c0-.28.07-.64.09-1.07s0-.88,0-1.35a9.77,9.77,0,0,0-.09-1.35,3.38,3.38,0,0,0-.27-1,2.36,2.36,0,0,0,.33-1.69,7.4,7.4,0,0,1-.09-1.75c0-1,.09-2,.16-3.07a6.49,6.49,0,0,0-.53-3A.61.61,0,0,0,13.9,57a2.15,2.15,0,0,1-.09-.61q0-.62,0-1.2a8,8,0,0,0,0-1.19,1.21,1.21,0,0,0-.13-.53,1.13,1.13,0,0,1-.12-.39,6.07,6.07,0,0,0,0-1.72A12.53,12.53,0,0,1,13.38,50a.67.67,0,0,1,0-.37,2.63,2.63,0,0,0,0-.43,5.87,5.87,0,0,0-.19-.83A5.17,5.17,0,0,1,13,47.5c0-.2-.07-.41-.09-.61a1.3,1.3,0,0,1,.09-.61,6.53,6.53,0,0,1-.34-1.69,2.45,2.45,0,0,1,.22-1.51c-.21-.49-.27-.77-.19-.85a.48.48,0,0,0,.06-.43,4.58,4.58,0,0,1-.12-1.35,3.54,3.54,0,0,0,0-.92,2.65,2.65,0,0,0-.15-.59c-.11-.3-.07-.46.09-.46a1.35,1.35,0,0,1-.15-.89.93.93,0,0,0-.1-.7Z"/><path class="cls-1" d="M45,56.89q-.12.49-.33,1.11a1,1,0,0,0,.21,1.1,1.21,1.21,0,0,0-.4.83c0,.22,0,.44,0,.64a2.38,2.38,0,0,0,0,1.08,1.92,1.92,0,0,1,.13.64c0,.61,0,1.22,0,1.81a15.72,15.72,0,0,0,0,1.81q.06.56.12,1.08l.12,1a11.52,11.52,0,0,1-.21,2.76,6.82,6.82,0,0,0,0,2.7c0,.16.08.31.12.43l.12.37A4.43,4.43,0,0,1,45,75.33a1.64,1.64,0,0,0,.31,1,1.66,1.66,0,0,0-.09.92,2.06,2.06,0,0,1,0,.92,2.67,2.67,0,0,0,.64.07,3.42,3.42,0,0,1,.65.06c.24,0,.36-.08.36-.25s.11-.24.31-.24l.8.36a.66.66,0,0,1,.15.37c0,.17.13.23.34.19a1.71,1.71,0,0,0-.12,1.16,1.69,1.69,0,0,1-.46.16.72.72,0,0,1-.46-.1,2,2,0,0,1-1.48.62,2.94,2.94,0,0,0-1.53-.19l-1,.19c-.33,0-.63,0-.89,0a3.89,3.89,0,0,0-.83,0,1.62,1.62,0,0,0-.61.12,1.57,1.57,0,0,1-.56.12,2.29,2.29,0,0,0-1.25-.18,4.1,4.1,0,0,1-.71.18,1.1,1.1,0,0,1-.31-.06,1.13,1.13,0,0,0-.36-.06,1.9,1.9,0,0,0-.68,0,4.35,4.35,0,0,0-.55.18A2,2,0,0,1,36,81a.66.66,0,0,1-.55-.22,2.45,2.45,0,0,1-1.23-.06,3.33,3.33,0,0,0-1.16-.18c-.16-.17-.22-.32-.15-.46s-.06-.22-.34-.22a1.16,1.16,0,0,1,.49-.73,4.52,4.52,0,0,0,.67-.56,1,1,0,0,1,.74,0,1.52,1.52,0,0,0,.61.22.74.74,0,0,0,.43-.4.49.49,0,0,0-.06-.52l.37-.8L36,76.9a5.71,5.71,0,0,0,.16-1,5.73,5.73,0,0,1,.15-1,1.76,1.76,0,0,0,0-.55.86.86,0,0,1,.09-.49,4.48,4.48,0,0,1,.31-.62,1.92,1.92,0,0,0,.24-.67.78.78,0,0,0,0-.37,1.85,1.85,0,0,1,0-.43,1.93,1.93,0,0,0,.13-.31l.12-.36c.2-.74.41-1.52.61-2.34a3.45,3.45,0,0,0-.18-2.33,1.54,1.54,0,0,0,.15-.55.8.8,0,0,1,.22-.49,5.63,5.63,0,0,1,.24-2.82,2.79,2.79,0,0,1,.13-.43,1.44,1.44,0,0,0,.06-.43,1.27,1.27,0,0,0,0-.55,1.32,1.32,0,0,1,0-.56,1.06,1.06,0,0,1,.18-.33,1.63,1.63,0,0,0,.19-.34l.39-1.41c.11-.37.2-.74.28-1.11a1.67,1.67,0,0,0-1.38-.12,2.55,2.55,0,0,1-1.32.12.89.89,0,0,0-.49.25.6.6,0,0,1-.43.18,2,2,0,0,1-.8-.24,5.42,5.42,0,0,1-.73-.43,3.74,3.74,0,0,0,0-.52,1.41,1.41,0,0,1,0-.53.49.49,0,0,1,.36-.12c.17,0,.25-.1.25-.31a1.18,1.18,0,0,0,.61,0c.25-.06.41-.05.49,0a.85.85,0,0,1,.53-.21c.22,0,.31-.15.27-.4a1.41,1.41,0,0,0,1.41,0,1.67,1.67,0,0,1,1.35-.18.46.46,0,0,1,.34-.22.32.32,0,0,1,.34.22,4.18,4.18,0,0,1,2-.13A2.44,2.44,0,0,1,44,55.85c.49.33.76.56.8.7A.57.57,0,0,0,45,56.89Zm-4.11,2.89a.79.79,0,0,1-.06.55,1.41,1.41,0,0,0-.18.37.64.64,0,0,0,0,.36,2.81,2.81,0,0,1,0,.43c-.09.41-.19.81-.31,1.2a6.09,6.09,0,0,0-.25,1.2,3.16,3.16,0,0,1,0,1.07,2.53,2.53,0,0,0-.09.64,1.38,1.38,0,0,0,0,.59c0,.1,0,.27-.12.52A9.9,9.9,0,0,1,40,68.18a6.73,6.73,0,0,1-.12,1.29,7.37,7.37,0,0,0-.43,1.66,5.75,5.75,0,0,1-.25,1.22,2.33,2.33,0,0,0-.43,1.14,1,1,0,0,1-.06.58c-.24.09-.31.2-.21.34s.13.26.09.34c-.25.28-.33.48-.25.58a.33.33,0,0,1,.07.34,13,13,0,0,0-.59,1.38,2.1,2.1,0,0,0,0,1.44,3,3,0,0,0,1.51.09,3.26,3.26,0,0,1,1.13-.09,1.75,1.75,0,0,1,.34.15.57.57,0,0,0,.34.1c.49,0,.8,0,1-.19s.25-.24.33-.24a.42.42,0,0,1,.37-.06.27.27,0,0,0,.31-.07,2.82,2.82,0,0,0,0-.92,4.42,4.42,0,0,1-.09-.92,1.75,1.75,0,0,1-.19-.7c0-.19,0-.38,0-.59l-.06-.58a3.94,3.94,0,0,1,0-.4,2.28,2.28,0,0,0,0-.89,1.31,1.31,0,0,1-.09-.52.69.69,0,0,1,.09-.34.63.63,0,0,0,.09-.33.89.89,0,0,0,0-.46,1.76,1.76,0,0,1-.06-.46,2.57,2.57,0,0,1,.06-1,3.69,3.69,0,0,0,.12-1,3.63,3.63,0,0,0-.06-.64,3.63,3.63,0,0,1-.06-.64,3.6,3.6,0,0,0,.12-.8,2.11,2.11,0,0,0-.15-.8,2.11,2.11,0,0,1-.15-.8q.12-1,.15-1.5c0-.35,0-.69,0-1s0-.78-.06-1.35a2.35,2.35,0,0,1,.18-1.29c-.24-.13-.29-.34-.15-.65a1.06,1.06,0,0,0,0-1,.66.66,0,0,0,.18-.49v-.55a2.93,2.93,0,0,1-.36-.28,1.05,1.05,0,0,1-.31-.4,2,2,0,0,1-.37.31,1.05,1.05,0,0,0-.31.37.53.53,0,0,0-.06.43.7.7,0,0,1-.06.49,1.82,1.82,0,0,1-.24.52A1.31,1.31,0,0,0,40.88,59.78Zm2-13.07c.37-.13.59-.15.67-.07s.3.31.4.31a.41.41,0,0,1,.28.12,1.89,1.89,0,0,1,.55.83,2.63,2.63,0,0,0,.49.89,2,2,0,0,0-.15.89,5.35,5.35,0,0,0,.15,1c0,.21,0,.31-.18.31s-.21.12-.13.37a1.18,1.18,0,0,0-.36.67,14.6,14.6,0,0,1-1.91,1.14,2.94,2.94,0,0,1-2.08.27,1.27,1.27,0,0,1-.83-.52,2,2,0,0,0-.77-.64,2.37,2.37,0,0,1-.15-.65,6.17,6.17,0,0,0-.09-.64,2.58,2.58,0,0,1-.07-1.66,6.47,6.47,0,0,0,.43-1,4.86,4.86,0,0,0,.62-.4,2.8,2.8,0,0,0,.3-.28,2.55,2.55,0,0,0,1.23-.49,4.74,4.74,0,0,0,1-.15ZM43,49.22a1.47,1.47,0,0,1-.86.25,1.61,1.61,0,0,1-.74-.13,2.94,2.94,0,0,0-.36,2.09,6,6,0,0,1,1.16-.25,1,1,0,0,0,.4-.58.68.68,0,0,1,.52-.46c0-.16-.08-.31-.12-.43A1,1,0,0,1,43,49.22Z"/><path class="cls-1" d="M76.73,53.58a4.74,4.74,0,0,0,.25.55,1,1,0,0,1,.06.61,1.09,1.09,0,0,1-.12.53,1.45,1.45,0,0,0-.19.52,8.08,8.08,0,0,0-.18,1.32q-.06.82-.06,1.38a3,3,0,0,1,.06,1,2.32,2.32,0,0,0-.06.55c0,.25.07.49.09.74a3.16,3.16,0,0,0,.15.73c.12.29.16.47.12.56a1.07,1.07,0,0,0-.09.27,1.38,1.38,0,0,0,0,.25q0,.09.12,0l-.79,1a1,1,0,0,1-.59-.06,1,1,0,0,0-.58-.06,4.44,4.44,0,0,0-.74-.65,2.05,2.05,0,0,0-.42-.15.74.74,0,0,1,.12-.46c.08-.1.08-.25,0-.46a1.79,1.79,0,0,0-.46-.83,1.69,1.69,0,0,1-.46-.89,27.92,27.92,0,0,1-2.4-2,1.13,1.13,0,0,1-.73-.13,2.66,2.66,0,0,0-.74-.24,1,1,0,0,0-.34.06.88.88,0,0,1-.33.06,2.74,2.74,0,0,1-.92-.09l-.37-.15a.93.93,0,0,0-.34.06.9.9,0,0,1-.34.06,2.73,2.73,0,0,0-.86,0l-.24.12a7.65,7.65,0,0,1-1.5.4,2.86,2.86,0,0,0-1,.28.93.93,0,0,1-.39.15.68.68,0,0,0-.4.21,7.55,7.55,0,0,1-.56.62,3.68,3.68,0,0,0-.39.46,1,1,0,0,1-.28.27,1.76,1.76,0,0,1-.28,1,4,4,0,0,1-.52.86.59.59,0,0,1,0,.55c-.1.16-.09.28,0,.37a6.26,6.26,0,0,0-.34,1.68c0,.52,0,1,0,1.6s0,1.06.06,1.53a1.27,1.27,0,0,0,.31.89A1.9,1.9,0,0,0,59.86,70a6.69,6.69,0,0,0,.3,1.41,1.65,1.65,0,0,1,.22.71,1.72,1.72,0,0,0,0,.34l.24.61.25.61c.2.58.39,1.19.55,1.85a4.65,4.65,0,0,0,.8,1.71.66.66,0,0,0,0,.46,4.37,4.37,0,0,1,.21.46,3.81,3.81,0,0,0,1.17.16,1.87,1.87,0,0,1,.86.15,1.93,1.93,0,0,1,1-.15.94.94,0,0,0,.52,0,1,1,0,0,0,.31-.06.59.59,0,0,1,.37,0,1,1,0,0,1,.34.06l.33.12c.21.08.33.07.37,0s.14-.15.31-.15a1.17,1.17,0,0,1,.64,0c.1.06.32,0,.65-.28a2,2,0,0,0,1-.09,1.65,1.65,0,0,1,.74-.15c.61-.33,1.06-.59,1.35-.77a3,3,0,0,0,.67-.58A8.22,8.22,0,0,1,74,76l.49-.22.77-.77c.26-.26.54-.52.83-.76a3.52,3.52,0,0,0,.61.18,3.52,3.52,0,0,1,.61.18,2.79,2.79,0,0,0,.16.53,1.31,1.31,0,0,1,.09.52,4.64,4.64,0,0,1-1,.83,2.91,2.91,0,0,0-.89.89.52.52,0,0,0-.46.21,1.37,1.37,0,0,1-.34.34,1.87,1.87,0,0,1-.74.34.7.7,0,0,0-.55.58.68.68,0,0,0-.61,0,2.19,2.19,0,0,1-.49.28,1.32,1.32,0,0,0-.68.27,1.88,1.88,0,0,1-.49.34,7.21,7.21,0,0,1-1.16.15,7.4,7.4,0,0,0-1.23.16,6.65,6.65,0,0,0-.61.27,2.56,2.56,0,0,1-.62.22,1,1,0,0,1-.52-.13,1.05,1.05,0,0,0-.52-.12,1.8,1.8,0,0,0-.71.06.1.1,0,0,1-.09.06,1.42,1.42,0,0,0-.7-.06,3.46,3.46,0,0,1-.59.06,2.21,2.21,0,0,0-.83-.06.74.74,0,0,1-.27.06,1.59,1.59,0,0,1-.77-.18,1.46,1.46,0,0,0-.7-.18.81.81,0,0,0-.37.09.48.48,0,0,1-.37,0,4.92,4.92,0,0,1-1.54-.52c-.49-.27-1-.5-1.41-.71a1.29,1.29,0,0,1-.27-.37.8.8,0,0,0-.28-.3c-.2-.17-.39-.33-.55-.49a1.56,1.56,0,0,1-.37-.56,1.55,1.55,0,0,1-.61-.36,1.14,1.14,0,0,0-.68-.31,3,3,0,0,0-1-1.41,8.15,8.15,0,0,0-.46-1.81,10.92,10.92,0,0,1-.52-1.81,1.1,1.1,0,0,0-.28-.43c-.1-.08-.13-.29-.09-.62a3,3,0,0,1-.34-1.07,1.22,1.22,0,0,0,0-.46,10.15,10.15,0,0,0-.24-1.5,4,4,0,0,1-.07-1.57,1.91,1.91,0,0,1,.28-.7.93.93,0,0,0,.09-.77,1.93,1.93,0,0,0,.46-.71c.1-.26.22-.52.34-.76a.4.4,0,0,0,.31-.28q.06-.21.36-.15a1.25,1.25,0,0,1,.25-.86,7.84,7.84,0,0,1,.74-1,7.19,7.19,0,0,1,.89-.93,5.93,5.93,0,0,1,.76-.58,2.13,2.13,0,0,0,.74-.49,2,2,0,0,1,.25-.31,5.34,5.34,0,0,1,1.53-.76A4.08,4.08,0,0,0,61,56.77h.68a3,3,0,0,1,1.07-.43,2.68,2.68,0,0,0,1.07-.49,1.36,1.36,0,0,0,1.08-.09,2.81,2.81,0,0,1,1-.34,2.13,2.13,0,0,1,.4.06,5,5,0,0,0,.58.09l.52.06c.15,0,.22,0,.22-.09a2.05,2.05,0,0,1,.49.06,2.32,2.32,0,0,0,.55.06,3.77,3.77,0,0,0,.83-.09,1.35,1.35,0,0,1,.83.09c.2.09.4.18.58.28a.66.66,0,0,0,.58,0,2.8,2.8,0,0,0,.56.55,3.25,3.25,0,0,0,.61.49,1.71,1.71,0,0,1,.68.56c.08.16.3.28.67.36a1.54,1.54,0,0,0,.61-1.28,5.9,5.9,0,0,1,.31-1.6.41.41,0,0,0,0-.34.63.63,0,0,1-.09-.33,1.49,1.49,0,0,0,.37-.43,3.31,3.31,0,0,1,.3-.5,2.57,2.57,0,0,1,.65.1A1.4,1.4,0,0,0,76.73,53.58ZM57.4,61.49a5.6,5.6,0,0,1-.67.89,2,2,0,0,0-.49,1,1.18,1.18,0,0,0-.31.27.68.68,0,0,1-.37.22,2.24,2.24,0,0,0-.4,1,.9.9,0,0,1,0,.4l-.21.33a2.11,2.11,0,0,0-.16.34,1.61,1.61,0,0,0,0,.52,3.94,3.94,0,0,1,0,.52,2.3,2.3,0,0,0,.13,1.23,2,2,0,0,1,.24.74,3.33,3.33,0,0,0,.16,1.23l.27.67c.08.12.14.23.19.31a2.94,2.94,0,0,0,.18.3,5.35,5.35,0,0,1,.18,1.23,1.84,1.84,0,0,0,.25.92c.29.33.41.51.37.55a.09.09,0,0,0,0,.13c.24.08.36.2.34.36a.37.37,0,0,0,.09.37.49.49,0,0,0,.3.16.54.54,0,0,1,.31.15c.08.25.19.37.31.37a.7.7,0,0,1,.37.12.41.41,0,0,0,.3.37.75.75,0,0,1,.37.18,1,1,0,0,0-.37-.79.81.81,0,0,0,0-.74c-.1-.25-.22-.5-.36-.77a5.66,5.66,0,0,1-.4-.89,2.75,2.75,0,0,1-.19-1,2.92,2.92,0,0,0-.18-.31.65.65,0,0,1-.12-.37,1.79,1.79,0,0,1,0-.76,1.21,1.21,0,0,0,0-.71.64.64,0,0,1-.07-.46,1.26,1.26,0,0,0,.07-.46,1.05,1.05,0,0,0-.13-.52,1.05,1.05,0,0,1-.12-.52.93.93,0,0,1,.06-.34.9.9,0,0,0,.06-.34,1,1,0,0,0-.09-.43,2.75,2.75,0,0,1-.15-.36,10.35,10.35,0,0,1,.21-2.77,15.16,15.16,0,0,0,.4-2.27Z"/><path class="cls-1" d="M94.73,38.48a.51.51,0,0,1-.37.4.64.64,0,0,0-.43.4h-.68a2.11,2.11,0,0,1-.15.8,3.23,3.23,0,0,0-.21.8,4.53,4.53,0,0,0,0,1.28,3.63,3.63,0,0,1,0,1.23,1.81,1.81,0,0,1-.1.58,1.92,1.92,0,0,0-.09.59,5.1,5.1,0,0,0-.06,1.35,5.1,5.1,0,0,1-.06,1.35c-.08.33-.15.58-.19.76a1.69,1.69,0,0,0,.07.77.81.81,0,0,0,.61,0,1.66,1.66,0,0,1,.61-.12,1.63,1.63,0,0,0,.89.09,2.54,2.54,0,0,1,.65-.09,2.06,2.06,0,0,1,.7.12.57.57,0,0,0,.65-.24,4.94,4.94,0,0,1,1.1.09c.25.06.49.11.74.15,0,.21,0,.32.15.34a.32.32,0,0,1,.28.21c0,.09,0,.2-.16.34a.47.47,0,0,0,0,.58c-.41.37-.67.54-.79.5s-.17,0-.13.18a21.51,21.51,0,0,0-5.15-.25,3.28,3.28,0,0,1-.22.83,2.19,2.19,0,0,0-.15.77,1.05,1.05,0,0,0,.12.52,1.05,1.05,0,0,1,.13.52,11.73,11.73,0,0,1-.07,1.2,11.76,11.76,0,0,0-.06,1.2,1.33,1.33,0,0,0,.13.58,1.43,1.43,0,0,1,.12.58,1.49,1.49,0,0,1-.06.4,1.36,1.36,0,0,0,0,.8,1.44,1.44,0,0,1,.06.4,3.29,3.29,0,0,1-.09.79,1,1,0,0,0,.21.8,5,5,0,0,0-.09,1.05.7.7,0,0,0,.21.42c-.08.7-.15,1.35-.21,2a12.66,12.66,0,0,0,0,2c-.08.45-.07.71,0,.77s.13.13.09.21a10.87,10.87,0,0,0-.24,2,9.11,9.11,0,0,0,.12,1.47.67.67,0,0,0,.09.34,1.66,1.66,0,0,1,.15.33,1.35,1.35,0,0,1-.06.43,1.24,1.24,0,0,0-.06.37,2.16,2.16,0,0,1-.09.86,1.12,1.12,0,0,0-.15.31,1.68,1.68,0,0,0,0,.73,2.65,2.65,0,0,0,.3.8,3.57,3.57,0,0,0,.46.62c.17.16.31.2.43.12a1.85,1.85,0,0,0,.68,1,1.75,1.75,0,0,1,.61.71,1.84,1.84,0,0,1,1,.49,1.8,1.8,0,0,0,.4.43,2.43,2.43,0,0,0,1.23.4,8.76,8.76,0,0,1,1.29.15c.49.21.76.28.83.21a.29.29,0,0,1,.21-.09,2.13,2.13,0,0,0,1.2.22.7.7,0,0,1,.76.4.78.78,0,0,1,.07.55,2.3,2.3,0,0,0-.07.55,5.7,5.7,0,0,1-.76.43,2,2,0,0,1-.83.18l-.37-.12-.37-.12-.4,0-.76-.06q-.43,0-1.11,0a.44.44,0,0,0-.34-.22.46.46,0,0,1-.33-.21.82.82,0,0,1-.59-.1.65.65,0,0,0-.58,0q.06-.36-.18-.39a1.15,1.15,0,0,0-.49,0,1.93,1.93,0,0,0-.56-.8l-.73.18a1.69,1.69,0,0,1-.74-.06,1.77,1.77,0,0,1-.43-.46,2.41,2.41,0,0,0-.61-.58,1.24,1.24,0,0,0-.37-.09A.39.39,0,0,1,91,77.2a1.92,1.92,0,0,0-.89-.73,3.45,3.45,0,0,1-.83-.5,1.17,1.17,0,0,0-.46-.58,1,1,0,0,1-.33-.21,2,2,0,0,1-.43-.37,2.26,2.26,0,0,1-.37-.43,6,6,0,0,0-1-1.38,1.36,1.36,0,0,1-.46-1.26c-.09-.24-.19-.49-.31-.74a5.7,5.7,0,0,1-.31-.73l-.24-.8a1.24,1.24,0,0,1,.06-.37,1,1,0,0,0,.06-.3,8.68,8.68,0,0,0,0-1.23,4.76,4.76,0,0,1,.09-1.17c.08-.24.06-.38-.06-.4s-.18-.13-.18-.33a1.5,1.5,0,0,0,.4-1.11A4.33,4.33,0,0,1,86,63.27c-.2-.57-.24-.9-.12-1a.58.58,0,0,0,.24-.37,5.42,5.42,0,0,0,.07-1.84c-.09-.61-.15-1.23-.19-1.84a1,1,0,0,1,0-.49,1,1,0,0,0,0-.49,2.87,2.87,0,0,0-.15-.37.81.81,0,0,1-.09-.37,1,1,0,0,1,.06-.3,1.24,1.24,0,0,0,.06-.37,4.44,4.44,0,0,0,0-.55,1.82,1.82,0,0,1,0-.56,4.86,4.86,0,0,0,0-1.22,7.72,7.72,0,0,1-.09-1.23,2,2,0,0,1,.12-.65,1.05,1.05,0,0,0,0-.7,3.74,3.74,0,0,1-.65-.06,3.63,3.63,0,0,0-.64-.06,1.1,1.1,0,0,0-.31.06,1.13,1.13,0,0,1-.36.06,1.65,1.65,0,0,0-1.23-.12.74.74,0,0,1-.8-.13c-.25.21-.46.28-.64.22l-.65-.22c-.53-.16-.82-.33-.86-.52a.65.65,0,0,0-.24-.4.86.86,0,0,1,.4-.52,4.43,4.43,0,0,1,.58-.27,1.74,1.74,0,0,1,1.13-.1,2.23,2.23,0,0,0,1.08.1,1,1,0,0,0,.52-.13,1.76,1.76,0,0,1,.52-.18.42.42,0,0,1,.34,0c.14.06.25,0,.34-.15a.9.9,0,0,0,.73.15.83.83,0,0,1,.74.21,1.16,1.16,0,0,0,.21-1,2.69,2.69,0,0,1-.09-1,.67.67,0,0,1,.09-.34,1.53,1.53,0,0,0,.16-.34,5.33,5.33,0,0,0,0-1c0-.33,0-.65,0-1,.2-.08.27-.29.21-.61a1.92,1.92,0,0,1,0-.74,2.52,2.52,0,0,0,.25-1.11c0-.2-.09-.4-.13-.61a4.51,4.51,0,0,0-1,.25,1.76,1.76,0,0,1-1,.06.94.94,0,0,1-.43-.09.74.74,0,0,0-.37-.1,1.59,1.59,0,0,0-.92.31,1.93,1.93,0,0,1-.92.37,2.46,2.46,0,0,1-.52-.8.81.81,0,0,1,.15-.92,4.51,4.51,0,0,1,1.41-.67.62.62,0,0,1,.43,0,1,1,0,0,0,.43.09,4,4,0,0,0,.65-.09c.3-.06.61-.14.92-.22l.86-.24a2.81,2.81,0,0,0,.58-.25,9.29,9.29,0,0,0,1-.06,1.24,1.24,0,0,0,.86-.43,3.45,3.45,0,0,0,1.72-.31A4.12,4.12,0,0,1,92,37.68c.2-.08.48-.2.82-.36a.84.84,0,0,1,.83-.06c.41.2.64.36.68.49a.75.75,0,0,0,.18.3ZM90.31,66.83a1.05,1.05,0,0,1,.15-.3.45.45,0,0,0,0-.37c0-.17-.07-.3-.09-.4a2.17,2.17,0,0,1,0-.4,3.45,3.45,0,0,1,.09-1.2A1.68,1.68,0,0,0,90.31,63a1.55,1.55,0,0,0,.21-1.23,6,6,0,0,1-.15-1.29,1.35,1.35,0,0,1,.09-.52.58.58,0,0,0-.09-.52,2.82,2.82,0,0,0,.09-1.2c-.06-.35-.11-.71-.15-1.07a1.63,1.63,0,0,0,.12-.86,6.22,6.22,0,0,1-.06-.86q.06-.73.18-1.44a5.82,5.82,0,0,0,.06-1.45,4.56,4.56,0,0,0-.09-.92c-.06-.28-.11-.59-.15-.92a1.13,1.13,0,0,1,.06-.36,1.44,1.44,0,0,0,.06-.43,1.15,1.15,0,0,0-.06-.37,1.4,1.4,0,0,1-.06-.43,3,3,0,0,1,.15-1,5.23,5.23,0,0,0,.22-.95,2.48,2.48,0,0,0,0-.77,2.48,2.48,0,0,1,0-.77,9.18,9.18,0,0,1,.18-1.07c.08-.35.14-.71.19-1.08a2.09,2.09,0,0,0,.12-.95,5.06,5.06,0,0,1-.06-.76c0-.29.09-.58.15-.86a1.2,1.2,0,0,0-.15-.86l-1.57.12a3.44,3.44,0,0,0-1.26.37A8.62,8.62,0,0,1,88.13,43a13.61,13.61,0,0,0-.34,2.4,5,5,0,0,0,0,.64,3.11,3.11,0,0,1,0,.43,4.57,4.57,0,0,1,0,.49c0,.18-.07.46-.15.83a.59.59,0,0,1,.18.55,3.23,3.23,0,0,0-.06.61v1.6c0,.2-.09.41-.15.61a2.21,2.21,0,0,0-.09.62,2.09,2.09,0,0,0,.12.61,2,2,0,0,1,.12.55.37.37,0,0,1-.24.19c-.13,0-.09.2.12.49l-.12.37c0,.12-.09.26-.13.43a16.41,16.41,0,0,1,.28,2.27,16.44,16.44,0,0,0,.15,1.71c0,.21.1.42.16.65a2.47,2.47,0,0,1,.09.64,2.68,2.68,0,0,1-.12.77,2.57,2.57,0,0,0-.13.83,4.66,4.66,0,0,0,.16.49,1.41,1.41,0,0,1,.09.49,1.55,1.55,0,0,1-.09.55c-.06.17-.12.33-.16.49a3.74,3.74,0,0,0,0,.52,1.66,1.66,0,0,1,0,.53.88.88,0,0,1-.06.33l-.12.34a2.72,2.72,0,0,0-.06,1,2.69,2.69,0,0,1-.06,1,2.42,2.42,0,0,0-.1,1.54,1.46,1.46,0,0,1,.1,1,1,1,0,0,1,.3.68,1.63,1.63,0,0,0,.13.67,2.09,2.09,0,0,0,.24.31l.25.24c.08.17.21.41.4.74a1.78,1.78,0,0,1,.27.8.59.59,0,0,1,.62.33.73.73,0,0,0,.55.46,20.14,20.14,0,0,0,.18-3.43C90.45,69.16,90.39,68,90.31,66.83Z"/><path class="cls-1" d="M115.85,56.89c-.08.33-.2.7-.34,1.11a1,1,0,0,0,.22,1.1,1.21,1.21,0,0,0-.4.83c0,.22,0,.44,0,.64a2.38,2.38,0,0,0,0,1.08,1.9,1.9,0,0,1,.12.64c0,.61,0,1.22,0,1.81s0,1.2,0,1.81q.06.56.12,1.08c0,.34.09.68.13,1a11,11,0,0,1-.22,2.76,7.21,7.21,0,0,0,0,2.7c0,.16.08.31.12.43s.09.24.13.37a4.43,4.43,0,0,1,.12,1.07,1.64,1.64,0,0,0,.31,1,1.59,1.59,0,0,0-.1.92,1.92,1.92,0,0,1,0,.92,2.76,2.76,0,0,0,.65.07,3.31,3.31,0,0,1,.64.06c.25,0,.37-.08.37-.25s.1-.24.31-.24l.79.36a.6.6,0,0,1,.16.37c0,.17.13.23.34.19a1.7,1.7,0,0,0-.13,1.16,1.49,1.49,0,0,1-.46.16.74.74,0,0,1-.46-.1,2,2,0,0,1-1.47.62,2.94,2.94,0,0,0-1.53-.19l-1,.19c-.32,0-.62,0-.89,0a3.8,3.8,0,0,0-.82,0,1.71,1.71,0,0,0-.62.12,1.52,1.52,0,0,1-.55.12,2.32,2.32,0,0,0-1.26-.18,4,4,0,0,1-.7.18,1,1,0,0,1-.31-.06,1.19,1.19,0,0,0-.37-.06,1.85,1.85,0,0,0-.67,0,4.45,4.45,0,0,0-.56.18,2,2,0,0,1-.61.16.64.64,0,0,1-.55-.22,2.45,2.45,0,0,1-1.23-.06,3.43,3.43,0,0,0-1.17-.18c-.16-.17-.21-.32-.15-.46s-.05-.22-.34-.22a1.24,1.24,0,0,1,.49-.73,4.6,4.6,0,0,0,.68-.56,1,1,0,0,1,.74,0,1.47,1.47,0,0,0,.61.22.77.77,0,0,0,.43-.4.49.49,0,0,0-.06-.52c.2-.45.32-.72.37-.8l.12-.24a5.7,5.7,0,0,0,.15-1,4.94,4.94,0,0,1,.16-1,1.76,1.76,0,0,0,0-.55.86.86,0,0,1,.09-.49,3.59,3.59,0,0,1,.31-.62,1.92,1.92,0,0,0,.24-.67.78.78,0,0,0,0-.37,2.72,2.72,0,0,1,0-.43,2,2,0,0,0,.12-.31c0-.12.08-.24.13-.36.2-.74.4-1.52.61-2.34a3.57,3.57,0,0,0-.18-2.33,1.54,1.54,0,0,0,.15-.55.79.79,0,0,1,.21-.49,5.64,5.64,0,0,1,.25-2.82c0-.17.08-.31.12-.43a1.44,1.44,0,0,0,.06-.43,1.27,1.27,0,0,0,0-.55,1.32,1.32,0,0,1,0-.56.92.92,0,0,1,.19-.33,1.24,1.24,0,0,0,.18-.34l.4-1.41c.1-.37.19-.74.28-1.11a1.67,1.67,0,0,0-1.38-.12,2.55,2.55,0,0,1-1.32.12.85.85,0,0,0-.49.25.61.61,0,0,1-.43.18,1.94,1.94,0,0,1-.8-.24,5.67,5.67,0,0,1-.74-.43,3.74,3.74,0,0,0,0-.52,1.66,1.66,0,0,1,0-.53.51.51,0,0,1,.37-.12c.16,0,.25-.1.25-.31a1.18,1.18,0,0,0,.61,0c.24-.06.41-.05.49,0a.83.83,0,0,1,.52-.21c.23,0,.32-.15.28-.4a1.41,1.41,0,0,0,1.41,0,1.67,1.67,0,0,1,1.35-.18.44.44,0,0,1,.34-.22c.14,0,.25.05.33.22a4.22,4.22,0,0,1,2-.13,2.47,2.47,0,0,1,1.66,1.11c.49.33.75.56.79.7A.58.58,0,0,0,115.85,56.89Zm-4.11,2.89a.79.79,0,0,1-.06.55,1.18,1.18,0,0,0-.19.37.74.74,0,0,0,0,.36,2.81,2.81,0,0,1,0,.43,11.69,11.69,0,0,1-.3,1.2,5.45,5.45,0,0,0-.25,1.2,3.45,3.45,0,0,1,0,1.07,2.53,2.53,0,0,0-.09.64,1.38,1.38,0,0,0,0,.59c0,.1,0,.27-.13.52a8.79,8.79,0,0,1,.13,1.47,6,6,0,0,1-.13,1.29,7.82,7.82,0,0,0-.42,1.66,7.34,7.34,0,0,1-.25,1.22,2.23,2.23,0,0,0-.43,1.14,1,1,0,0,1-.06.58c-.25.09-.32.2-.22.34s.14.26.1.34c-.25.28-.33.48-.25.58a.35.35,0,0,1,.06.34,13,13,0,0,0-.58,1.38,2,2,0,0,0,0,1.44,2.91,2.91,0,0,0,1.5.09,3.32,3.32,0,0,1,1.14-.09,1.66,1.66,0,0,1,.33.15.61.61,0,0,0,.34.1c.49,0,.81,0,1-.19s.26-.24.34-.24a.42.42,0,0,1,.37-.06.28.28,0,0,0,.31-.07,2.56,2.56,0,0,0,0-.92,4.42,4.42,0,0,1-.09-.92,1.89,1.89,0,0,1-.18-.7c0-.19,0-.38,0-.59l-.06-.58a3.94,3.94,0,0,1,0-.4,2.28,2.28,0,0,0,0-.89,1.15,1.15,0,0,1-.1-.52.61.61,0,0,1,.1-.34.63.63,0,0,0,.09-.33.89.89,0,0,0,0-.46,1.76,1.76,0,0,1-.06-.46,2.21,2.21,0,0,1,.06-1,3.69,3.69,0,0,0,.12-1,3.63,3.63,0,0,0-.06-.64,3.63,3.63,0,0,1-.06-.64,3.6,3.6,0,0,0,.12-.8,2.11,2.11,0,0,0-.15-.8,1.94,1.94,0,0,1-.16-.8c.08-.65.14-1.15.16-1.5s0-.69,0-1,0-.78-.06-1.35a2.26,2.26,0,0,1,.18-1.29c-.25-.13-.3-.34-.15-.65a1.06,1.06,0,0,0,0-1,.66.66,0,0,0,.18-.49v-.55a3,3,0,0,1-.37-.28,1.14,1.14,0,0,1-.3-.4,2.43,2.43,0,0,1-.37.31.88.88,0,0,0-.31.37.53.53,0,0,0-.06.43.7.7,0,0,1-.06.49,2.1,2.1,0,0,1-.25.52A1.45,1.45,0,0,0,111.74,59.78Zm2-13.07c.37-.13.6-.15.68-.07s.29.31.4.31a.37.37,0,0,1,.27.12,1.91,1.91,0,0,1,.56.83,2.63,2.63,0,0,0,.49.89,1.83,1.83,0,0,0-.16.89,4.6,4.6,0,0,0,.16,1c0,.21,0,.31-.19.31s-.2.12-.12.37a1.18,1.18,0,0,0-.37.67,14.47,14.47,0,0,1-1.9,1.14,3,3,0,0,1-2.09.27,1.29,1.29,0,0,1-.83-.52,2,2,0,0,0-.76-.64,2.07,2.07,0,0,1-.16-.65,6.17,6.17,0,0,0-.09-.64,2.63,2.63,0,0,1-.06-1.66,7.54,7.54,0,0,0,.43-1,4,4,0,0,0,.61-.4,2.22,2.22,0,0,0,.31-.28,2.55,2.55,0,0,0,1.23-.49,4.74,4.74,0,0,0,1-.15Zm.13,2.51a1.5,1.5,0,0,1-.86.25,1.58,1.58,0,0,1-.74-.13,3,3,0,0,0-.37,2.09,6.22,6.22,0,0,1,1.17-.25,1.1,1.1,0,0,0,.4-.58.67.67,0,0,1,.52-.46c0-.16-.08-.31-.12-.43A.8.8,0,0,1,113.89,49.22Z"/><path class="cls-1" d="M137.28,52.9a9.77,9.77,0,0,0,1.13-.06,2.9,2.9,0,0,1,1,.06,4,4,0,0,1,1,.43,1,1,0,0,0,1,.12.75.75,0,0,1,.37.22,1.42,1.42,0,0,0,.31.28.59.59,0,0,1,.39-.1l.4.1a1.61,1.61,0,0,0,1,.3.4.4,0,0,1,.49.25,1.51,1.51,0,0,1,.92.06,4.93,4.93,0,0,1,.92.31,1.5,1.5,0,0,1,.43.33.39.39,0,0,0,.49.1,1.18,1.18,0,0,0,.67.7,2.3,2.3,0,0,1,.8.58c.49.62.9,1.1,1.23,1.45a3.09,3.09,0,0,1,.49.58.84.84,0,0,0,.18.61,1.33,1.33,0,0,1,.25.31,2.14,2.14,0,0,0,.34.74.45.45,0,0,1,.15.18,1.41,1.41,0,0,1,.09.64.63.63,0,0,0,.34.59c-.08.33,0,.55.09.67s.15.37,0,.74a1.3,1.3,0,0,1,.22.31.46.46,0,0,0,.27.24,1.93,1.93,0,0,0,0,1,3.92,3.92,0,0,1,.16,1.08,19.32,19.32,0,0,1-.22,2.45,22.12,22.12,0,0,1-.46,2.46,1.63,1.63,0,0,0-.31.27,1,1,0,0,1-.36.28,3.53,3.53,0,0,1-.46,1.2,3.05,3.05,0,0,0-.46,1.19,3.83,3.83,0,0,0-.83.68,8.54,8.54,0,0,0-.65.79,4.57,4.57,0,0,1-.67.77,5.06,5.06,0,0,0-.68.77,1.75,1.75,0,0,1-.43.37.46.46,0,0,0-.18.06,2.94,2.94,0,0,0-.61.73.86.86,0,0,1-.19.31,6.09,6.09,0,0,0-1,.71,2.4,2.4,0,0,1-1.14.52,2,2,0,0,1-.73.46,1.89,1.89,0,0,0-.74.46,2.11,2.11,0,0,1-1.2.61.92.92,0,0,0-.76.43.8.8,0,0,0-.71.06,1.59,1.59,0,0,1-.64.31,7.59,7.59,0,0,0-2.33,0,1.28,1.28,0,0,0-.56.12.84.84,0,0,1-.55.06,3,3,0,0,1-1.26-.27,2,2,0,0,0-1.25-.16,5.14,5.14,0,0,0-1.32-.76,6.64,6.64,0,0,0-1.45-.4,2.73,2.73,0,0,0-1.35-1,3.87,3.87,0,0,0-.58-.62c-.31-.28-.64-.6-1-1s-.72-.65-1-.92a3.24,3.24,0,0,0-.68-.46c-.16-.29-.32-.55-.46-.8a2.59,2.59,0,0,0-.58-.67c-.09-.29-.17-.57-.25-.86a1.63,1.63,0,0,0-.43-.74,1.25,1.25,0,0,0-.06-.86,4.74,4.74,0,0,1-.31-.86,3.38,3.38,0,0,1-.06-1.1,2.12,2.12,0,0,0-.18-1.1.56.56,0,0,0,.21-.62c-.06-.24,0-.41,0-.49a2.73,2.73,0,0,0,.22-1.44,5,5,0,0,1,0-1.44.81.81,0,0,1,.09-.37,3,3,0,0,0,.16-.43,1.22,1.22,0,0,0,0-.46.72.72,0,0,1,.09-.46,7.49,7.49,0,0,0,.64-1.11,3.72,3.72,0,0,0,.22-.67c0-.41.1-.6.18-.58a.2.2,0,0,0,.19,0l1.13-1.39c.22-.26.46-.56.71-.89a20.38,20.38,0,0,1,1.44-1.56,14.79,14.79,0,0,1,1.62-1.44c.45-.33.75-.55.89-.68a2.06,2.06,0,0,0,.4-.43.65.65,0,0,0,.77-.21.66.66,0,0,1,.71-.28,1.45,1.45,0,0,0,.67-.55,5,5,0,0,0,1.23-.31,1.65,1.65,0,0,1,1.1-.09A1.44,1.44,0,0,0,137.28,52.9Zm-7.55,6.51a.88.88,0,0,1-.4.24,1,1,0,0,0-.4.25.49.49,0,0,1-.33.4c-.19.06-.24.23-.16.52,0,0-.18,0-.43.24l-.49.43a3.07,3.07,0,0,1-.55,1.38,4.23,4.23,0,0,0-.55.89,6.38,6.38,0,0,0-.46,1.63,9.54,9.54,0,0,0-.22,1.69,1.55,1.55,0,0,0,.06.4.68.68,0,0,1,0,.4,2,2,0,0,1-.18.82,2.4,2.4,0,0,0-.12,1.14,1.23,1.23,0,0,0,.12.4,1.11,1.11,0,0,1,.12.4c-.08.28-.09.47,0,.55a.4.4,0,0,1,.09.24,1,1,0,0,1,0,.43,2.21,2.21,0,0,0,0,.37,1.71,1.71,0,0,0,.5.77,1.08,1.08,0,0,1,.36.83c.17.2.32.4.46.58a2,2,0,0,1,.34.64,2.6,2.6,0,0,1,.77.74,1.1,1.1,0,0,0,1,.43c.08-.41,0-.68-.12-.83a1.67,1.67,0,0,1-.43-.64,1.24,1.24,0,0,0-.12-.77,3.47,3.47,0,0,1-.31-.71,3.81,3.81,0,0,1-.12-.92,1.42,1.42,0,0,0-.25-.79,2.34,2.34,0,0,0,.28-1.2q0-.58,0-1.2c.2-1.39.37-2.5.52-3.34s.27-1.62.4-2.33.18-1.12.18-1.2a1.05,1.05,0,0,1,.19-.34,1.06,1.06,0,0,0,.18-.33,9.36,9.36,0,0,0,.37-1.38c.08-.47.18-.93.3-1.39A2.58,2.58,0,0,1,130,59,.38.38,0,0,0,129.73,59.41Zm9.7,20a1,1,0,0,1,1-.31,1.1,1.1,0,0,0,.31-.33.63.63,0,0,1,.24-.28,3,3,0,0,1,.92-.31,11.94,11.94,0,0,0,1.32-.7,4.84,4.84,0,0,0,1.08-.89.49.49,0,0,0,.36-.12,2,2,0,0,0,.25-.31,2.52,2.52,0,0,1,.37-.43,2.07,2.07,0,0,1,.73-.43L147.13,74c.34-.43.72-.87,1.13-1.32a4.84,4.84,0,0,0,.74-1.47,4.84,4.84,0,0,1,.74-1.47,8.63,8.63,0,0,0,.43-.92,1.18,1.18,0,0,0,.12-.65,1.6,1.6,0,0,1,0-.64,2.18,2.18,0,0,1,.09-.83,2.6,2.6,0,0,0,.15-.28,2.72,2.72,0,0,0-.24-1.5,2.68,2.68,0,0,1-.37-.89c-.08-.45-.16-1-.25-1.5a1.6,1.6,0,0,0-.55-1.14.75.75,0,0,0-.06-.52,1.05,1.05,0,0,1-.12-.52,2.28,2.28,0,0,0-.49-.55.69.69,0,0,1-.19-.68,3.84,3.84,0,0,0-.73-.64c-.13-.07-.17-.2-.13-.4a4.51,4.51,0,0,1-.79-.46c-.33-.23-.66-.44-1-.65a5.28,5.28,0,0,0-1-.49,1.07,1.07,0,0,0-.86,0,1.54,1.54,0,0,0-.86-.4,9.77,9.77,0,0,1-1-.21.83.83,0,0,0-.64-.09.57.57,0,0,1-.4,0,1.77,1.77,0,0,1-.64-.37,1.84,1.84,0,0,0-.71-.37,1.71,1.71,0,0,0-.37.06,1.84,1.84,0,0,1-.43.06l-.43,0-.61-.06a2.52,2.52,0,0,0-.55,0c-.17,0-.25.09-.25.22a1.29,1.29,0,0,0-1-.07,3.32,3.32,0,0,1-1.11.19.6.6,0,0,0-.12.43v.49a1.72,1.72,0,0,0-.83.74,2.78,2.78,0,0,1-.76.85c0,.21,0,.35-.07.43a.38.38,0,0,0-.06.37,1,1,0,0,0-.58.55,5.69,5.69,0,0,0-.37,1,10.89,10.89,0,0,0-.24,1.07c-.07.35-.12.62-.16.83a2.78,2.78,0,0,0-.43,1.38,1.66,1.66,0,0,1-.06.77,2.83,2.83,0,0,0-.21.92.74.74,0,0,1,0,.36,1.28,1.28,0,0,0-.13.68c0,.08.09.16.13.25a7.32,7.32,0,0,0-.56,2.14,2.19,2.19,0,0,0,.1.65,1.4,1.4,0,0,1,0,.64.59.59,0,0,1-.1.34,1.52,1.52,0,0,0-.15.34,4.39,4.39,0,0,0,.12,1.81c.17.51.35,1.07.56,1.68a16.1,16.1,0,0,1,.73,2,1,1,0,0,1,.31.64v.4a2.63,2.63,0,0,0,.28.92.75.75,0,0,1,.09.55,7.13,7.13,0,0,1,.67.28c.21.1.43.19.68.28a5.63,5.63,0,0,0,1.07.15q.59,0,1.08.09a2.2,2.2,0,0,1,.49.15.83.83,0,0,0,.43.1,5.74,5.74,0,0,0,1.38-.19A3.28,3.28,0,0,1,139.43,79.41Z"/><path class="cls-1" d="M168.34,57.69a.85.85,0,0,1-.21.4.82.82,0,0,0-.22.4.85.85,0,0,1,0,.46c0,.22,0,.33.13.33a2.86,2.86,0,0,0-.25,1.57,11.8,11.8,0,0,1,0,1.69c.21.08.31,0,.31-.13a.4.4,0,0,1,.18-.36l.37-.25a1.39,1.39,0,0,1,.43-.18,6.71,6.71,0,0,0,1-1,1.46,1.46,0,0,1,.86-.52,1,1,0,0,1,.37-.46.91.91,0,0,0,.37-.46,1.92,1.92,0,0,0,.61-.18c.29-.13.58-.27.89-.43s.59-.33.86-.49l.58-.37a1.88,1.88,0,0,1,.65-.19,7,7,0,0,0,.7-.12,4.37,4.37,0,0,0,1.08-.15c.39-.1.72-.17,1-.22l.28,0,.36-.09.43-.12.28-.06a3.75,3.75,0,0,1,1.84.06,7.84,7.84,0,0,0,1.72.37,1.82,1.82,0,0,1,.49.4.74.74,0,0,0,.67.15.79.79,0,0,0,.43.43.73.73,0,0,1,.43.37,1.45,1.45,0,0,0,.43.58,1.05,1.05,0,0,1,.31.21c.2.29.33.42.37.4s.1,0,.18.1a.75.75,0,0,1,.16.42c0,.21.15.29.39.25a1.17,1.17,0,0,0,.43.92,3.29,3.29,0,0,1,.74.68,6.71,6.71,0,0,1,0,1.1,1.69,1.69,0,0,0,.28,1,9.35,9.35,0,0,0-.09,1,1.91,1.91,0,0,0,.09.89,2.58,2.58,0,0,1-.25.89c-.16.39-.14.67.06.83,0,.17,0,.44-.06.83s-.14.6-.3.65a2.61,2.61,0,0,1,0,1.13,3.48,3.48,0,0,1-.31,1.07c-.08.17-.07.28,0,.34s.11.18,0,.34a1.48,1.48,0,0,0-.31.7,1,1,0,0,1-.37.65.77.77,0,0,1,.07.52,1.6,1.6,0,0,0-.07.52,1.34,1.34,0,0,0,.13.59.54.54,0,0,1-.13.58,2.65,2.65,0,0,0-.27,1,3.16,3.16,0,0,0,0,.95,1.33,1.33,0,0,0,.67.34,6.39,6.39,0,0,0,.83.12,3.49,3.49,0,0,1,.71.12.36.36,0,0,1,.3.34,1.92,1.92,0,0,1,1,.49.54.54,0,0,1,0,.4,2.33,2.33,0,0,1-.27.55,4.17,4.17,0,0,1-.37.49.93.93,0,0,1-.31.28.88.88,0,0,1-1-.12,1.64,1.64,0,0,0-.95-.49.93.93,0,0,0-.34.06.88.88,0,0,1-.33.06.78.78,0,0,1-.5-.15.63.63,0,0,0-.55-.1c-.33,0-.64,0-1,0l-.95.1a4.56,4.56,0,0,1-.89,0,.87.87,0,0,1-.64-.34c-.25,0-.55.07-.89.09a6.14,6.14,0,0,1-1.05,0,3,3,0,0,1-1-.28,1.22,1.22,0,0,1-.64-.58,1.68,1.68,0,0,1,.21-.61,6.14,6.14,0,0,1,.4-.55,5.36,5.36,0,0,0,1.6,0c.24-.09.41-.09.52,0a.45.45,0,0,0,.27.12,8.88,8.88,0,0,1,1.41-.09,1.91,1.91,0,0,0,.86-.16.41.41,0,0,0,.13-.43c0-.16-.09-.32-.13-.49a.9.9,0,0,0,.49-.49c.09-.2,0-.37-.36-.49a2.33,2.33,0,0,0,.49-1,3.18,3.18,0,0,1,.43-1.08,2.09,2.09,0,0,1,.43-2,2.38,2.38,0,0,1,.12-1.32,8.62,8.62,0,0,0,.37-1.32q.12-.67.18-1.32a7.27,7.27,0,0,0,0-1.32,1.44,1.44,0,0,0-.06-.43.59.59,0,0,1,0-.37,3.21,3.21,0,0,1,.09-.82,2,2,0,0,0,0-.89,8.11,8.11,0,0,0-.58-1.72,4.67,4.67,0,0,0-1.08-1.47,5.08,5.08,0,0,0-.58-.43c-.18-.13-.38-.25-.58-.37l-.25-.25-.24-.24a1,1,0,0,0-.52-.13,1.35,1.35,0,0,1-.59-.12A1.68,1.68,0,0,1,181,59a1.84,1.84,0,0,0-.39-.16,1.5,1.5,0,0,0-.86,0,3.3,3.3,0,0,1-.74.25,11.69,11.69,0,0,1-1.66.15,1.86,1.86,0,0,0-1.47.65.62.62,0,0,0-.89,0,1.92,1.92,0,0,1-.89.43,10.75,10.75,0,0,0-1.59,1,5.54,5.54,0,0,0-.92.95,1.48,1.48,0,0,0-.8.92,1,1,0,0,0-.49.22,1.15,1.15,0,0,1-.43.21c-.29.45-.59.9-.89,1.35s-.63.88-1,1.29a1.74,1.74,0,0,0,.15.71,1.57,1.57,0,0,1,.15.64,1,1,0,0,1-.09.64,1.08,1.08,0,0,0-.09.65.69.69,0,0,0,.09.34.63.63,0,0,1,.09.33.4.4,0,0,1,0,.34.4.4,0,0,0,0,.34,1.35,1.35,0,0,0,.09.52,1.18,1.18,0,0,1,.1.52,1,1,0,0,1,0,.55.84.84,0,0,0,0,.62q.24.24.12.33a.62.62,0,0,0-.12.46l.12.77c0,.27.08.54.12.83,0,.49.1,1,.19,1.5a4.29,4.29,0,0,0,.49,1.45,1.38,1.38,0,0,0,0,1,1.81,1.81,0,0,1,0,1A.93.93,0,0,0,170,80a4.71,4.71,0,0,0,.92,0l.92-.06.74,0a1,1,0,0,0,.33.4,1.69,1.69,0,0,1,.4.4,1.31,1.31,0,0,1-.67.8,2.67,2.67,0,0,0-.86.67,2.57,2.57,0,0,1-.95.06,2.37,2.37,0,0,0-1,.07.9.9,0,0,0-.46.12.62.62,0,0,1-.46.06.94.94,0,0,1-.43-.09.87.87,0,0,0-.37-.09.48.48,0,0,0-.37,0l-.31.12a1.81,1.81,0,0,1-.89-.22,1.32,1.32,0,0,0-.82-.15,1.73,1.73,0,0,0-.53.09q-.27.09-.39-.21a3.23,3.23,0,0,0-.8.21,2.11,2.11,0,0,1-.8.16c-.41-.09-.62-.11-.64-.07a.19.19,0,0,1-.16.07,1.7,1.7,0,0,1-.46-.07,1.7,1.7,0,0,0-.46-.06,2.62,2.62,0,0,0-.83.13,5.93,5.93,0,0,1-.76.18,4.19,4.19,0,0,1-1,.12h-1a1.2,1.2,0,0,1-1.41-.27.85.85,0,0,1,.4-1.63,5.59,5.59,0,0,1,.83-.06,5.69,5.69,0,0,0,.83-.06,1.26,1.26,0,0,0,.7-.37q0-.61,0-1.14a7.32,7.32,0,0,0,0-1.13,9.22,9.22,0,0,0,.37-1.41,4.63,4.63,0,0,1,.25-1,2.16,2.16,0,0,0,.12-1.17,2.22,2.22,0,0,1-.12-.68c.2-1.1.34-2,.43-2.73s.16-1.44.24-2.17a2,2,0,0,1,.12-.65,1.7,1.7,0,0,0,.13-.64,2.73,2.73,0,0,1,.15-1.2c.14-.39.11-.66-.09-.83a1.44,1.44,0,0,0,0-.77c-.06-.1,0-.27.21-.52a8.26,8.26,0,0,1,.16-2.3,8.06,8.06,0,0,0,.21-1.87,3.92,3.92,0,0,0-1.47.15,6,6,0,0,1-1.41.28,1.65,1.65,0,0,1-.92.37,4,4,0,0,1-1,0,.75.75,0,0,1-.31-.43,2,2,0,0,0-.19-.49c-.24-.08-.33-.22-.27-.4a.32.32,0,0,0-.09-.4.73.73,0,0,1,.64-.4,1.43,1.43,0,0,0,.65-.09,2.46,2.46,0,0,0,.85-.22.54.54,0,0,1,.31-.09,6.41,6.41,0,0,1,1.23-.12,7.38,7.38,0,0,0,1.29-.12,2.51,2.51,0,0,0,.46-.16,3,3,0,0,0,.4-.21,3.58,3.58,0,0,1,1.32-.28,1.38,1.38,0,0,0,1.13-.52l.37.09a.86.86,0,0,0,.43-.09,4.47,4.47,0,0,1,.92-.31,3.94,3.94,0,0,1,1.07-.09,1.77,1.77,0,0,1,.92.31A1.13,1.13,0,0,1,168.34,57.69Zm-4.17,1.47a2.77,2.77,0,0,0-.49,1.69,11.09,11.09,0,0,1-.12,1.75.76.76,0,0,1-.1.37.8.8,0,0,0-.09.36,2.5,2.5,0,0,0,.19,1.66c-.33.21-.42.44-.28.71a.82.82,0,0,1,.09.7,4.23,4.23,0,0,0-.33,1.41c0,.45-.08.92-.16,1.42,0,.24-.08.48-.12.7s-.08.46-.12.71a2.72,2.72,0,0,0,.06.58.77.77,0,0,1-.06.52c-.09.21-.11.35-.06.43a.89.89,0,0,1,.06.37,2.88,2.88,0,0,1-.1,1.1,2.58,2.58,0,0,0-.09,1c.08.25.06.43-.06.53a.3.3,0,0,0-.06.4q-.18.3-.06.39a.71.71,0,0,1,.18.4,1.82,1.82,0,0,0-.34.34,3.47,3.47,0,0,0-.27.46,2.48,2.48,0,0,1,0,.77l-.12.67a5.28,5.28,0,0,0-.1.71,2.12,2.12,0,0,0,.1.8,3.72,3.72,0,0,1,.55,0,.77.77,0,0,0,.49-.16A2,2,0,0,0,164,80a3,3,0,0,1,1-.18,2.52,2.52,0,0,1,.89.15,1,1,0,0,0,.83,0,4.79,4.79,0,0,0,0-1.41c-.06-.45-.13-.9-.22-1.35a.87.87,0,0,1,0-.4,2.8,2.8,0,0,0,0-.4c-.16-.45-.2-.71-.12-.79a1.43,1.43,0,0,1-.31-.74c0-.21,0-.42,0-.65s0-.42.07-.61a1.32,1.32,0,0,1,.09-.4,2.32,2.32,0,0,1-.31-1,8.81,8.81,0,0,1-.06-1,1.77,1.77,0,0,0-.06-.8,2.53,2.53,0,0,1-.12-.8.66.66,0,0,1,0-.46,1.14,1.14,0,0,0,.09-.46,1.66,1.66,0,0,0-.15-.33.61.61,0,0,1-.1-.34,4.22,4.22,0,0,0,0-1.57,4.86,4.86,0,0,1-.21-1,1,1,0,0,1,.06-.34.88.88,0,0,0,.06-.33,2.63,2.63,0,0,0,0-.43.77.77,0,0,1,0-.37c0-.2.08-.38.12-.52s.08-.32.13-.52a2.53,2.53,0,0,0-.13-.8,2.58,2.58,0,0,1-.12-.8,5.92,5.92,0,0,1,.09-1c.06-.35.11-.71.16-1.08-.33-.2-.6-.23-.8-.09A.73.73,0,0,1,164.17,59.16Z"/><path class="cls-1" d="M219.29,78.31l.77.24a1.79,1.79,0,0,0,.82.06,2.6,2.6,0,0,1,.83,0l.28.13a5.31,5.31,0,0,0,1.47.06,2,2,0,0,1,1.41.3c.13.09.13.21,0,.37s0,.27.22.31c-.08.2-.18.31-.28.31h-.46a5,5,0,0,0-.86.64l-.24.28a12.39,12.39,0,0,1-1.32.18,4.77,4.77,0,0,1-1.32-.06l-.43-.12-.37-.13a6.46,6.46,0,0,0-1,.1l-1.35.18-1.29.15-.64.06c-.25-.08-.4-.09-.46,0a.69.69,0,0,1-.22.16,1.13,1.13,0,0,1-.52,0,1.13,1.13,0,0,0-.52,0,2.19,2.19,0,0,0-.83.3,1.1,1.1,0,0,1-.89.13,1.06,1.06,0,0,1-.7-.52,4.37,4.37,0,0,0-.47-.71,13.59,13.59,0,0,1,0-3.13q-.3-.06-.39.06c-.07.08-.16.19-.28.31a1.36,1.36,0,0,0-.58.27,2.2,2.2,0,0,1-.34.28,1.64,1.64,0,0,1-.4.25,1.39,1.39,0,0,0-.4.24c-.16.21-.31.3-.43.28s-.16.11-.12.4a1.1,1.1,0,0,0-.71.12c-.22.12-.44.22-.64.31a4.8,4.8,0,0,1-.77.18,4.68,4.68,0,0,0-.76.18,2.43,2.43,0,0,0-.37.16l-.43.21a1.37,1.37,0,0,1-.49,0,1.34,1.34,0,0,0-.49,0c-.17,0-.31.09-.43.13l-.37.12a8.3,8.3,0,0,0-1,.31,2,2,0,0,1-1.08.06,1.58,1.58,0,0,1-.55-.25c-.08-.08-.21-.08-.37,0a2.66,2.66,0,0,0-1.72-.8,4.25,4.25,0,0,0-1.19-.92,4.08,4.08,0,0,1-1.2-.92c-.16-.45-.34-.93-.52-1.44a8,8,0,0,1-.4-1.5,1.26,1.26,0,0,0-.18-.62.38.38,0,0,1-.13-.3.49.49,0,0,1,0-.34,1.62,1.62,0,0,1,.13-.34v-.86a1.15,1.15,0,0,1,.3-.73,2.1,2.1,0,0,1,.09-1.17,4.19,4.19,0,0,0,.28-1.16,2.53,2.53,0,0,0,.68-1.48.7.7,0,0,0,.46-.3,5.25,5.25,0,0,1,.33-.49,2.38,2.38,0,0,1,.43-.34.5.5,0,0,0,.25-.46c.41-.13.62-.23.64-.31a.48.48,0,0,1,.16-.24,2.12,2.12,0,0,0,.61-.43c0-.09.14-.11.31-.07a1.11,1.11,0,0,1,.61-.61,1.11,1.11,0,0,0,.61-.61.48.48,0,0,1,.34.09c.06.06.19.07.4,0a4,4,0,0,0,.77-.4l.21-.21a6.25,6.25,0,0,1,1.47-.62c.58-.16,1.09-.28,1.54-.37.2-.08.41-.15.61-.21s.41-.11.62-.15a3.84,3.84,0,0,1,1.13-.1,1.74,1.74,0,0,0,1.07-.27,2,2,0,0,1,.74.24.75.75,0,0,0,.74,0,1.22,1.22,0,0,0,1,.56,2.33,2.33,0,0,1,1.14.36,2.48,2.48,0,0,0,0-1.59,4.93,4.93,0,0,1-.27-1.6,3,3,0,0,1,0-.4.84.84,0,0,0,0-.39c0-.41,0-.63-.09-.65a.29.29,0,0,1-.16-.15,1.67,1.67,0,0,1-.06-.8,1.67,1.67,0,0,0-.06-.8,2.41,2.41,0,0,0-.15-.43.82.82,0,0,1-.1-.37,2.76,2.76,0,0,1-.58-.24,1,1,0,0,0-.64-.12,4.48,4.48,0,0,1-1.72-.07,1.76,1.76,0,0,0-1.35.19,1.19,1.19,0,0,0-1,0,.41.41,0,0,1-.4,0,.57.57,0,0,0-.4,0,1.75,1.75,0,0,0-.34.15l-.34.22a3.19,3.19,0,0,1-.92.09c-.24,0-.51.17-.79.58a2.6,2.6,0,0,0-1.26.49,4.11,4.11,0,0,1-1.14.62,3.78,3.78,0,0,0-.89,1.16,5.42,5.42,0,0,1-.83,1.23,1.08,1.08,0,0,1-.12.92,1.27,1.27,0,0,0-.24.8,9.23,9.23,0,0,1-1.23-.25.93.93,0,0,1-.8-.86.74.74,0,0,1,.12-.55l.31-.49c.33-.65.63-1.31.92-2a5.12,5.12,0,0,1,1.23-1.72,1.77,1.77,0,0,0,.95-.28,1.57,1.57,0,0,0,.64-.64.71.71,0,0,0,.92-.43,1.67,1.67,0,0,0,1-.34,1.08,1.08,0,0,1,.95-.21,1.53,1.53,0,0,1,.52-.46.91.91,0,0,1,.4-.1.74.74,0,0,1,.31.07.26.26,0,0,0,.24,0,1.94,1.94,0,0,1,.64-.19.77.77,0,0,0,.53-.24,1.46,1.46,0,0,0,1,.09,1,1,0,0,1,.92.15.92.92,0,0,1,.67-.24,10.2,10.2,0,0,1,2.06.27,21.93,21.93,0,0,0,2.3.4,4.48,4.48,0,0,0,1,.74,2.21,2.21,0,0,0,1.2.18q.67.68,1.35,1.38t1.41,1.38a2.14,2.14,0,0,0,.28,1.14c.18.3.31.46.4.46a1.14,1.14,0,0,0,.55,1.1,4.36,4.36,0,0,0,.49,1.54,3.06,3.06,0,0,1,.31,1.65c0,.25.06.38.18.4s.18.14.18.34l-.12,1.56a11.08,11.08,0,0,0,0,1.63,2.05,2.05,0,0,0,.06.49,2.38,2.38,0,0,1,.06.55,4.69,4.69,0,0,0-.24,2,4.17,4.17,0,0,1,0,1.41,2.26,2.26,0,0,1-.06,1,1.23,1.23,0,0,0-.19.49,3.26,3.26,0,0,0,.06.62,3.17,3.17,0,0,1,.07.61,1.34,1.34,0,0,1-.22.71.47.47,0,0,0,.09.64,1.6,1.6,0,0,0-.3.8A1.43,1.43,0,0,0,219.29,78.31Zm-7.36-11a2.87,2.87,0,0,1-1-.92c-.08-.41-.18-.61-.3-.61a.68.68,0,0,1-.31-.06c-.37-.37-.59-.53-.68-.49a.26.26,0,0,1-.24,0,1.12,1.12,0,0,0-.71-.19,1.44,1.44,0,0,1-.4.06,4.25,4.25,0,0,0-2,.19,2.52,2.52,0,0,1-1.41.18,1.29,1.29,0,0,1-1,.43,1.25,1.25,0,0,0-1.05.49,1.44,1.44,0,0,0-.64.13,2.43,2.43,0,0,0-.52.3c-.17.12-.32.23-.46.31a.5.5,0,0,1-.4.06,1.61,1.61,0,0,1-.55.61c-.25.17-.5.32-.74.46a4.91,4.91,0,0,0-.68.49,1.6,1.6,0,0,0-.43.71c-.41.37-.7.66-.89.86a2.3,2.3,0,0,0-.58,1.47.93.93,0,0,1-.37.74.49.49,0,0,1,.1.58,1.87,1.87,0,0,0-.22.58,1.06,1.06,0,0,0,0,.5.42.42,0,0,1-.12.42,10.72,10.72,0,0,1,.61,1.54,6.94,6.94,0,0,0,.68,1.53,2.38,2.38,0,0,1,.52.31.87.87,0,0,0,.58.18,3.46,3.46,0,0,0,1.72.92,3.83,3.83,0,0,0,2,0,4.07,4.07,0,0,1,1.66-.58,1.4,1.4,0,0,0,1-.34.37.37,0,0,0,.61,0,3.62,3.62,0,0,1,.5-.46.65.65,0,0,0,.67-.21.57.57,0,0,1,.61-.22c.25-.36.42-.55.53-.55a.61.61,0,0,0,.33-.12,3.83,3.83,0,0,0,.83-.68,2.88,2.88,0,0,1,.83-.61,1.92,1.92,0,0,1,.92-1.35h.34a.49.49,0,0,0,.34-.12c0-.25.08-.48.12-.71s.08-.44.12-.64,0-.52-.06-1a1.86,1.86,0,0,1,.06-.89,3.56,3.56,0,0,0,.15-1.84A3,3,0,0,1,211.93,67.32ZM214,60.7A9.58,9.58,0,0,1,214,62c0,.27,0,.57,0,.89a1,1,0,0,1,.15.4,1.09,1.09,0,0,0,.16.4c0,.82-.08,1.43-.12,1.84a10.14,10.14,0,0,0-.07,1.23,8.08,8.08,0,0,0,0,1.2c0,.39,0,.8,0,1.25,0,.17,0,.4,0,.71a1,1,0,0,1-.21.64l.24.8-.24.92c-.08.58-.2,1.16-.34,1.75a7.86,7.86,0,0,0-.21,1.81.62.62,0,0,0,0,.43,1,1,0,0,1,.09.43,3.41,3.41,0,0,1-.12.92,1.6,1.6,0,0,0,0,.92.85.85,0,0,0,.33.37.44.44,0,0,1,.22.43,3.43,3.43,0,0,0,1.72-.19.82.82,0,0,1,.52-.06.83.83,0,0,0,.52-.06,1,1,0,0,1-.06-.49,1.56,1.56,0,0,1,.06-.55,4.66,4.66,0,0,1,.15-.71.12.12,0,0,0,0-.09,8.8,8.8,0,0,0,.37-2.58,23.51,23.51,0,0,1,.13-2.57q.06-.61.09-1.2t0-1.2a1.11,1.11,0,0,0,0-.67.48.48,0,0,1,0-.37.69.69,0,0,1,.09-.34.63.63,0,0,0,.09-.33.68.68,0,0,0-.09-.53.65.65,0,0,1-.09-.52.8.8,0,0,0,.21-1,1.71,1.71,0,0,1-.21-1,3.17,3.17,0,0,1-.16-1,1,1,0,0,0-.09-.53A.93.93,0,0,0,217,63a.52.52,0,0,1-.19-.28,1.88,1.88,0,0,0,0-.67,6.63,6.63,0,0,1-.73-1.2l-.62-1.29a5.11,5.11,0,0,0-.76-1.17,3.4,3.4,0,0,0-1.14-.82,4.19,4.19,0,0,0,.06,1.59C213.7,59.65,213.85,60.16,214,60.7Z"/><path class="cls-1" d="M239.37,62.41a1.12,1.12,0,0,0,.92-.79l.67-.37a1.33,1.33,0,0,0,.31-.49.76.76,0,0,1,.37-.43,1.62,1.62,0,0,0,.58-.4,1.42,1.42,0,0,1,.22-.28,1,1,0,0,1,.33-.21.26.26,0,0,0,.16-.34.64.64,0,0,0,.67-.61c.45-.29.76-.47.92-.56a.55.55,0,0,0,.31-.43,2.14,2.14,0,0,0,.61-.15,5.32,5.32,0,0,0,.89-.4l.92-.46a3.78,3.78,0,0,1,.77-.27,1.57,1.57,0,0,1,.61,0,.56.56,0,0,0,.56-.25,1.94,1.94,0,0,0,.7.25.6.6,0,0,1,.52.36,1,1,0,0,1,.5,0,2.53,2.53,0,0,1,.33.16,1.75,1.75,0,0,0,.34.15,1,1,0,0,0,.49,0,3.37,3.37,0,0,0,.34.49.5.5,0,0,0,.52.12.33.33,0,0,0,.28.37c.18,0,.25.19.21.43a3,3,0,0,1,.31.25.75.75,0,0,0,.37.18,2.55,2.55,0,0,0,.24,1.32,3,3,0,0,1,.31,1.32,2.62,2.62,0,0,1-.06,1,.62.62,0,0,0,.43.77,5.42,5.42,0,0,0-.43,1.59,2.81,2.81,0,0,1-1.38.19,1.27,1.27,0,0,1-1.14-.68,7.38,7.38,0,0,0,.34-1.53,5.35,5.35,0,0,0,0-1,.74.74,0,0,0-.09-.31,1.73,1.73,0,0,1-.16-.37,6.17,6.17,0,0,1-.15-.76,1.34,1.34,0,0,0-.12-.46,1.16,1.16,0,0,0-.34-.37,4,4,0,0,0-.74-.43,2.76,2.76,0,0,1-.49-.25.64.64,0,0,0-.55,0,1,1,0,0,0-1.11-.34l-1.16.46c-.21.09-.43.17-.68.25a1,1,0,0,0-.55.43,1.87,1.87,0,0,0-1,.46,1.76,1.76,0,0,1-.71.46,2.08,2.08,0,0,1-.52.64,1,1,0,0,0-.27.28c-.17.29-.27.43-.31.43s-.1,0-.19.12a2.85,2.85,0,0,1-.36.74.65.65,0,0,0-.19.31.45.45,0,0,1-.33.12.45.45,0,0,0-.34.12.91.91,0,0,0-.46.37.69.69,0,0,1-.46.31,1,1,0,0,0-.34.49.54.54,0,0,1-.15.3c-.41.41-.62.72-.62.92a.72.72,0,0,1-.3.56c0,.2,0,.31-.19.33a.74.74,0,0,0-.37.16,8.7,8.7,0,0,1,0,2.7A10.55,10.55,0,0,0,239,72q.06.18.12.33c0,.11.09.22.13.34a1.23,1.23,0,0,1,0,.46,3.44,3.44,0,0,0,0,.46,1.31,1.31,0,0,0,.09.52,3,3,0,0,1,.15.52.9.9,0,0,1-.06.34,1,1,0,0,0-.06.34,4.72,4.72,0,0,0,.31,1.69,2.26,2.26,0,0,1,0,1.62.62.62,0,0,0,.36.06,4.29,4.29,0,0,0,.62,0,3.29,3.29,0,0,0,.61-.12,1.07,1.07,0,0,0,.37-.15c.33-.21.53-.22.61,0s.23.19.43,0l.43.61a1.56,1.56,0,0,1,.19.65.73.73,0,0,1-.16.46q-.15.18-.33.36a.9.9,0,0,0-.25.43h-.4c-.18,0-.28.09-.28.25-.61-.16-1-.21-1.07-.12a.62.62,0,0,1-.4.12l-.67-.25a1.56,1.56,0,0,0-.74-.06c-.53,0-.85,0-.95-.09a.55.55,0,0,0-.4-.15,4.72,4.72,0,0,0-1.59,0l-1.6.24a5.22,5.22,0,0,1-.58,0,2,2,0,0,0-.59,0,1.9,1.9,0,0,0-.58.09,1.61,1.61,0,0,1-.58.1,3.08,3.08,0,0,1-.68-.13,3.93,3.93,0,0,0-.92.1,1.18,1.18,0,0,1-.86-.16,4.7,4.7,0,0,1-2.63,0,4,4,0,0,0-.31-.58.58.58,0,0,1-.06-.58,1.09,1.09,0,0,1,.73-.68,4.31,4.31,0,0,1,1-.12c.34,0,.68,0,1,0a1.4,1.4,0,0,0,.8-.15.58.58,0,0,0,.12-.4v-.4a.76.76,0,0,0,.43-.49c.08-.25.16-.47.24-.68a8.11,8.11,0,0,0,.43-1.81c.09-.63.17-1.23.25-1.81a3.59,3.59,0,0,1,.15-.37.71.71,0,0,0,.09-.3,2.93,2.93,0,0,1,0-1.29,2.54,2.54,0,0,0,.16-.92,4.84,4.84,0,0,0,0-.92,3,3,0,0,1,.09-.92l.22-.34a1.52,1.52,0,0,0,.15-.34,7.47,7.47,0,0,0,.09-1.5,4.83,4.83,0,0,1,.15-1.44c.17-.41.22-.67.16-.77a.29.29,0,0,1,0-.28,3.13,3.13,0,0,0,.3-1.1,2.06,2.06,0,0,0,0-.74,3.23,3.23,0,0,1,.1-.46c.06-.26.12-.57.18-.92s.12-.67.18-1a3.37,3.37,0,0,0,.1-.71c-.21,0-.66.13-1.35.25l-2.18.4a19,19,0,0,0-2,.49c-.59.18-.91.34-.95.46a.68.68,0,0,0-.49-.15,4,4,0,0,1-.49,0,1.67,1.67,0,0,1-.52-.09,1.11,1.11,0,0,1-.52-.46c-.09-.58,0-.91.12-1a.67.67,0,0,0,.31-.46,12,12,0,0,0,2.67-.52,12.35,12.35,0,0,1,2.6-.52,9.85,9.85,0,0,0,1.69-.4l1.14-.4a1.28,1.28,0,0,1,.61-.09.39.39,0,0,0,.43-.28c.65.13,1,0,1.17-.24a2.29,2.29,0,0,0,1.68-.16,2.51,2.51,0,0,1,1.75-.15l.12.37a.29.29,0,0,0,.31.18,1.19,1.19,0,0,0-.15,1,.87.87,0,0,1-.28,1c.08.08.08.29,0,.64a1,1,0,0,0,0,.71,1.94,1.94,0,0,1-.18.86,1.79,1.79,0,0,0-.19.86,1.7,1.7,0,0,0,.13.64A1.9,1.9,0,0,1,239.37,62.41Zm-2.88-4.11c-.05.13-.1.25-.16.37a2.16,2.16,0,0,0-.15.43.78.78,0,0,0-.12.74.8.8,0,0,1,0,.61,1.45,1.45,0,0,0-.5,1.14,5.83,5.83,0,0,1-.12,1.25,2.52,2.52,0,0,1-.15.52,2.83,2.83,0,0,0-.15.53,4.12,4.12,0,0,0-.13,1.19,4.19,4.19,0,0,0,.13,1.2,4,4,0,0,0-.5,1.84,6.57,6.57,0,0,0,.13,1.9,4.41,4.41,0,0,0-.43.74c0,.16,0,.46,0,.89a5.09,5.09,0,0,1-.1.89,2.06,2.06,0,0,0-.18.89.74.74,0,0,1,.06.27,2.64,2.64,0,0,1-.24.86.82.82,0,0,0,.12.86,2.87,2.87,0,0,0-.43.68.78.78,0,0,1,0,.64,2.07,2.07,0,0,0-.22.65,1.36,1.36,0,0,1-.24.7.27.27,0,0,0,0,.4.47.47,0,0,0,.43.15,1.83,1.83,0,0,0,.46-.12,1.75,1.75,0,0,1,.37-.12q.15,0,.15.09a1.46,1.46,0,0,1,.64-.12h2.18a3.77,3.77,0,0,1,0-1,3.78,3.78,0,0,0,0-1,1.4,1.4,0,0,0-.09-.53,1.31,1.31,0,0,1-.09-.52,8.58,8.58,0,0,0-.22-2.54,5.88,5.88,0,0,1-.15-2.12,1.1,1.1,0,0,1,.09-.49,2.15,2.15,0,0,0,.16-.43,4.8,4.8,0,0,0,0-1.2,6.67,6.67,0,0,1-.1-1.19,17.18,17.18,0,0,1,0-2c0-.65.09-1.33.13-2q.06-1.29.18-2.55a13.58,13.58,0,0,0,0-2.55Z"/><path class="cls-1" d="M273.44,55.17c0,.29.07.55.09.77a1.36,1.36,0,0,1-.21.77c-.29.08-.55.14-.77.18a2.59,2.59,0,0,0-.83.37.57.57,0,0,1-.49,0,.4.4,0,0,0-.49.21.46.46,0,0,1-.43-.06.42.42,0,0,0-.37-.06,5.72,5.72,0,0,1-1.81.25,4,4,0,0,0-1.19.06,4.91,4.91,0,0,0,0,.55,8.31,8.31,0,0,0,.12.92c.06.33.12.64.18.92a6.4,6.4,0,0,0,.16.62,1.87,1.87,0,0,0,.18.52l.25.46c.08.24.17.53.27.86a2.44,2.44,0,0,0,.4.79,7.13,7.13,0,0,0,.68.71l.36.28c.13.41.26.82.4,1.22a3.45,3.45,0,0,0,.65,1.11c0,.08,0,.25.09.52l.34.92c.12.35.24.67.36,1a2.11,2.11,0,0,0,.31.55,1.25,1.25,0,0,1,0,.49.52.52,0,0,0,.09.43,2.26,2.26,0,0,0,.34.56c.14.16.3.32.46.49a1.05,1.05,0,0,0,.12.52,5,5,0,0,1,.25.46c.25.24.36.43.34.55a.51.51,0,0,0,.09.37c.24.33.47.61.67.86a7.11,7.11,0,0,1,.62.86,1.84,1.84,0,0,1,.27-.34,1.81,1.81,0,0,0,.28-.34,1.05,1.05,0,0,0,.15-.49.31.31,0,0,1,.34-.31.57.57,0,0,1,.06-.46c.08-.1.08-.25,0-.46a.42.42,0,0,0,.37-.36.54.54,0,0,1,.37-.43,1.52,1.52,0,0,1,.24-.86,3.84,3.84,0,0,0,.43-.86,2.53,2.53,0,0,0,.22-.89,3.4,3.4,0,0,1,.21-.95A1.76,1.76,0,0,1,278,68a1.65,1.65,0,0,0,.31-.49,1.09,1.09,0,0,0,.15-.46.46.46,0,0,1,.28-.4,4.33,4.33,0,0,1,.4-1.23c.18-.37.35-.78.52-1.23.32-.86.69-1.75,1.1-2.7a9.05,9.05,0,0,0,.74-2.33,2.89,2.89,0,0,0-1.84,0,4.91,4.91,0,0,1-1.84.25,1.29,1.29,0,0,1-.43-.59,2.79,2.79,0,0,0-.37-.64,1.05,1.05,0,0,0,.21-.31.8.8,0,0,1,.28-.3l.67-.31a.66.66,0,0,1,.4,0,1.14,1.14,0,0,0,.52,0c.45-.16.71-.22.77-.18a.38.38,0,0,0,.22.06,1.7,1.7,0,0,0,.76-.16,2.89,2.89,0,0,1,.77-.21,1.19,1.19,0,0,1,.37.06,1.35,1.35,0,0,0,.43.06,2.19,2.19,0,0,1,1,0,.45.45,0,0,0,.55-.18,1.47,1.47,0,0,0,1,.24,6.21,6.21,0,0,0,1-.06,1.22,1.22,0,0,1,.46.09.66.66,0,0,0,.46,0,3.81,3.81,0,0,1,.92-.27l.64-.06,1-.1c.4.17.64.22.7.16a.18.18,0,0,1,.22,0,.43.43,0,0,1,.36.15c.09.1.27.11.56,0a1.71,1.71,0,0,0,.46.77.67.67,0,0,1,.09.83.81.81,0,0,1-.71.24.92.92,0,0,0-.76.25,1.36,1.36,0,0,1-.8,0,2.58,2.58,0,0,0-.8-.13.67.67,0,0,0-.34.1,1.66,1.66,0,0,1-.33.15.9.9,0,0,1-.34-.09.42.42,0,0,0-.34,0,2.87,2.87,0,0,0-1,.15,2.11,2.11,0,0,1-1.08,0,1.22,1.22,0,0,1-.46-.09.54.54,0,0,0-.46,0c-.53.12-.79.37-.79.74a2.38,2.38,0,0,1-.25,1,2,2,0,0,1-.34.58,2.46,2.46,0,0,0-.33.59,3.18,3.18,0,0,0-.25,1,1,1,0,0,1-.55.83v.79a4.07,4.07,0,0,0-.55.89,1.62,1.62,0,0,0-.13,1.08c-.24,0-.35.14-.3.3a.68.68,0,0,1-.07.5,1.42,1.42,0,0,0-.36.55.55.55,0,0,1-.07.24,3.44,3.44,0,0,0-.49.74c-.08.2-.16.43-.24.67s-.17.49-.25.71a4.42,4.42,0,0,1-.18.46,1.15,1.15,0,0,0-.09.55.78.78,0,0,1-.1.49,2.62,2.62,0,0,0-.55.92c-.08.29-.16.56-.24.8l-.25.34a3.33,3.33,0,0,0-.24.34,3.41,3.41,0,0,0-.16.76c-.06.43-.09.69-.09.77a.77.77,0,0,0-.37.55A3.38,3.38,0,0,1,277,77a.79.79,0,0,1-.22.4.81.81,0,0,0-.21.4.78.78,0,0,0-.09.46,1.23,1.23,0,0,1,0,.46c-.13.45-.28.9-.46,1.35a2.51,2.51,0,0,0-.16,1.41l-.43.55a2.06,2.06,0,0,0-.18.89c0,.1,0,.19-.25.28a3.29,3.29,0,0,1-.3,1.16,6.16,6.16,0,0,1-.62,1,1.94,1.94,0,0,1-.24,1,9.28,9.28,0,0,0-.55.92,3.14,3.14,0,0,1-.46,1.41,2.91,2.91,0,0,0-.46,1.41c0,.2-.12.31-.22.31a.36.36,0,0,0-.28.18,2,2,0,0,1-.21,1,1.62,1.62,0,0,0-.09,1.08A2,2,0,0,1,272,93a.57.57,0,0,0,.18.16c.45-.17.68-.23.68-.19s0,.06.12.06l.8,0c.28,0,.55,0,.8-.09a3.87,3.87,0,0,0,.67-.21,1.31,1.31,0,0,1,1.84.64.92.92,0,0,0-.24.43c-.05.16-.19.22-.43.18,0,.21-.15.38-.43.53a1.67,1.67,0,0,0-.62.46l-.79.24a3.31,3.31,0,0,1-1.08.06,9.33,9.33,0,0,0-1.07-.06q-.61,0-1.23.06T270,95.3a2.12,2.12,0,0,1-.49-.06,2.05,2.05,0,0,0-.49-.06,2.7,2.7,0,0,1-.92.06,1.15,1.15,0,0,0-.37-.06c-.69,0-1.41,0-2.14.06a13.57,13.57,0,0,1-2.21-.06,1.7,1.7,0,0,0-.19-.27,2.32,2.32,0,0,0-.24-.28.88.88,0,0,1-.06-1,2,2,0,0,1,.85-.68,1.23,1.23,0,0,0,.89.15,3.08,3.08,0,0,1,1,0,.7.7,0,0,1,.36.1,2.41,2.41,0,0,0,.43.15,5.58,5.58,0,0,1,1.08-.09,1.61,1.61,0,0,0,.52,0,1.41,1.41,0,0,0,.95-.77,5.29,5.29,0,0,0,.4-1.2,3.59,3.59,0,0,1,.15-.37q.09-.18-.15-.3a1.11,1.11,0,0,1,.34-.49,1.5,1.5,0,0,0,.33-.43,9.69,9.69,0,0,1,.34-1.2,5.59,5.59,0,0,1,.52-1.07A.82.82,0,0,1,271,87a1,1,0,0,0,.15-.31,2.27,2.27,0,0,0,.15-.61,1.33,1.33,0,0,1,.22-.61,5.62,5.62,0,0,0,.27-.74,1.64,1.64,0,0,1,.28-.61c.16-.41.29-.62.37-.62a2.64,2.64,0,0,0,.12-.83,1,1,0,0,1,.31-.76,6.54,6.54,0,0,0-.68-.59c-.24-.18-.47-.35-.67-.52a.51.51,0,0,1-.13-.4V80a8.46,8.46,0,0,0-.61-1.13c-.24-.39-.47-.77-.67-1.14a2.26,2.26,0,0,0-.62-.79,4.94,4.94,0,0,1-.73-.8l-.28-.28-.28-.27c-.2-.45-.33-.67-.4-.65a.27.27,0,0,1-.21,0,1.78,1.78,0,0,1-.12-.4.79.79,0,0,0-.19-.4l-.24-.24-.25-.25a1.91,1.91,0,0,1-.43-.73.41.41,0,0,0-.12-.31c-.37-.29-.54-.45-.52-.49s0-.1,0-.19c-.25-.16-.37-.29-.37-.4a.37.37,0,0,0-.12-.27,1,1,0,0,0-.4-.4.91.91,0,0,1-.4-.4,2.12,2.12,0,0,0-.28-.74.45.45,0,0,1-.15-.18,2.32,2.32,0,0,1-.31-.67.54.54,0,0,0-.06-.25,4,4,0,0,0-.52-.77,2.22,2.22,0,0,0-.71-.58,3.26,3.26,0,0,0-.33-.71,1.17,1.17,0,0,0-.59-.46,11.11,11.11,0,0,0-.58-1.44,4.44,4.44,0,0,0-.89-1.26,4.56,4.56,0,0,0-.27-.95c-.19-.51-.4-1.05-.65-1.62s-.48-1.1-.7-1.57a4.19,4.19,0,0,0-.47-.83,7.78,7.78,0,0,0-1.22.25,6,6,0,0,0-1.17.49.9.9,0,0,1-.4-.21l-.27-.28a1.32,1.32,0,0,1-.49-.8c0-.2.2-.43.61-.67.2-.25.4-.35.58-.31a.42.42,0,0,0,.4-.06,1.75,1.75,0,0,0,.34-.15,2.09,2.09,0,0,1,.27-.16,4.31,4.31,0,0,1,1-.12,4.29,4.29,0,0,0,1-.12,2.33,2.33,0,0,1,1.2-.31,1.62,1.62,0,0,0,.76-.06,4.59,4.59,0,0,1,2.15-.28,14.31,14.31,0,0,0,1.6.22,6.54,6.54,0,0,0,1.62-.19,4.14,4.14,0,0,1,1.57-.06c.28,0,.45,0,.49-.18s.16-.23.37-.19a3.92,3.92,0,0,0,1.29.06c.45,0,.88-.09,1.31-.15s.86-.1,1.29-.12A2.67,2.67,0,0,1,273.44,55.17Zm-13.13,2.76a.93.93,0,0,1,.12.5.59.59,0,0,0,.12.42.89.89,0,0,1,.28.62,1,1,0,0,0,0,.43,1.45,1.45,0,0,1,.43.61,2.22,2.22,0,0,0,.18.49,4.38,4.38,0,0,0,.46.89c.19.27.38.55.59.83s.21.49.27.49a.19.19,0,0,1,.16.12.44.44,0,0,0,.12.46.55.55,0,0,1,.12.53c.25,0,.38,0,.4.15a3.84,3.84,0,0,1,0,.52c.21,0,.32.11.34.22a1.66,1.66,0,0,0,.15.39,1.53,1.53,0,0,1,.43.62,1.27,1.27,0,0,0,.25.49,1.63,1.63,0,0,0,.27.31,1.15,1.15,0,0,1,.28.3c.2.25.39.47.55.68a.66.66,0,0,1,.12.67,6.12,6.12,0,0,1,.43.52c.21.27.41.56.62.86s.38.6.52.86.19.44.15.52a1.28,1.28,0,0,1,.8.71,3.88,3.88,0,0,0,.61.89,2.58,2.58,0,0,1,.71.77,2.86,2.86,0,0,1,.52,1,4.74,4.74,0,0,1,.95,1c.31.39.61.75.89,1.07a1.3,1.3,0,0,1,.16.37.57.57,0,0,0,.15.31c.33.08.47.19.43.34s0,.19.18.15c0-.29,0-.48-.12-.58a2.05,2.05,0,0,1-.37-.46,1.33,1.33,0,0,1-.24-.8.52.52,0,0,0-.06-.43,1.38,1.38,0,0,0-.5-.49c-.2-.13-.26-.35-.18-.68a1.52,1.52,0,0,1-.74-.89,1.83,1.83,0,0,0-.67-1,2,2,0,0,0-.15-.74,7.28,7.28,0,0,1-.28-.73,2.42,2.42,0,0,1-.15-.68.71.71,0,0,0-.34-.55v-.73a.58.58,0,0,1-.31-.43c0-.21-.08-.39-.12-.56a1.46,1.46,0,0,1-.65-.92,2.43,2.43,0,0,0-.52-1,1.78,1.78,0,0,0-.33-.46,1.61,1.61,0,0,1-.34-.46l-.37-.68a1.15,1.15,0,0,1-.15-.39l-.22-.71c-.08-.25-.15-.47-.21-.68a2.75,2.75,0,0,1-.1-.36,2.19,2.19,0,0,1-.27-.49,1,1,0,0,0-.28-.43,4.76,4.76,0,0,0-.3-1.35,6.17,6.17,0,0,1-.37-1.29c0-.41,0-.67-.13-.77a.37.37,0,0,1-.12-.4,3.5,3.5,0,0,1-1.59-.12,2.72,2.72,0,0,0-1.6,0,1.13,1.13,0,0,1-.55.09A.68.68,0,0,0,260.31,57.93Z"/><path class="cls-1" d="M195.55,12.73H184.63l5.46-9Z"/><path class="cls-1" d="M186.16,12.73v9.58h7.73V12.73Zm1.37,5.68a5.67,5.67,0,0,1,.92-3A4,4,0,0,1,190,14a4.06,4.06,0,0,1,1.58,1.4,5.87,5.87,0,0,1,.92,3Z"/><path class="cls-1" d="M184.63,26.49h-8.78q2.21-4.48,4.39-9Q182.45,22,184.63,26.49Z"/><rect class="cls-1" x="177.08" y="26.49" width="6.22" height="9.58"/><path class="cls-1" d="M204.33,26.49h-8.78q2.19-4.48,4.39-9Q202.13,22,204.33,26.49Z"/><rect class="cls-1" x="196.77" y="26.49" width="6.22" height="9.58"/><rect class="cls-1" x="186.25" y="24.04" width="7.73" height="15.11"/><rect class="cls-1" x="185.03" y="22.31" width="9.99" height="1.74"/><path class="cls-1" d="M190,4.6q-.1-1.21-.27-2.52c-.1-.71-.2-1.4-.32-2.06l.34,0a11.71,11.71,0,0,1,.38,2.63A10.6,10.6,0,0,1,190,4.6Z"/><path class="cls-1" d="M189.63.24l.06,0a2.29,2.29,0,0,1,1.12-.09,3.48,3.48,0,0,1,.44.11c.3.11.39.2.55.26.37.14.62,0,1-.06a2.17,2.17,0,0,1,1.29.31c-.15.08-.38.2-.65.36-.8.48-.87.68-1.46,1a3.64,3.64,0,0,1-1.32.42,3.59,3.59,0,0,1-.75,0,11.05,11.05,0,0,0-.15-1.43C189.74.78,189.69.5,189.63.24Z"/><path class="cls-1" d="M175.85,22H164.94l5.46-9Z"/><path class="cls-1" d="M166.46,22v9.19a.39.39,0,0,0,.4.39h6.94a.39.39,0,0,0,.4-.39V22Zm1.37,5.69a5.9,5.9,0,0,1,.92-3,4.06,4.06,0,0,1,1.58-1.4,4,4,0,0,1,1.57,1.4,5.7,5.7,0,0,1,.92,3Z"/><path class="cls-1" d="M170.29,13.9c-.07-.81-.16-1.65-.27-2.53-.1-.71-.2-1.39-.32-2.06l.34,0a11.8,11.8,0,0,1,.38,2.63A12.79,12.79,0,0,1,170.29,13.9Z"/><path class="cls-1" d="M169.93,9.53l.06,0a2.49,2.49,0,0,1,1.13-.09,2.11,2.11,0,0,1,.43.12,5.92,5.92,0,0,1,.56.25c.36.15.62,0,1-.06a2.22,2.22,0,0,1,1.3.32c-.15.07-.38.19-.65.35-.8.48-.88.68-1.46,1a3.75,3.75,0,0,1-1.32.41,3,3,0,0,1-.75,0,13.68,13.68,0,0,0-.15-1.43C170.05,10.07,170,9.79,169.93,9.53Z"/><path class="cls-1" d="M215.24,22H204.33l5.45-9Z"/><path class="cls-1" d="M213.26,22h-7.09a.32.32,0,0,0-.32.33v8.93a.32.32,0,0,0,.32.32h7.09a.32.32,0,0,0,.32-.32V22.35A.32.32,0,0,0,213.26,22Zm-6,5.69a5.9,5.9,0,0,1,.92-3,4,4,0,0,1,1.58-1.4,4,4,0,0,1,1.57,1.4,5.8,5.8,0,0,1,.92,3Z"/><path class="cls-1" d="M209.68,13.9c-.07-.81-.16-1.65-.28-2.53-.09-.71-.2-1.39-.31-2.06l.33,0a10.73,10.73,0,0,1,.38,2.63A11.75,11.75,0,0,1,209.68,13.9Z"/><path class="cls-1" d="M209.32,9.53l.06,0a2.42,2.42,0,0,1,1.12-.09,2.23,2.23,0,0,1,.44.12,4.58,4.58,0,0,1,.55.25c.37.15.62,0,1-.06a2.18,2.18,0,0,1,1.29.32,6.64,6.64,0,0,0-.64.35c-.81.48-.88.68-1.47,1a3.69,3.69,0,0,1-1.32.41,2.93,2.93,0,0,1-.74,0,13.68,13.68,0,0,0-.15-1.43C209.44,10.07,209.38,9.79,209.32,9.53Z"/><rect class="cls-1" x="167.19" y="31.28" width="6.28" height="11.26"/><rect class="cls-1" x="206.42" y="31.28" width="6.59" height="11.26"/><rect class="cls-1" x="167.19" y="34.75" width="45.82" height="7.79"/><path class="cls-1" d="M176.14,48.43h-8.95v-5.9h19A15.57,15.57,0,0,0,179.27,45,9.55,9.55,0,0,0,176.14,48.43Z"/><path class="cls-1" d="M204.07,48.43H213v-5.9h-19A15.58,15.58,0,0,1,200.93,45,9.7,9.7,0,0,1,204.07,48.43Z"/><rect class="cls-1" x="172.19" y="33.1" width="5.66" height="2.7"/><rect class="cls-1" x="201.5" y="33.1" width="5.66" height="2.7"/><path class="cls-1" d="M137,50.27a16.23,16.23,0,0,1,10.37,1.41,15.93,15.93,0,0,1,5.8,5.09,61.2,61.2,0,0,1,9.14-2.63c2-.41,3.87-.69,5.62-.88a2.43,2.43,0,0,1,2.61.79,2.53,2.53,0,0,1,.34,2.27,18.26,18.26,0,0,1,8.39-3c2.2-.18,5.92-.5,9.18,1.93A10.9,10.9,0,0,1,192,60a14.15,14.15,0,0,1,5.21-6.69c3.57-2.39,7.27-2.26,10.43-2.16a17.12,17.12,0,0,1,8.51,2A15.39,15.39,0,0,1,221,57.57a20.39,20.39,0,0,1,3.18-1.82,20.18,20.18,0,0,1,3.17-1.13l10.88-2.27a3.73,3.73,0,0,1,3,.8,3.65,3.65,0,0,1,1.25,2.6A10.53,10.53,0,0,1,245,54.17a10.28,10.28,0,0,1,3.17-.8,9.73,9.73,0,0,0-4.53-5.44c-4.74-2.49-9.54.43-9.75.57a9.6,9.6,0,0,0-5-5.67c-4.64-2.09-8.94.74-9.19.91a12.16,12.16,0,0,0-4-3.86,12.61,12.61,0,0,0-7.71-1.7l-37.87.11a10.73,10.73,0,0,0-10.55,4.54A7.73,7.73,0,0,0,155,41a8.2,8.2,0,0,0-7.14,4.31,7,7,0,0,0-4-1C140.92,44.49,138.2,46.85,137,50.27Z"/></g></g></svg>