<svg xmlns="http://www.w3.org/2000/svg" viewBox="0 0 291.95 61.06"><defs><style>.cls-1{fill:#f47920;}</style></defs><g id="Layer_2" data-name="Layer 2"><g id="Layer_1-2" data-name="Layer 1"><path class="cls-1" d="M31.66,0c.08.16.17.33.25.52a.74.74,0,0,0,.43.4,6.94,6.94,0,0,1-.19,1.44c-.12.59-.22,1.22-.3,1.87a13.39,13.39,0,0,0-.13,1.81,1.93,1.93,0,0,0,.37,1.26.45.45,0,0,1-.12.31c-.08.08,0,.22.12.43a2,2,0,0,0,0,1.13.67.67,0,0,1-.21.77,2.91,2.91,0,0,1,.24,1.72,5.61,5.61,0,0,1-.43,1.71,2.74,2.74,0,0,1-.55.22c-.2.06-.41.11-.61.15a2.64,2.64,0,0,1-.43-.52l-.37-.52c.08-.33.15-.69.21-1.07a1.51,1.51,0,0,0-.21-1.08,1,1,0,0,0,.18-.55,6.67,6.67,0,0,0,.06-.92,3.66,3.66,0,0,0-.09-.86c-.06-.25-.15-.39-.27-.43a.47.47,0,0,0,.24-.61,2.82,2.82,0,0,1-.12-.74,5.5,5.5,0,0,1,.12-1.13,1.65,1.65,0,0,0-.12-1.08c.12-.08.19-.26.21-.55A3.3,3.3,0,0,1,30,3a3.24,3.24,0,0,1-.59-.58q0-.09-.21-.15a1,1,0,0,0-.62.12,4,4,0,0,1-.73.25,10.73,10.73,0,0,1-1.47.15,3.16,3.16,0,0,1-1.48-.28.76.76,0,0,1-.83.22,5,5,0,0,0-.89-.22,2.06,2.06,0,0,1-.88.06A.83.83,0,0,0,22,2.52a1.49,1.49,0,0,0-.4.06,1.21,1.21,0,0,1-.4.07c-.57-.21-.95-.26-1.13-.16a.5.5,0,0,1-.59-.09c-.41,0-.64,0-.7,0a.5.5,0,0,1-.34.09,1.85,1.85,0,0,1-.64-.12,2.12,2.12,0,0,0-.71-.12l-1.47.12a2.2,2.2,0,0,0-.62.22,1.5,1.5,0,0,1-.67.15,10.36,10.36,0,0,1,.09,1.78,17.42,17.42,0,0,0,0,1.78,1.17,1.17,0,0,0,0,.64.67.67,0,0,1,.09.34,5.07,5.07,0,0,1,0,1.23,3.57,3.57,0,0,0,0,1.22c0,.17.09.31.13.43s.08.27.12.43a7,7,0,0,1-.09,1.78,2.66,2.66,0,0,0,.4,1.78,5.71,5.71,0,0,0,.12,2.06,20,20,0,0,1,.37,2.05,11.88,11.88,0,0,1,.06,2.06,11.77,11.77,0,0,0,.06,2,1.68,1.68,0,0,0,1.26.31,1.17,1.17,0,0,1,1.13.37A14.33,14.33,0,0,1,20,23a8,8,0,0,0,1.78-.19q0-.42,0-1.26t0-1.68a15.24,15.24,0,0,1,.13-1.6,1.77,1.77,0,0,1,.39-1,.67.67,0,0,0,.13-.49,1,1,0,0,1,.12-.55,3.2,3.2,0,0,0,.61-.28,1.18,1.18,0,0,1,.74-.09,1.25,1.25,0,0,0,.28.46.62.62,0,0,1,.15.46,1.32,1.32,0,0,1-.09.43l-.19.49c-.06.16-.11.32-.15.46a.29.29,0,0,0,.12.34,1.08,1.08,0,0,1-.12.52,1.05,1.05,0,0,0-.12.52,3.15,3.15,0,0,0,.06.61,3.26,3.26,0,0,1,.06.62c0,.24,0,.48,0,.7a2.86,2.86,0,0,0,0,.71l.12.61c0,.21.08.41.13.62a1.15,1.15,0,0,1-.07.36A1.1,1.1,0,0,0,24,24a1.89,1.89,0,0,1-.06,1.1.71.71,0,0,0,.06.74c.17.25.22.42.16.52a.25.25,0,0,0,0,.28c.16.41.22.64.18.7a.43.43,0,0,0-.06.22,6.32,6.32,0,0,0,0,1.35,4.7,4.7,0,0,1,0,1.16,1.1,1.1,0,0,1-.28.62,1.07,1.07,0,0,1-.52.43,1,1,0,0,1-.73-.06L22,30.75a.46.46,0,0,0,0-.55,1.44,1.44,0,0,1-.25-.55.88.88,0,0,1,.1-.4c.06-.15.11-.28.15-.4a4,4,0,0,0,.06-1.17,1.3,1.3,0,0,0-.37-.8,2.66,2.66,0,0,0,.06-1.71A3.17,3.17,0,0,0,20.71,25a9,9,0,0,0-1.07.16A.86.86,0,0,1,19,25a.38.38,0,0,0-.58.16,1.22,1.22,0,0,0-.34-.19,4.34,4.34,0,0,0-.61-.21c-.23-.06-.42-.13-.59-.19a1.29,1.29,0,0,0-.3-.09,7.19,7.19,0,0,0-.4,1.6,12.08,12.08,0,0,0-.09,1.47,11.76,11.76,0,0,0,.06,1.2A11.56,11.56,0,0,1,16.2,30v3.81a4.16,4.16,0,0,0,.06.67,4.27,4.27,0,0,1,.06.68c0,.32,0,.67,0,1a5.88,5.88,0,0,0,0,1,.64.64,0,0,0,.09.34,1.33,1.33,0,0,1,.16.34,1.76,1.76,0,0,1,0,.55,1.13,1.13,0,0,0,.09.55.78.78,0,0,1,.06.52,2.53,2.53,0,0,0-.06.53q.12.06,0,.3a.5.5,0,0,0,0,.37,1.18,1.18,0,0,0,.09.46,1.18,1.18,0,0,1,.09.46,4.25,4.25,0,0,1-.15,1.44,2.29,2.29,0,0,0,0,1.32c.08.29.24.43.46.43a5.12,5.12,0,0,0,.74-.06,5.93,5.93,0,0,1,.89-.06,1.18,1.18,0,0,1,.86.37,1.53,1.53,0,0,1,.43.67,3.73,3.73,0,0,0-.31.89.39.39,0,0,1-.12.28A3.26,3.26,0,0,0,19,47a3.15,3.15,0,0,1-.61.06,2.87,2.87,0,0,1-.37-.15.81.81,0,0,0-.37-.09.66.66,0,0,0-.49,0,.61.61,0,0,1-.49,0c-.61-.05-1-.07-1.26-.07a.74.74,0,0,0-.58.31,1.55,1.55,0,0,0-1,0,1.58,1.58,0,0,1-1.05,0c-.16-.16-.29-.22-.4-.18a.74.74,0,0,1-.27.06,2,2,0,0,1-.52-.16,1.38,1.38,0,0,0-.52-.09.9.9,0,0,0-.34.06,1,1,0,0,1-.34.07A18.56,18.56,0,0,1,8,46.61a8.79,8.79,0,0,0-2.4,0,6.28,6.28,0,0,1-.86.19,6.44,6.44,0,0,0-.85.18.64.64,0,0,0-.34.09.67.67,0,0,1-.34.09,3,3,0,0,1-1,.1,5.33,5.33,0,0,0-1,0,.76.76,0,0,0-.37-.19c-.16,0-.23-.16-.19-.36A.59.59,0,0,1,0,46.34c0-.58.3-.86.77-.86A11.5,11.5,0,0,0,2,45.42l.71-.13.71-.12a3.35,3.35,0,0,1,.76,0A1.56,1.56,0,0,0,5,44.92a1.57,1.57,0,0,1,0-.61,2.61,2.61,0,0,0,.06-.43,6.71,6.71,0,0,1,.16-2.08,4.13,4.13,0,0,0,0-1.91q.24.06.3-.27c0-.23,0-.36-.06-.4a2.09,2.09,0,0,0,.22-.28,1.39,1.39,0,0,1,.21-.27A4.24,4.24,0,0,1,6,36.55,4,4,0,0,0,6,34.43a1.59,1.59,0,0,0,.28-.67,6.6,6.6,0,0,0,.12-.92c0-.33,0-.65,0-1a4.07,4.07,0,0,1,.06-.77c0-.53.12-.82.22-.86s.07-.23-.09-.55A2.08,2.08,0,0,0,6.72,29a.53.53,0,0,1,0-.31,1.38,1.38,0,0,1,.09-.52,1.31,1.31,0,0,0,.09-.52A2.44,2.44,0,0,0,7,27c0-.25,0-.47,0-.68a7.86,7.86,0,0,1,.22-1.26,2.1,2.1,0,0,0-.09-1.25,2.21,2.21,0,0,0,.18-1,1.43,1.43,0,0,0-.18-.52,1.05,1.05,0,0,0,.21-.89,5.83,5.83,0,0,1-.09-1,4.62,4.62,0,0,1,.24-1.5,5.62,5.62,0,0,0,.31-1.51,1.26,1.26,0,0,0,0-.61,2.15,2.15,0,0,1-.09-.61A8.37,8.37,0,0,0,8,15c.06-.31.12-.63.18-1s.11-.67.15-.95.07-.45.07-.49a1.57,1.57,0,0,1,.09-1.08.86.86,0,0,0-.09-.89.74.74,0,0,0,.18-.76A3.39,3.39,0,0,1,8.41,9l.27-1.2A3.7,3.7,0,0,0,8.77,7a3.63,3.63,0,0,1,0-1c0-.12.09-.26.13-.43A4,4,0,0,0,9,5l.12-.89a6.67,6.67,0,0,0,.06-.86,2,2,0,0,0-.06-.58A3.16,3.16,0,0,0,8,2.34a1.08,1.08,0,0,1-.71-.25,1.21,1.21,0,0,1-.67.13l-1,0a5,5,0,0,1-1-.16,1.45,1.45,0,0,1-.67-.3,5.69,5.69,0,0,1-.19-.62A1.13,1.13,0,0,1,3.74.5,3.87,3.87,0,0,1,4.88.25a9.38,9.38,0,0,1,1.5,0c.53,0,1,.09,1.54.16A10.82,10.82,0,0,1,9.14.62,2.39,2.39,0,0,0,9.51.47,1,1,0,0,1,9.94.38a2.87,2.87,0,0,0,1,.06.83.83,0,0,1,.52.06l.37.12a1.4,1.4,0,0,0,.43.06A2.53,2.53,0,0,0,13.47.62,3.27,3.27,0,0,1,14.73.5,3.17,3.17,0,0,0,16.11.34a1.14,1.14,0,0,1,1,0c.33-.09.5-.11.52-.07s.07.07.16.07a1.57,1.57,0,0,1,.82,0,2.51,2.51,0,0,0,.46.16,2.22,2.22,0,0,0,.37,0,1.09,1.09,0,0,1,.43,0L21.2.62q.64.06,1.32.06A3.63,3.63,0,0,0,23.59.5a.89.89,0,0,1,.95.18,2.38,2.38,0,0,1,.93,0,.93.93,0,0,0,.42.1A4.76,4.76,0,0,0,27.74.38H29A1.09,1.09,0,0,1,29.94,0a4.46,4.46,0,0,1,1,.24c.24.09.37.06.4-.06S31.46,0,31.66,0Zm-20,2.64A4.49,4.49,0,0,1,11.05,4a2.68,2.68,0,0,1,.12,1.35c-.08.41-.17.83-.25,1.28a1.88,1.88,0,0,1,0,1.08.89.89,0,0,0-.15.52,3.88,3.88,0,0,1,0,1.26c-.06.26-.12.55-.19.86a4.41,4.41,0,0,0-.09.86,1,1,0,0,0,.13.58,1.86,1.86,0,0,0-.25,1.13,2.75,2.75,0,0,1-.12,1.14c-.09.24-.16.48-.22.7a2.82,2.82,0,0,0-.09.71.72.72,0,0,0,0,.46,1.18,1.18,0,0,1,.09.46,7.36,7.36,0,0,1-.3,1.26,1.43,1.43,0,0,0,.06,1.26.63.63,0,0,0-.25.43c0,.2-.08.43-.12.67s-.07.47-.09.68a.73.73,0,0,1-.09.36.68.68,0,0,0,0,.46c.06.19,0,.3,0,.34A2.93,2.93,0,0,0,9.2,23a1.43,1.43,0,0,0,.37,1c-.2,0-.28.11-.24.34a.85.85,0,0,1,0,.46,1.18,1.18,0,0,1-.09.46,1,1,0,0,0-.1.46,1.64,1.64,0,0,0,0,.7,5.25,5.25,0,0,1,.16.71,2.88,2.88,0,0,0-.43,1.44c0,.6-.09,1.2-.13,1.81s-.08,1.21-.12,1.78a2.48,2.48,0,0,1-.43,1.35c.13.29.13.46,0,.52s-.16.2-.12.4A2.67,2.67,0,0,0,8,35.66a.43.43,0,0,1-.06.49,5.16,5.16,0,0,0-.19.92,7.72,7.72,0,0,0-.06.92,1.4,1.4,0,0,1,0,.89l-.31.58a1.82,1.82,0,0,0-.18.62.52.52,0,0,0,.21.49.59.59,0,0,0-.18.64,1.23,1.23,0,0,1,.06.65A3.82,3.82,0,0,0,7,43.36a7,7,0,0,1,0,1.13,1.88,1.88,0,0,0,.83.16c.23,0,.48,0,.77,0l.77.09c.22,0,.46,0,.7,0s.59,0,1.05-.06a1.52,1.52,0,0,1,.73-.06l.77.15.83.19a1.4,1.4,0,0,0,.79,0,1.39,1.39,0,0,1,.22-.92,2.19,2.19,0,0,0,.34-.92,1.91,1.91,0,0,0-.06-.43,1.42,1.42,0,0,1-.07-.43,5.49,5.49,0,0,1,0-.58,1.92,1.92,0,0,0,0-.58,2.52,2.52,0,0,0-.24-.68,2.62,2.62,0,0,1,.12-1q.12-.24-.24-.3a3,3,0,0,0,.12-.8.93.93,0,0,0-.31-.68c0-.28.07-.64.09-1.07s0-.88,0-1.35a9.77,9.77,0,0,0-.09-1.35,3.38,3.38,0,0,0-.27-1,2.36,2.36,0,0,0,.33-1.69,7.4,7.4,0,0,1-.09-1.75c0-1,.09-2,.16-3.07a6.49,6.49,0,0,0-.53-3,.61.61,0,0,0,.22-.62,2.15,2.15,0,0,1-.09-.61q0-.62,0-1.2a8.08,8.08,0,0,0,0-1.2,1.21,1.21,0,0,0-.13-.52,1.11,1.11,0,0,1-.12-.4,6,6,0,0,0,0-1.71,12.53,12.53,0,0,1-.18-1.29.68.68,0,0,1,0-.37,2.72,2.72,0,0,0,0-.43,5.57,5.57,0,0,0-.19-.83,5.17,5.17,0,0,1-.18-.89c0-.2-.07-.41-.09-.61A1.34,1.34,0,0,1,13,12a6.45,6.45,0,0,1-.34-1.68,2.45,2.45,0,0,1,.22-1.51c-.21-.49-.27-.77-.19-.86s.1-.22.06-.43a4.54,4.54,0,0,1-.12-1.35,3.54,3.54,0,0,0,0-.92,2.77,2.77,0,0,0-.15-.58c-.11-.31-.07-.46.09-.46a1.35,1.35,0,0,1-.15-.89.93.93,0,0,0-.1-.7Z"/><path class="cls-1" d="M45,22.65c-.08.33-.19.7-.33,1.1a1,1,0,0,0,.21,1.11,1.21,1.21,0,0,0-.4.83c0,.22,0,.44,0,.64a2.38,2.38,0,0,0,0,1.08,1.92,1.92,0,0,1,.13.64c0,.61,0,1.22,0,1.81a15.72,15.72,0,0,0,0,1.81c0,.37.08.73.12,1.07s.08.69.12,1a11.52,11.52,0,0,1-.21,2.76,6.82,6.82,0,0,0,0,2.7c0,.16.08.3.12.43l.12.37A4.43,4.43,0,0,1,45,41.09a1.64,1.64,0,0,0,.31,1,1.66,1.66,0,0,0-.09.92,2.06,2.06,0,0,1,0,.92,3.31,3.31,0,0,0,.64.06,3.41,3.41,0,0,1,.65.07c.24,0,.36-.09.36-.25s.11-.25.31-.25l.8.37a.66.66,0,0,1,.15.37c0,.16.13.23.34.18a1.74,1.74,0,0,0-.12,1.17,1.63,1.63,0,0,1-.46.15.71.71,0,0,1-.46-.09,2,2,0,0,1-1.48.62,2.94,2.94,0,0,0-1.53-.19c-.45.08-.78.14-1,.19s-.63,0-.89,0a2.92,2.92,0,0,0-.83,0,1.62,1.62,0,0,0-.61.12,1.57,1.57,0,0,1-.56.12,2.2,2.2,0,0,0-1.25-.18,4.1,4.1,0,0,1-.71.18,1.1,1.1,0,0,1-.31-.06,1.13,1.13,0,0,0-.36-.06,1.9,1.9,0,0,0-.68,0,4.35,4.35,0,0,0-.55.18,2.83,2.83,0,0,1-.62.16.69.69,0,0,1-.55-.22,2.45,2.45,0,0,1-1.23-.06,3.33,3.33,0,0,0-1.16-.18c-.16-.17-.22-.32-.15-.46s-.06-.22-.34-.22a1.18,1.18,0,0,1,.49-.74,3.92,3.92,0,0,0,.67-.55,1,1,0,0,1,.74,0,1.52,1.52,0,0,0,.61.22.74.74,0,0,0,.43-.4.49.49,0,0,0-.06-.52l.37-.8.12-.25a5.46,5.46,0,0,0,.16-1,5.59,5.59,0,0,1,.15-1,1.76,1.76,0,0,0,0-.55.84.84,0,0,1,.09-.49,4.48,4.48,0,0,1,.31-.62A1.92,1.92,0,0,0,37,38.3a.8.8,0,0,0,0-.37,1.85,1.85,0,0,1,0-.43,1.93,1.93,0,0,0,.13-.31l.12-.37c.2-.73.41-1.51.61-2.33a3.45,3.45,0,0,0-.18-2.33,1.6,1.6,0,0,0,.15-.55.77.77,0,0,1,.22-.49,5.63,5.63,0,0,1,.24-2.82,2.79,2.79,0,0,1,.13-.43,1.44,1.44,0,0,0,.06-.43,1.32,1.32,0,0,0,0-.56,1.27,1.27,0,0,1,0-.55,1.24,1.24,0,0,1,.18-.34,1.35,1.35,0,0,0,.19-.33l.39-1.41c.11-.37.2-.74.28-1.11A1.67,1.67,0,0,0,38.09,23a2.55,2.55,0,0,1-1.32.12.89.89,0,0,0-.49.25.6.6,0,0,1-.43.18,2,2,0,0,1-.8-.24,5.42,5.42,0,0,1-.73-.43,4,4,0,0,0,0-.53,1.37,1.37,0,0,1,0-.52.49.49,0,0,1,.36-.12c.17,0,.25-.1.25-.31a1.3,1.3,0,0,0,.61,0c.25-.06.41-.05.49,0a.85.85,0,0,1,.53-.21c.22,0,.31-.16.27-.4a1.47,1.47,0,0,0,1.41,0,1.67,1.67,0,0,1,1.35-.18.46.46,0,0,1,.34-.22.32.32,0,0,1,.34.22,4.18,4.18,0,0,1,2-.13A2.44,2.44,0,0,1,44,21.61c.49.32.76.56.8.7A.57.57,0,0,0,45,22.65Zm-4.11,2.88a.81.81,0,0,1-.06.56,1.51,1.51,0,0,0-.18.36.68.68,0,0,0,0,.37,2.81,2.81,0,0,1,0,.43c-.09.41-.19.81-.31,1.2a6.09,6.09,0,0,0-.25,1.2,3.16,3.16,0,0,1,0,1.07,2.47,2.47,0,0,0-.09.64A1.39,1.39,0,0,0,40,32c0,.1,0,.27-.12.52A9.9,9.9,0,0,1,40,33.94a6.73,6.73,0,0,1-.12,1.29,7.37,7.37,0,0,0-.43,1.66,5.75,5.75,0,0,1-.25,1.22,2.3,2.3,0,0,0-.43,1.14,1,1,0,0,1-.06.58c-.24.08-.31.2-.21.34s.13.26.09.34c-.25.28-.33.48-.25.58a.33.33,0,0,1,.07.34,13,13,0,0,0-.59,1.38,2.1,2.1,0,0,0,0,1.44,3.07,3.07,0,0,0,1.51.09,3.26,3.26,0,0,1,1.13-.09,1.75,1.75,0,0,1,.34.15.64.64,0,0,0,.34.09,1.15,1.15,0,0,0,1-.18q.21-.24.33-.24a.4.4,0,0,1,.37-.07.25.25,0,0,0,.31-.06A2.82,2.82,0,0,0,43,43a4.42,4.42,0,0,1-.09-.92,1.75,1.75,0,0,1-.19-.7c0-.19,0-.38,0-.59s0-.4-.06-.58,0-.32,0-.4a2.28,2.28,0,0,0,0-.89,1.31,1.31,0,0,1-.09-.52.69.69,0,0,1,.09-.34.63.63,0,0,0,.09-.33.93.93,0,0,0,0-.47,1.65,1.65,0,0,1-.06-.46,2.53,2.53,0,0,1,.06-1,3.69,3.69,0,0,0,.12-.95,3.63,3.63,0,0,0-.06-.64,3.74,3.74,0,0,1-.06-.65,3.44,3.44,0,0,0,.12-.79,2.07,2.07,0,0,0-.15-.8,2.11,2.11,0,0,1-.15-.8q.12-1,.15-1.5t0-1q0-.48-.06-1.35a2.33,2.33,0,0,1,.18-1.28c-.24-.13-.29-.34-.15-.65a1.06,1.06,0,0,0,0-1,.66.66,0,0,0,.18-.49v-.55a4.39,4.39,0,0,1-.36-.28,1.05,1.05,0,0,1-.31-.4,2,2,0,0,1-.37.31,1,1,0,0,0-.31.37.52.52,0,0,0-.06.43.7.7,0,0,1-.06.49,1.82,1.82,0,0,1-.24.52A1.3,1.3,0,0,0,40.88,25.53Zm2-13.07c.37-.12.59-.14.67-.06s.3.31.4.31a.41.41,0,0,1,.28.12,1.89,1.89,0,0,1,.55.83,2.73,2.73,0,0,0,.49.89,2,2,0,0,0-.15.89,5.5,5.5,0,0,0,.15,1c0,.21,0,.31-.18.31s-.21.12-.13.37a1.14,1.14,0,0,0-.36.67,14.6,14.6,0,0,1-1.91,1.14,3,3,0,0,1-2.08.27,1.27,1.27,0,0,1-.83-.52A2,2,0,0,0,39,18a2.37,2.37,0,0,1-.15-.65,6.17,6.17,0,0,0-.09-.64A2.58,2.58,0,0,1,38.73,15a6.88,6.88,0,0,0,.43-1,4.86,4.86,0,0,0,.62-.4,2.8,2.8,0,0,0,.3-.28,2.55,2.55,0,0,0,1.23-.49,4.74,4.74,0,0,0,1-.15ZM43,15a1.55,1.55,0,0,1-.86.25,1.61,1.61,0,0,1-.74-.13,2.94,2.94,0,0,0-.36,2.09,5.3,5.3,0,0,1,1.16-.25,1,1,0,0,0,.4-.58.68.68,0,0,1,.52-.46c0-.16-.08-.31-.12-.43A1,1,0,0,1,43,15Z"/><path class="cls-1" d="M76.73,19.34a4.74,4.74,0,0,0,.25.55,1,1,0,0,1,.06.61,1,1,0,0,1-.12.52,1.58,1.58,0,0,0-.19.53,8.1,8.1,0,0,0-.18,1.31c0,.56-.06,1-.06,1.39a3,3,0,0,1,.06,1,2.32,2.32,0,0,0-.06.55c0,.24.07.49.09.74a3.16,3.16,0,0,0,.15.73c.12.29.16.47.12.55a1.31,1.31,0,0,0-.09.28,1.29,1.29,0,0,0,0,.25q0,.09.12,0l-.79,1a1,1,0,0,1-.59-.06,1,1,0,0,0-.58-.06,4,4,0,0,0-.74-.65,2.05,2.05,0,0,0-.42-.15.74.74,0,0,1,.12-.46.46.46,0,0,0,0-.46,1.79,1.79,0,0,0-.46-.83,1.69,1.69,0,0,1-.46-.89,27.92,27.92,0,0,1-2.4-2,1.13,1.13,0,0,1-.73-.13,2.66,2.66,0,0,0-.74-.24,1,1,0,0,0-.34.06.88.88,0,0,1-.33.06,2.74,2.74,0,0,1-.92-.09l-.37-.15a.93.93,0,0,0-.34.06.9.9,0,0,1-.34.06,2.73,2.73,0,0,0-.86,0l-.24.12a7.65,7.65,0,0,1-1.5.4,2.86,2.86,0,0,0-1,.28.93.93,0,0,1-.39.15.68.68,0,0,0-.4.21c-.21.25-.39.45-.56.62a3.08,3.08,0,0,0-.39.46,1,1,0,0,1-.28.27,1.76,1.76,0,0,1-.28,1,3.59,3.59,0,0,1-.52.85.61.61,0,0,1,0,.56q-.15.24,0,.36a6.4,6.4,0,0,0-.34,1.69c0,.51,0,1.05,0,1.6s0,1.06.06,1.53a1.27,1.27,0,0,0,.31.89,1.9,1.9,0,0,0-.18,1.35,6.69,6.69,0,0,0,.3,1.41,1.65,1.65,0,0,1,.22.71,1.72,1.72,0,0,0,0,.34l.24.61.25.61c.2.58.39,1.19.55,1.84a4.62,4.62,0,0,0,.8,1.72.66.66,0,0,0,0,.46,4.37,4.37,0,0,1,.21.46,3.81,3.81,0,0,0,1.17.16,1.87,1.87,0,0,1,.86.15,1.83,1.83,0,0,1,1-.15.94.94,0,0,0,.52,0,1,1,0,0,0,.31-.06.59.59,0,0,1,.37,0,1,1,0,0,1,.34.06l.33.12c.21.08.33.07.37,0s.14-.15.31-.15a1.08,1.08,0,0,1,.64,0c.1.06.32,0,.65-.28a2,2,0,0,0,1-.09,1.65,1.65,0,0,1,.74-.16c.61-.32,1.06-.58,1.35-.76a2.82,2.82,0,0,0,.67-.59c.45-.24.76-.39.92-.46a5.16,5.16,0,0,0,.49-.21l.77-.77c.26-.26.54-.52.83-.76a3.52,3.52,0,0,0,.61.18,3.52,3.52,0,0,1,.61.18,2.79,2.79,0,0,0,.16.53,1.31,1.31,0,0,1,.09.52,5,5,0,0,1-1,.83,3,3,0,0,0-.89.88.53.53,0,0,0-.46.22,1.37,1.37,0,0,1-.34.34,1.73,1.73,0,0,1-.74.33.73.73,0,0,0-.55.59.68.68,0,0,0-.61,0,1.86,1.86,0,0,1-.49.27,1.41,1.41,0,0,0-.68.28,2.16,2.16,0,0,1-.49.34,7.21,7.21,0,0,1-1.16.15,8.6,8.6,0,0,0-1.23.15l-.61.28a3.07,3.07,0,0,1-.62.22,1.05,1.05,0,0,1-.52-.13,1.05,1.05,0,0,0-.52-.12,1.8,1.8,0,0,0-.71.06.1.1,0,0,1-.09.06,1.42,1.42,0,0,0-.7-.06,3.46,3.46,0,0,1-.59.06,2.21,2.21,0,0,0-.83-.06.74.74,0,0,1-.27.06,1.59,1.59,0,0,1-.77-.18,1.47,1.47,0,0,0-.7-.19.82.82,0,0,0-.37.1.48.48,0,0,1-.37,0,4.92,4.92,0,0,1-1.54-.52c-.49-.27-1-.5-1.41-.71a1.45,1.45,0,0,1-.27-.37.8.8,0,0,0-.28-.3,6.84,6.84,0,0,1-.55-.5,1.45,1.45,0,0,1-.37-.55,1.45,1.45,0,0,1-.61-.37,1.19,1.19,0,0,0-.68-.3,2.88,2.88,0,0,0-1-1.41,8.15,8.15,0,0,0-.46-1.81,10.92,10.92,0,0,1-.52-1.81,1.1,1.1,0,0,0-.28-.43c-.1-.09-.13-.29-.09-.62a3,3,0,0,1-.34-1.07,1.22,1.22,0,0,0,0-.46,10.5,10.5,0,0,0-.24-1.51,3.9,3.9,0,0,1-.07-1.56,2,2,0,0,1,.28-.71.91.91,0,0,0,.09-.76,1.93,1.93,0,0,0,.46-.71c.1-.26.22-.52.34-.77a.39.39,0,0,0,.31-.27q.06-.21.36-.15a1.24,1.24,0,0,1,.25-.86,8.66,8.66,0,0,1,.74-1,7.79,7.79,0,0,1,.89-.92,5.93,5.93,0,0,1,.76-.58,2.13,2.13,0,0,0,.74-.49,2,2,0,0,1,.25-.31,5.34,5.34,0,0,1,1.53-.76A4.08,4.08,0,0,0,61,22.53h.68a3,3,0,0,1,1.07-.43,2.68,2.68,0,0,0,1.07-.49,1.32,1.32,0,0,0,1.08-.1,3,3,0,0,1,1-.33,2.13,2.13,0,0,1,.4.06,5,5,0,0,0,.58.09l.52.06c.15,0,.22,0,.22-.09a2.05,2.05,0,0,1,.49.06,2.32,2.32,0,0,0,.55.06,3.77,3.77,0,0,0,.83-.09,1.35,1.35,0,0,1,.83.09c.2.09.4.18.58.28a.66.66,0,0,0,.58,0,2.8,2.8,0,0,0,.56.55,3.25,3.25,0,0,0,.61.49,1.71,1.71,0,0,1,.68.56c.08.16.3.28.67.36a1.54,1.54,0,0,0,.61-1.29,5.9,5.9,0,0,1,.31-1.59.4.4,0,0,0,0-.34.64.64,0,0,1-.09-.34,1.27,1.27,0,0,0,.37-.43,3.81,3.81,0,0,1,.3-.49,2.19,2.19,0,0,1,.65.1A1.4,1.4,0,0,0,76.73,19.34ZM57.4,27.25a5.6,5.6,0,0,1-.67.89,2,2,0,0,0-.49,1,1.42,1.42,0,0,0-.31.28.68.68,0,0,1-.37.22,2.24,2.24,0,0,0-.4,1,.9.9,0,0,1,0,.4l-.21.33a2.11,2.11,0,0,0-.16.34,1.61,1.61,0,0,0,0,.52,3.94,3.94,0,0,1,0,.52,2.3,2.3,0,0,0,.13,1.23,2,2,0,0,1,.24.74,3.23,3.23,0,0,0,.16,1.22l.27.68c.08.12.14.22.19.31a2.94,2.94,0,0,0,.18.3,5.35,5.35,0,0,1,.18,1.23,1.84,1.84,0,0,0,.25.92c.29.33.41.51.37.55a.09.09,0,0,0,0,.13c.24.08.36.2.34.36a.37.37,0,0,0,.09.37.55.55,0,0,0,.3.16.54.54,0,0,1,.31.15c.08.24.19.37.31.37a.7.7,0,0,1,.37.12.42.42,0,0,0,.3.37.75.75,0,0,1,.37.18,1,1,0,0,0-.37-.8.79.79,0,0,0,0-.73c-.1-.25-.22-.5-.36-.77a5.66,5.66,0,0,1-.4-.89,2.78,2.78,0,0,1-.19-1,2.92,2.92,0,0,0-.18-.31.65.65,0,0,1-.12-.37,1.79,1.79,0,0,1,0-.76,1.21,1.21,0,0,0,0-.71.64.64,0,0,1-.07-.46,1.26,1.26,0,0,0,.07-.46,1.05,1.05,0,0,0-.13-.52,1.05,1.05,0,0,1-.12-.52.9.9,0,0,1,.06-.34.93.93,0,0,0,.06-.34,1,1,0,0,0-.09-.43,2.39,2.39,0,0,1-.15-.37,10.31,10.31,0,0,1,.21-2.76,15.16,15.16,0,0,0,.4-2.27Z"/><path class="cls-1" d="M94.73,4.24a.51.51,0,0,1-.37.4.62.62,0,0,0-.43.4h-.68a2.11,2.11,0,0,1-.15.8,3.27,3.27,0,0,0-.21.79,4.6,4.6,0,0,0,0,1.29,3.63,3.63,0,0,1,0,1.23,1.81,1.81,0,0,1-.1.58,1.92,1.92,0,0,0-.09.59,5.1,5.1,0,0,0-.06,1.35A5.1,5.1,0,0,1,92.58,13c-.08.32-.15.58-.19.76a1.69,1.69,0,0,0,.07.77.81.81,0,0,0,.61,0,1.66,1.66,0,0,1,.61-.12,1.63,1.63,0,0,0,.89.09,2.54,2.54,0,0,1,.65-.09,2.06,2.06,0,0,1,.7.12.57.57,0,0,0,.65-.25,4.82,4.82,0,0,1,1.1.1c.25.06.49.11.74.15,0,.21,0,.32.15.34a.32.32,0,0,1,.28.21c0,.09,0,.2-.16.34a.47.47,0,0,0,0,.58c-.41.37-.67.54-.79.49s-.17,0-.13.19a21.51,21.51,0,0,0-5.15-.25,3.28,3.28,0,0,1-.22.83,2.19,2.19,0,0,0-.15.77,1.05,1.05,0,0,0,.12.52,1.05,1.05,0,0,1,.13.52,11.73,11.73,0,0,1-.07,1.2,11.71,11.71,0,0,0-.06,1.19,1.34,1.34,0,0,0,.13.59,1.43,1.43,0,0,1,.12.58,1.49,1.49,0,0,1-.06.4,1.49,1.49,0,0,0-.06.4,1.55,1.55,0,0,0,.06.4,1.44,1.44,0,0,1,.06.4,3.29,3.29,0,0,1-.09.79,1,1,0,0,0,.21.8,5,5,0,0,0-.09,1,.7.7,0,0,0,.21.43c-.08.7-.15,1.35-.21,2a12.66,12.66,0,0,0,0,2c-.08.45-.07.71,0,.77s.13.13.09.21a10.87,10.87,0,0,0-.24,2,9.11,9.11,0,0,0,.12,1.47.69.69,0,0,0,.09.34,1.66,1.66,0,0,1,.15.33,1.35,1.35,0,0,1-.06.43,1.24,1.24,0,0,0-.06.37,2.16,2.16,0,0,1-.09.86,1,1,0,0,0-.15.31,1.68,1.68,0,0,0,0,.73,2.65,2.65,0,0,0,.3.8,3.57,3.57,0,0,0,.46.62c.17.16.31.2.43.12a1.85,1.85,0,0,0,.68,1,1.75,1.75,0,0,1,.61.71,1.76,1.76,0,0,1,1,.49,1.8,1.8,0,0,0,.4.43,2.43,2.43,0,0,0,1.23.4,8.76,8.76,0,0,1,1.29.15c.49.2.76.27.83.21a.29.29,0,0,1,.21-.09,2.13,2.13,0,0,0,1.2.22.69.69,0,0,1,.76.39.82.82,0,0,1,.07.56,2.3,2.3,0,0,0-.07.55,5.7,5.7,0,0,1-.76.43,2,2,0,0,1-.83.18l-.37-.12L99.51,46l-.4,0-.76-.06c-.29,0-.66,0-1.11,0a.46.46,0,0,0-.34-.21.46.46,0,0,1-.33-.21.82.82,0,0,1-.59-.1.65.65,0,0,0-.58,0c0-.24,0-.37-.18-.4a1.34,1.34,0,0,0-.49,0,1.92,1.92,0,0,0-.56-.79l-.73.18a1.69,1.69,0,0,1-.74-.06,2,2,0,0,1-.43-.46,2.41,2.41,0,0,0-.61-.58,1.58,1.58,0,0,0-.37-.1c-.16,0-.27-.07-.31-.15a2,2,0,0,0-.89-.74,3.2,3.2,0,0,1-.83-.49,1.17,1.17,0,0,0-.46-.58,1,1,0,0,1-.33-.21,2,2,0,0,1-.43-.37,2.26,2.26,0,0,1-.37-.43,6,6,0,0,0-1-1.38,1.36,1.36,0,0,1-.46-1.26,7.76,7.76,0,0,0-.31-.74,5.7,5.7,0,0,1-.31-.73l-.24-.8a1.19,1.19,0,0,1,.06-.37,1,1,0,0,0,.06-.31,8.55,8.55,0,0,0,0-1.22,4.76,4.76,0,0,1,.09-1.17c.08-.24.06-.38-.06-.4s-.18-.13-.18-.34a1.46,1.46,0,0,0,.4-1.1A4.33,4.33,0,0,1,86,29c-.2-.57-.24-.9-.12-1a.58.58,0,0,0,.24-.37,5.42,5.42,0,0,0,.07-1.84C86.05,25.23,86,24.61,86,24a1,1,0,0,1,0-.49A1,1,0,0,0,86,23a2.87,2.87,0,0,0-.15-.37.84.84,0,0,1-.09-.37,1,1,0,0,1,.06-.3,1.24,1.24,0,0,0,.06-.37,4.73,4.73,0,0,0,0-.56,1.77,1.77,0,0,1,0-.55,4.86,4.86,0,0,0,0-1.22,7.72,7.72,0,0,1-.09-1.23,2,2,0,0,1,.12-.65,1.05,1.05,0,0,0,0-.7,3.74,3.74,0,0,1-.65-.06,3.63,3.63,0,0,0-.64-.06,1.1,1.1,0,0,0-.31.06,1.13,1.13,0,0,1-.36.06,1.65,1.65,0,0,0-1.23-.12.74.74,0,0,1-.8-.13c-.25.21-.46.28-.64.22l-.65-.22c-.53-.16-.82-.34-.86-.52a.62.62,0,0,0-.24-.4.86.86,0,0,1,.4-.52,6.27,6.27,0,0,1,.58-.28,1.79,1.79,0,0,1,1.13-.09,2.26,2.26,0,0,0,1.08.09,1.05,1.05,0,0,0,.52-.12,1.76,1.76,0,0,1,.52-.18.42.42,0,0,1,.34,0c.14.06.25,0,.34-.16a.87.87,0,0,0,.73.16.83.83,0,0,1,.74.21,1.16,1.16,0,0,0,.21-1,2.71,2.71,0,0,1-.09-1,.64.64,0,0,1,.09-.34,1.77,1.77,0,0,0,.16-.34,5.35,5.35,0,0,0,0-1c0-.33,0-.65,0-1,.2-.08.27-.29.21-.62a1.87,1.87,0,0,1,0-.73,2.52,2.52,0,0,0,.25-1.11c0-.2-.09-.4-.13-.61a4.51,4.51,0,0,0-1,.25,1.76,1.76,0,0,1-1,.06.83.83,0,0,1-.43-.1A.84.84,0,0,0,83.68,7a1.59,1.59,0,0,0-.92.31,2,2,0,0,1-.92.37,2.46,2.46,0,0,1-.52-.8A.81.81,0,0,1,81.47,6a4.87,4.87,0,0,1,1.41-.68.56.56,0,0,1,.43,0,1,1,0,0,0,.43.09,4,4,0,0,0,.65-.09l.92-.22.86-.24a2.81,2.81,0,0,0,.58-.25,9.29,9.29,0,0,0,1-.06,1.28,1.28,0,0,0,.86-.43,3.45,3.45,0,0,0,1.72-.31A4.12,4.12,0,0,1,92,3.44c.2-.08.48-.2.82-.36A.87.87,0,0,1,93.68,3c.41.21.64.37.68.5a.75.75,0,0,0,.18.3ZM90.31,32.59a1.28,1.28,0,0,1,.15-.31.42.42,0,0,0,0-.36c0-.17-.07-.3-.09-.4a2.17,2.17,0,0,1,0-.4,3.45,3.45,0,0,1,.09-1.2,1.7,1.7,0,0,0-.15-1.2,1.52,1.52,0,0,0,.21-1.22,6,6,0,0,1-.15-1.29,1.31,1.31,0,0,1,.09-.52.58.58,0,0,0-.09-.52,2.82,2.82,0,0,0,.09-1.2c-.06-.35-.11-.71-.15-1.07a1.63,1.63,0,0,0,.12-.86,6.33,6.33,0,0,1-.06-.86q.06-.73.18-1.44a5.84,5.84,0,0,0,.06-1.45,4.56,4.56,0,0,0-.09-.92c-.06-.28-.11-.59-.15-.92a1.24,1.24,0,0,1,.06-.37,1.35,1.35,0,0,0,.06-.43,1.13,1.13,0,0,0-.06-.36,1.44,1.44,0,0,1-.06-.43,3,3,0,0,1,.15-.95,5.15,5.15,0,0,0,.22-1,2.42,2.42,0,0,0,0-.76,2.48,2.48,0,0,1,0-.77,9.18,9.18,0,0,1,.18-1.07c.08-.35.14-.71.19-1.08a2.1,2.1,0,0,0,.12-.95,5.09,5.09,0,0,1-.06-.77c0-.28.09-.57.15-.85a1.2,1.2,0,0,0-.15-.86L89.6,6a3.44,3.44,0,0,0-1.26.37,8.66,8.66,0,0,1-.21,2.39,13.63,13.63,0,0,0-.34,2.39,5.1,5.1,0,0,0,0,.65,3.11,3.11,0,0,1,0,.43,4.73,4.73,0,0,1,0,.49c0,.18-.07.46-.15.83a.59.59,0,0,1,.18.55,3.15,3.15,0,0,0-.06.61v1.6c0,.2-.09.41-.15.61a2.21,2.21,0,0,0-.09.62,2.09,2.09,0,0,0,.12.61,2,2,0,0,1,.12.55.4.4,0,0,1-.24.19c-.13,0-.09.2.12.49l-.12.36c0,.13-.09.27-.13.43a16.77,16.77,0,0,1,.28,2.27,16.4,16.4,0,0,0,.15,1.72c0,.21.1.42.16.65a2.47,2.47,0,0,1,.09.64,2.68,2.68,0,0,1-.12.77,2.57,2.57,0,0,0-.13.83c0,.16.1.32.16.49a1.41,1.41,0,0,1,.09.49,1.59,1.59,0,0,1-.09.55,4.66,4.66,0,0,0-.16.49,3.74,3.74,0,0,0,0,.52,1.59,1.59,0,0,1,0,.52.9.9,0,0,1-.06.34l-.12.34a2.71,2.71,0,0,0-.06,1,2.69,2.69,0,0,1-.06,1,2.42,2.42,0,0,0-.1,1.54,1.46,1.46,0,0,1,.1,1,.94.94,0,0,1,.3.67,1.65,1.65,0,0,0,.13.68,2.79,2.79,0,0,0,.24.31l.25.24c.08.17.21.41.4.74a1.78,1.78,0,0,1,.27.8.59.59,0,0,1,.62.33.73.73,0,0,0,.55.46A20.14,20.14,0,0,0,90.49,36C90.45,34.92,90.39,33.78,90.31,32.59Z"/><path class="cls-1" d="M115.85,22.65c-.08.33-.2.7-.34,1.1a1.06,1.06,0,0,0,.22,1.11,1.21,1.21,0,0,0-.4.83c0,.22,0,.44,0,.64a2.38,2.38,0,0,0,0,1.08,1.9,1.9,0,0,1,.12.64c0,.61,0,1.22,0,1.81s0,1.2,0,1.81c0,.37.08.73.12,1.07s.09.69.13,1a11,11,0,0,1-.22,2.76,7.21,7.21,0,0,0,0,2.7c0,.16.08.3.12.43s.09.24.13.37a4.43,4.43,0,0,1,.12,1.07,1.64,1.64,0,0,0,.31,1,1.59,1.59,0,0,0-.1.92,1.92,1.92,0,0,1,0,.92,3.42,3.42,0,0,0,.65.06,3.3,3.3,0,0,1,.64.07c.25,0,.37-.09.37-.25s.1-.25.31-.25l.79.37a.6.6,0,0,1,.16.37c0,.16.13.23.34.18a1.74,1.74,0,0,0-.13,1.17,1.45,1.45,0,0,1-.46.15.73.73,0,0,1-.46-.09,2,2,0,0,1-1.47.62,2.94,2.94,0,0,0-1.53-.19l-1,.19c-.32,0-.62,0-.89,0a2.85,2.85,0,0,0-.82,0,1.71,1.71,0,0,0-.62.12,1.52,1.52,0,0,1-.55.12,2.22,2.22,0,0,0-1.26-.18,4,4,0,0,1-.7.18,1,1,0,0,1-.31-.06,1.19,1.19,0,0,0-.37-.06,1.85,1.85,0,0,0-.67,0,4.45,4.45,0,0,0-.56.18,2.75,2.75,0,0,1-.61.16.66.66,0,0,1-.55-.22,2.45,2.45,0,0,1-1.23-.06,3.43,3.43,0,0,0-1.17-.18c-.16-.17-.21-.32-.15-.46s-.05-.22-.34-.22a1.27,1.27,0,0,1,.49-.74,4,4,0,0,0,.68-.55,1,1,0,0,1,.74,0,1.47,1.47,0,0,0,.61.22.77.77,0,0,0,.43-.4.49.49,0,0,0-.06-.52c.2-.45.32-.72.37-.8l.12-.25a5.46,5.46,0,0,0,.15-1,4.84,4.84,0,0,1,.16-1,1.76,1.76,0,0,0,0-.55.84.84,0,0,1,.09-.49,3.59,3.59,0,0,1,.31-.62,1.92,1.92,0,0,0,.24-.67.79.79,0,0,0,0-.37,2.72,2.72,0,0,1,0-.43,2,2,0,0,0,.12-.31c0-.12.08-.24.13-.37.2-.73.4-1.51.61-2.33a3.57,3.57,0,0,0-.18-2.33,1.6,1.6,0,0,0,.15-.55.77.77,0,0,1,.21-.49,5.64,5.64,0,0,1,.25-2.82c0-.17.08-.31.12-.43a1.44,1.44,0,0,0,.06-.43,1.32,1.32,0,0,0,0-.56,1.27,1.27,0,0,1,0-.55,1.05,1.05,0,0,1,.19-.34,1.06,1.06,0,0,0,.18-.33c.16-.58.3-1.05.4-1.41s.19-.74.28-1.11A1.67,1.67,0,0,0,109,23a2.55,2.55,0,0,1-1.32.12.85.85,0,0,0-.49.25.61.61,0,0,1-.43.18,1.94,1.94,0,0,1-.8-.24,5.67,5.67,0,0,1-.74-.43,4,4,0,0,0,0-.53,1.61,1.61,0,0,1,0-.52.51.51,0,0,1,.37-.12c.16,0,.25-.1.25-.31a1.3,1.3,0,0,0,.61,0c.24-.06.41-.05.49,0a.83.83,0,0,1,.52-.21c.23,0,.32-.16.28-.4a1.47,1.47,0,0,0,1.41,0,1.67,1.67,0,0,1,1.35-.18.44.44,0,0,1,.34-.22c.14,0,.25.05.33.22a4.22,4.22,0,0,1,2-.13,2.47,2.47,0,0,1,1.66,1.11c.49.32.75.56.79.7A.58.58,0,0,0,115.85,22.65Zm-4.11,2.88a.81.81,0,0,1-.06.56,1.26,1.26,0,0,0-.19.36.79.79,0,0,0,0,.37,2.81,2.81,0,0,1,0,.43,11.69,11.69,0,0,1-.3,1.2,5.45,5.45,0,0,0-.25,1.2,3.45,3.45,0,0,1,0,1.07,2.47,2.47,0,0,0-.09.64,1.39,1.39,0,0,0,0,.59c0,.1,0,.27-.13.52a8.79,8.79,0,0,1,.13,1.47,6,6,0,0,1-.13,1.29,7.82,7.82,0,0,0-.42,1.66,7.34,7.34,0,0,1-.25,1.22,2.2,2.2,0,0,0-.43,1.14,1,1,0,0,1-.06.58c-.25.08-.32.2-.22.34s.14.26.1.34c-.25.28-.33.48-.25.58a.35.35,0,0,1,.06.34,13,13,0,0,0-.58,1.38,2,2,0,0,0,0,1.44,3,3,0,0,0,1.5.09,3.32,3.32,0,0,1,1.14-.09,1.66,1.66,0,0,1,.33.15.69.69,0,0,0,.34.09c.49,0,.81,0,1-.18s.26-.24.34-.24a.39.39,0,0,1,.37-.07.26.26,0,0,0,.31-.06,2.56,2.56,0,0,0,0-.92,4.42,4.42,0,0,1-.09-.92,1.89,1.89,0,0,1-.18-.7c0-.19,0-.38,0-.59s0-.4-.06-.58,0-.32,0-.4a2.28,2.28,0,0,0,0-.89,1.15,1.15,0,0,1-.1-.52.61.61,0,0,1,.1-.34.63.63,0,0,0,.09-.33.93.93,0,0,0,0-.47,1.65,1.65,0,0,1-.06-.46,2.18,2.18,0,0,1,.06-1,3.69,3.69,0,0,0,.12-.95,3.63,3.63,0,0,0-.06-.64,3.74,3.74,0,0,1-.06-.65,3.44,3.44,0,0,0,.12-.79,2.07,2.07,0,0,0-.15-.8,1.94,1.94,0,0,1-.16-.8c.08-.65.14-1.15.16-1.5s0-.69,0-1,0-.77-.06-1.35a2.24,2.24,0,0,1,.18-1.28c-.25-.13-.3-.34-.15-.65a1.06,1.06,0,0,0,0-1,.66.66,0,0,0,.18-.49v-.55a4.5,4.5,0,0,1-.37-.28,1.14,1.14,0,0,1-.3-.4,2.43,2.43,0,0,1-.37.31.82.82,0,0,0-.31.37.52.52,0,0,0-.06.43.7.7,0,0,1-.06.49,2.1,2.1,0,0,1-.25.52A1.45,1.45,0,0,0,111.74,25.53Zm2-13.07c.37-.12.6-.14.68-.06s.29.31.4.31a.37.37,0,0,1,.27.12,1.91,1.91,0,0,1,.56.83,2.73,2.73,0,0,0,.49.89,1.83,1.83,0,0,0-.16.89,4.72,4.72,0,0,0,.16,1c0,.21,0,.31-.19.31s-.2.12-.12.37a1.15,1.15,0,0,0-.37.67,14.47,14.47,0,0,1-1.9,1.14,3,3,0,0,1-2.09.27,1.29,1.29,0,0,1-.83-.52,2,2,0,0,0-.76-.64,2.07,2.07,0,0,1-.16-.65,6.17,6.17,0,0,0-.09-.64,2.63,2.63,0,0,1-.06-1.66,8.09,8.09,0,0,0,.43-1,4,4,0,0,0,.61-.4,2.22,2.22,0,0,0,.31-.28,2.55,2.55,0,0,0,1.23-.49,4.74,4.74,0,0,0,1-.15C113.37,12.62,113.56,12.55,113.76,12.46Zm.13,2.52a1.82,1.82,0,0,1-1.6.12,3,3,0,0,0-.37,2.09,5.53,5.53,0,0,1,1.17-.25,1.1,1.1,0,0,0,.4-.58.67.67,0,0,1,.52-.46c0-.16-.08-.31-.12-.43A.8.8,0,0,1,113.89,15Z"/><path class="cls-1" d="M137.28,18.66a9.77,9.77,0,0,0,1.13-.06,2.9,2.9,0,0,1,1,.06,3.62,3.62,0,0,1,1,.43,1,1,0,0,0,1,.12.75.75,0,0,1,.37.22,1.18,1.18,0,0,0,.31.27.64.64,0,0,1,.39-.09l.4.09a1.57,1.57,0,0,0,1,.31.4.4,0,0,1,.49.25,1.51,1.51,0,0,1,.92.06,4.93,4.93,0,0,1,.92.31,1.5,1.5,0,0,1,.43.33.37.37,0,0,0,.49.09,1.18,1.18,0,0,0,.67.71,2.18,2.18,0,0,1,.8.58c.49.62.9,1.1,1.23,1.45a3.09,3.09,0,0,1,.49.58.86.86,0,0,0,.18.61,1.15,1.15,0,0,1,.25.31,2,2,0,0,0,.34.73.58.58,0,0,1,.15.19,1.39,1.39,0,0,1,.09.64.63.63,0,0,0,.34.59c-.08.32,0,.55.09.67s.15.37,0,.74a1.46,1.46,0,0,1,.22.3.44.44,0,0,0,.27.25,1.93,1.93,0,0,0,0,1,3.92,3.92,0,0,1,.16,1.08,19.32,19.32,0,0,1-.22,2.45,22.12,22.12,0,0,1-.46,2.46,1.63,1.63,0,0,0-.31.27,1.07,1.07,0,0,1-.36.28,3.4,3.4,0,0,1-.46,1.19,3.16,3.16,0,0,0-.46,1.2,3.83,3.83,0,0,0-.83.68,8.54,8.54,0,0,0-.65.79,4.57,4.57,0,0,1-.67.77,5.06,5.06,0,0,0-.68.77,1.75,1.75,0,0,1-.43.37.46.46,0,0,0-.18.06,2.76,2.76,0,0,0-.61.73.86.86,0,0,1-.19.31,6.09,6.09,0,0,0-1,.71,2.4,2.4,0,0,1-1.14.52,2,2,0,0,1-.73.46,1.89,1.89,0,0,0-.74.46,2.11,2.11,0,0,1-1.2.61.9.9,0,0,0-.76.43.8.8,0,0,0-.71.06,1.73,1.73,0,0,1-.64.31,7.59,7.59,0,0,0-2.33,0,1.28,1.28,0,0,0-.56.12.84.84,0,0,1-.55.06,3,3,0,0,1-1.26-.27,2,2,0,0,0-1.25-.16,5.14,5.14,0,0,0-1.32-.76,6.64,6.64,0,0,0-1.45-.4,2.8,2.8,0,0,0-1.35-1,4.48,4.48,0,0,0-.58-.61c-.31-.28-.64-.6-1-1s-.72-.65-1-.92a2.86,2.86,0,0,0-.68-.46c-.16-.29-.32-.55-.46-.8a2.59,2.59,0,0,0-.58-.67c-.09-.29-.17-.58-.25-.86a1.63,1.63,0,0,0-.43-.74,1.24,1.24,0,0,0-.06-.86,4.74,4.74,0,0,1-.31-.86,3.4,3.4,0,0,1-.06-1.1,2.17,2.17,0,0,0-.18-1.11.54.54,0,0,0,.21-.61c-.06-.25,0-.41,0-.49a2.73,2.73,0,0,0,.22-1.44,5,5,0,0,1,0-1.44.81.81,0,0,1,.09-.37,3.54,3.54,0,0,0,.16-.43,1.23,1.23,0,0,0,0-.46.71.71,0,0,1,.09-.46,7.49,7.49,0,0,0,.64-1.11,3.72,3.72,0,0,0,.22-.67c0-.41.1-.61.18-.59a.16.16,0,0,0,.19,0l1.13-1.38c.22-.26.46-.56.71-.89a18.65,18.65,0,0,1,1.44-1.56,13.8,13.8,0,0,1,1.62-1.44c.45-.33.75-.56.89-.68a2.06,2.06,0,0,0,.4-.43.65.65,0,0,0,.77-.21.66.66,0,0,1,.71-.28,1.51,1.51,0,0,0,.67-.55,5,5,0,0,0,1.23-.31,1.65,1.65,0,0,1,1.1-.09A1.44,1.44,0,0,0,137.28,18.66Zm-7.55,6.51a.88.88,0,0,1-.4.24.92.92,0,0,0-.4.25.51.51,0,0,1-.33.4c-.19.06-.24.23-.16.52,0,0-.18,0-.43.24l-.49.43a3.07,3.07,0,0,1-.55,1.38,4.23,4.23,0,0,0-.55.89,6.38,6.38,0,0,0-.46,1.63,9.54,9.54,0,0,0-.22,1.69,1.43,1.43,0,0,0,.06.39.68.68,0,0,1,0,.4,2,2,0,0,1-.18.83,2.4,2.4,0,0,0-.12,1.14,1.23,1.23,0,0,0,.12.4,1.11,1.11,0,0,1,.12.4c-.08.28-.09.47,0,.55a.4.4,0,0,1,.09.24,1,1,0,0,1,0,.43,2.21,2.21,0,0,0,0,.37,1.71,1.71,0,0,0,.5.77,1.08,1.08,0,0,1,.36.83c.17.2.32.39.46.58a2,2,0,0,1,.34.64,2.48,2.48,0,0,1,.77.74,1.1,1.1,0,0,0,1,.43c.08-.41,0-.69-.12-.83a1.67,1.67,0,0,1-.43-.64,1.23,1.23,0,0,0-.12-.77,3.47,3.47,0,0,1-.31-.71,3.81,3.81,0,0,1-.12-.92,1.42,1.42,0,0,0-.25-.79,2.34,2.34,0,0,0,.28-1.2q0-.59,0-1.2c.2-1.39.37-2.5.52-3.34s.27-1.62.4-2.33.18-1.12.18-1.2a1.05,1.05,0,0,1,.19-.34,1,1,0,0,0,.18-.34A8.74,8.74,0,0,0,130,26q.12-.7.3-1.38l-.33.16A.38.38,0,0,0,129.73,25.17Zm9.7,20a1,1,0,0,1,1-.31,1.1,1.1,0,0,0,.31-.33.63.63,0,0,1,.24-.28,3,3,0,0,1,.92-.31,11.94,11.94,0,0,0,1.32-.7,4.84,4.84,0,0,0,1.08-.89.45.45,0,0,0,.36-.13,1.53,1.53,0,0,0,.25-.3,2.52,2.52,0,0,1,.37-.43,2.07,2.07,0,0,1,.73-.43l1.08-1.32c.34-.43.72-.87,1.13-1.32A4.84,4.84,0,0,0,149,37a5,5,0,0,1,.74-1.48,7.12,7.12,0,0,0,.43-.92,1.14,1.14,0,0,0,.12-.64,1.61,1.61,0,0,1,0-.64,2.18,2.18,0,0,1,.09-.83c.06-.1.11-.2.15-.28a2.72,2.72,0,0,0-.24-1.5,2.68,2.68,0,0,1-.37-.89c-.08-.45-.16-.95-.25-1.51a1.58,1.58,0,0,0-.55-1.13.75.75,0,0,0-.06-.52,1.05,1.05,0,0,1-.12-.52,2.57,2.57,0,0,0-.49-.56c-.17-.12-.23-.34-.19-.67a4.54,4.54,0,0,0-.73-.65c-.13-.06-.17-.19-.13-.39a5.27,5.27,0,0,1-.79-.46c-.33-.23-.66-.44-1-.65a5.28,5.28,0,0,0-1-.49,1.07,1.07,0,0,0-.86,0,1.54,1.54,0,0,0-.86-.4,9.77,9.77,0,0,1-1-.21.84.84,0,0,0-.64-.1.52.52,0,0,1-.4,0,1.92,1.92,0,0,1-.64-.37.94.94,0,0,0-1.08-.31,1.84,1.84,0,0,1-.43.06l-.43,0-.61-.06a2.52,2.52,0,0,0-.55,0c-.17,0-.25.09-.25.21a1.34,1.34,0,0,0-1-.06,3.32,3.32,0,0,1-1.11.19.6.6,0,0,0-.12.43v.49a1.75,1.75,0,0,0-.83.73,2.7,2.7,0,0,1-.76.86c0,.21,0,.35-.07.43a.38.38,0,0,0-.06.37,1,1,0,0,0-.58.55,5.89,5.89,0,0,0-.37,1q-.15.56-.24,1.08c-.07.35-.12.62-.16.83a2.78,2.78,0,0,0-.43,1.38,1.62,1.62,0,0,1-.06.76,2.92,2.92,0,0,0-.21.93.74.74,0,0,1,0,.36,1.28,1.28,0,0,0-.13.68l.13.24a7.47,7.47,0,0,0-.56,2.15,2.19,2.19,0,0,0,.1.65,1.4,1.4,0,0,1,0,.64.59.59,0,0,1-.1.34,1.52,1.52,0,0,0-.15.34,4.4,4.4,0,0,0,.12,1.81c.17.51.35,1.07.56,1.68a15.51,15.51,0,0,1,.73,2,1,1,0,0,1,.31.64v.4a2.63,2.63,0,0,0,.28.92.74.74,0,0,1,.09.55,5.19,5.19,0,0,1,.67.28,5.35,5.35,0,0,0,.68.27,4.91,4.91,0,0,0,1.07.16q.59,0,1.08.09a2.2,2.2,0,0,1,.49.15.94.94,0,0,0,.43.1,6.3,6.3,0,0,0,1.38-.19A3.28,3.28,0,0,1,139.43,45.17Z"/><path class="cls-1" d="M168.34,23.45a.85.85,0,0,1-.21.4.82.82,0,0,0-.22.4.85.85,0,0,1,0,.46c0,.22,0,.33.13.33a2.86,2.86,0,0,0-.25,1.57,11.8,11.8,0,0,1,0,1.69c.21.08.31,0,.31-.13a.43.43,0,0,1,.18-.37l.37-.24a1.69,1.69,0,0,1,.43-.19,6.31,6.31,0,0,0,1-1,1.46,1.46,0,0,1,.86-.52,1,1,0,0,1,.37-.46.91.91,0,0,0,.37-.46,1.92,1.92,0,0,0,.61-.18c.29-.13.58-.27.89-.43l.86-.49.58-.37a1.68,1.68,0,0,1,.65-.19,7,7,0,0,0,.7-.12,4.37,4.37,0,0,0,1.08-.15,9.48,9.48,0,0,1,1-.22l.28,0,.36-.09.43-.12.28-.06a3.64,3.64,0,0,1,1.84.06,8.47,8.47,0,0,0,1.72.37,2,2,0,0,1,.49.39.71.71,0,0,0,.67.16.79.79,0,0,0,.43.43.73.73,0,0,1,.43.37,1.45,1.45,0,0,0,.43.58,1.05,1.05,0,0,1,.31.21c.2.29.33.42.37.4s.1,0,.18.09a.82.82,0,0,1,.16.43c0,.21.15.29.39.25a1.17,1.17,0,0,0,.43.92,3.48,3.48,0,0,1,.74.67,6.86,6.86,0,0,1,0,1.11,1.69,1.69,0,0,0,.28,1,9.35,9.35,0,0,0-.09.95,1.91,1.91,0,0,0,.09.89,2.64,2.64,0,0,1-.25.89c-.16.39-.14.67.06.83,0,.17,0,.44-.06.83s-.14.6-.3.64a2.66,2.66,0,0,1,0,1.14,3.48,3.48,0,0,1-.31,1.07c-.08.17-.07.28,0,.34s.11.18,0,.34a1.48,1.48,0,0,0-.31.7,1,1,0,0,1-.37.65.77.77,0,0,1,.07.52,1.6,1.6,0,0,0-.07.52,1.27,1.27,0,0,0,.13.58.55.55,0,0,1-.13.59,2.65,2.65,0,0,0-.27,1,3.16,3.16,0,0,0,0,.95,1.33,1.33,0,0,0,.67.34,6.39,6.39,0,0,0,.83.12,3.49,3.49,0,0,1,.71.12.36.36,0,0,1,.3.34,1.85,1.85,0,0,1,1,.49.54.54,0,0,1,0,.4,2.33,2.33,0,0,1-.27.55,4.17,4.17,0,0,1-.37.49.93.93,0,0,1-.31.28.88.88,0,0,1-1-.12,1.71,1.71,0,0,0-.95-.5.94.94,0,0,0-.34.07.88.88,0,0,1-.33.06.73.73,0,0,1-.5-.16.67.67,0,0,0-.55-.09c-.33,0-.64,0-1,0l-.95.09a3.94,3.94,0,0,1-.89,0,.87.87,0,0,1-.64-.34c-.25,0-.55.07-.89.09a6.14,6.14,0,0,1-1.05,0,3,3,0,0,1-1-.28,1.22,1.22,0,0,1-.64-.58,1.62,1.62,0,0,1,.21-.61,6.14,6.14,0,0,1,.4-.56,4.77,4.77,0,0,0,1.6,0,.58.58,0,0,1,.52,0,.42.42,0,0,0,.27.13,8.88,8.88,0,0,1,1.41-.09,2.05,2.05,0,0,0,.86-.16.41.41,0,0,0,.13-.43c0-.16-.09-.32-.13-.49a.9.9,0,0,0,.49-.49c.09-.2,0-.37-.36-.49a2.38,2.38,0,0,0,.49-1,3.18,3.18,0,0,1,.43-1.08,2.09,2.09,0,0,1,.43-2,2.38,2.38,0,0,1,.12-1.32,8.62,8.62,0,0,0,.37-1.32q.12-.67.18-1.32a7.27,7.27,0,0,0,0-1.32,1.4,1.4,0,0,0-.06-.43.59.59,0,0,1,0-.37,3.21,3.21,0,0,1,.09-.82,2,2,0,0,0,0-.89,8.11,8.11,0,0,0-.58-1.72,4.6,4.6,0,0,0-1.08-1.48c-.2-.16-.39-.3-.58-.43l-.58-.36-.25-.25-.24-.24A.87.87,0,0,0,182,25a1.35,1.35,0,0,1-.59-.12,1.68,1.68,0,0,1-.4-.15,1.43,1.43,0,0,0-.39-.16,1.5,1.5,0,0,0-.86,0,3.3,3.3,0,0,1-.74.25,11.69,11.69,0,0,1-1.66.15,1.86,1.86,0,0,0-1.47.65.62.62,0,0,0-.89,0,1.92,1.92,0,0,1-.89.43,10.75,10.75,0,0,0-1.59,1,5.54,5.54,0,0,0-.92.95,1.48,1.48,0,0,0-.8.92,1,1,0,0,0-.49.22,1.15,1.15,0,0,1-.43.21c-.29.45-.59.9-.89,1.35s-.63.88-1,1.29a1.69,1.69,0,0,0,.15.7,1.61,1.61,0,0,1,.15.65,1,1,0,0,1-.09.64,1.08,1.08,0,0,0-.09.65.63.63,0,0,0,.09.33.69.69,0,0,1,.09.34.4.4,0,0,1,0,.34.4.4,0,0,0,0,.34,1.35,1.35,0,0,0,.09.52,1.18,1.18,0,0,1,.1.52,1,1,0,0,1,0,.55.84.84,0,0,0,0,.62q.24.24.12.33c-.08.06-.12.22-.12.46l.12.77c0,.27.08.54.12.83,0,.49.1,1,.19,1.5a4.31,4.31,0,0,0,.49,1.44,1.41,1.41,0,0,0,0,1,1.81,1.81,0,0,1,0,1,.93.93,0,0,0,.61.21,7.05,7.05,0,0,0,.92,0l.92-.06.74,0a1.08,1.08,0,0,0,.33.4,1.52,1.52,0,0,1,.4.4,1.31,1.31,0,0,1-.67.8,2.54,2.54,0,0,0-.86.67,2.57,2.57,0,0,1-.95.06,2.56,2.56,0,0,0-1,.06.82.82,0,0,0-.46.13.62.62,0,0,1-.46.06.94.94,0,0,1-.43-.09.76.76,0,0,0-.37-.1.59.59,0,0,0-.37,0,3.24,3.24,0,0,0-.31.13,1.92,1.92,0,0,1-.89-.22,1.32,1.32,0,0,0-.82-.15,1.73,1.73,0,0,0-.53.09q-.27.09-.39-.21a3.23,3.23,0,0,0-.8.21,2.11,2.11,0,0,1-.8.15c-.41-.08-.62-.1-.64-.06a.18.18,0,0,1-.16.06A1.7,1.7,0,0,1,162,48a1.7,1.7,0,0,0-.46-.06,2.92,2.92,0,0,0-.83.12,4.69,4.69,0,0,1-.76.19,4.19,4.19,0,0,1-1,.12h-1a1.2,1.2,0,0,1-1.41-.28,1.39,1.39,0,0,1-.31-1.31,1.42,1.42,0,0,1,.71-.31,5.59,5.59,0,0,1,.83-.06,5.69,5.69,0,0,0,.83-.06,1.33,1.33,0,0,0,.7-.37q0-.61,0-1.14a7.32,7.32,0,0,0,0-1.13,9.22,9.22,0,0,0,.37-1.41,5,5,0,0,1,.25-1,2.12,2.12,0,0,0,.12-1.16,2.22,2.22,0,0,1-.12-.68c.2-1.1.34-2,.43-2.73s.16-1.44.24-2.18a1.94,1.94,0,0,1,.12-.64,1.7,1.7,0,0,0,.13-.64,2.73,2.73,0,0,1,.15-1.2c.14-.39.11-.67-.09-.83a1.44,1.44,0,0,0,0-.77c-.06-.1,0-.27.21-.52a8.23,8.23,0,0,1,.16-2.3,8.12,8.12,0,0,0,.21-1.87,3.92,3.92,0,0,0-1.47.15,6,6,0,0,1-1.41.28,1.73,1.73,0,0,1-.92.37,4,4,0,0,1-1,0,.78.78,0,0,1-.31-.43,1.84,1.84,0,0,0-.19-.49c-.24-.08-.33-.22-.27-.4s0-.32-.09-.4a.73.73,0,0,1,.64-.4,1.43,1.43,0,0,0,.65-.09,2.74,2.74,0,0,0,.85-.22.54.54,0,0,1,.31-.09,6.41,6.41,0,0,1,1.23-.12,7.38,7.38,0,0,0,1.29-.12,3.57,3.57,0,0,0,.46-.16,3,3,0,0,0,.4-.21,3.39,3.39,0,0,1,1.32-.28,1.38,1.38,0,0,0,1.13-.52l.37.09a.86.86,0,0,0,.43-.09,4.47,4.47,0,0,1,.92-.31,3.94,3.94,0,0,1,1.07-.09,1.69,1.69,0,0,1,.92.31A1.13,1.13,0,0,1,168.34,23.45Zm-4.17,1.47a2.77,2.77,0,0,0-.49,1.69,11.09,11.09,0,0,1-.12,1.75.7.7,0,0,1-.1.36.87.87,0,0,0-.09.37,2.5,2.5,0,0,0,.19,1.66c-.33.21-.42.44-.28.71a.82.82,0,0,1,.09.7,4.23,4.23,0,0,0-.33,1.41c0,.45-.08.92-.16,1.41,0,.25-.08.49-.12.71s-.08.46-.12.71a2.78,2.78,0,0,0,.06.58.77.77,0,0,1-.06.52c-.09.21-.11.35-.06.43a.86.86,0,0,1,.06.37,2.88,2.88,0,0,1-.1,1.1,2.58,2.58,0,0,0-.09,1c.08.25.06.42-.06.53a.29.29,0,0,0-.06.39c-.12.21-.14.34-.06.4a.68.68,0,0,1,.18.4,1.56,1.56,0,0,0-.34.34,3.47,3.47,0,0,0-.27.46,2.48,2.48,0,0,1,0,.77l-.12.67a5.28,5.28,0,0,0-.1.71,2,2,0,0,0,.1.79,3.45,3.45,0,0,1,.55,0,.83.83,0,0,0,.49-.16,2.13,2.13,0,0,0,1.23,0,3,3,0,0,1,1-.18,2.52,2.52,0,0,1,.89.15,1.09,1.09,0,0,0,.83,0,4.79,4.79,0,0,0,0-1.41c-.06-.45-.13-.9-.22-1.35a.89.89,0,0,1,0-.4,2.91,2.91,0,0,0,0-.4c-.16-.45-.2-.71-.12-.8a1.37,1.37,0,0,1-.31-.73c0-.21,0-.42,0-.65s0-.43.07-.61a1.32,1.32,0,0,1,.09-.4A2.32,2.32,0,0,1,166,38a8.81,8.81,0,0,1-.06-1,1.77,1.77,0,0,0-.06-.8,2.58,2.58,0,0,1-.12-.8.66.66,0,0,1,0-.46,1.14,1.14,0,0,0,.09-.46,2.07,2.07,0,0,0-.15-.34.56.56,0,0,1-.1-.33,4.22,4.22,0,0,0,0-1.57,4.86,4.86,0,0,1-.21-.95,1,1,0,0,1,.06-.34.88.88,0,0,0,.06-.33,2.63,2.63,0,0,0,0-.43.77.77,0,0,1,0-.37c0-.21.08-.38.12-.52s.08-.32.13-.53a2.52,2.52,0,0,0-.13-.79,2.58,2.58,0,0,1-.12-.8,5.92,5.92,0,0,1,.09-1c.06-.35.11-.71.16-1.08-.33-.2-.6-.23-.8-.09A.75.75,0,0,1,164.17,24.92Z"/><path class="cls-1" d="M219.29,44.07l.77.24a1.79,1.79,0,0,0,.82.06,2.6,2.6,0,0,1,.83,0l.28.12a4.88,4.88,0,0,0,1.47.07,2,2,0,0,1,1.41.3c.13.09.13.21,0,.37s0,.27.22.31c-.08.2-.18.3-.28.3h-.46a5.45,5.45,0,0,0-.86.65l-.24.28A12.39,12.39,0,0,1,222,47a4.77,4.77,0,0,1-1.32-.06l-.43-.12-.37-.13a7.72,7.72,0,0,0-1,.09l-1.35.19-1.29.15-.64.06c-.25-.08-.4-.09-.46,0a1.25,1.25,0,0,1-.22.16,1.13,1.13,0,0,1-.52,0,.91.91,0,0,0-.52,0,2.19,2.19,0,0,0-.83.3,1.1,1.1,0,0,1-.89.13,1,1,0,0,1-.7-.53,4.74,4.74,0,0,0-.47-.7,13.59,13.59,0,0,1,0-3.13q-.3-.06-.39.06l-.28.31a1.36,1.36,0,0,0-.58.27,2.2,2.2,0,0,1-.34.28,1.39,1.39,0,0,1-.4.24,1.64,1.64,0,0,0-.4.25c-.16.21-.31.3-.43.28s-.16.11-.12.4a1.1,1.1,0,0,0-.71.12,6,6,0,0,1-.64.3,3.94,3.94,0,0,1-.77.19,4.68,4.68,0,0,0-.76.18,2.43,2.43,0,0,0-.37.16l-.43.21a1.37,1.37,0,0,1-.49,0,1.34,1.34,0,0,0-.49,0,2.79,2.79,0,0,0-.43.13l-.37.12a10.43,10.43,0,0,0-1,.3,1.89,1.89,0,0,1-1.08.07A1.58,1.58,0,0,1,200,47c-.08-.08-.21-.08-.37,0a2.61,2.61,0,0,0-1.72-.8,4.07,4.07,0,0,0-1.19-.92,4.08,4.08,0,0,1-1.2-.92c-.16-.45-.34-.93-.52-1.44a8,8,0,0,1-.4-1.5,1.26,1.26,0,0,0-.18-.62.38.38,0,0,1-.13-.3.49.49,0,0,1,0-.34,1.42,1.42,0,0,1,.13-.34V39a1.15,1.15,0,0,1,.3-.73,2.1,2.1,0,0,1,.09-1.17,4.17,4.17,0,0,0,.28-1.17,2.47,2.47,0,0,0,.68-1.47.68.68,0,0,0,.46-.31c.1-.16.21-.32.33-.49a2.88,2.88,0,0,1,.43-.33.51.51,0,0,0,.25-.46c.41-.13.62-.23.64-.31a.55.55,0,0,1,.16-.25,1.78,1.78,0,0,0,.61-.43c0-.08.14-.1.31-.06a1.11,1.11,0,0,1,.61-.61,1.11,1.11,0,0,0,.61-.61.48.48,0,0,1,.34.09c.06.06.19.07.4,0a4.7,4.7,0,0,0,.77-.4l.21-.22a6.7,6.7,0,0,1,1.47-.61c.58-.16,1.09-.28,1.54-.37.2-.08.41-.15.61-.21l.62-.16a4.21,4.21,0,0,1,1.13-.09,1.8,1.8,0,0,0,1.07-.27,2,2,0,0,1,.74.24.8.8,0,0,0,.74,0,1.22,1.22,0,0,0,1,.55,2.44,2.44,0,0,1,1.14.37,2.48,2.48,0,0,0,0-1.59,5,5,0,0,1-.27-1.6,3,3,0,0,1,0-.4.9.9,0,0,0,0-.4c0-.4,0-.62-.09-.64a.29.29,0,0,1-.16-.15,1.67,1.67,0,0,1-.06-.8,1.67,1.67,0,0,0-.06-.8,2.16,2.16,0,0,0-.15-.43.82.82,0,0,1-.1-.37,2.76,2.76,0,0,1-.58-.24.89.89,0,0,0-.64-.12,4.48,4.48,0,0,1-1.72-.07,1.76,1.76,0,0,0-1.35.19,1.12,1.12,0,0,0-1,0,.41.41,0,0,1-.4,0,.57.57,0,0,0-.4,0,1.75,1.75,0,0,0-.34.15l-.34.22a3.19,3.19,0,0,1-.92.09c-.24,0-.51.17-.79.58a2.6,2.6,0,0,0-1.26.49,4.11,4.11,0,0,1-1.14.62,3.78,3.78,0,0,0-.89,1.16,5.42,5.42,0,0,1-.83,1.23,1.08,1.08,0,0,1-.12.92,1.25,1.25,0,0,0-.24.8,11.17,11.17,0,0,1-1.23-.25.93.93,0,0,1-.8-.86.74.74,0,0,1,.12-.55l.31-.49c.33-.65.63-1.31.92-2a5.12,5.12,0,0,1,1.23-1.72,1.77,1.77,0,0,0,.95-.28,1.57,1.57,0,0,0,.64-.64.71.71,0,0,0,.92-.43,1.67,1.67,0,0,0,1-.34,1.08,1.08,0,0,1,.95-.21,1.72,1.72,0,0,1,.52-.47,1,1,0,0,1,.4-.09.75.75,0,0,1,.31.06.21.21,0,0,0,.24,0,2.24,2.24,0,0,1,.64-.18.74.74,0,0,0,.53-.25,1.42,1.42,0,0,0,1,.1,1,1,0,0,1,.92.15.92.92,0,0,1,.67-.25,10.33,10.33,0,0,1,2.06.28c.84.18,1.61.32,2.3.4a4.48,4.48,0,0,0,1,.74,2.21,2.21,0,0,0,1.2.18q.67.68,1.35,1.38t1.41,1.38a2.14,2.14,0,0,0,.28,1.14c.18.3.31.46.4.46a1.14,1.14,0,0,0,.55,1.1,4.42,4.42,0,0,0,.49,1.54A3.06,3.06,0,0,1,219.6,30c0,.25.06.38.18.4s.18.13.18.34l-.12,1.56a11.08,11.08,0,0,0,0,1.63,2.05,2.05,0,0,0,.06.49,2.32,2.32,0,0,1,.06.55,4.69,4.69,0,0,0-.24,2,4.17,4.17,0,0,1,0,1.41,2.26,2.26,0,0,1-.06,1,1.23,1.23,0,0,0-.19.49,3.26,3.26,0,0,0,.06.62,3.08,3.08,0,0,1,.07.61,1.31,1.31,0,0,1-.22.7.49.49,0,0,0,.09.65,1.56,1.56,0,0,0-.3.8A1.44,1.44,0,0,0,219.29,44.07Zm-7.36-11a2.87,2.87,0,0,1-1-.92c-.08-.41-.18-.61-.3-.61a.68.68,0,0,1-.31-.06c-.37-.37-.59-.53-.68-.49a.26.26,0,0,1-.24,0,1.12,1.12,0,0,0-.71-.19,1.44,1.44,0,0,1-.4.06,4.25,4.25,0,0,0-2,.19,2.52,2.52,0,0,1-1.41.18,1.29,1.29,0,0,1-1,.43,1.23,1.23,0,0,0-1.05.49,1.59,1.59,0,0,0-.64.12,3,3,0,0,0-.52.31c-.17.12-.32.23-.46.31a.5.5,0,0,1-.4.06,1.69,1.69,0,0,1-.55.61c-.25.17-.5.32-.74.46a4.91,4.91,0,0,0-.68.49,1.6,1.6,0,0,0-.43.71c-.41.37-.7.65-.89.86a2.3,2.3,0,0,0-.58,1.47.93.93,0,0,1-.37.74.49.49,0,0,1,.1.58,1.78,1.78,0,0,0-.22.58,1,1,0,0,0,0,.49.43.43,0,0,1-.12.43,10.28,10.28,0,0,1,.61,1.54,6.94,6.94,0,0,0,.68,1.53,2,2,0,0,1,.52.31.87.87,0,0,0,.58.18,3.46,3.46,0,0,0,1.72.92,3.83,3.83,0,0,0,2,0,3.93,3.93,0,0,1,1.66-.58,1.4,1.4,0,0,0,1-.34.37.37,0,0,0,.61,0,3.07,3.07,0,0,1,.5-.46.65.65,0,0,0,.67-.21.57.57,0,0,1,.61-.22c.25-.37.42-.55.53-.55a.61.61,0,0,0,.33-.12,3.83,3.83,0,0,0,.83-.68,2.88,2.88,0,0,1,.83-.61,1.92,1.92,0,0,1,.92-1.35h.34a.49.49,0,0,0,.34-.12c0-.25.08-.48.12-.71s.08-.44.12-.64,0-.53-.06-1a1.83,1.83,0,0,1,.06-.88,3.59,3.59,0,0,0,.15-1.85A3,3,0,0,1,211.93,33.08ZM214,26.45a9.75,9.75,0,0,1,0,1.26c0,.27,0,.57,0,.89a1,1,0,0,1,.15.4,1.09,1.09,0,0,0,.16.4c0,.82-.08,1.43-.12,1.84a10.14,10.14,0,0,0-.07,1.23,8,8,0,0,0,0,1.19q0,.59,0,1.26c0,.17,0,.4,0,.71a1,1,0,0,1-.21.64l.24.8-.24.92c-.08.57-.2,1.16-.34,1.75a7.86,7.86,0,0,0-.21,1.81.62.62,0,0,0,0,.43,1,1,0,0,1,.09.43,3.41,3.41,0,0,1-.12.92,1.6,1.6,0,0,0,0,.92.85.85,0,0,0,.33.37.44.44,0,0,1,.22.43,3.43,3.43,0,0,0,1.72-.19.82.82,0,0,1,.52-.06.83.83,0,0,0,.52-.06,1,1,0,0,1-.06-.49,1.52,1.52,0,0,1,.06-.55,4.66,4.66,0,0,1,.15-.71.12.12,0,0,0,0-.09,8.8,8.8,0,0,0,.37-2.58,23.38,23.38,0,0,1,.13-2.57q.06-.61.09-1.2t0-1.2a1.11,1.11,0,0,0,0-.67.48.48,0,0,1,0-.37.67.67,0,0,1,.09-.34.64.64,0,0,0,.09-.34.66.66,0,0,0-.09-.52.65.65,0,0,1-.09-.52.8.8,0,0,0,.21-1,1.73,1.73,0,0,1-.21-1,3.18,3.18,0,0,1-.16-1,.94.94,0,0,0-.09-.52.93.93,0,0,0-.24-.33.56.56,0,0,1-.19-.28,1.94,1.94,0,0,0,0-.68,6.22,6.22,0,0,1-.73-1.19l-.62-1.29a5.11,5.11,0,0,0-.76-1.17,3.4,3.4,0,0,0-1.14-.82,4.19,4.19,0,0,0,.06,1.59C213.7,25.41,213.85,25.92,214,26.45Z"/><path class="cls-1" d="M239.37,28.17a1.12,1.12,0,0,0,.92-.8L241,27a1.42,1.42,0,0,0,.31-.49.76.76,0,0,1,.37-.43,1.62,1.62,0,0,0,.58-.4,1.18,1.18,0,0,1,.22-.28,1,1,0,0,1,.33-.21.26.26,0,0,0,.16-.34.65.65,0,0,0,.67-.61c.45-.29.76-.47.92-.56a.55.55,0,0,0,.31-.43,2.14,2.14,0,0,0,.61-.15,5.32,5.32,0,0,0,.89-.4l.92-.46A3.78,3.78,0,0,1,248,22a1.26,1.26,0,0,1,.61,0,.57.57,0,0,0,.56-.25,2.15,2.15,0,0,0,.7.25.6.6,0,0,1,.52.36,1,1,0,0,1,.5,0,1.68,1.68,0,0,1,.33.16,1.75,1.75,0,0,0,.34.15,1,1,0,0,0,.49,0,3.37,3.37,0,0,0,.34.49.53.53,0,0,0,.52.12.33.33,0,0,0,.28.37c.18,0,.25.19.21.43a2.1,2.1,0,0,1,.31.25.75.75,0,0,0,.37.18,2.55,2.55,0,0,0,.24,1.32,3,3,0,0,1,.31,1.32,2.62,2.62,0,0,1-.06.95.62.62,0,0,0,.43.77,5.42,5.42,0,0,0-.43,1.59,2.81,2.81,0,0,1-1.38.19,1.27,1.27,0,0,1-1.14-.68,7.38,7.38,0,0,0,.34-1.53,5.33,5.33,0,0,0,0-1,.71.71,0,0,0-.09-.31,2,2,0,0,1-.16-.37A6.26,6.26,0,0,1,252,26a1.47,1.47,0,0,0-.12-.46,1.25,1.25,0,0,0-.34-.36,4,4,0,0,0-.74-.43,3.64,3.64,0,0,1-.49-.25.64.64,0,0,0-.55,0,1,1,0,0,0-1.11-.34l-1.16.46c-.21.09-.43.17-.68.25a1,1,0,0,0-.55.43,1.8,1.8,0,0,0-1,.46,1.88,1.88,0,0,1-.71.46,2.08,2.08,0,0,1-.52.64,1,1,0,0,0-.27.28c-.17.29-.27.43-.31.43s-.1,0-.19.12a2.85,2.85,0,0,1-.36.74.67.67,0,0,0-.19.3.42.42,0,0,1-.33.13A.45.45,0,0,0,242,29a.91.91,0,0,0-.46.37.69.69,0,0,1-.46.31,1,1,0,0,0-.34.49.54.54,0,0,1-.15.3c-.41.41-.62.72-.62.92a.72.72,0,0,1-.3.56c0,.2,0,.31-.19.33a.67.67,0,0,0-.37.16,8.7,8.7,0,0,1,0,2.7,10.55,10.55,0,0,0-.09,2.64q.06.18.12.33c0,.11.09.22.13.34a1.22,1.22,0,0,1,0,.46,3.33,3.33,0,0,0,0,.46,1.31,1.31,0,0,0,.09.52,3,3,0,0,1,.15.52.9.9,0,0,1-.06.34.93.93,0,0,0-.06.34,4.76,4.76,0,0,0,.31,1.69,2.26,2.26,0,0,1,0,1.62.62.62,0,0,0,.36.06c.21,0,.41,0,.62,0a3.29,3.29,0,0,0,.61-.12,1.07,1.07,0,0,0,.37-.15c.33-.21.53-.22.61,0s.23.19.43,0l.43.61a1.56,1.56,0,0,1,.19.64.69.69,0,0,1-.16.46,3.8,3.8,0,0,1-.33.37.9.9,0,0,0-.25.43h-.4c-.18,0-.28.08-.28.25-.61-.17-1-.21-1.07-.12a.62.62,0,0,1-.4.12l-.67-.25a1.56,1.56,0,0,0-.74-.06c-.53,0-.85,0-.95-.09a.55.55,0,0,0-.4-.15,4.72,4.72,0,0,0-1.59,0l-1.6.24a5.22,5.22,0,0,1-.58,0,2,2,0,0,0-.59,0,1.9,1.9,0,0,0-.58.09,1.86,1.86,0,0,1-.58.1,3.86,3.86,0,0,1-.68-.13,4.56,4.56,0,0,0-.92.09,1.17,1.17,0,0,1-.86-.15,4.7,4.7,0,0,1-2.63,0,4,4,0,0,0-.31-.58.58.58,0,0,1-.06-.58,1.09,1.09,0,0,1,.73-.68,4.31,4.31,0,0,1,1-.12c.34,0,.68,0,1,0a1.32,1.32,0,0,0,.8-.16.54.54,0,0,0,.12-.39v-.4a.76.76,0,0,0,.43-.49c.08-.25.16-.47.24-.68a8.11,8.11,0,0,0,.43-1.81c.09-.63.17-1.24.25-1.81a3.59,3.59,0,0,1,.15-.37.71.71,0,0,0,.09-.3A2.92,2.92,0,0,1,232,37a2.54,2.54,0,0,0,.16-.92,4.84,4.84,0,0,0,0-.92,3,3,0,0,1,.09-.92l.22-.34a1.75,1.75,0,0,0,.15-.34,7.47,7.47,0,0,0,.09-1.5,4.83,4.83,0,0,1,.15-1.44c.17-.41.22-.67.16-.77a.29.29,0,0,1,0-.28,3.13,3.13,0,0,0,.3-1.1,2,2,0,0,0,0-.74,3.23,3.23,0,0,1,.1-.46c.06-.26.12-.57.18-.92s.12-.67.18-1a3.37,3.37,0,0,0,.1-.71l-1.35.25-2.18.4a16.85,16.85,0,0,0-2,.49c-.59.18-.91.34-.95.46a.68.68,0,0,0-.49-.15,4,4,0,0,1-.49,0,1.45,1.45,0,0,1-.52-.1,1,1,0,0,1-.52-.46c-.09-.57,0-.91.12-1a.67.67,0,0,0,.31-.46,12,12,0,0,0,2.67-.52A11.75,11.75,0,0,1,231,23a9.85,9.85,0,0,0,1.69-.4l1.14-.4a1.28,1.28,0,0,1,.61-.09.39.39,0,0,0,.43-.28c.65.13,1,0,1.17-.24a2.29,2.29,0,0,0,1.68-.16,2.51,2.51,0,0,1,1.75-.15l.12.37a.29.29,0,0,0,.31.18,1.18,1.18,0,0,0-.15,1,.88.88,0,0,1-.28,1c.08.08.08.29,0,.64a1,1,0,0,0,0,.71,1.9,1.9,0,0,1-.18.85,1.84,1.84,0,0,0-.19.86,1.75,1.75,0,0,0,.13.65A1.9,1.9,0,0,1,239.37,28.17Zm-2.88-4.11c-.05.12-.1.25-.16.37a2.16,2.16,0,0,0-.15.43.77.77,0,0,0-.12.74.8.8,0,0,1,0,.61,1.43,1.43,0,0,0-.5,1.13,5.92,5.92,0,0,1-.12,1.26,2.52,2.52,0,0,1-.15.52,2.83,2.83,0,0,0-.15.53,4.12,4.12,0,0,0-.13,1.19,4.24,4.24,0,0,0,.13,1.2,4,4,0,0,0-.5,1.84,6.57,6.57,0,0,0,.13,1.9,4.41,4.41,0,0,0-.43.74c0,.16,0,.46,0,.89a5.23,5.23,0,0,1-.1.89,2.06,2.06,0,0,0-.18.89.74.74,0,0,1,.06.27,2.64,2.64,0,0,1-.24.86.82.82,0,0,0,.12.86,2.67,2.67,0,0,0-.43.68.78.78,0,0,1,0,.64,2,2,0,0,0-.22.64,1.36,1.36,0,0,1-.24.71.27.27,0,0,0,0,.4.49.49,0,0,0,.43.15,1.83,1.83,0,0,0,.46-.12,1.75,1.75,0,0,1,.37-.12q.15,0,.15.09a1.46,1.46,0,0,1,.64-.12h2.18a3.77,3.77,0,0,1,0-1,3.85,3.85,0,0,0,0-1,1.38,1.38,0,0,0-.09-.52,1.31,1.31,0,0,1-.09-.52,8.69,8.69,0,0,0-.22-2.55,5.83,5.83,0,0,1-.15-2.11,1.1,1.1,0,0,1,.09-.49,2.41,2.41,0,0,0,.16-.43,4.8,4.8,0,0,0,0-1.2,6.78,6.78,0,0,1-.1-1.2,17,17,0,0,1,0-2c0-.65.09-1.33.13-2s.1-1.7.18-2.54a13.58,13.58,0,0,0,0-2.55Z"/><path class="cls-1" d="M273.44,20.93c0,.29.07.54.09.77a1.38,1.38,0,0,1-.21.77c-.29.08-.55.14-.77.18a2.38,2.38,0,0,0-.83.37.57.57,0,0,1-.49,0,.4.4,0,0,0-.49.21.53.53,0,0,1-.43-.06.42.42,0,0,0-.37-.06,5.72,5.72,0,0,1-1.81.25,4,4,0,0,0-1.19.06,5,5,0,0,0,0,.55,8.31,8.31,0,0,0,.12.92c.06.33.12.64.18.92a5.35,5.35,0,0,0,.16.61,1.83,1.83,0,0,0,.18.53l.25.46c.08.24.17.53.27.86a2.44,2.44,0,0,0,.4.79,7.13,7.13,0,0,0,.68.71l.36.27c.13.41.26.82.4,1.23a3.45,3.45,0,0,0,.65,1.11c0,.08,0,.25.09.52s.21.57.34.92.24.66.36.95a2.11,2.11,0,0,0,.31.55,1.24,1.24,0,0,1,0,.49.52.52,0,0,0,.09.43,2,2,0,0,0,.34.55c.14.17.3.33.46.5a1.08,1.08,0,0,0,.12.52,4,4,0,0,1,.25.46c.25.24.36.43.34.55a.51.51,0,0,0,.09.37c.24.33.47.61.67.86a7.11,7.11,0,0,1,.62.86,1.84,1.84,0,0,1,.27-.34,1.81,1.81,0,0,0,.28-.34,1.05,1.05,0,0,0,.15-.49.31.31,0,0,1,.34-.31.57.57,0,0,1,.06-.46c.08-.1.08-.25,0-.46a.42.42,0,0,0,.37-.37.54.54,0,0,1,.37-.42,1.52,1.52,0,0,1,.24-.86,3.84,3.84,0,0,0,.43-.86,2.59,2.59,0,0,0,.22-.89,3.32,3.32,0,0,1,.21-1,1.76,1.76,0,0,1,.31-.43,1.79,1.79,0,0,0,.31-.49,1.09,1.09,0,0,0,.15-.46.46.46,0,0,1,.28-.4,4.33,4.33,0,0,1,.4-1.23c.18-.37.35-.78.52-1.23.32-.86.69-1.76,1.1-2.7a9.17,9.17,0,0,0,.74-2.33,2.89,2.89,0,0,0-1.84,0,4.91,4.91,0,0,1-1.84.25,1.29,1.29,0,0,1-.43-.59,2.59,2.59,0,0,0-.37-.64,1.2,1.2,0,0,0,.21-.31.8.8,0,0,1,.28-.3l.67-.31a.66.66,0,0,1,.4,0,1.14,1.14,0,0,0,.52,0c.45-.16.71-.23.77-.19a.32.32,0,0,0,.22.07,1.84,1.84,0,0,0,.76-.16,2.89,2.89,0,0,1,.77-.21,1.19,1.19,0,0,1,.37.06,1.35,1.35,0,0,0,.43.06,2.19,2.19,0,0,1,1,0,.45.45,0,0,0,.55-.18,1.47,1.47,0,0,0,1,.24,6.21,6.21,0,0,0,1-.06,1.22,1.22,0,0,1,.46.09.72.72,0,0,0,.46,0,3.81,3.81,0,0,1,.92-.27l.64-.06,1-.1c.4.17.64.22.7.16a.18.18,0,0,1,.22,0,.43.43,0,0,1,.36.15c.09.1.27.11.56,0a1.71,1.71,0,0,0,.46.77.67.67,0,0,1,.09.83.81.81,0,0,1-.71.24.92.92,0,0,0-.76.25,1.36,1.36,0,0,1-.8,0,2.32,2.32,0,0,0-.8-.13.59.59,0,0,0-.34.1,1.66,1.66,0,0,1-.33.15.9.9,0,0,1-.34-.09.42.42,0,0,0-.34,0,2.87,2.87,0,0,0-1,.15,2.11,2.11,0,0,1-1.08,0,1.22,1.22,0,0,1-.46-.09.54.54,0,0,0-.46,0c-.53.12-.79.37-.79.74a2.38,2.38,0,0,1-.25,1,2.15,2.15,0,0,1-.34.58,2.61,2.61,0,0,0-.33.58,3.32,3.32,0,0,0-.25,1,1,1,0,0,1-.55.83v.79a4.07,4.07,0,0,0-.55.89,1.62,1.62,0,0,0-.13,1.08c-.24,0-.35.14-.3.3a.65.65,0,0,1-.07.49,1.49,1.49,0,0,0-.36.56.55.55,0,0,1-.07.24,3.21,3.21,0,0,0-.49.74c-.08.2-.16.43-.24.67s-.17.48-.25.71-.14.38-.18.46a1.13,1.13,0,0,0-.09.55.78.78,0,0,1-.1.49,2.62,2.62,0,0,0-.55.92c-.08.29-.16.56-.24.8l-.25.34a3.33,3.33,0,0,0-.24.34,3.41,3.41,0,0,0-.16.76c-.06.43-.09.69-.09.77a.77.77,0,0,0-.37.55,3.38,3.38,0,0,1-.18.68.83.83,0,0,1-.22.4.82.82,0,0,0-.21.39.81.81,0,0,0-.09.46,1.21,1.21,0,0,1,0,.46,12.62,12.62,0,0,1-.46,1.35,2.55,2.55,0,0,0-.16,1.42l-.43.55a2.06,2.06,0,0,0-.18.89c0,.1,0,.19-.25.27a3.35,3.35,0,0,1-.3,1.17,6.64,6.64,0,0,1-.62,1,1.94,1.94,0,0,1-.24,1.05,9.28,9.28,0,0,0-.55.92,3.14,3.14,0,0,1-.46,1.41,2.91,2.91,0,0,0-.46,1.41c0,.2-.12.31-.22.31a.36.36,0,0,0-.28.18,2,2,0,0,1-.21,1,1.6,1.6,0,0,0-.09,1.07,2.29,2.29,0,0,1,.49.34.57.57,0,0,0,.18.16c.45-.17.68-.23.68-.19s0,.06.12.06l.8,0c.28,0,.55,0,.8-.09a3.25,3.25,0,0,0,.67-.22,1.82,1.82,0,0,1,.68-.15,1.66,1.66,0,0,1,1.16.8.88.88,0,0,0-.24.43c-.05.16-.19.22-.43.18,0,.21-.15.38-.43.52a1.91,1.91,0,0,0-.62.46l-.79.25a3.31,3.31,0,0,1-1.08.06,9.33,9.33,0,0,0-1.07-.06q-.61,0-1.23.06t-1.23.06a2.12,2.12,0,0,1-.49-.06,2.05,2.05,0,0,0-.49-.06,2.7,2.7,0,0,1-.92.06,1.15,1.15,0,0,0-.37-.06c-.69,0-1.41,0-2.14.06a13.57,13.57,0,0,1-2.21-.06,2.33,2.33,0,0,0-.19-.28,3.27,3.27,0,0,0-.24-.27.89.89,0,0,1-.06-1,2.05,2.05,0,0,1,.85-.67,1.28,1.28,0,0,0,.89.15,3.08,3.08,0,0,1,1,0,.8.8,0,0,1,.36.09,1.82,1.82,0,0,0,.43.16,4.83,4.83,0,0,1,1.08-.09,1.61,1.61,0,0,0,.52,0,1.41,1.41,0,0,0,.95-.77,5.29,5.29,0,0,0,.4-1.2,3.59,3.59,0,0,1,.15-.37q.09-.18-.15-.3a1.11,1.11,0,0,1,.34-.49,1.5,1.5,0,0,0,.33-.43,9.69,9.69,0,0,1,.34-1.2,5.59,5.59,0,0,1,.52-1.07.82.82,0,0,1,.16-.31,1.12,1.12,0,0,0,.15-.31,2.27,2.27,0,0,0,.15-.61,1.41,1.41,0,0,1,.22-.62,4.9,4.9,0,0,0,.27-.73,1.81,1.81,0,0,1,.28-.62c.16-.4.29-.61.37-.61a2.64,2.64,0,0,0,.12-.83,1,1,0,0,1,.31-.76,6.54,6.54,0,0,0-.68-.59l-.67-.52a.51.51,0,0,1-.13-.4v-.46a7.89,7.89,0,0,0-.61-1.13c-.24-.39-.47-.77-.67-1.14a2.38,2.38,0,0,0-.62-.8,4.5,4.5,0,0,1-.73-.79l-.28-.28-.28-.28c-.2-.45-.33-.66-.4-.64a.27.27,0,0,1-.21,0,2,2,0,0,1-.12-.4.75.75,0,0,0-.19-.4l-.24-.24c-.08-.09-.17-.17-.25-.25a1.85,1.85,0,0,1-.43-.74.41.41,0,0,0-.12-.3c-.37-.29-.54-.45-.52-.49s0-.1,0-.19c-.25-.16-.37-.29-.37-.4a.37.37,0,0,0-.12-.27,1,1,0,0,0-.4-.4.91.91,0,0,1-.4-.4,2,2,0,0,0-.28-.74.45.45,0,0,1-.15-.18,2.21,2.21,0,0,1-.31-.68.53.53,0,0,0-.06-.24,4,4,0,0,0-.52-.77,2.22,2.22,0,0,0-.71-.58,3.26,3.26,0,0,0-.33-.71,1.17,1.17,0,0,0-.59-.46,11.11,11.11,0,0,0-.58-1.44,4.44,4.44,0,0,0-.89-1.26,4.4,4.4,0,0,0-.27-.95c-.19-.51-.4-1.05-.65-1.62s-.48-1.1-.7-1.57a4.19,4.19,0,0,0-.47-.83,6.78,6.78,0,0,0-1.22.25,5.47,5.47,0,0,0-1.17.49.83.83,0,0,1-.4-.22l-.27-.27a1.32,1.32,0,0,1-.49-.8c0-.2.2-.43.61-.67.2-.25.4-.35.58-.31a.42.42,0,0,0,.4-.06,1.33,1.33,0,0,0,.34-.16l.27-.15a4.31,4.31,0,0,1,1-.12,4.29,4.29,0,0,0,1-.12,2.33,2.33,0,0,1,1.2-.31,1.62,1.62,0,0,0,.76-.06,4.59,4.59,0,0,1,2.15-.28,14.31,14.31,0,0,0,1.6.22,7,7,0,0,0,1.62-.19,4.14,4.14,0,0,1,1.57-.06c.28,0,.45,0,.49-.18s.16-.23.37-.19a4.55,4.55,0,0,0,1.29.06c.45,0,.88-.09,1.31-.15s.86-.1,1.29-.12A2.67,2.67,0,0,1,273.44,20.93Zm-13.13,2.76a.91.91,0,0,1,.12.49.6.6,0,0,0,.12.43.88.88,0,0,1,.28.62,1,1,0,0,0,0,.43,1.45,1.45,0,0,1,.43.61,2.43,2.43,0,0,0,.18.49,4.38,4.38,0,0,0,.46.89l.59.83c.12.33.21.49.27.49a.19.19,0,0,1,.16.12.44.44,0,0,0,.12.46.54.54,0,0,1,.12.52c.25,0,.38,0,.4.16a3.84,3.84,0,0,1,0,.52c.21,0,.32.11.34.21a1.56,1.56,0,0,0,.15.4,1.47,1.47,0,0,1,.43.62,1.27,1.27,0,0,0,.25.49,1.31,1.31,0,0,0,.27.3,1.38,1.38,0,0,1,.28.31c.2.25.39.47.55.68a.66.66,0,0,1,.12.67,4.8,4.8,0,0,1,.43.52c.21.27.41.56.62.86s.38.6.52.86.19.44.15.52a1.28,1.28,0,0,1,.8.71,4.12,4.12,0,0,0,.61.89,2.58,2.58,0,0,1,.71.77,2.77,2.77,0,0,1,.52.95,4.74,4.74,0,0,1,.95,1c.31.39.61.74.89,1.07a1.19,1.19,0,0,1,.16.37.6.6,0,0,0,.15.31c.33.08.47.19.43.33s0,.2.18.16a.65.65,0,0,0-.12-.59,1.68,1.68,0,0,1-.37-.46,1.29,1.29,0,0,1-.24-.79.52.52,0,0,0-.06-.43,1.38,1.38,0,0,0-.5-.49c-.2-.13-.26-.35-.18-.68a1.52,1.52,0,0,1-.74-.89,1.83,1.83,0,0,0-.67-.95,2,2,0,0,0-.15-.74,7.28,7.28,0,0,1-.28-.73,2.42,2.42,0,0,1-.15-.68.71.71,0,0,0-.34-.55V35a.55.55,0,0,1-.31-.43c0-.2-.08-.38-.12-.55a1.46,1.46,0,0,1-.65-.92,2.43,2.43,0,0,0-.52-1,1.78,1.78,0,0,0-.33-.46,1.61,1.61,0,0,1-.34-.46l-.37-.68a1.15,1.15,0,0,1-.15-.4c-.07-.22-.14-.46-.22-.7s-.15-.47-.21-.68a2.75,2.75,0,0,1-.1-.36,2,2,0,0,1-.27-.5,1.18,1.18,0,0,0-.28-.43,4.76,4.76,0,0,0-.3-1.35,5.92,5.92,0,0,1-.37-1.28c0-.41,0-.67-.13-.77a.37.37,0,0,1-.12-.4,3.5,3.5,0,0,1-1.59-.12,2.57,2.57,0,0,0-1.6,0,1.13,1.13,0,0,1-.55.09A.68.68,0,0,0,260.31,23.69Z"/></g></g></svg>