<svg xmlns="http://www.w3.org/2000/svg" viewBox="0 0 113.86 84.26"><defs><style>.cls-1{fill:#f47920;}.cls-2{fill:#fff;stroke:#fff;stroke-miterlimit:10;stroke-width:0.05px;}</style></defs><g id="Layer_2" data-name="Layer 2"><g id="Layer_1-2" data-name="Layer 1"><ellipse class="cls-1" cx="56.93" cy="52.26" rx="80.51" ry="45.25"/><path class="cls-2" d="M109.26,76.24l-4.61,3.31a44.48,44.48,0,0,0-27.19-6A42.21,42.21,0,0,0,62.93,78H51.86A46.8,46.8,0,0,0,9.33,79.28l-3.81-3c.49-8.93.68-18.56.41-28.82-.28-10.76-1-20.8-2-30A51.31,51.31,0,0,1,25.69,7.49a52.35,52.35,0,0,1,31.7,4.11,52.35,52.35,0,0,1,31.7-4.11,51.31,51.31,0,0,1,21.82,9.88c-1,9.25-1.78,19.29-2.06,30.05C108.58,57.68,108.78,67.31,109.26,76.24Z"/><path class="cls-1" d="M70.46,30.69H44.32Q50.86,19.88,57.39,9.06,63.93,19.88,70.46,30.69Z"/><path class="cls-1" d="M48,30.69V53.77H66.5V30.69Zm3.28,13.7a14.11,14.11,0,0,1,2.21-7.2,9.74,9.74,0,0,1,3.77-3.38A9.67,9.67,0,0,1,61,37.19a14.11,14.11,0,0,1,2.21,7.2Z"/><rect class="cls-1" x="48.18" y="57.96" width="18.53" height="22.65"/><rect class="cls-1" x="45.26" y="53.77" width="23.94" height="4.19"/><path class="cls-1" d="M57.14,11.09c-.17-1.95-.38-4-.66-6.07-.22-1.72-.48-3.37-.75-5l.8,0a27.2,27.2,0,0,1,.91,6.33A28.09,28.09,0,0,1,57.14,11.09Z"/><path class="cls-1" d="M56.28.57l.14,0a6,6,0,0,1,2.7-.21,5.55,5.55,0,0,1,1,.28c.73.26,1,.47,1.33.61.88.35,1.48-.06,2.46-.15a5.23,5.23,0,0,1,3.1.77c-.36.18-.91.47-1.55.85C63.57,3.84,63.4,4.31,62,5a9,9,0,0,1-3.16,1,7.82,7.82,0,0,1-1.78,0,28.66,28.66,0,0,0-.37-3.45C56.57,1.87,56.43,1.2,56.28.57Z"/><path class="cls-1" d="M10.43,20.88v3.94A45.2,45.2,0,0,1,26.73,19a44.44,44.44,0,0,1,12.43-.13l-.27-3.95a50.64,50.64,0,0,0-28.46,6Z"/><path class="cls-1" d="M11.23,29.85v4.49a42.26,42.26,0,0,1,10.56-3.4,41.43,41.43,0,0,1,8.55-.68l-.27-4a63.58,63.58,0,0,0-10.42,1.23A64.54,64.54,0,0,0,11.23,29.85Z"/><path class="cls-1" d="M11.23,42.47v3.94a45.49,45.49,0,0,1,16.3-5.84A44.88,44.88,0,0,1,40,40.43l-.27-3.94a50.75,50.75,0,0,0-28.46,6Z"/><path class="cls-1" d="M12,51.45v4.48a42.47,42.47,0,0,1,19.11-4.08l-.27-3.94a63.59,63.59,0,0,0-10.42,1.22A62.93,62.93,0,0,0,12,51.45Z"/><path class="cls-1" d="M104.23,20.88v3.94A45.27,45.27,0,0,0,87.92,19a44.44,44.44,0,0,0-12.43-.13l.27-3.95a50.7,50.7,0,0,1,28.47,6Z"/><path class="cls-1" d="M103.43,31.87v3.94A45.34,45.34,0,0,0,87.12,30a44.44,44.44,0,0,0-12.43-.13L75,25.88a50.7,50.7,0,0,1,28.47,6Z"/><path class="cls-1" d="M102.62,40.84v4.49a42.17,42.17,0,0,0-10.55-3.4,41.52,41.52,0,0,0-8.56-.68l.27-4a64,64,0,0,1,18.84,3.54Z"/></g></g></svg>