<svg xmlns="http://www.w3.org/2000/svg" viewBox="0 0 374.9 67.6"><defs><style>.cls-1{fill:#f47920;}</style></defs><g id="Layer_2" data-name="Layer 2"><g id="Layer_1-2" data-name="Layer 1"><path class="cls-1" d="M114.62,6.54l.24.52a.74.74,0,0,0,.43.4,7.55,7.55,0,0,1-.18,1.44c-.13.6-.23,1.22-.31,1.88a14.84,14.84,0,0,0-.12,1.81,1.83,1.83,0,0,0,.37,1.25.42.42,0,0,1-.13.31c-.08.08,0,.23.13.43a1.86,1.86,0,0,0,0,1.14.64.64,0,0,1-.22.76,2.84,2.84,0,0,1,.25,1.72,6.24,6.24,0,0,1-.43,1.72,3.64,3.64,0,0,1-.56.21c-.2.06-.41.12-.61.16a4.09,4.09,0,0,1-.43-.52c-.12-.19-.24-.36-.37-.53.08-.32.16-.68.22-1.07a1.48,1.48,0,0,0-.22-1.07,1.11,1.11,0,0,0,.19-.56,6.56,6.56,0,0,0,.06-.92,3.72,3.72,0,0,0-.09-.86.58.58,0,0,0-.28-.43.46.46,0,0,0,.25-.61,2.46,2.46,0,0,1-.13-.74,5,5,0,0,1,.13-1.13,1.56,1.56,0,0,0-.13-1.07.7.7,0,0,0,.22-.56,4.19,4.19,0,0,1,.09-.67,3.34,3.34,0,0,1-.58-.58c0-.07-.1-.12-.22-.16a1,1,0,0,0-.61.12,3.39,3.39,0,0,1-.74.25,10.73,10.73,0,0,1-1.47.15,3.27,3.27,0,0,1-1.47-.27.76.76,0,0,1-.83.21,5.41,5.41,0,0,0-.89-.21,2.54,2.54,0,0,1-.89.06.79.79,0,0,0-.28-.06,1.55,1.55,0,0,0-.4.06,1.43,1.43,0,0,1-.39.06q-.87-.3-1.14-.15a.49.49,0,0,1-.58-.1c-.41,0-.65,0-.71,0a.48.48,0,0,1-.34.09,1.7,1.7,0,0,1-.64-.13,2.12,2.12,0,0,0-.71-.12l-1.47.12a3,3,0,0,0-.61.22,1.54,1.54,0,0,1-.68.15,10.46,10.46,0,0,1,.09,1.78,14.87,14.87,0,0,0,0,1.78,1,1,0,0,0,0,.65.63.63,0,0,1,.09.33,5.07,5.07,0,0,1,0,1.23,3.63,3.63,0,0,0,0,1.23c0,.16.08.31.12.43s.08.26.12.43a7,7,0,0,1-.09,1.78,2.73,2.73,0,0,0,.4,1.78,5.88,5.88,0,0,0,.12,2.05,15.87,15.87,0,0,1,.37,2.06,11.77,11.77,0,0,1,.06,2.05,11.88,11.88,0,0,0,.06,2.06,1.72,1.72,0,0,0,1.26.31,1.22,1.22,0,0,1,1.14.36,14.1,14.1,0,0,1,1.84-.12,8.74,8.74,0,0,0,1.78-.18q0-.43,0-1.26c0-.55,0-1.11,0-1.69s.06-1.1.12-1.59a1.77,1.77,0,0,1,.4-1.05.71.71,0,0,0,.12-.49,1,1,0,0,1,.12-.55,2.56,2.56,0,0,0,.62-.28,1.14,1.14,0,0,1,.73-.09,1.46,1.46,0,0,0,.28.46.64.64,0,0,1,.15.46,1.27,1.27,0,0,1-.09.43l-.18.49c-.06.17-.12.32-.16.46A.27.27,0,0,0,107,25a.93.93,0,0,1-.13.52,1.08,1.08,0,0,0-.12.52,3.26,3.26,0,0,0,.06.62,3.15,3.15,0,0,1,.06.61c0,.25,0,.48,0,.71a2.78,2.78,0,0,0,0,.7c0,.21.09.41.13.62l.12.61a1.24,1.24,0,0,1-.06.37,1,1,0,0,0-.06.3,1.92,1.92,0,0,1-.06,1.11.67.67,0,0,0,.06.74c.16.24.21.42.15.52a.27.27,0,0,0,0,.27c.16.41.22.65.18.71a.37.37,0,0,0-.06.21,6.32,6.32,0,0,0,0,1.35,4.78,4.78,0,0,1,0,1.17,1.12,1.12,0,0,1-.27.61,1.06,1.06,0,0,1-.52.43,1,1,0,0,1-.74-.06l-.74-.31a.44.44,0,0,0,0-.55,1.3,1.3,0,0,1-.24-.55,1,1,0,0,1,.09-.4c.06-.14.11-.28.15-.4a4,4,0,0,0,.06-1.16,1.32,1.32,0,0,0-.36-.8,2.83,2.83,0,0,0,.06-1.72,3.44,3.44,0,0,0-1.08-.15c-.26,0-.62.07-1.07.15a.86.86,0,0,1-.64-.15c-.23-.15-.42-.1-.59.15a1.3,1.3,0,0,0-.34-.18,3.1,3.1,0,0,0-.61-.22c-.22-.06-.42-.12-.58-.18a1.45,1.45,0,0,0-.31-.09,7.71,7.71,0,0,0-.4,1.59A12.08,12.08,0,0,0,99,34.09a11.76,11.76,0,0,0,.06,1.2,11.76,11.76,0,0,1,.06,1.2v3.8a4.27,4.27,0,0,0,.06.68,4.24,4.24,0,0,1,.07.67c0,.33,0,.68,0,1a4.55,4.55,0,0,0,0,1,.63.63,0,0,0,.09.33,2.07,2.07,0,0,1,.15.34,1.77,1.77,0,0,1,0,.55,1.17,1.17,0,0,0,.09.56.72.72,0,0,1,.07.52,2,2,0,0,0-.07.52c.09,0,.1.14,0,.31a.47.47,0,0,0,0,.36,1.07,1.07,0,0,0,.1.47,1.14,1.14,0,0,1,.09.46,4.09,4.09,0,0,1-.16,1.44,2.29,2.29,0,0,0,0,1.32c.09.28.24.43.46.43a4,4,0,0,0,.74-.07,6,6,0,0,1,.89-.06,1.21,1.21,0,0,1,.86.37,1.39,1.39,0,0,1,.43.68,3.59,3.59,0,0,0-.31.89.37.37,0,0,1-.12.27,3.08,3.08,0,0,0-.61.06,3.27,3.27,0,0,1-.62.07l-.37-.16a.8.8,0,0,0-.36-.09.77.77,0,0,0-.49,0,.64.64,0,0,1-.5,0c-.61,0-1-.06-1.25-.06a.73.73,0,0,0-.59.31,1.43,1.43,0,0,0-1,0,1.55,1.55,0,0,1-1,0c-.17-.17-.3-.23-.4-.19a.79.79,0,0,1-.28.06,2.72,2.72,0,0,1-.52-.15,1.35,1.35,0,0,0-.52-.09.93.93,0,0,0-.34.06.9.9,0,0,1-.34.06,18.7,18.7,0,0,1-2.39-.15,8,8,0,0,0-2.39,0,6.94,6.94,0,0,1-.86.18,5.3,5.3,0,0,0-.86.19.67.67,0,0,0-.34.09.64.64,0,0,1-.34.09,3.23,3.23,0,0,1-1,.09,5.35,5.35,0,0,0-1,0,.75.75,0,0,0-.37-.18c-.16,0-.22-.17-.18-.37a.59.59,0,0,1-.68-.43c0-.57.3-.86.77-.86A11.83,11.83,0,0,0,85,52l.7-.12.71-.13a3.43,3.43,0,0,1,.77,0,1.66,1.66,0,0,0,.83-.21,1.26,1.26,0,0,1,0-.61,2.75,2.75,0,0,0,.06-.43,7.15,7.15,0,0,1,.15-2.09,4.09,4.09,0,0,0,0-1.9c.16,0,.27,0,.31-.28s0-.36-.06-.4a1.39,1.39,0,0,0,.21-.27,1.21,1.21,0,0,1,.21-.28,4.13,4.13,0,0,1,.07-2.12A4.2,4.2,0,0,0,89,41a1.79,1.79,0,0,0,.27-.68,7.84,7.84,0,0,0,.13-.92c0-.33,0-.64,0-.95a4.15,4.15,0,0,1,.06-.77c0-.53.11-.82.21-.86s.07-.22-.09-.55a2,2,0,0,0,.09-.67.51.51,0,0,1,0-.31,1.18,1.18,0,0,1,.1-.52,1.38,1.38,0,0,0,.09-.52,2.51,2.51,0,0,0,0-.68c0-.24,0-.47,0-.67a7.88,7.88,0,0,1,.21-1.26A2.13,2.13,0,0,0,90,30.35a2.19,2.19,0,0,0,.18-1,1.36,1.36,0,0,0-.18-.52,1.07,1.07,0,0,0,.22-.89,5.18,5.18,0,0,1-.1-1,4.37,4.37,0,0,1,.25-1.5,6.54,6.54,0,0,0,.31-1.5,1.19,1.19,0,0,0,0-.62,2.1,2.1,0,0,1-.09-.61,7.15,7.15,0,0,0,.34-1.14c.06-.3.12-.63.18-1s.12-.66.16-.95.06-.45.06-.49a1.66,1.66,0,0,1,.09-1.07.86.86,0,0,0-.09-.89.76.76,0,0,0,.18-.77,3.32,3.32,0,0,1-.12-.83c.12-.53.22-.93.28-1.19a3.84,3.84,0,0,0,.09-.83,3.63,3.63,0,0,1,0-1c0-.13.08-.27.12-.43a4.23,4.23,0,0,0,.12-.62c0-.28.09-.58.13-.89a6.55,6.55,0,0,0,.06-.86,2,2,0,0,0-.06-.58A3.37,3.37,0,0,0,91,8.87a1.08,1.08,0,0,1-.7-.24,1.37,1.37,0,0,1-.68.12l-1,0a5.77,5.77,0,0,1-1.05-.15,1.49,1.49,0,0,1-.67-.31c-.08-.25-.14-.45-.18-.61A1,1,0,0,1,86.7,7a3.76,3.76,0,0,1,1.13-.24,9.5,9.5,0,0,1,1.51,0q.8.06,1.53.15a9,9,0,0,1,1.23.22A2.83,2.83,0,0,0,92.46,7a1,1,0,0,1,.43-.09,2.93,2.93,0,0,0,1,.06.83.83,0,0,1,.52.06l.37.13a1.33,1.33,0,0,0,.42.06,2.65,2.65,0,0,0,1.26-.06A3.08,3.08,0,0,1,97.68,7a3.33,3.33,0,0,0,1.38-.15,1.17,1.17,0,0,1,1,0c.33-.08.5-.1.53-.06s.07.06.15.06a1.69,1.69,0,0,1,.83,0A2.76,2.76,0,0,0,102,7l.37,0a1.1,1.1,0,0,1,.43,0l1.31.13q.64.06,1.32.06A3.42,3.42,0,0,0,106.55,7a.87.87,0,0,1,1,.19,2.32,2.32,0,0,1,.92,0,.94.94,0,0,0,.43.09,4.58,4.58,0,0,0,1.84-.43H112a1.07,1.07,0,0,1,.92-.37,3.93,3.93,0,0,1,1,.25c.25.08.38.06.4-.06S114.41,6.54,114.62,6.54Zm-20,2.64A4.25,4.25,0,0,1,94,10.53a2.68,2.68,0,0,1,.12,1.35q-.12.61-.24,1.29a1.86,1.86,0,0,1,0,1.07.85.85,0,0,0-.16.52,3.88,3.88,0,0,1,0,1.26c-.06.27-.12.55-.18.86a4.49,4.49,0,0,0-.09.86,1.07,1.07,0,0,0,.12.58,1.87,1.87,0,0,0-.25,1.14,2.68,2.68,0,0,1-.12,1.13c-.08.25-.15.49-.21.71a2.69,2.69,0,0,0-.1.7.69.69,0,0,0,0,.47,1.14,1.14,0,0,1,.09.46,7.71,7.71,0,0,1-.31,1.25,1.49,1.49,0,0,0,.06,1.26.65.65,0,0,0-.24.43c0,.21-.09.43-.13.68s-.07.47-.09.67a.74.74,0,0,1-.09.37.75.75,0,0,0,0,.46c.06.18,0,.3,0,.34a3.11,3.11,0,0,0-.06,1.13,1.38,1.38,0,0,0,.37,1c-.21,0-.29.12-.25.34a.85.85,0,0,1,0,.46,1.14,1.14,0,0,1-.09.46,1.22,1.22,0,0,0-.09.46,1.69,1.69,0,0,0,0,.71c.06.22.11.46.15.7a3,3,0,0,0-.43,1.45c0,.59-.08,1.19-.12,1.81s-.08,1.2-.12,1.78a2.66,2.66,0,0,1-.43,1.35c.12.28.12.46,0,.52s-.17.19-.13.4A2.62,2.62,0,0,0,91,42.19a.42.42,0,0,1-.06.49,6.51,6.51,0,0,0-.18.92,7.72,7.72,0,0,0-.06.92,1.32,1.32,0,0,1,0,.89c-.1.19-.2.38-.3.59a1.79,1.79,0,0,0-.19.61.5.5,0,0,0,.22.49.59.59,0,0,0-.19.65,1.11,1.11,0,0,1,.07.64,3.68,3.68,0,0,0-.34,1.5,7.17,7.17,0,0,1,0,1.14,2,2,0,0,0,.83.15c.22,0,.48,0,.76,0l.77.09a5.39,5.39,0,0,0,.71,0c.24,0,.59,0,1-.06a1.55,1.55,0,0,1,.74-.06c.24,0,.5.09.76.16l.83.18a1.54,1.54,0,0,0,.8,0,1.37,1.37,0,0,1,.21-.92,2.1,2.1,0,0,0,.34-.92,1.84,1.84,0,0,0-.06-.43,1.84,1.84,0,0,1-.06-.43,5.22,5.22,0,0,1,0-.58,2,2,0,0,0,0-.59,2.36,2.36,0,0,0-.25-.67,2.34,2.34,0,0,1,.13-1c.08-.17,0-.27-.25-.31a3,3,0,0,0,.12-.8.94.94,0,0,0-.3-.67q.06-.44.09-1.08t0-1.35A9.77,9.77,0,0,0,97,40.38a3.43,3.43,0,0,0-.28-1,2.36,2.36,0,0,0,.34-1.69A6.88,6.88,0,0,1,97,35.93q.06-1.47.15-3.06a6.5,6.5,0,0,0-.52-3,.61.61,0,0,0,.21-.61,2.21,2.21,0,0,1-.09-.62c0-.41,0-.8,0-1.19a8.08,8.08,0,0,0,0-1.2,1.3,1.3,0,0,0-.12-.52,1.09,1.09,0,0,1-.13-.4,5.4,5.4,0,0,0,0-1.72,12.53,12.53,0,0,1-.18-1.29.77.77,0,0,1,0-.37,2.63,2.63,0,0,0,0-.43,5.43,5.43,0,0,0-.18-.82A4.66,4.66,0,0,1,96,19.8c0-.21-.07-.41-.09-.62a1.3,1.3,0,0,1,.09-.61,6.92,6.92,0,0,1-.33-1.69,2.37,2.37,0,0,1,.21-1.5c-.21-.49-.27-.78-.18-.86a.48.48,0,0,0,.06-.43,4.3,4.3,0,0,1-.13-1.35,3.54,3.54,0,0,0,0-.92,2.62,2.62,0,0,0-.15-.58c-.1-.31-.07-.46.09-.46a1.42,1.42,0,0,1-.15-.89,1,1,0,0,0-.09-.71Z"/><path class="cls-1" d="M128,29.18c-.09.33-.2.7-.34,1.11a1.05,1.05,0,0,0,.21,1.1,1.2,1.2,0,0,0-.39.83c0,.23,0,.44,0,.65a2.08,2.08,0,0,0,0,1.07,1.94,1.94,0,0,1,.12.64c0,.62,0,1.22,0,1.81s0,1.2,0,1.81q.06.55.12,1.08c0,.35.08.68.12,1a11.52,11.52,0,0,1-.21,2.76,7,7,0,0,0,0,2.7c0,.17.08.31.12.43l.12.37a4.08,4.08,0,0,1,.13,1.07,1.75,1.75,0,0,0,.3,1,1.65,1.65,0,0,0-.09.92,2.06,2.06,0,0,1,0,.92,3.42,3.42,0,0,0,.65.06,3.39,3.39,0,0,1,.64.06c.25,0,.37-.08.37-.25s.1-.24.3-.24l.8.37a.67.67,0,0,1,.16.37q0,.24.33.18a1.8,1.8,0,0,0-.12,1.17,1.54,1.54,0,0,1-.46.15.79.79,0,0,1-.46-.09,2,2,0,0,1-1.47.61,2.87,2.87,0,0,0-1.54-.18l-1,.18c-.33,0-.62,0-.89,0a3.91,3.91,0,0,0-.83,0A1.66,1.66,0,0,0,124,53a1.6,1.6,0,0,1-.55.13,2.27,2.27,0,0,0-1.26-.19,5.28,5.28,0,0,1-.71.19,1.05,1.05,0,0,1-.3-.07,1.24,1.24,0,0,0-.37-.06,1.91,1.91,0,0,0-.68,0,3.63,3.63,0,0,0-.55.19,2.27,2.27,0,0,1-.61.15.66.66,0,0,1-.55-.21,2.34,2.34,0,0,1-1.23-.07,3.43,3.43,0,0,0-1.17-.18.42.42,0,0,1-.15-.46c.06-.14,0-.21-.34-.21a1.2,1.2,0,0,1,.49-.74,4.54,4.54,0,0,0,.68-.55,1,1,0,0,1,.73,0,1.74,1.74,0,0,0,.62.21.77.77,0,0,0,.43-.4.49.49,0,0,0-.06-.52l.36-.8.13-.24a5.73,5.73,0,0,0,.15-1,5.7,5.7,0,0,1,.15-1,1.74,1.74,0,0,0,0-.55.79.79,0,0,1,.1-.49,4.3,4.3,0,0,1,.3-.61,1.8,1.8,0,0,0,.25-.68.77.77,0,0,0,0-.37,2.63,2.63,0,0,1,0-.43,2.33,2.33,0,0,0,.12-.3l.12-.37c.21-.74.41-1.51.62-2.33a3.5,3.5,0,0,0-.19-2.33,1.46,1.46,0,0,0,.16-.56.81.81,0,0,1,.21-.49,5.64,5.64,0,0,1,.25-2.82c0-.16.08-.31.12-.43a1.4,1.4,0,0,0,.06-.43,1.27,1.27,0,0,0,0-.55,1.27,1.27,0,0,1,0-.55.88.88,0,0,1,.19-.34,1.11,1.11,0,0,0,.18-.34c.16-.57.3-1,.4-1.41s.19-.74.27-1.1a1.64,1.64,0,0,0-1.38-.13,2.45,2.45,0,0,1-1.32.13,1,1,0,0,0-.49.24.58.58,0,0,1-.43.18,1.9,1.9,0,0,1-.79-.24,4.71,4.71,0,0,1-.74-.43,3.84,3.84,0,0,0,0-.52,1.6,1.6,0,0,1,0-.52.5.5,0,0,1,.37-.13q.24,0,.24-.3a1.34,1.34,0,0,0,.62,0c.24-.06.41-.05.49,0a.76.76,0,0,1,.52-.22c.22,0,.32-.15.28-.4a1.41,1.41,0,0,0,1.41,0,1.75,1.75,0,0,1,1.35-.18.51.51,0,0,1,.33-.22.32.32,0,0,1,.34.22,4.22,4.22,0,0,1,2-.12,2.43,2.43,0,0,1,1.65,1.1c.49.33.76.56.8.71A.55.55,0,0,0,128,29.18Zm-4.11,2.89a.73.73,0,0,1-.07.55,1.57,1.57,0,0,0-.18.37.77.77,0,0,0,0,.37,2.63,2.63,0,0,1,0,.43,9.44,9.44,0,0,1-.31,1.19,6.08,6.08,0,0,0-.24,1.2,3.45,3.45,0,0,1,0,1.07,2.54,2.54,0,0,0-.09.65,1.08,1.08,0,0,0,0,.58.71.71,0,0,1-.13.52,10.11,10.11,0,0,1,.13,1.47,6.56,6.56,0,0,1-.13,1.29,8,8,0,0,0-.43,1.66,6.68,6.68,0,0,1-.24,1.23,2.18,2.18,0,0,0-.43,1.13,1,1,0,0,1-.06.59c-.25.08-.32.19-.22.33s.13.26.09.34c-.24.29-.32.48-.24.58a.35.35,0,0,1,.06.34,11.24,11.24,0,0,0-.58,1.38,2,2,0,0,0,0,1.44,2.93,2.93,0,0,0,1.5.1,3.08,3.08,0,0,1,1.13-.1,2.16,2.16,0,0,1,.34.16A.67.67,0,0,0,124,51c.49,0,.81,0,1-.18s.26-.25.34-.25a.41.41,0,0,1,.37-.06.27.27,0,0,0,.3-.06,2.8,2.8,0,0,0,0-.92,4.56,4.56,0,0,1-.09-.92,2,2,0,0,1-.18-.71c0-.18,0-.38,0-.58s-.05-.4-.07-.59,0-.31,0-.39a2.26,2.26,0,0,0,0-.89,1.4,1.4,0,0,1-.09-.53.63.63,0,0,1,.09-.33.67.67,0,0,0,.1-.34.9.9,0,0,0,0-.46,1.39,1.39,0,0,1-.07-.46,2.32,2.32,0,0,1,.07-1,3.81,3.81,0,0,0,.12-.95,3.74,3.74,0,0,0-.06-.65,3.63,3.63,0,0,1-.06-.64,3.52,3.52,0,0,0,.12-.8,1.94,1.94,0,0,0-.16-.8,2.06,2.06,0,0,1-.15-.79c.08-.66.13-1.16.15-1.51s0-.68,0-1,0-.78-.07-1.35a2.28,2.28,0,0,1,.19-1.29c-.25-.12-.3-.34-.16-.64a1,1,0,0,0,0-.95.66.66,0,0,0,.19-.5V30a4.33,4.33,0,0,1-.37-.27,1.38,1.38,0,0,1-.31-.4,2,2,0,0,1-.37.3,1,1,0,0,0-.3.37.53.53,0,0,0-.06.43.7.7,0,0,1-.06.49,1.93,1.93,0,0,1-.25.52A1.5,1.5,0,0,0,123.84,32.07Zm2-13.07c.37-.12.59-.14.68-.06s.29.3.39.3a.39.39,0,0,1,.28.13,1.78,1.78,0,0,1,.55.82,3,3,0,0,0,.49.89,2,2,0,0,0-.15.89,5.61,5.61,0,0,0,.15,1q.06.3-.18.3c-.16,0-.21.12-.12.37a1.13,1.13,0,0,0-.37.68,15.62,15.62,0,0,1-1.9,1.13,3,3,0,0,1-2.09.28,1.33,1.33,0,0,1-.83-.52,1.94,1.94,0,0,0-.76-.65,2,2,0,0,1-.16-.64,6.37,6.37,0,0,0-.09-.65,2.46,2.46,0,0,1-.06-1.65,8.23,8.23,0,0,0,.43-1,3.77,3.77,0,0,0,.61-.4c.12-.1.23-.19.31-.27a2.66,2.66,0,0,0,1.23-.49,4.66,4.66,0,0,0,1-.16Zm.12,2.51a1.45,1.45,0,0,1-.86.25,1.72,1.72,0,0,1-.73-.12,3,3,0,0,0-.37,2.08,5.52,5.52,0,0,1,1.17-.24,1.14,1.14,0,0,0,.39-.59.72.72,0,0,1,.53-.46L126,22A1,1,0,0,1,126,21.51Z"/><path class="cls-1" d="M159.69,25.87a6,6,0,0,0,.24.55A1,1,0,0,1,160,27a1.05,1.05,0,0,1-.12.52,1.76,1.76,0,0,0-.18.52,7.25,7.25,0,0,0-.19,1.32q-.06.83-.06,1.38a3,3,0,0,1,.06,1,2.38,2.38,0,0,0-.06.55c0,.25.07.49.09.74a2.8,2.8,0,0,0,.16.74c.12.28.16.47.12.55a1.07,1.07,0,0,0-.09.27,1.49,1.49,0,0,0,0,.25q0,.09.12,0l-.8,1a.83.83,0,0,1-.58-.06,1,1,0,0,0-.58-.06,4.11,4.11,0,0,0-.74-.64,3,3,0,0,0-.43-.16.76.76,0,0,1,.12-.46c.08-.1.08-.25,0-.46a1.75,1.75,0,0,0-.46-.83,1.77,1.77,0,0,1-.46-.88,26.49,26.49,0,0,1-2.39-2,1.22,1.22,0,0,1-.74-.12A2.35,2.35,0,0,0,152,30a.9.9,0,0,0-.34.06.93.93,0,0,1-.34.06,2.74,2.74,0,0,1-.92-.09,2.87,2.87,0,0,0-.37-.15,1,1,0,0,0-.34.06.88.88,0,0,1-.33.06,2.71,2.71,0,0,0-.86,0l-.25.12a7.48,7.48,0,0,1-1.5.4,3.07,3.07,0,0,0-1,.28,1,1,0,0,1-.4.15.73.73,0,0,0-.4.22c-.21.24-.39.45-.55.61a3.72,3.72,0,0,0-.4.46.81.81,0,0,1-.28.28,1.81,1.81,0,0,1-.27,1,4.13,4.13,0,0,1-.52.86.56.56,0,0,1,0,.55c-.1.17-.09.29,0,.37a6,6,0,0,0-.34,1.69q0,.77,0,1.59c0,.55,0,1.07.06,1.54A1.25,1.25,0,0,0,143,41a1.87,1.87,0,0,0-.19,1.35,6.89,6.89,0,0,0,.31,1.41,1.71,1.71,0,0,1,.21.7,1.87,1.87,0,0,0,0,.34c.08.21.16.41.25.61l.24.62a19.12,19.12,0,0,1,.56,1.84,4.68,4.68,0,0,0,.79,1.72.67.67,0,0,0,0,.46,2.21,2.21,0,0,1,.22.46,4,4,0,0,0,1.16.15,1.85,1.85,0,0,1,.86.15,2,2,0,0,1,1-.15.93.93,0,0,0,.52,0,1,1,0,0,0,.3-.06.59.59,0,0,1,.37,0,.9.9,0,0,1,.34.06l.34.12c.2.09.32.08.37,0s.14-.15.3-.15a1.23,1.23,0,0,1,.65,0c.1.06.31,0,.64-.28a1.85,1.85,0,0,0,1-.09,1.68,1.68,0,0,1,.74-.15c.61-.33,1.06-.58,1.35-.77a2.8,2.8,0,0,0,.67-.58,8.22,8.22,0,0,1,.92-.46,3.63,3.63,0,0,0,.5-.22l.76-.76c.27-.27.54-.52.83-.77a3.8,3.8,0,0,0,.61.18,4.89,4.89,0,0,1,.62.19,2.72,2.72,0,0,0,.15.52,1.35,1.35,0,0,1,.09.52,4.14,4.14,0,0,1-.95.83,3,3,0,0,0-.89.89.54.54,0,0,0-.46.21,1.19,1.19,0,0,1-.33.34,1.74,1.74,0,0,1-.74.34.7.7,0,0,0-.55.58.7.7,0,0,0-.62,0,1.5,1.5,0,0,1-.49.28,1.28,1.28,0,0,0-.67.27,2.29,2.29,0,0,1-.49.34,6.23,6.23,0,0,1-1.17.16,8.6,8.6,0,0,0-1.23.15,5.51,5.51,0,0,0-.61.28,2.6,2.6,0,0,1-.61.21,1.09,1.09,0,0,1-.53-.12.93.93,0,0,0-.52-.13c-.45,0-.68,0-.7.07a.11.11,0,0,1-.1.06,1.22,1.22,0,0,0-.7-.06,3.45,3.45,0,0,1-.58.06,1.83,1.83,0,0,0-.83-.06.79.79,0,0,1-.28.06,1.52,1.52,0,0,1-.77-.19,1.46,1.46,0,0,0-.7-.18.84.84,0,0,0-.37.09.48.48,0,0,1-.37,0,4.55,4.55,0,0,1-1.53-.52c-.49-.27-1-.5-1.41-.71a1.26,1.26,0,0,1-.28-.36.7.7,0,0,0-.28-.31c-.2-.16-.38-.33-.55-.49a1.84,1.84,0,0,1-.37-.55,1.56,1.56,0,0,1-.61-.37,1.17,1.17,0,0,0-.67-.31,3.06,3.06,0,0,0-1.05-1.41,7.76,7.76,0,0,0-.46-1.81,11.65,11.65,0,0,1-.52-1.81,1,1,0,0,0-.28-.43c-.1-.08-.13-.29-.09-.61a2.9,2.9,0,0,1-.33-1.08,1.25,1.25,0,0,0,0-.46,10.15,10.15,0,0,0-.24-1.5,4.13,4.13,0,0,1-.06-1.57,1.89,1.89,0,0,1,.27-.7.9.9,0,0,0,.1-.77,2.18,2.18,0,0,0,.46-.7,7.75,7.75,0,0,1,.33-.77.38.38,0,0,0,.31-.28c0-.14.16-.19.37-.15a1.29,1.29,0,0,1,.24-.86,9.91,9.91,0,0,1,.74-1,7.11,7.11,0,0,1,.89-.92,6.14,6.14,0,0,1,.77-.59,1.93,1.93,0,0,0,.73-.49,2.82,2.82,0,0,1,.25-.3,5.24,5.24,0,0,1,1.53-.77,3.9,3.9,0,0,0,1.48-.83h.67a3.43,3.43,0,0,1,1.07-.43,2.64,2.64,0,0,0,1.08-.49,1.33,1.33,0,0,0,1.07-.09,3.09,3.09,0,0,1,1-.34,2,2,0,0,1,.4.06,5.18,5.18,0,0,0,.59.1l.52.06c.14,0,.21,0,.21-.1a2,2,0,0,1,.49.07,2.4,2.4,0,0,0,.56.06,3.68,3.68,0,0,0,.82-.09,1.21,1.21,0,0,1,.83.09,5.3,5.3,0,0,1,.59.27.6.6,0,0,0,.58,0s.18.23.55.56a3.86,3.86,0,0,0,.61.49,1.64,1.64,0,0,1,.68.55,1,1,0,0,0,.67.37,1.58,1.58,0,0,0,.62-1.29,5.61,5.61,0,0,1,.31-1.6.35.35,0,0,0,0-.33.69.69,0,0,1-.09-.34,1.15,1.15,0,0,0,.37-.43,2.66,2.66,0,0,1,.31-.49,2.47,2.47,0,0,1,.64.09A1.44,1.44,0,0,0,159.69,25.87Zm-19.33,7.92a6.74,6.74,0,0,1-.68.89,2,2,0,0,0-.49,1,1.63,1.63,0,0,0-.31.27.6.6,0,0,1-.36.22,2.15,2.15,0,0,0-.4,1,.89.89,0,0,1,0,.4,3.81,3.81,0,0,0-.22.34,1.21,1.21,0,0,0-.18.86,3.74,3.74,0,0,1,0,.52,2.41,2.41,0,0,0,.12,1.22,2.09,2.09,0,0,1,.25.74,3.61,3.61,0,0,0,.15,1.23c.1.24.19.47.28.67s.14.23.18.31.1.18.18.31a4.92,4.92,0,0,1,.19,1.22,1.83,1.83,0,0,0,.24.92c.29.33.41.52.37.56a.08.08,0,0,0,0,.12c.25.08.36.21.34.37a.44.44,0,0,0,.09.37.57.57,0,0,0,.31.15.54.54,0,0,1,.3.15c.09.25.19.37.31.37a.68.68,0,0,1,.37.12.41.41,0,0,0,.31.37.69.69,0,0,1,.36.19,1,1,0,0,0-.36-.8.87.87,0,0,0,0-.74c-.11-.24-.23-.5-.37-.76a8.19,8.19,0,0,1-.4-.89,3,3,0,0,1-.18-1.05,3.35,3.35,0,0,0-.19-.3.7.7,0,0,1-.12-.37,2,2,0,0,1,0-.77,1.21,1.21,0,0,0,0-.71.67.67,0,0,1-.06-.46,1.3,1.3,0,0,0,.06-.46,1.08,1.08,0,0,0-.12-.52.93.93,0,0,1-.13-.52.8.8,0,0,1,.07-.34.88.88,0,0,0,.06-.33.83.83,0,0,0-.1-.43,3.59,3.59,0,0,1-.15-.37,9.8,9.8,0,0,1,.22-2.76,17.08,17.08,0,0,0,.39-2.27Z"/><path class="cls-1" d="M177.68,10.78a.48.48,0,0,1-.37.39.68.68,0,0,0-.43.4h-.67a1.91,1.91,0,0,1-.16.8,3.36,3.36,0,0,0-.21.8,5.52,5.52,0,0,0,0,1.29,3.57,3.57,0,0,1,0,1.22,1.92,1.92,0,0,1-.09.59,1.86,1.86,0,0,0-.1.58,5.1,5.1,0,0,0-.06,1.35,5.1,5.1,0,0,1-.06,1.35c-.08.33-.14.58-.18.77a1.77,1.77,0,0,0,.06.76.72.72,0,0,0,.61,0,1.71,1.71,0,0,1,.62-.12,1.53,1.53,0,0,0,.89.09,2.47,2.47,0,0,1,.64-.09,2.12,2.12,0,0,1,.71.12.55.55,0,0,0,.64-.24,5.11,5.11,0,0,1,1.11.09c.24.06.49.11.73.15,0,.21,0,.32.16.34a.3.3,0,0,1,.27.22q.06.12-.15.33a.46.46,0,0,0,0,.59c-.41.37-.68.53-.8.49s-.16,0-.12.18a21.6,21.6,0,0,0-5.16-.24,4,4,0,0,1-.21.83,2,2,0,0,0-.16.76.93.93,0,0,0,.13.52,1.09,1.09,0,0,1,.12.53,11.71,11.71,0,0,1-.06,1.19,11.76,11.76,0,0,0-.06,1.2,1.43,1.43,0,0,0,.12.58,1.47,1.47,0,0,1,.12.58,1.44,1.44,0,0,1-.06.4,1.55,1.55,0,0,0-.06.4,1.49,1.49,0,0,0,.06.4,1.49,1.49,0,0,1,.06.4,3.38,3.38,0,0,1-.09.8,1,1,0,0,0,.21.8,5,5,0,0,0-.09,1,.69.69,0,0,0,.22.43c-.08.69-.16,1.35-.22,2a12.79,12.79,0,0,0,0,2c-.08.45-.07.7,0,.76s.14.14.09.22a10.78,10.78,0,0,0-.24,2,9.11,9.11,0,0,0,.12,1.47.64.64,0,0,0,.09.34,1.33,1.33,0,0,1,.16.34,1.44,1.44,0,0,1-.06.43.94.94,0,0,0-.07.37,2.1,2.1,0,0,1-.09.85,1.28,1.28,0,0,0-.15.31,1.9,1.9,0,0,0,0,.74,2.61,2.61,0,0,0,.31.8,2.71,2.71,0,0,0,.46.61c.16.16.3.2.43.12a1.79,1.79,0,0,0,.67,1,2,2,0,0,1,.62.71,1.88,1.88,0,0,1,.95.49,1.36,1.36,0,0,0,.4.43,2.27,2.27,0,0,0,1.22.4,8.76,8.76,0,0,1,1.29.15c.49.21.77.28.83.22a.29.29,0,0,1,.21-.09,2.21,2.21,0,0,0,1.2.21.71.71,0,0,1,.77.4.85.85,0,0,1,.06.55,3,3,0,0,0-.06.55,4.86,4.86,0,0,1-.77.43,1.87,1.87,0,0,1-.83.19l-.37-.13-.36-.12-.4,0-.77-.06c-.29,0-.65,0-1.1,0a.55.55,0,0,0-.34-.22.46.46,0,0,1-.34-.21.84.84,0,0,1-.58-.09.68.68,0,0,0-.59,0c0-.25,0-.38-.18-.4a1.35,1.35,0,0,0-.49,0,1.89,1.89,0,0,0-.55-.8l-.74.19a1.59,1.59,0,0,1-.74-.07,1.77,1.77,0,0,1-.42-.46,2.46,2.46,0,0,0-.62-.58,1.16,1.16,0,0,0-.37-.09q-.24,0-.3-.15a1.93,1.93,0,0,0-.89-.74,3.65,3.65,0,0,1-.83-.49,1.23,1.23,0,0,0-.46-.58,1.17,1.17,0,0,1-.34-.22,2.26,2.26,0,0,1-.43-.37,2,2,0,0,1-.37-.43,5.72,5.72,0,0,0-1-1.38,1.38,1.38,0,0,1-.46-1.26,4.56,4.56,0,0,0-.31-.73,5.74,5.74,0,0,1-.3-.74l-.25-.8a1.13,1.13,0,0,1,.06-.36,1.1,1.1,0,0,0,.06-.31,8.68,8.68,0,0,0,0-1.23,4.24,4.24,0,0,1,.1-1.16c.08-.25.06-.38-.06-.4s-.19-.14-.19-.34a1.43,1.43,0,0,0,.4-1.11,3.89,3.89,0,0,1,.22-1.28c-.21-.58-.25-.9-.13-1a.56.56,0,0,0,.25-.36,5.7,5.7,0,0,0,.06-1.84c-.08-.62-.14-1.23-.18-1.85a.82.82,0,0,1,0-.49,1,1,0,0,0,0-.49l-.16-.37a.8.8,0,0,1-.09-.36,1,1,0,0,1,.06-.31,1.19,1.19,0,0,0,.06-.37,4.56,4.56,0,0,0,0-.55,1.76,1.76,0,0,1,0-.55,5,5,0,0,0,0-1.23,7.72,7.72,0,0,1-.09-1.23,1.9,1.9,0,0,1,.12-.64,1.08,1.08,0,0,0,0-.71,3.63,3.63,0,0,1-.64-.06,3.74,3.74,0,0,0-.65-.06,1,1,0,0,0-.3.06,1.24,1.24,0,0,1-.37.06,1.75,1.75,0,0,0-1.23-.12.76.76,0,0,1-.8-.12.69.69,0,0,1-.64.21l-.64-.21c-.54-.17-.82-.34-.86-.52a.61.61,0,0,0-.25-.4.92.92,0,0,1,.4-.53,5.14,5.14,0,0,1,.58-.27,1.82,1.82,0,0,1,1.14-.09,2.33,2.33,0,0,0,1.07.09,1,1,0,0,0,.52-.12,1.6,1.6,0,0,1,.52-.19.42.42,0,0,1,.34,0,.25.25,0,0,0,.34-.15.92.92,0,0,0,.74.15.79.79,0,0,1,.73.22,1.16,1.16,0,0,0,.22-1.05,2.34,2.34,0,0,1-.09-1,.69.69,0,0,1,.09-.34,1.66,1.66,0,0,0,.15-.33,5.46,5.46,0,0,0,0-1c0-.32,0-.65,0-1,.2-.08.28-.28.22-.61a1.78,1.78,0,0,1,0-.74,2.37,2.37,0,0,0,.25-1.1l-.12-.62a5.82,5.82,0,0,0-1,.25,1.75,1.75,0,0,1-1,.06,1,1,0,0,1-.43-.09.81.81,0,0,0-.37-.09,1.6,1.6,0,0,0-.92.3,1.89,1.89,0,0,1-.92.37,2.7,2.7,0,0,1-.52-.8.82.82,0,0,1,.16-.92,4.54,4.54,0,0,1,1.41-.67.63.63,0,0,1,.43,0,.94.94,0,0,0,.43.09,4,4,0,0,0,.64-.09c.31-.06.61-.13.92-.22l.86-.24a1.9,1.9,0,0,0,.58-.25,9,9,0,0,0,1-.06,1.22,1.22,0,0,0,.86-.43,3.54,3.54,0,0,0,1.72-.3A4,4,0,0,1,175,10l.83-.37a.89.89,0,0,1,.83-.06c.4.2.63.37.67.49a.77.77,0,0,0,.19.31Zm-4.42,28.35a.82.82,0,0,1,.16-.31.44.44,0,0,0,0-.37,3.84,3.84,0,0,1-.1-.4,2.1,2.1,0,0,1,0-.4,3.17,3.17,0,0,1,.1-1.19,1.66,1.66,0,0,0-.16-1.2,1.52,1.52,0,0,0,.22-1.23,5.42,5.42,0,0,1-.16-1.29,1.21,1.21,0,0,1,.1-.52.56.56,0,0,0-.1-.52,2.69,2.69,0,0,0,.1-1.2c-.07-.34-.12-.7-.16-1.07a1.62,1.62,0,0,0,.12-.86,6.11,6.11,0,0,1-.06-.86,13.48,13.48,0,0,1,.19-1.44,5.76,5.76,0,0,0,.06-1.44,4.42,4.42,0,0,0-.09-.92c-.06-.29-.12-.6-.16-.92a1.15,1.15,0,0,1,.06-.37,1.38,1.38,0,0,0,.07-.43,1.21,1.21,0,0,0-.07-.37,1.35,1.35,0,0,1-.06-.43,2.79,2.79,0,0,1,.16-.95,5,5,0,0,0,.21-1,2.48,2.48,0,0,0,0-.77,2.42,2.42,0,0,1,0-.76,7.61,7.61,0,0,1,.19-1.08,9.18,9.18,0,0,0,.18-1.07,2.11,2.11,0,0,0,.12-1,5.3,5.3,0,0,1-.06-.77c0-.29.09-.57.15-.86a1.16,1.16,0,0,0-.15-.86l-1.56.12a3.87,3.87,0,0,0-1.26.37,8.36,8.36,0,0,1-.22,2.4,13.36,13.36,0,0,0-.33,2.39,4.92,4.92,0,0,0,0,.64,3.22,3.22,0,0,1,0,.43,4.42,4.42,0,0,1,0,.49c0,.19-.08.46-.16.83a.58.58,0,0,1,.19.55,3.26,3.26,0,0,0-.06.62V22.8c-.05.21-.1.41-.16.62a2.15,2.15,0,0,0-.09.61,2,2,0,0,0,.12.61,2.11,2.11,0,0,1,.13.56.44.44,0,0,1-.25.18c-.12,0-.08.21.12.49l-.12.37c0,.12-.08.27-.12.43a18,18,0,0,1,.27,2.27,14.48,14.48,0,0,0,.16,1.72c0,.2.09.42.15.64a2.54,2.54,0,0,1,.09.65,2.61,2.61,0,0,1-.12.76,2.92,2.92,0,0,0-.12.83A4,4,0,0,0,171,34a1.46,1.46,0,0,1,.09.49,1.64,1.64,0,0,1-.09.56,4,4,0,0,0-.15.49,3.94,3.94,0,0,0,0,.52,1.6,1.6,0,0,1,0,.52.93.93,0,0,1-.06.34,2.52,2.52,0,0,0-.13.33,2.76,2.76,0,0,0-.06,1,2.72,2.72,0,0,1-.06,1,2.37,2.37,0,0,0-.09,1.53,1.52,1.52,0,0,1,.09,1,1,1,0,0,1,.31.68,1.81,1.81,0,0,0,.12.67,1.35,1.35,0,0,0,.25.31l.24.25c.08.16.22.41.4.73a1.86,1.86,0,0,1,.28.8c.32,0,.53.11.61.34a.77.77,0,0,0,.55.46,20.29,20.29,0,0,0,.19-3.44C173.4,41.46,173.34,40.31,173.26,39.13Z"/><path class="cls-1" d="M198.8,29.18q-.12.5-.33,1.11a1,1,0,0,0,.21,1.1,1.22,1.22,0,0,0-.4.83c0,.23,0,.44,0,.65a2.33,2.33,0,0,0,0,1.07,1.94,1.94,0,0,1,.12.64c0,.62,0,1.22,0,1.81s0,1.2,0,1.81c0,.37.09.73.13,1.08s.08.68.12,1a11.52,11.52,0,0,1-.21,2.76,7,7,0,0,0,0,2.7c0,.17.09.31.13.43l.12.37a4.55,4.55,0,0,1,.12,1.07,1.69,1.69,0,0,0,.31,1,1.65,1.65,0,0,0-.09.92,2.06,2.06,0,0,1,0,.92,3.31,3.31,0,0,0,.64.06,3.42,3.42,0,0,1,.65.06c.24,0,.36-.08.36-.25s.11-.24.31-.24l.8.37a.6.6,0,0,1,.15.37c0,.16.13.22.34.18a1.74,1.74,0,0,0-.12,1.17,1.63,1.63,0,0,1-.46.15.78.78,0,0,1-.46-.09,2,2,0,0,1-1.48.61,2.82,2.82,0,0,0-1.53-.18l-1,.18c-.33,0-.63,0-.89,0a3.87,3.87,0,0,0-.83,0,1.62,1.62,0,0,0-.61.12,1.6,1.6,0,0,1-.56.13,2.23,2.23,0,0,0-1.25-.19,5.28,5.28,0,0,1-.71.19,1.19,1.19,0,0,1-.31-.07,1.15,1.15,0,0,0-.37-.06,1.85,1.85,0,0,0-.67,0,3.29,3.29,0,0,0-.55.19,2.34,2.34,0,0,1-.62.15.67.67,0,0,1-.55-.21,2.34,2.34,0,0,1-1.23-.07,3.33,3.33,0,0,0-1.16-.18c-.17-.16-.22-.32-.15-.46s-.06-.21-.34-.21a1.16,1.16,0,0,1,.49-.74,4.46,4.46,0,0,0,.67-.55,1,1,0,0,1,.74,0,1.68,1.68,0,0,0,.61.21.71.71,0,0,0,.43-.4.49.49,0,0,0-.06-.52l.37-.8.12-.24a6.85,6.85,0,0,0,.16-1,5.7,5.7,0,0,1,.15-1,1.74,1.74,0,0,0,0-.55.86.86,0,0,1,.09-.49,4.38,4.38,0,0,1,.31-.61,2,2,0,0,0,.24-.68.77.77,0,0,0,0-.37,1.8,1.8,0,0,1,0-.43,2.23,2.23,0,0,0,.13-.3l.12-.37c.2-.74.41-1.51.61-2.33a3.44,3.44,0,0,0-.18-2.33,1.65,1.65,0,0,0,.15-.56.77.77,0,0,1,.22-.49,5.63,5.63,0,0,1,.24-2.82,3.17,3.17,0,0,1,.13-.43,1.4,1.4,0,0,0,.06-.43,1.27,1.27,0,0,0,0-.55,1.27,1.27,0,0,1,0-.55,1,1,0,0,1,.18-.34,1.41,1.41,0,0,0,.19-.34l.39-1.41c.11-.37.2-.74.28-1.1a1.64,1.64,0,0,0-1.38-.13,2.45,2.45,0,0,1-1.32.13.94.94,0,0,0-.49.24.6.6,0,0,1-.43.18,1.94,1.94,0,0,1-.8-.24,4.53,4.53,0,0,1-.73-.43,3.84,3.84,0,0,0,0-.52,1.19,1.19,0,0,1,0-.52.49.49,0,0,1,.36-.13c.17,0,.25-.1.25-.3a1.3,1.3,0,0,0,.61,0c.25-.06.41-.05.49,0a.81.81,0,0,1,.53-.22c.22,0,.31-.15.27-.4a1.41,1.41,0,0,0,1.41,0,1.75,1.75,0,0,1,1.35-.18.53.53,0,0,1,.34-.22.33.33,0,0,1,.34.22,4.18,4.18,0,0,1,2-.12,2.43,2.43,0,0,1,1.66,1.1c.49.33.76.56.8.71A.57.57,0,0,0,198.8,29.18Zm-4.11,2.89a.78.78,0,0,1-.06.55,1.57,1.57,0,0,0-.18.37.59.59,0,0,0,0,.37,2.63,2.63,0,0,1,0,.43c-.09.41-.19.8-.31,1.19a6.09,6.09,0,0,0-.25,1.2,3.45,3.45,0,0,1,0,1.07,2.54,2.54,0,0,0-.09.65,1.34,1.34,0,0,0,0,.58.74.74,0,0,1-.12.52,10,10,0,0,1,.12,1.47,6.58,6.58,0,0,1-.12,1.29,7.37,7.37,0,0,0-.43,1.66,6,6,0,0,1-.25,1.23,2.28,2.28,0,0,0-.43,1.13,1,1,0,0,1-.06.59q-.36.12-.21.33c.1.15.13.26.09.34-.25.29-.33.48-.25.58a.33.33,0,0,1,.07.34,13,13,0,0,0-.59,1.38,2.1,2.1,0,0,0,0,1.44,3,3,0,0,0,1.51.1,3.06,3.06,0,0,1,1.13-.1,2.68,2.68,0,0,1,.34.16.64.64,0,0,0,.34.09c.49,0,.8,0,1-.18s.25-.25.33-.25a.42.42,0,0,1,.37-.06.28.28,0,0,0,.31-.06,2.8,2.8,0,0,0,0-.92,4.56,4.56,0,0,1-.09-.92,1.83,1.83,0,0,1-.19-.71c0-.18,0-.38,0-.58s0-.4-.06-.59,0-.31,0-.39a2.26,2.26,0,0,0,0-.89,1.4,1.4,0,0,1-.09-.53.63.63,0,0,1,.09-.33.67.67,0,0,0,.09-.34.9.9,0,0,0,0-.46,1.7,1.7,0,0,1-.06-.46,2.5,2.5,0,0,1,.06-1,3.81,3.81,0,0,0,.12-.95,3.74,3.74,0,0,0-.06-.65,3.63,3.63,0,0,1-.06-.64,3.52,3.52,0,0,0,.12-.8,2.11,2.11,0,0,0-.15-.8,2.06,2.06,0,0,1-.15-.79c.08-.66.13-1.16.15-1.51s0-.68,0-1,0-.78-.06-1.35a2.39,2.39,0,0,1,.18-1.29c-.24-.12-.29-.34-.15-.64a1.06,1.06,0,0,0,0-.95.7.7,0,0,0,.18-.5V30l-.36-.27a1.23,1.23,0,0,1-.31-.4,2.44,2.44,0,0,1-.37.3,1.15,1.15,0,0,0-.31.37.53.53,0,0,0-.06.43.7.7,0,0,1-.06.49,1.7,1.7,0,0,1-.24.52A1.35,1.35,0,0,0,194.69,32.07Zm2-13.07c.36-.12.59-.14.67-.06s.3.3.4.3a.43.43,0,0,1,.28.13,1.86,1.86,0,0,1,.55.82,2.63,2.63,0,0,0,.49.89A2,2,0,0,0,199,22a5.61,5.61,0,0,0,.15,1q.06.3-.18.3c-.17,0-.21.12-.13.37a1.24,1.24,0,0,0-.37.68,14.89,14.89,0,0,1-1.9,1.13,3,3,0,0,1-2.08.28,1.31,1.31,0,0,1-.83-.52,2,2,0,0,0-.77-.65,2.3,2.3,0,0,1-.15-.64,6.37,6.37,0,0,0-.09-.65,2.55,2.55,0,0,1-.07-1.65,7,7,0,0,0,.43-1,4,4,0,0,0,.62-.4l.3-.27a2.66,2.66,0,0,0,1.23-.49,4.55,4.55,0,0,0,1-.16Zm.12,2.51a1.47,1.47,0,0,1-.86.25,1.77,1.77,0,0,1-.74-.12,2.92,2.92,0,0,0-.36,2.08,5.3,5.3,0,0,1,1.16-.24,1.1,1.1,0,0,0,.4-.59.7.7,0,0,1,.52-.46c0-.16-.08-.3-.12-.43A1,1,0,0,1,196.84,21.51Z"/><path class="cls-1" d="M220.23,25.2a8.11,8.11,0,0,0,1.14-.07,2.63,2.63,0,0,1,1,.07,3.23,3.23,0,0,1,1,.43,1.08,1.08,0,0,0,1,.12.64.64,0,0,1,.37.21,1.19,1.19,0,0,0,.31.28.67.67,0,0,1,.4-.09l.4.09a1.61,1.61,0,0,0,1,.31.4.4,0,0,1,.49.24,1.51,1.51,0,0,1,.92.06,6.61,6.61,0,0,1,.92.31,1.27,1.27,0,0,1,.43.34.4.4,0,0,0,.49.09,1.17,1.17,0,0,0,.68.7,2.16,2.16,0,0,1,.79.59q.73.91,1.23,1.44a3,3,0,0,1,.49.58.84.84,0,0,0,.19.62,1.29,1.29,0,0,1,.24.3,2.37,2.37,0,0,0,.34.74.45.45,0,0,1,.15.18,1.43,1.43,0,0,1,.09.65.64.64,0,0,0,.34.58c-.08.33-.05.55.09.68s.16.36,0,.73a1,1,0,0,1,.22.31.45.45,0,0,0,.28.24,1.78,1.78,0,0,0,0,1,3.79,3.79,0,0,1,.15,1.07,17.62,17.62,0,0,1-.22,2.45,19.3,19.3,0,0,1-.46,2.46,1.15,1.15,0,0,0-.3.28,1.11,1.11,0,0,1-.37.27,3.34,3.34,0,0,1-.46,1.2,3.18,3.18,0,0,0-.46,1.19,4.08,4.08,0,0,0-.83.68,8.62,8.62,0,0,0-.64.8,5,5,0,0,1-.68.76,5.52,5.52,0,0,0-.67.77c-.25.25-.39.37-.43.37a.49.49,0,0,0-.19.06,2.74,2.74,0,0,0-.61.74.75.75,0,0,1-.18.3,6.18,6.18,0,0,0-1,.71,2.23,2.23,0,0,1-1.13.52A1.89,1.89,0,0,1,226,52a2,2,0,0,0-.74.46,2.12,2.12,0,0,1-1.19.62.91.91,0,0,0-.77.43c-.33-.09-.56-.07-.7.06a1.79,1.79,0,0,1-.65.3,7.59,7.59,0,0,0-2.33,0,1.09,1.09,0,0,0-.55.13.86.86,0,0,1-.55.06,2.8,2.8,0,0,1-1.26-.28,2.07,2.07,0,0,0-1.26-.15,4.9,4.9,0,0,0-1.32-.77,7.34,7.34,0,0,0-1.44-.4,2.89,2.89,0,0,0-1.35-1,4.54,4.54,0,0,0-.58-.61l-1-1c-.37-.34-.71-.65-1-.92a3,3,0,0,0-.68-.46c-.16-.28-.31-.55-.46-.79a2.45,2.45,0,0,0-.58-.68l-.24-.86a1.79,1.79,0,0,0-.43-.73,1.18,1.18,0,0,0-.07-.86,4.31,4.31,0,0,1-.3-.86,3.46,3.46,0,0,1-.06-1.11,2,2,0,0,0-.19-1.1.56.56,0,0,0,.22-.62c-.06-.24-.05-.4,0-.49A2.82,2.82,0,0,0,206.7,39a5,5,0,0,1,0-1.44.74.74,0,0,1,.1-.37,2,2,0,0,0,.15-.43,1.21,1.21,0,0,0,0-.46.81.81,0,0,1,.09-.46,8.44,8.44,0,0,0,.65-1.1A3.7,3.7,0,0,0,208,34c0-.41.1-.6.18-.58a.19.19,0,0,0,.19,0c.53-.66.91-1.12,1.13-1.38s.46-.56.71-.89.81-.93,1.44-1.57a15.72,15.72,0,0,1,1.63-1.44l.89-.67a4.15,4.15,0,0,0,.4-.43c.36.08.62,0,.76-.22a.68.68,0,0,1,.71-.27,1.54,1.54,0,0,0,.67-.56,5.47,5.47,0,0,0,1.23-.3,1.62,1.62,0,0,1,1.11-.1A1.42,1.42,0,0,0,220.23,25.2Zm-7.54,6.5a1,1,0,0,1-.4.25.88.88,0,0,0-.4.24.49.49,0,0,1-.34.4c-.18.06-.24.24-.15.52,0,0-.19,0-.43.25a6.1,6.1,0,0,0-.49.43,3.3,3.3,0,0,1-.56,1.38,3.78,3.78,0,0,0-.55.89,6.86,6.86,0,0,0-.46,1.62,10.32,10.32,0,0,0-.21,1.69,1.49,1.49,0,0,0,.06.4.68.68,0,0,1,0,.4,1.9,1.9,0,0,1-.19.83,2.34,2.34,0,0,0-.12,1.13,1.17,1.17,0,0,0,.12.4,1,1,0,0,1,.13.4c-.09.29-.09.47,0,.55a.43.43,0,0,1,.09.25,1,1,0,0,1,0,.43,3.18,3.18,0,0,0,0,.36,1.57,1.57,0,0,0,.49.77,1.11,1.11,0,0,1,.37.83l.46.58a2.5,2.5,0,0,1,.34.65,2.42,2.42,0,0,1,.76.73,1.11,1.11,0,0,0,1,.43c.09-.4,0-.68-.12-.82a2,2,0,0,1-.43-.65,1.25,1.25,0,0,0-.12-.77,4.38,4.38,0,0,1-.31-.7,3.94,3.94,0,0,1-.12-.92,1.38,1.38,0,0,0-.25-.8,2.34,2.34,0,0,0,.28-1.2c0-.38,0-.78,0-1.19.2-1.39.38-2.51.52-3.35s.28-1.61.4-2.33.18-1.11.18-1.2a1.09,1.09,0,0,1,.19-.33,1.11,1.11,0,0,0,.18-.34,7.4,7.4,0,0,0,.37-1.38c.08-.47.19-.93.31-1.38l-.34.15A.39.39,0,0,0,212.69,31.7Zm9.69,20a1,1,0,0,1,1-.3.93.93,0,0,0,.31-.34.7.7,0,0,1,.25-.28,2.85,2.85,0,0,1,.92-.3,12,12,0,0,0,1.32-.71,4.53,4.53,0,0,0,1.07-.89.51.51,0,0,0,.37-.12,2.09,2.09,0,0,0,.24-.31,3.78,3.78,0,0,1,.37-.43,2.18,2.18,0,0,1,.74-.43l1.07-1.32c.35-.43.73-.86,1.14-1.32a5.05,5.05,0,0,0,.73-1.47,5.08,5.08,0,0,1,.74-1.47,6.47,6.47,0,0,0,.43-.92,1.17,1.17,0,0,0,.12-.65,1.6,1.6,0,0,1,0-.64,2.18,2.18,0,0,1,.09-.83,2.09,2.09,0,0,0,.16-.27,2.64,2.64,0,0,0-.25-1.51,2.72,2.72,0,0,1-.37-.89q-.12-.67-.24-1.5a1.66,1.66,0,0,0-.55-1.14.7.7,0,0,0-.07-.52,1,1,0,0,1-.12-.52,2.26,2.26,0,0,0-.49-.55.7.7,0,0,1-.18-.68,4.61,4.61,0,0,0-.74-.64c-.12-.06-.16-.19-.12-.4a4,4,0,0,1-.8-.46c-.33-.22-.65-.44-1-.64a6.05,6.05,0,0,0-1-.5,1.07,1.07,0,0,0-.86,0,1.56,1.56,0,0,0-.86-.39c-.37-.07-.7-.14-1-.22a.9.9,0,0,0-.65-.09.56.56,0,0,1-.4,0,1.71,1.71,0,0,1-.64-.37,1.91,1.91,0,0,0-.71-.37,1.64,1.64,0,0,0-.36.06,1.52,1.52,0,0,1-.43.07l-.43,0-.62-.07a2.52,2.52,0,0,0-.55,0c-.16,0-.24.1-.24.22a1.32,1.32,0,0,0-1.05-.06,3.52,3.52,0,0,1-1.1.18.57.57,0,0,0-.13.43v.49a1.74,1.74,0,0,0-.82.74,2.85,2.85,0,0,1-.77.86.48.48,0,0,1-.06.43.37.37,0,0,0-.06.37,1,1,0,0,0-.59.55,5.3,5.3,0,0,0-.36,1,9.61,9.61,0,0,0-.25,1.07c-.06.35-.11.63-.15.83a2.83,2.83,0,0,0-.43,1.38,1.66,1.66,0,0,1-.06.77,2.73,2.73,0,0,0-.22.92.78.78,0,0,1,0,.37,1.3,1.3,0,0,0-.12.67l.12.25a7,7,0,0,0-.55,2.15,2.47,2.47,0,0,0,.09.64,1.41,1.41,0,0,1,0,.64.64.64,0,0,1-.09.34,1.75,1.75,0,0,0-.15.34,4.06,4.06,0,0,0,.12,1.81c.16.51.34,1.07.55,1.69a15.63,15.63,0,0,1,.74,2,1.1,1.1,0,0,1,.3.64v.4a2.86,2.86,0,0,0,.28.92.77.77,0,0,1,.09.56,5.35,5.35,0,0,1,.68.27,4.08,4.08,0,0,0,.67.28,5.86,5.86,0,0,0,1.08.15c.38,0,.74,0,1.07.09a2.56,2.56,0,0,1,.49.16,1,1,0,0,0,.43.09,6.08,6.08,0,0,0,1.38-.18A3.14,3.14,0,0,1,222.38,51.7Z"/><path class="cls-1" d="M251.3,30a.82.82,0,0,1-.22.4.85.85,0,0,0-.21.4.85.85,0,0,1,0,.46c0,.23,0,.34.12.34a2.84,2.84,0,0,0-.25,1.56,11.79,11.79,0,0,1,0,1.69c.21.08.31,0,.31-.12a.4.4,0,0,1,.19-.37l.36-.25a1.5,1.5,0,0,1,.43-.18,8,8,0,0,0,1.05-1,1.39,1.39,0,0,1,.86-.52,1,1,0,0,1,.36-.47.86.86,0,0,0,.37-.46,2,2,0,0,0,.62-.18c.28-.12.58-.26.89-.43s.59-.33.85-.49l.59-.37a1.59,1.59,0,0,1,.64-.18c.31,0,.54-.08.71-.12a4.41,4.41,0,0,0,1.07-.16,9.69,9.69,0,0,1,1-.21l.28,0,.37-.1.43-.12.27-.06a3.88,3.88,0,0,1,1.84.06,7.42,7.42,0,0,0,1.72.37,1.85,1.85,0,0,1,.49.4.76.76,0,0,0,.68.15.7.7,0,0,0,.43.43.83.83,0,0,1,.43.37,1.22,1.22,0,0,0,.43.58,1.17,1.17,0,0,1,.3.22c.21.28.33.42.37.4s.1,0,.19.09a.69.69,0,0,1,.15.43c0,.2.15.28.4.24a1.14,1.14,0,0,0,.43.92,3.78,3.78,0,0,1,.73.68,6.77,6.77,0,0,1,0,1.1,1.81,1.81,0,0,0,.28,1.05,8.8,8.8,0,0,0-.09.95,2.25,2.25,0,0,0,.09.89,2.63,2.63,0,0,1-.24.89c-.17.39-.15.66.06.83,0,.16,0,.44-.06.82s-.15.61-.31.65a2.61,2.61,0,0,1,0,1.13,3.29,3.29,0,0,1-.31,1.08q-.12.24,0,.33c.1.07.11.18,0,.34a1.5,1.5,0,0,0-.3.71,1,1,0,0,1-.37.64.83.83,0,0,1,.06.52,2,2,0,0,0-.06.53,1.47,1.47,0,0,0,.12.58.55.55,0,0,1-.12.58,2.69,2.69,0,0,0-.28.95,3.16,3.16,0,0,0,0,1,1.26,1.26,0,0,0,.68.34,6.24,6.24,0,0,0,.82.12,2.81,2.81,0,0,1,.71.13c.2.06.31.17.31.33a2,2,0,0,1,1,.49.58.58,0,0,1,0,.4,2.1,2.1,0,0,1-.28.56,4.83,4.83,0,0,1-.37.49,1.11,1.11,0,0,1-.3.27.87.87,0,0,1-1-.12,1.64,1.64,0,0,0-.95-.49.88.88,0,0,0-.33.06,1,1,0,0,1-.34.06.74.74,0,0,1-.49-.15.68.68,0,0,0-.55-.09q-.5,0-1,0l-.95.09a4.54,4.54,0,0,1-.89,0,.86.86,0,0,1-.64-.34,8.85,8.85,0,0,1-.89.09,4.51,4.51,0,0,1-1,0,3.3,3.3,0,0,1-1-.27,1.32,1.32,0,0,1-.64-.59,1.58,1.58,0,0,1,.22-.61,5.84,5.84,0,0,1,.39-.55,5.36,5.36,0,0,0,1.6,0,.57.57,0,0,1,.52,0,.45.45,0,0,0,.28.12,8.77,8.77,0,0,1,1.41-.09,2.08,2.08,0,0,0,.86-.15.44.44,0,0,0,.12-.43l-.12-.49a1,1,0,0,0,.49-.5c.08-.2,0-.36-.37-.49a2.13,2.13,0,0,0,.49-1,3.34,3.34,0,0,1,.43-1.07,2.14,2.14,0,0,1,.43-2,2.48,2.48,0,0,1,.12-1.32,6.82,6.82,0,0,0,.37-1.32c.08-.45.14-.89.19-1.32a7.16,7.16,0,0,0,0-1.31,1.33,1.33,0,0,0-.07-.43.59.59,0,0,1,0-.37,2.81,2.81,0,0,1,.1-.83,2,2,0,0,0,0-.89,8.55,8.55,0,0,0-.59-1.72A4.49,4.49,0,0,0,267.13,33c-.21-.16-.4-.31-.58-.43s-.38-.25-.59-.37l-.24-.24-.25-.25a1,1,0,0,0-.52-.12,1.16,1.16,0,0,1-.58-.13,1.4,1.4,0,0,1-.4-.15,1.52,1.52,0,0,0-.4-.15,1.5,1.5,0,0,0-.86,0,3.76,3.76,0,0,1-.74.24,10.23,10.23,0,0,1-1.65.16,1.86,1.86,0,0,0-1.48.64.64.64,0,0,0-.89,0,1.8,1.8,0,0,1-.88.43,12.62,12.62,0,0,0-1.6,1,5.93,5.93,0,0,0-.92.95,1.51,1.51,0,0,0-.8.92,1.24,1.24,0,0,0-.49.22,1.08,1.08,0,0,1-.43.21c-.29.46-.58.9-.89,1.35s-.62.88-.95,1.29a1.74,1.74,0,0,0,.15.71,1.44,1.44,0,0,1,.16.64,1,1,0,0,1-.1.65,1,1,0,0,0-.09.64.67.67,0,0,0,.09.34.57.57,0,0,1,.1.34.38.38,0,0,1,0,.33.35.35,0,0,0,0,.34,1.31,1.31,0,0,0,.09.52,1.38,1.38,0,0,1,.09.52,1,1,0,0,1,0,.56.93.93,0,0,0,0,.61c.16.16.2.28.12.34s-.12.21-.12.46.08.5.12.77.08.54.13.82c0,.49.1,1,.18,1.51a4.31,4.31,0,0,0,.49,1.44,1.5,1.5,0,0,0,0,1,1.82,1.82,0,0,1,0,1,.9.9,0,0,0,.61.22,7.06,7.06,0,0,0,.92,0l.92-.06.74,0a1,1,0,0,0,.34.39,2.52,2.52,0,0,1,.4.4,1.33,1.33,0,0,1-.68.8,2.67,2.67,0,0,0-.86.68,2.56,2.56,0,0,1-.95.06,2.58,2.58,0,0,0-.95.06.93.93,0,0,0-.46.12.61.61,0,0,1-.46.06,1,1,0,0,1-.43-.09.81.81,0,0,0-.37-.09.59.59,0,0,0-.37,0l-.3.12a1.86,1.86,0,0,1-.89-.21,1.29,1.29,0,0,0-.83-.16,1.67,1.67,0,0,0-.52.09c-.19.07-.32,0-.4-.21a3.36,3.36,0,0,0-.8.21,1.91,1.91,0,0,1-.8.16c-.41-.08-.62-.1-.64-.06s-.07.06-.15.06a1.65,1.65,0,0,1-.46-.06,1.76,1.76,0,0,0-.46-.06,2.82,2.82,0,0,0-.83.12,6.06,6.06,0,0,1-.77.18,4.12,4.12,0,0,1-1,.13h-1a1.19,1.19,0,0,1-1.41-.28,1.42,1.42,0,0,1-.31-1.32,1.48,1.48,0,0,1,.7-.31,5.69,5.69,0,0,1,.83-.06,5.59,5.59,0,0,0,.83-.06,1.23,1.23,0,0,0,.71-.37c0-.41,0-.79,0-1.13a7.42,7.42,0,0,0,0-1.14,10.44,10.44,0,0,0,.36-1.41,6.34,6.34,0,0,1,.25-1,2.15,2.15,0,0,0,.12-1.17,2.16,2.16,0,0,1-.12-.67c.2-1.11.35-2,.43-2.73s.16-1.45.25-2.18a2,2,0,0,1,.12-.65,1.85,1.85,0,0,0,.12-.64,2.73,2.73,0,0,1,.15-1.2c.15-.38.12-.66-.09-.82a1.43,1.43,0,0,0,0-.77c-.06-.1,0-.28.22-.52a8.68,8.68,0,0,1,.15-2.3,8.2,8.2,0,0,0,.22-1.88,3.75,3.75,0,0,0-1.48.16,6.52,6.52,0,0,1-1.41.27,1.63,1.63,0,0,1-.92.37,4,4,0,0,1-1,0,.76.76,0,0,1-.31-.43,2.67,2.67,0,0,0-.18-.49c-.25-.08-.34-.21-.28-.4a.32.32,0,0,0-.09-.4.75.75,0,0,1,.64-.4,1.2,1.2,0,0,0,.65-.09,3,3,0,0,0,.86-.21.49.49,0,0,1,.3-.09,5.71,5.71,0,0,1,1.23-.13,7.38,7.38,0,0,0,1.29-.12,3.1,3.1,0,0,0,.46-.15,2.56,2.56,0,0,0,.4-.22,3.68,3.68,0,0,1,1.32-.27,1.38,1.38,0,0,0,1.13-.53l.37.1a.78.78,0,0,0,.43-.1,4.14,4.14,0,0,1,.92-.3,4,4,0,0,1,1.08-.09,1.83,1.83,0,0,1,.92.3A1.18,1.18,0,0,1,251.3,30Zm-4.18,1.47a2.88,2.88,0,0,0-.49,1.69,11,11,0,0,1-.12,1.75.84.84,0,0,1-.09.37.81.81,0,0,0-.09.37,2.48,2.48,0,0,0,.18,1.65c-.33.21-.42.44-.28.71a.82.82,0,0,1,.1.71,4,4,0,0,0-.34,1.41,12.09,12.09,0,0,1-.15,1.41c-.05.24-.09.48-.13.7s-.08.46-.12.71a2.72,2.72,0,0,0,.06.58.77.77,0,0,1-.06.52.6.6,0,0,0-.06.43.92.92,0,0,1,.06.37,3.12,3.12,0,0,1-.09,1.11,2.38,2.38,0,0,0-.09,1c.08.24.06.42-.07.52a.3.3,0,0,0-.06.4c-.12.2-.14.34-.06.4a.7.7,0,0,1,.19.4,1.18,1.18,0,0,0-.34.33,4.34,4.34,0,0,0-.28.46,2.47,2.47,0,0,1,0,.77l-.12.68c0,.22-.07.46-.09.7a2.29,2.29,0,0,0,.09.8,3.63,3.63,0,0,1,.55,0,.79.79,0,0,0,.49-.15,2.13,2.13,0,0,0,1.23,0,2.82,2.82,0,0,1,1-.19,2.28,2.28,0,0,1,.89.16,1.09,1.09,0,0,0,.83,0,4.86,4.86,0,0,0,0-1.42q-.09-.68-.21-1.35a.87.87,0,0,1,0-.4,2.77,2.77,0,0,0,0-.39c-.17-.45-.21-.72-.13-.8a1.37,1.37,0,0,1-.3-.74c0-.2,0-.42,0-.64s0-.43.06-.62a1.24,1.24,0,0,1,.09-.39,2.57,2.57,0,0,1-.3-1,7,7,0,0,1-.07-1,1.78,1.78,0,0,0-.06-.8,2.52,2.52,0,0,1-.12-.79.71.71,0,0,1,0-.46,1.22,1.22,0,0,0,.09-.46,1.52,1.52,0,0,0-.15-.34.67.67,0,0,1-.09-.34,4.16,4.16,0,0,0,0-1.56,4.51,4.51,0,0,1-.22-.95.9.9,0,0,1,.06-.34.93.93,0,0,0,.06-.34,2.72,2.72,0,0,0,0-.43.79.79,0,0,1,0-.37c0-.2.09-.38.13-.52s.08-.32.12-.52a2.58,2.58,0,0,0-.12-.8,2.28,2.28,0,0,1-.13-.8,6.06,6.06,0,0,1,.1-1c.06-.35.11-.7.15-1.07-.33-.21-.59-.24-.8-.09A.75.75,0,0,1,247.12,31.45Z"/><path class="cls-1" d="M302.24,50.6a7.78,7.78,0,0,1,.77.25,1.82,1.82,0,0,0,.83.06,2.62,2.62,0,0,1,.83,0l.27.12a5.37,5.37,0,0,0,1.48.06,2,2,0,0,1,1.41.31c.12.08.13.2,0,.37s0,.26.21.3c-.08.21-.17.31-.27.31h-.46a5.69,5.69,0,0,0-.86.64l-.25.28a12.39,12.39,0,0,1-1.32.18,4.77,4.77,0,0,1-1.32-.06l-.43-.12-.37-.12a7.72,7.72,0,0,0-1,.09l-1.35.18-1.28.16-.65.06c-.24-.08-.4-.09-.46,0a.8.8,0,0,1-.21.15,1.18,1.18,0,0,1-.53,0,1.13,1.13,0,0,0-.52,0,2.11,2.11,0,0,0-.83.31,1.13,1.13,0,0,1-.89.12,1.05,1.05,0,0,1-.7-.52A5.81,5.81,0,0,0,294,53a13.59,13.59,0,0,1,0-3.13c-.21,0-.34,0-.4.06a1.8,1.8,0,0,1-.28.31,1.41,1.41,0,0,0-.58.28,1.84,1.84,0,0,1-.34.27,1.1,1.1,0,0,1-.4.25,1.32,1.32,0,0,0-.39.24c-.17.21-.31.3-.43.28s-.17.11-.13.4a1.07,1.07,0,0,0-.7.12,4.73,4.73,0,0,1-.65.31,4.68,4.68,0,0,1-.76.18,3.77,3.77,0,0,0-.77.19,2.87,2.87,0,0,0-.37.15l-.43.22a1.35,1.35,0,0,1-.49,0,1.16,1.16,0,0,0-.49,0l-.43.12-.37.12c-.33.08-.66.19-1,.31a2,2,0,0,1-1.07.06,1.43,1.43,0,0,1-.56-.24q-.12-.13-.36,0a2.59,2.59,0,0,0-1.72-.8,4.08,4.08,0,0,0-1.2-.92,4.45,4.45,0,0,1-1.2-.92l-.52-1.45a8.8,8.8,0,0,1-.4-1.5,1.17,1.17,0,0,0-.18-.61.43.43,0,0,1-.12-.31.49.49,0,0,1,0-.34,2,2,0,0,1,.12-.33v-.86a1.14,1.14,0,0,1,.31-.74,1.94,1.94,0,0,1,.09-1.17,4.37,4.37,0,0,0,.27-1.16,2.47,2.47,0,0,0,.68-1.47.69.69,0,0,0,.46-.31,4.81,4.81,0,0,1,.34-.49,2.15,2.15,0,0,1,.43-.34.5.5,0,0,0,.24-.46c.41-.12.63-.22.65-.31a.53.53,0,0,1,.15-.24,2,2,0,0,0,.61-.43c0-.08.15-.1.31-.06a1.16,1.16,0,0,1,.61-.62,1.12,1.12,0,0,0,.62-.61.51.51,0,0,1,.34.09q.09.09.39,0a3.43,3.43,0,0,0,.77-.4l.22-.21a5.56,5.56,0,0,1,1.47-.61,13.89,13.89,0,0,1,1.53-.37c.21-.08.41-.16.62-.22a6,6,0,0,1,.61-.15,4.28,4.28,0,0,1,1.13-.09,1.79,1.79,0,0,0,1.08-.28,1.91,1.91,0,0,1,.74.25.78.78,0,0,0,.73,0,1.26,1.26,0,0,0,1,.55,2.23,2.23,0,0,1,1.14.37,2.57,2.57,0,0,0,0-1.6,4.68,4.68,0,0,1-.28-1.59,2.8,2.8,0,0,1,0-.4.87.87,0,0,0,0-.4c0-.41,0-.62-.09-.65a.27.27,0,0,1-.15-.15,1.45,1.45,0,0,1-.06-.8,1.51,1.51,0,0,0-.07-.79,2,2,0,0,0-.15-.43.87.87,0,0,1-.09-.37,2.47,2.47,0,0,1-.58-.25,1,1,0,0,0-.65-.12,4.73,4.73,0,0,1-1.72-.06,1.8,1.8,0,0,0-1.35.18,1.19,1.19,0,0,0-1,0,.41.41,0,0,1-.4,0,.56.56,0,0,0-.4,0,1.5,1.5,0,0,0-.34.16l-.33.21a3.25,3.25,0,0,1-.92.09c-.25,0-.52.18-.8.59a2.59,2.59,0,0,0-1.26.49,4,4,0,0,1-1.13.61,3.79,3.79,0,0,0-.89,1.17,6.1,6.1,0,0,1-.83,1.22,1.11,1.11,0,0,1-.12.92,1.22,1.22,0,0,0-.25.8,10.83,10.83,0,0,1-1.23-.24.94.94,0,0,1-.8-.86.73.73,0,0,1,.13-.56l.3-.49c.33-.65.64-1.31.92-2a5.22,5.22,0,0,1,1.23-1.72,1.83,1.83,0,0,0,.95-.27,1.68,1.68,0,0,0,.65-.65.71.71,0,0,0,.92-.43,1.64,1.64,0,0,0,1-.34,1.12,1.12,0,0,1,1-.21,1.63,1.63,0,0,1,.52-.46,1.08,1.08,0,0,1,.4-.09.71.71,0,0,1,.31.06.26.26,0,0,0,.24,0,2.67,2.67,0,0,1,.65-.19.75.75,0,0,0,.52-.24,1.47,1.47,0,0,0,1,.09,1,1,0,0,1,.92.15.94.94,0,0,1,.68-.24,9.56,9.56,0,0,1,2.05.28q1.26.27,2.31.39a3.78,3.78,0,0,0,.95.74,2.07,2.07,0,0,0,1.19.18l1.35,1.39q.67.71,1.41,1.38a2.2,2.2,0,0,0,.28,1.13c.18.31.32.46.4.46a1.16,1.16,0,0,0,.55,1.11,4.58,4.58,0,0,0,.49,1.53,3,3,0,0,1,.31,1.66c0,.24.06.38.18.4s.19.13.19.33c0,.54-.09,1.06-.13,1.57a10.94,10.94,0,0,0,0,1.62,1.61,1.61,0,0,0,.07.49,2.4,2.4,0,0,1,.06.56,4.52,4.52,0,0,0-.25,2,4.17,4.17,0,0,1,0,1.41,2.24,2.24,0,0,1-.06,1,1.46,1.46,0,0,0-.18.5,3.15,3.15,0,0,0,.06.61,3.15,3.15,0,0,1,.06.61,1.26,1.26,0,0,1-.22.71.47.47,0,0,0,.1.64,1.72,1.72,0,0,0-.19,1.66Zm-7.36-11a2.86,2.86,0,0,1-1-.92c-.09-.41-.19-.62-.31-.62a.75.75,0,0,1-.31-.06c-.36-.37-.59-.53-.67-.49a.28.28,0,0,1-.25,0,1.14,1.14,0,0,0-.7-.18,1.55,1.55,0,0,1-.4.06,4.43,4.43,0,0,0-2,.18,2.44,2.44,0,0,1-1.41.19,1.3,1.3,0,0,1-1,.42,1.21,1.21,0,0,0-1,.5,1.64,1.64,0,0,0-.65.12,2.31,2.31,0,0,0-.52.31,4.44,4.44,0,0,1-.46.3.49.49,0,0,1-.4.06,1.63,1.63,0,0,1-.55.62l-.74.46a3.6,3.6,0,0,0-.67.49,1.41,1.41,0,0,0-.43.7c-.41.37-.71.66-.89.86a2,2,0,0,0-.4.62,2.18,2.18,0,0,0-.18.86.94.94,0,0,1-.37.73.5.5,0,0,1,.09.58,2.1,2.1,0,0,0-.22.59,1,1,0,0,0,0,.49.43.43,0,0,1-.12.43,10.2,10.2,0,0,1,.62,1.53,7,7,0,0,0,.67,1.54,1.87,1.87,0,0,1,.52.3.83.83,0,0,0,.58.19,3.59,3.59,0,0,0,1.72.92,4.1,4.1,0,0,0,2,0,4,4,0,0,1,1.65-.59,1.5,1.5,0,0,0,1-.33.38.38,0,0,0,.61,0,2.68,2.68,0,0,1,.49-.46c.33,0,.55,0,.67-.22a.59.59,0,0,1,.62-.21c.24-.37.42-.56.52-.56a.67.67,0,0,0,.34-.12,4.34,4.34,0,0,0,.83-.67,2.86,2.86,0,0,1,.82-.62,2,2,0,0,1,.92-1.35h.34a.47.47,0,0,0,.34-.12c0-.25.08-.48.12-.71l.12-.64c0-.2,0-.52-.06-1a1.86,1.86,0,0,1,.06-.89,3.66,3.66,0,0,0,.16-1.84A3.13,3.13,0,0,1,294.88,39.62ZM297,33a9.71,9.71,0,0,1,0,1.26,8.15,8.15,0,0,0,0,.89.92.92,0,0,1,.15.4.93.93,0,0,0,.15.39c0,.82-.08,1.44-.12,1.85s-.06.81-.06,1.22a8.08,8.08,0,0,0,0,1.2q0,.59,0,1.26c0,.16,0,.4,0,.7a1,1,0,0,1-.22.65l.25.79-.25.92c-.08.58-.19,1.16-.33,1.75a7.41,7.41,0,0,0-.22,1.81.62.62,0,0,0,0,.43,1,1,0,0,1,.09.43,3.36,3.36,0,0,1-.12.92,1.79,1.79,0,0,0,0,.92.77.77,0,0,0,.34.37.46.46,0,0,1,.21.43,3.52,3.52,0,0,0,1.72-.18.83.83,0,0,1,.52-.06.77.77,0,0,0,.52-.07,1,1,0,0,1-.06-.49,1.56,1.56,0,0,1,.06-.55,5,5,0,0,1,.16-.7.13.13,0,0,0,0-.1,9,9,0,0,0,.37-2.57q0-1.35.12-2.58.06-.62.09-1.2c0-.39,0-.78,0-1.19a1.14,1.14,0,0,0,0-.68.48.48,0,0,1,0-.37.63.63,0,0,1,.09-.33.94.94,0,0,0,0-.86.66.66,0,0,1-.09-.52.81.81,0,0,0,.22-1,1.64,1.64,0,0,1-.22-1,3.06,3.06,0,0,1-.15-1,.91.91,0,0,0-.09-.52,1,1,0,0,0-.25-.34.53.53,0,0,1-.18-.28,1.88,1.88,0,0,0,0-.67,6.15,6.15,0,0,1-.74-1.2c-.21-.43-.41-.86-.61-1.29a5.09,5.09,0,0,0-.77-1.16,3.29,3.29,0,0,0-1.14-.83,4,4,0,0,0,.07,1.59C296.66,32,296.8,32.46,297,33Z"/><path class="cls-1" d="M322.32,34.71a1.12,1.12,0,0,0,.92-.8l.68-.37a1.53,1.53,0,0,0,.31-.49.78.78,0,0,1,.36-.43,1.66,1.66,0,0,0,.59-.4,1.39,1.39,0,0,1,.21-.27.87.87,0,0,1,.34-.22.26.26,0,0,0,.15-.34.66.66,0,0,0,.68-.61,9.86,9.86,0,0,1,.92-.55.58.58,0,0,0,.3-.43,2,2,0,0,0,.62-.16,7.33,7.33,0,0,0,.89-.39c.3-.17.61-.32.92-.46a3.15,3.15,0,0,1,.76-.28,1.62,1.62,0,0,1,.62,0,.54.54,0,0,0,.55-.25,1.82,1.82,0,0,0,.71.25.6.6,0,0,1,.52.37,1,1,0,0,1,.49,0,2.07,2.07,0,0,1,.34.15,1.66,1.66,0,0,0,.33.15.81.81,0,0,0,.49,0,6,6,0,0,0,.34.5.53.53,0,0,0,.52.12.34.34,0,0,0,.28.37c.18,0,.25.18.21.43a1.67,1.67,0,0,1,.31.24.81.81,0,0,0,.37.19,2.42,2.42,0,0,0,.25,1.31,3.1,3.1,0,0,1,.3,1.32,2.61,2.61,0,0,1-.06,1,.62.62,0,0,0,.43.77,5.41,5.41,0,0,0-.43,1.6,2.94,2.94,0,0,1-1.38.18,1.27,1.27,0,0,1-1.14-.67,7.57,7.57,0,0,0,.34-1.54,5.38,5.38,0,0,0,0-1,.79.79,0,0,0-.09-.31,2.75,2.75,0,0,1-.15-.36,5.3,5.3,0,0,1-.16-.77,1.34,1.34,0,0,0-.12-.46,1,1,0,0,0-.34-.37,5,5,0,0,0-.73-.43,2.48,2.48,0,0,1-.49-.24.6.6,0,0,0-.56,0,1,1,0,0,0-1.1-.34l-1.17.46-.67.24a1,1,0,0,0-.55.43,2,2,0,0,0-1,.46,1.74,1.74,0,0,1-.7.46,2.51,2.51,0,0,1-.52.65.8.8,0,0,0-.28.27c-.16.29-.27.43-.31.43s-.1,0-.18.13a2.62,2.62,0,0,1-.37.73.87.87,0,0,0-.18.31.49.49,0,0,1-.34.12.45.45,0,0,0-.34.12,1,1,0,0,0-.46.37.64.64,0,0,1-.46.31,1.19,1.19,0,0,0-.34.49.57.57,0,0,1-.15.31c-.41.41-.61.71-.61.92a.72.72,0,0,1-.31.55c0,.21,0,.32-.18.34a.6.6,0,0,0-.37.15,9.36,9.36,0,0,1,0,2.7,10.1,10.1,0,0,0-.1,2.64c0,.12.09.24.13.34s.08.21.12.33a1.23,1.23,0,0,1,0,.46,3.44,3.44,0,0,0,0,.46,1.4,1.4,0,0,0,.09.53,3.25,3.25,0,0,1,.16.52,1,1,0,0,1-.07.34.88.88,0,0,0-.06.33,4.68,4.68,0,0,0,.31,1.69,2.29,2.29,0,0,1,0,1.63s.16.06.37.06.41,0,.61,0a2.74,2.74,0,0,0,.62-.13,1.08,1.08,0,0,0,.36-.15c.33-.2.53-.21.62,0s.22.2.43,0l.43.61a1.53,1.53,0,0,1,.18.65.71.71,0,0,1-.15.46l-.34.37a.89.89,0,0,0-.25.43h-.4q-.27,0-.27.24-.91-.24-1.08-.12a.61.61,0,0,1-.39.12l-.68-.24a1.34,1.34,0,0,0-.74-.06c-.53,0-.85,0-.95-.1a.54.54,0,0,0-.4-.15,5.3,5.3,0,0,0-1.59,0l-1.6.25a5.46,5.46,0,0,1-.58,0,1.66,1.66,0,0,0-.58,0,1.81,1.81,0,0,0-.58.09,1.92,1.92,0,0,1-.59.09,3.37,3.37,0,0,1-.67-.12,4.42,4.42,0,0,0-.92.09,1.2,1.2,0,0,1-.86-.15,4.93,4.93,0,0,1-2.64,0,3.32,3.32,0,0,0-.31-.59.6.6,0,0,1-.06-.58,1.11,1.11,0,0,1,.74-.68,4.17,4.17,0,0,1,1-.12c.35,0,.68,0,1,0a1.4,1.4,0,0,0,.8-.15.56.56,0,0,0,.12-.4v-.4a.71.71,0,0,0,.43-.49c.08-.24.16-.47.25-.67a9.75,9.75,0,0,0,.43-1.81c.08-.64.16-1.24.24-1.81a1.73,1.73,0,0,1,.16-.37.79.79,0,0,0,.09-.31,2.94,2.94,0,0,1,0-1.29,2.73,2.73,0,0,0,.15-.92,4.82,4.82,0,0,0,0-.92,3,3,0,0,1,.09-.92,2.77,2.77,0,0,0,.22-.34,1.66,1.66,0,0,0,.15-.33,7.62,7.62,0,0,0,.1-1.51,4.52,4.52,0,0,1,.15-1.44c.16-.41.21-.66.15-.77a.27.27,0,0,1,0-.27,3.25,3.25,0,0,0,.31-1.11,2,2,0,0,0,0-.73,3.82,3.82,0,0,1,.09-.46c.06-.27.12-.58.18-.92s.13-.68.19-1a3.9,3.9,0,0,0,.09-.7l-1.35.24-2.18.4a20.75,20.75,0,0,0-2,.49c-.6.19-.91.34-.95.46a.7.7,0,0,0-.5-.15,3.91,3.91,0,0,1-.49,0,1.72,1.72,0,0,1-.52-.09,1.1,1.1,0,0,1-.52-.46c-.08-.57,0-.91.12-1a.68.68,0,0,0,.31-.46,12.63,12.63,0,0,0,2.67-.53,13.26,13.26,0,0,1,2.61-.52,9.19,9.19,0,0,0,1.69-.4l1.13-.4a1.3,1.3,0,0,1,.61-.09.38.38,0,0,0,.43-.27c.66.12,1.05,0,1.17-.25A2.32,2.32,0,0,0,320.7,28a2.45,2.45,0,0,1,1.75-.16l.12.37c0,.13.14.19.31.19a1.14,1.14,0,0,0-.16,1,.88.88,0,0,1-.27,1c.08.08.08.3,0,.64s-.09.59,0,.71a1.94,1.94,0,0,1-.19.86,2,2,0,0,0-.06,1.5A2,2,0,0,1,322.32,34.71Zm-2.88-4.11a2.75,2.75,0,0,1-.15.36,1.82,1.82,0,0,0-.16.43.83.83,0,0,0-.12.74.8.8,0,0,1,0,.61,1.44,1.44,0,0,0-.49,1.14,6,6,0,0,1-.12,1.26,3.61,3.61,0,0,1-.16.52,2.72,2.72,0,0,0-.15.52,4.71,4.71,0,0,0-.12,1.2,4.58,4.58,0,0,0,.12,1.19,4,4,0,0,0-.49,1.84,7.08,7.08,0,0,0,.12,1.91,5,5,0,0,0-.43.73c0,.17,0,.46,0,.89a5.39,5.39,0,0,1-.09.89,2,2,0,0,0-.19.89.82.82,0,0,1,.07.28,3,3,0,0,1-.25.86.87.87,0,0,0,.12.86,2.87,2.87,0,0,0-.43.67.74.74,0,0,1,0,.64,2.07,2.07,0,0,0-.21.65,1.24,1.24,0,0,1-.25.7.27.27,0,0,0,0,.4.49.49,0,0,0,.43.16,1.43,1.43,0,0,0,.46-.13,2.2,2.2,0,0,1,.37-.12q.15,0,.15.09a1.51,1.51,0,0,1,.65-.12h2.18a3.77,3.77,0,0,1,0-.95,3.77,3.77,0,0,0,0-1,1.15,1.15,0,0,0-.1-.52,1.38,1.38,0,0,1-.09-.52,9,9,0,0,0-.21-2.55,5.68,5.68,0,0,1-.16-2.12,1,1,0,0,1,.1-.49,2,2,0,0,0,.15-.43,4.71,4.71,0,0,0,0-1.19,7.88,7.88,0,0,1-.09-1.2,17.18,17.18,0,0,1,0-2c0-.65.08-1.32.12-2q.06-1.29.18-2.55a12,12,0,0,0,0-2.54Z"/><path class="cls-1" d="M356.39,27.47c0,.28.07.54.1.76a1.38,1.38,0,0,1-.22.77c-.29.08-.54.14-.77.18a2.79,2.79,0,0,0-.82.37.56.56,0,0,1-.5,0,.4.4,0,0,0-.49.22.53.53,0,0,1-.43-.06.4.4,0,0,0-.36-.06,6,6,0,0,1-1.81.24,4.07,4.07,0,0,0-1.2.06c0,.08,0,.27,0,.55a8,8,0,0,0,.12.92c.06.33.13.64.19.93s.11.49.15.61a1.76,1.76,0,0,0,.18.52,5,5,0,0,1,.25.46l.28.86a2.49,2.49,0,0,0,.39.8,7.9,7.9,0,0,0,.68.7,2.4,2.4,0,0,0,.37.28c.12.41.25.82.4,1.23a3.21,3.21,0,0,0,.64,1.1.82.82,0,0,0,.09.52c.1.27.22.58.34.92s.25.67.37.95a1.85,1.85,0,0,0,.31.56,1.22,1.22,0,0,1,0,.49.5.5,0,0,0,.09.43,1.74,1.74,0,0,0,.34.55c.14.16.29.33.46.49a1,1,0,0,0,.12.52l.24.46c.25.25.36.43.34.55a.5.5,0,0,0,.09.37c.25.33.47.62.68.86a8,8,0,0,1,.61.86,3,3,0,0,1,.28-.34,2.16,2.16,0,0,0,.27-.33,1,1,0,0,0,.16-.5.3.3,0,0,1,.34-.3.49.49,0,0,1,.06-.46.46.46,0,0,0,0-.46.44.44,0,0,0,.36-.37.56.56,0,0,1,.37-.43,1.47,1.47,0,0,1,.25-.86,4.31,4.31,0,0,0,.43-.86,2.69,2.69,0,0,0,.21-.89,3.1,3.1,0,0,1,.22-1,1.66,1.66,0,0,1,.3-.43,1.25,1.25,0,0,0,.31-.49,1,1,0,0,0,.15-.46.49.49,0,0,1,.28-.4,4.67,4.67,0,0,1,.4-1.23,10.91,10.91,0,0,0,.52-1.22q.5-1.29,1.11-2.7a9.43,9.43,0,0,0,.73-2.34,2.89,2.89,0,0,0-1.84,0,4.89,4.89,0,0,1-1.84.25,1.26,1.26,0,0,1-.43-.58,2.13,2.13,0,0,0-.37-.65,1.17,1.17,0,0,0,.22-.3.74.74,0,0,1,.27-.31l.68-.31a.65.65,0,0,1,.4,0,1.14,1.14,0,0,0,.52,0c.45-.16.7-.22.77-.18a.37.37,0,0,0,.21.06,1.89,1.89,0,0,0,.77-.15,2.5,2.5,0,0,1,.76-.22,1.15,1.15,0,0,1,.37.06,1.44,1.44,0,0,0,.43.06,2.24,2.24,0,0,1,1,0A.43.43,0,0,0,367,29a1.43,1.43,0,0,0,1,.25,5,5,0,0,0,1-.07,1.15,1.15,0,0,1,.46.1.72.72,0,0,0,.46,0,3.62,3.62,0,0,1,.92-.28l.65-.06,1-.09c.41.16.64.21.7.15a.18.18,0,0,1,.22,0,.47.47,0,0,1,.37.15c.08.11.26.12.55,0a1.66,1.66,0,0,0,.46.77.67.67,0,0,1,.09.83.77.77,0,0,1-.7.25,1,1,0,0,0-.77.24,1.36,1.36,0,0,1-.8,0,2.53,2.53,0,0,0-.8-.12.63.63,0,0,0-.33.09,2.07,2.07,0,0,1-.34.15,1,1,0,0,1-.34-.09.42.42,0,0,0-.34,0,2.91,2.91,0,0,0-1,.15,1.88,1.88,0,0,1-1.07,0,1.14,1.14,0,0,1-.46-.09.54.54,0,0,0-.46,0c-.53.13-.8.37-.8.74a2.19,2.19,0,0,1-.25,1,2.46,2.46,0,0,1-.33.59,2,2,0,0,0-.34.58,3.56,3.56,0,0,0-.25,1,1,1,0,0,1-.55.83V37a4,4,0,0,0-.55.89,1.59,1.59,0,0,0-.12,1.07c-.25,0-.35.14-.31.31a.7.7,0,0,1-.06.49c-.25.29-.37.47-.37.55a.61.61,0,0,1-.06.25,2.64,2.64,0,0,0-.49.73c-.08.21-.17.43-.25.68s-.16.48-.24.7-.15.38-.19.46a1.17,1.17,0,0,0-.09.56.87.87,0,0,1-.09.49,2.33,2.33,0,0,0-.55.92c-.09.28-.17.55-.25.79a3.33,3.33,0,0,1-.24.34c-.09.11-.17.22-.25.34a3.87,3.87,0,0,0-.15.77c-.06.43-.1.68-.1.76a.78.78,0,0,0-.36.56,3.28,3.28,0,0,1-.19.67.81.81,0,0,1-.21.4.87.87,0,0,0-.22.4.79.79,0,0,0-.09.46,1.22,1.22,0,0,1,0,.46,12,12,0,0,1-.46,1.35,2.51,2.51,0,0,0-.15,1.41l-.43.55a2,2,0,0,0-.19.89c0,.1,0,.2-.24.28a3.23,3.23,0,0,1-.31,1.16,6.63,6.63,0,0,1-.61,1,1.9,1.9,0,0,1-.25,1c-.16.24-.35.55-.55.92a3,3,0,0,1-.46,1.41,2.91,2.91,0,0,0-.46,1.41c0,.21-.11.31-.22.31a.33.33,0,0,0-.27.18,1.88,1.88,0,0,1-.22,1,1.7,1.7,0,0,0-.09,1.08,1.56,1.56,0,0,1,.49.34.42.42,0,0,0,.19.15c.45-.16.67-.23.67-.18s0,.06.12.06l.8,0,.8-.1a3.62,3.62,0,0,0,.67-.21,1.82,1.82,0,0,1,.68-.15,1.66,1.66,0,0,1,1.17.79.9.9,0,0,0-.25.43c0,.17-.18.23-.43.19,0,.2-.14.37-.43.52a1.54,1.54,0,0,0-.61.46l-.8.24a3,3,0,0,1-1.07.07,7.64,7.64,0,0,0-1.08-.07,10.14,10.14,0,0,0-1.23.07c-.4,0-.81.06-1.22.06a2,2,0,0,1-.49-.06,1.71,1.71,0,0,0-.49-.07,2.61,2.61,0,0,1-.93.07.92.92,0,0,0-.36-.07c-.7,0-1.41,0-2.15.07a12.57,12.57,0,0,1-2.21-.07,1.57,1.57,0,0,0-.18-.27l-.25-.28a.88.88,0,0,1-.06-1,2,2,0,0,1,.86-.68,1.22,1.22,0,0,0,.89.16,3,3,0,0,1,1,0,.87.87,0,0,1,.37.09,2,2,0,0,0,.43.15,5.49,5.49,0,0,1,1.07-.09,1.6,1.6,0,0,0,.52,0,1.38,1.38,0,0,0,.95-.77,4.91,4.91,0,0,0,.4-1.19,1.73,1.73,0,0,1,.16-.37c.06-.13,0-.23-.16-.31a1.27,1.27,0,0,1,.34-.49,1.58,1.58,0,0,0,.34-.43,8.19,8.19,0,0,1,.33-1.2,5.92,5.92,0,0,1,.53-1.07,1.12,1.12,0,0,1,.15-.31,1.05,1.05,0,0,0,.15-.3,2.36,2.36,0,0,0,.16-.62,1.48,1.48,0,0,1,.21-.61,6.34,6.34,0,0,0,.28-.74,1.68,1.68,0,0,1,.27-.61c.17-.41.29-.61.37-.61a2.73,2.73,0,0,0,.12-.83,1.06,1.06,0,0,1,.31-.77,5.37,5.37,0,0,0-.67-.58l-.68-.52a.58.58,0,0,1-.12-.4v-.46a9.25,9.25,0,0,0-.62-1.14c-.24-.39-.47-.77-.67-1.13a2.17,2.17,0,0,0-.61-.8,4.26,4.26,0,0,1-.74-.8l-.28-.28-.27-.27c-.21-.45-.34-.67-.4-.65a.26.26,0,0,1-.22,0,1.78,1.78,0,0,1-.12-.4.79.79,0,0,0-.18-.39l-.25-.25-.24-.25a1.71,1.71,0,0,1-.43-.73.4.4,0,0,0-.13-.31c-.36-.28-.54-.45-.52-.49a.21.21,0,0,0,0-.18c-.24-.17-.37-.3-.37-.4a.39.39,0,0,0-.12-.28,1,1,0,0,0-.4-.4.91.91,0,0,1-.4-.4,2,2,0,0,0-.27-.73.44.44,0,0,1-.16-.19,2.34,2.34,0,0,1-.3-.67.61.61,0,0,0-.06-.25,4.05,4.05,0,0,0-.53-.76,2.34,2.34,0,0,0-.7-.59,3.23,3.23,0,0,0-.34-.7,1.05,1.05,0,0,0-.58-.46,12.8,12.8,0,0,0-.59-1.44,4.61,4.61,0,0,0-.88-1.26,4.53,4.53,0,0,0-.28-1c-.19-.51-.4-1.06-.65-1.63s-.48-1.09-.7-1.56a4.65,4.65,0,0,0-.46-.83,6.68,6.68,0,0,0-1.23.24,6.31,6.31,0,0,0-1.16.49.81.81,0,0,1-.4-.21l-.28-.28a1.3,1.3,0,0,1-.49-.8c0-.2.21-.42.61-.67.21-.25.4-.35.59-.31a.43.43,0,0,0,.4-.06,1.66,1.66,0,0,0,.33-.15l.28-.16a4.23,4.23,0,0,1,1-.12,4.17,4.17,0,0,0,1-.12,2.33,2.33,0,0,1,1.2-.31,1.66,1.66,0,0,0,.77-.06,4.52,4.52,0,0,1,2.14-.27,14.93,14.93,0,0,0,1.6.21,7.21,7.21,0,0,0,1.63-.18,3.9,3.9,0,0,1,1.56-.07c.29.05.45,0,.49-.18s.16-.22.37-.18a4.59,4.59,0,0,0,1.29.06c.45,0,.89-.09,1.32-.16s.86-.1,1.29-.12A2.48,2.48,0,0,1,356.39,27.47Zm-13.13,2.76a.87.87,0,0,1,.12.49.57.57,0,0,0,.13.43.88.88,0,0,1,.27.61,1,1,0,0,0,0,.43,1.51,1.51,0,0,1,.43.61,2.56,2.56,0,0,0,.19.5,4,4,0,0,0,.46.89l.58.82c.12.33.22.49.28.49s.11,0,.15.13a.45.45,0,0,0,.12.46.5.5,0,0,1,.13.52q.36-.06.39.15a2.68,2.68,0,0,1,0,.52c.2,0,.31.12.33.22a1.55,1.55,0,0,0,.16.4,1.67,1.67,0,0,1,.43.61,1.31,1.31,0,0,0,.24.49,1.21,1.21,0,0,0,.28.31,1.18,1.18,0,0,1,.27.31c.21.24.39.47.56.67A.7.7,0,0,1,349,41c.08.08.22.25.43.52s.41.55.61.86a7.58,7.58,0,0,1,.52.86c.15.26.2.44.16.52a1.24,1.24,0,0,1,.79.7,3.59,3.59,0,0,0,.62.89,2.73,2.73,0,0,1,.7.77,3.28,3.28,0,0,1,.53.95,5.68,5.68,0,0,1,.95,1c.3.39.6.75.89,1.08a.92.92,0,0,1,.15.36.54.54,0,0,0,.15.31c.33.08.47.2.43.34s0,.19.19.15c0-.28,0-.48-.13-.58a1.84,1.84,0,0,1-.36-.46,1.29,1.29,0,0,1-.25-.8.53.53,0,0,0-.06-.43,1.44,1.44,0,0,0-.49-.49c-.21-.12-.27-.35-.19-.67a1.53,1.53,0,0,1-.73-.89,1.94,1.94,0,0,0-.68-1,1.91,1.91,0,0,0-.15-.73c-.1-.25-.2-.49-.28-.74a2.35,2.35,0,0,1-.15-.67.68.68,0,0,0-.34-.56v-.73a.58.58,0,0,1-.3-.43l-.13-.55a1.44,1.44,0,0,1-.64-.92,2.59,2.59,0,0,0-.52-1,2.37,2.37,0,0,0-.34-.46,1.66,1.66,0,0,1-.34-.46l-.37-.67a1.25,1.25,0,0,1-.15-.4c-.06-.23-.13-.46-.21-.71s-.16-.47-.22-.67a2.34,2.34,0,0,1-.09-.37,2,2,0,0,1-.28-.49,1.21,1.21,0,0,0-.27-.43,4.76,4.76,0,0,0-.31-1.35,6.84,6.84,0,0,1-.37-1.29c0-.41,0-.66-.12-.77a.35.35,0,0,1-.12-.4,3.27,3.27,0,0,1-1.6-.12,2.72,2.72,0,0,0-1.6,0,1,1,0,0,1-.55.09A.65.65,0,0,0,343.26,30.23Z"/><path class="cls-1" d="M71.8,13.15c-.57,5.48-1,11.36-1.15,17.63-.18,6.66-.05,12.91.27,18.7l-3,2.15a28.93,28.93,0,0,0-17.65-3.9,27.6,27.6,0,0,0-9.43,2.86H33.66a30.35,30.35,0,0,0-27.6.86l-2.48-2c.32-5.79.45-12,.27-18.7-.16-6.27-.58-12.15-1.15-17.63H0V54.69H73.9V13.15Z"/><path class="cls-1" d="M45.73,19.92h-17l8.48-14Q41.5,12.9,45.73,19.92Z"/><path class="cls-1" d="M31.13,19.92v15h12v-15Zm2.13,8.89a9.16,9.16,0,0,1,1.44-4.67,6.41,6.41,0,0,1,2.44-2.2,6.35,6.35,0,0,1,2.45,2.2A9.16,9.16,0,0,1,41,28.81Z"/><rect class="cls-1" x="31.27" y="37.62" width="12.02" height="14.7"/><rect class="cls-1" x="29.38" y="34.9" width="15.54" height="2.72"/><path class="cls-1" d="M37.08,7.2c-.1-1.27-.24-2.58-.42-3.95-.15-1.11-.31-2.18-.49-3.22l.52,0a17.56,17.56,0,0,1,.59,4.11A16.86,16.86,0,0,1,37.08,7.2Z"/><path class="cls-1" d="M36.53.37l.09,0A3.78,3.78,0,0,1,38.37.2a4,4,0,0,1,.68.18,8.63,8.63,0,0,1,.86.4c.57.23,1,0,1.6-.1a3.42,3.42,0,0,1,2,.5c-.24.12-.59.3-1,.56-1.25.75-1.36,1.06-2.27,1.53a5.92,5.92,0,0,1-2.06.66,4.77,4.77,0,0,1-1.16,0,19.58,19.58,0,0,0-.23-2.24C36.71,1.21,36.63.78,36.53.37Z"/><path class="cls-1" d="M6.77,13.55v2.56a29,29,0,0,1,18.65-3.88l-.18-2.56A32.78,32.78,0,0,0,6.77,13.55Z"/><path class="cls-1" d="M7.29,19.37v2.92a27.69,27.69,0,0,1,6.85-2.21,26.78,26.78,0,0,1,5.55-.44l-.17-2.56a41.5,41.5,0,0,0-6.77.79A42.69,42.69,0,0,0,7.29,19.37Z"/><path class="cls-1" d="M7.29,27.57v2.55a29.41,29.41,0,0,1,10.58-3.79,28.87,28.87,0,0,1,8.07-.09l-.18-2.56A32.89,32.89,0,0,0,7.29,27.57Z"/><path class="cls-1" d="M7.81,33.39V36.3a27.83,27.83,0,0,1,12.4-2.65L20,31.1a40.42,40.42,0,0,0-6.77.79A41.11,41.11,0,0,0,7.81,33.39Z"/><path class="cls-1" d="M67.65,13.55v2.56A29,29,0,0,0,49,12.23l.17-2.56a32.72,32.72,0,0,1,10.06.7A33.16,33.16,0,0,1,67.65,13.55Z"/><path class="cls-1" d="M67.13,20.68v2.56a29.47,29.47,0,0,0-10.59-3.79,28.8,28.8,0,0,0-8.06-.09l.17-2.56a32.84,32.84,0,0,1,18.48,3.88Z"/><path class="cls-1" d="M66.61,26.51v2.91A27.53,27.53,0,0,0,54.2,26.77l.18-2.56a41.38,41.38,0,0,1,6.76.8A40.2,40.2,0,0,1,66.61,26.51Z"/></g></g></svg>