<svg xmlns="http://www.w3.org/2000/svg" viewBox="0 0 374.9 95.3"><defs><style>.cls-1{fill:#f47920;}.cls-2{fill:#fff;stroke:#fff;stroke-miterlimit:10;stroke-width:0.04px;}</style></defs><g id="Layer_2" data-name="Layer 2"><g id="Layer_1-2" data-name="Layer 1"><ellipse class="cls-1" cx="36.95" cy="60.97" rx="52.25" ry="29.37"/><path class="cls-2" d="M70.92,76.54l-3,2.14a29,29,0,0,0-17.65-3.89,27.6,27.6,0,0,0-9.43,2.86H33.66a30.35,30.35,0,0,0-27.6.86l-2.48-2c.32-5.79.45-12.05.27-18.71-.18-7-.67-13.5-1.33-19.5a33.39,33.39,0,0,1,14.16-6.42,34,34,0,0,1,20.57,2.68,34,34,0,0,1,20.57-2.68A33.5,33.5,0,0,1,72,38.33c-.67,6-1.16,12.52-1.34,19.5C70.47,64.49,70.6,70.75,70.92,76.54Z"/><path class="cls-1" d="M45.73,47h-17l8.48-14Q41.5,40,45.73,47Z"/><path class="cls-1" d="M31.13,47V62h12V47Zm2.13,8.9a9.19,9.19,0,0,1,1.44-4.68A6.36,6.36,0,0,1,37.14,49a6.3,6.3,0,0,1,2.45,2.19A9.19,9.19,0,0,1,41,55.87Z"/><rect class="cls-1" x="31.27" y="64.67" width="12.02" height="14.7"/><rect class="cls-1" x="29.38" y="61.96" width="15.54" height="2.72"/><path class="cls-1" d="M37.08,34.26c-.1-1.27-.24-2.59-.42-3.95-.15-1.11-.31-2.19-.49-3.22l.52,0a17.48,17.48,0,0,1,.59,4.11A16.92,16.92,0,0,1,37.08,34.26Z"/><path class="cls-1" d="M36.53,27.42l.09,0a3.74,3.74,0,0,1,1.75-.15,3.91,3.91,0,0,1,.68.19,8.63,8.63,0,0,1,.86.4c.57.22,1,0,1.6-.1a3.34,3.34,0,0,1,2,.5c-.24.11-.59.3-1,.55-1.25.76-1.36,1.06-2.27,1.54a5.8,5.8,0,0,1-2.06.65A5.44,5.44,0,0,1,37,31a19.14,19.14,0,0,0-.23-2.24C36.71,28.27,36.63,27.83,36.53,27.42Z"/><path class="cls-1" d="M6.77,40.6v2.56a29.41,29.41,0,0,1,10.58-3.79,28.87,28.87,0,0,1,8.07-.09l-.18-2.56a32.79,32.79,0,0,0-10.06.71A33.33,33.33,0,0,0,6.77,40.6Z"/><path class="cls-1" d="M7.29,46.43v2.91a27.83,27.83,0,0,1,12.4-2.65l-.17-2.56a41.61,41.61,0,0,0-6.77.8A41.11,41.11,0,0,0,7.29,46.43Z"/><path class="cls-1" d="M7.29,54.62v2.56a29.41,29.41,0,0,1,10.58-3.79,28.87,28.87,0,0,1,8.07-.09l-.18-2.56A32.78,32.78,0,0,0,7.29,54.62Z"/><path class="cls-1" d="M7.81,60.45v2.91a27.69,27.69,0,0,1,6.85-2.21,28.24,28.24,0,0,1,5.55-.44L20,58.15a41.61,41.61,0,0,0-6.77.8A39.64,39.64,0,0,0,7.81,60.45Z"/><path class="cls-1" d="M67.65,40.6v2.56a29.49,29.49,0,0,0-10.58-3.79A28.87,28.87,0,0,0,49,39.28l.17-2.56a32.77,32.77,0,0,1,10.06.71A33.57,33.57,0,0,1,67.65,40.6Z"/><path class="cls-1" d="M67.13,47.74V50.3a29.11,29.11,0,0,0-18.65-3.89l.17-2.56a32.95,32.95,0,0,1,18.48,3.89Z"/><path class="cls-1" d="M66.61,53.56v2.91a28,28,0,0,0-6.86-2.2,26.73,26.73,0,0,0-5.55-.44l.18-2.56a41.27,41.27,0,0,1,6.76.79A43.33,43.33,0,0,1,66.61,53.56Z"/><path class="cls-1" d="M114.62,34.25c.08.16.16.34.24.52a.77.77,0,0,0,.43.4,7.55,7.55,0,0,1-.18,1.44c-.13.59-.23,1.22-.31,1.87a15.1,15.1,0,0,0-.12,1.81,1.84,1.84,0,0,0,.37,1.26.44.44,0,0,1-.13.31c-.08.08,0,.22.13.43a1.83,1.83,0,0,0,0,1.13.65.65,0,0,1-.22.77,2.83,2.83,0,0,1,.25,1.72,6.34,6.34,0,0,1-.43,1.72,3.64,3.64,0,0,1-.56.21c-.2.06-.41.11-.61.15a3,3,0,0,1-.43-.52c-.12-.18-.24-.36-.37-.52.08-.33.16-.68.22-1.07a1.52,1.52,0,0,0-.22-1.08,1,1,0,0,0,.19-.55,6.56,6.56,0,0,0,.06-.92,3.66,3.66,0,0,0-.09-.86c-.06-.24-.16-.39-.28-.43a.46.46,0,0,0,.25-.61,2.51,2.51,0,0,1-.13-.74,5,5,0,0,1,.13-1.13,1.59,1.59,0,0,0-.13-1.08c.13-.08.2-.26.22-.55a4,4,0,0,1,.09-.67,3.2,3.2,0,0,1-.58-.59c0-.06-.1-.11-.22-.15a1,1,0,0,0-.61.12,4,4,0,0,1-.74.25,10.73,10.73,0,0,1-1.47.15,3.14,3.14,0,0,1-1.47-.28A.76.76,0,0,1,107,37a6.78,6.78,0,0,0-.89-.22,2.4,2.4,0,0,1-.89.07.82.82,0,0,0-.28-.07,1.61,1.61,0,0,0-.4.07,1.43,1.43,0,0,1-.39.06c-.58-.21-1-.26-1.14-.16a.47.47,0,0,1-.58-.09c-.41,0-.65,0-.71,0a.48.48,0,0,1-.34.09,1.9,1.9,0,0,1-.64-.12,2.12,2.12,0,0,0-.71-.12l-1.47.12a2.49,2.49,0,0,0-.61.22,1.54,1.54,0,0,1-.68.15,10.41,10.41,0,0,1,.09,1.78,14.92,14.92,0,0,0,0,1.78,1,1,0,0,0,0,.64.69.69,0,0,1,.09.34,5.07,5.07,0,0,1,0,1.23,3.63,3.63,0,0,0,0,1.23q.06.24.12.42c0,.13.08.27.12.43a7,7,0,0,1-.09,1.78,2.72,2.72,0,0,0,.4,1.78,5.94,5.94,0,0,0,.12,2.06,15.72,15.72,0,0,1,.37,2.05,11.91,11.91,0,0,1,.06,2.06,11.88,11.88,0,0,0,.06,2.06A1.73,1.73,0,0,0,100,57a1.23,1.23,0,0,1,1.14.37A14.1,14.1,0,0,1,103,57.2a8.09,8.09,0,0,0,1.78-.19c0-.28,0-.7,0-1.25s0-1.12,0-1.69.06-1.11.12-1.6a1.73,1.73,0,0,1,.4-1,.73.73,0,0,0,.12-.49,1,1,0,0,1,.12-.55,3,3,0,0,0,.62-.28,1.14,1.14,0,0,1,.73-.09,1.59,1.59,0,0,0,.28.46.62.62,0,0,1,.15.46,1.27,1.27,0,0,1-.09.43l-.18.49c-.06.16-.12.32-.16.46a.28.28,0,0,0,.13.34,1,1,0,0,1-.13.52,1.05,1.05,0,0,0-.12.52,3.08,3.08,0,0,0,.06.61,3.26,3.26,0,0,1,.06.62c0,.24,0,.48,0,.7a2.86,2.86,0,0,0,0,.71c0,.2.09.41.13.61l.12.62a1.13,1.13,0,0,1-.06.36,1.1,1.1,0,0,0-.06.31,1.93,1.93,0,0,1-.06,1.11.65.65,0,0,0,.06.73c.16.25.21.42.15.52a.29.29,0,0,0,0,.28c.16.41.22.64.18.71a.37.37,0,0,0-.06.21,6.32,6.32,0,0,0,0,1.35,4.78,4.78,0,0,1,0,1.17,1.15,1.15,0,0,1-.27.61,1.06,1.06,0,0,1-.52.43,1,1,0,0,1-.74-.06L105,65a.44.44,0,0,0,0-.55,1.36,1.36,0,0,1-.24-.55,1,1,0,0,1,.09-.4c.06-.15.11-.28.15-.4a4,4,0,0,0,.06-1.17,1.32,1.32,0,0,0-.36-.79,2.83,2.83,0,0,0,.06-1.72,3.22,3.22,0,0,0-1.08-.16c-.26,0-.62.08-1.07.16a.83.83,0,0,1-.64-.16c-.23-.14-.42-.09-.59.16a1.57,1.57,0,0,0-.34-.19,3.94,3.94,0,0,0-.61-.21,4.39,4.39,0,0,1-.58-.19,1.45,1.45,0,0,0-.31-.09,8,8,0,0,0-.4,1.6A12.08,12.08,0,0,0,99,61.8a11.76,11.76,0,0,0,.06,1.2,11.71,11.71,0,0,1,.06,1.19V68a4.16,4.16,0,0,0,.06.67,4.36,4.36,0,0,1,.07.68c0,.33,0,.67,0,1a4.44,4.44,0,0,0,0,1,.64.64,0,0,0,.09.34,1.29,1.29,0,0,1,.18.89,1.12,1.12,0,0,0,.09.55.75.75,0,0,1,.07.53,1.91,1.91,0,0,0-.07.52q.14.06,0,.3a.5.5,0,0,0,0,.37,1,1,0,0,0,.1.46,1.22,1.22,0,0,1,.09.46,4,4,0,0,1-.16,1.44,2.29,2.29,0,0,0,0,1.32c.09.29.24.43.46.43a5,5,0,0,0,.74-.06,6,6,0,0,1,.89-.06,1.17,1.17,0,0,1,.86.37A1.37,1.37,0,0,1,103,80a3.73,3.73,0,0,0-.31.89.39.39,0,0,1-.12.28,3.08,3.08,0,0,0-.61.06,3.26,3.26,0,0,1-.62.06L101,81.1a.8.8,0,0,0-.36-.09.77.77,0,0,0-.49,0,.64.64,0,0,1-.5,0c-.61,0-1-.06-1.25-.06a.75.75,0,0,0-.59.3,1.55,1.55,0,0,0-1,0,1.55,1.55,0,0,1-1,0c-.17-.16-.3-.22-.4-.18a.79.79,0,0,1-.28.06,2.72,2.72,0,0,1-.52-.15,1.18,1.18,0,0,0-.52-.1.77.77,0,0,0-.34.07.9.9,0,0,1-.34.06,18.69,18.69,0,0,1-2.39-.16,8.72,8.72,0,0,0-2.39,0,5.55,5.55,0,0,1-.86.19,6.58,6.58,0,0,0-.86.18.67.67,0,0,0-.34.09.57.57,0,0,1-.34.1,3.23,3.23,0,0,1-1,.09,5.35,5.35,0,0,0-1,0,.76.76,0,0,0-.37-.19q-.24-.06-.18-.36a.6.6,0,0,1-.68-.43c0-.58.3-.86.77-.86A11.83,11.83,0,0,0,85,79.66l.7-.13.71-.12a3.43,3.43,0,0,1,.77,0,1.66,1.66,0,0,0,.83-.21,1.3,1.3,0,0,1,0-.62,2.48,2.48,0,0,0,.06-.43A7.08,7.08,0,0,1,88.2,76a4.13,4.13,0,0,0,0-1.91c.16.05.27,0,.31-.27s0-.36-.06-.4a1.21,1.21,0,0,0,.21-.28,1.39,1.39,0,0,1,.21-.27,4.13,4.13,0,0,1,.07-2.12A4.24,4.24,0,0,0,89,68.67a1.74,1.74,0,0,0,.27-.67,8.15,8.15,0,0,0,.13-.92c0-.33,0-.65,0-1a4.07,4.07,0,0,1,.06-.77c0-.53.11-.82.21-.86s.07-.22-.09-.55a2.05,2.05,0,0,0,.09-.68.48.48,0,0,1,0-.3,1.22,1.22,0,0,1,.1-.53,1.31,1.31,0,0,0,.09-.52,2.44,2.44,0,0,0,0-.67c0-.25,0-.47,0-.68a7.57,7.57,0,0,1,.21-1.25A2.13,2.13,0,0,0,90,58.06a2.21,2.21,0,0,0,.18-1,1.5,1.5,0,0,0-.18-.52,1.06,1.06,0,0,0,.22-.89,5,5,0,0,1-.1-1,4.37,4.37,0,0,1,.25-1.5,6.52,6.52,0,0,0,.31-1.51,1.16,1.16,0,0,0,0-.61,2.15,2.15,0,0,1-.09-.61,7.15,7.15,0,0,0,.34-1.14c.06-.31.12-.63.18-1s.12-.66.16-1,.06-.45.06-.49a1.7,1.7,0,0,1,.09-1.08.86.86,0,0,0-.09-.89.74.74,0,0,0,.18-.76,3.39,3.39,0,0,1-.12-.83c.12-.53.22-.93.28-1.2a3.7,3.7,0,0,0,.09-.83,3.63,3.63,0,0,1,0-1c0-.12.08-.26.12-.43a3.77,3.77,0,0,0,.12-.61c0-.29.09-.58.13-.89a6.67,6.67,0,0,0,.06-.86,2,2,0,0,0-.06-.58A3.15,3.15,0,0,0,91,36.58a1,1,0,0,1-.7-.25,1.25,1.25,0,0,1-.68.13l-1,0a5,5,0,0,1-1.05-.16,1.5,1.5,0,0,1-.67-.3c-.08-.25-.14-.45-.18-.62a1,1,0,0,1,.06-.61,4.05,4.05,0,0,1,1.13-.25,9.5,9.5,0,0,1,1.51,0l1.53.16a11,11,0,0,1,1.23.21,2.75,2.75,0,0,0,.36-.15,1,1,0,0,1,.43-.09,2.93,2.93,0,0,0,1,.06.83.83,0,0,1,.52.06l.37.12a1.33,1.33,0,0,0,.42.06,2.53,2.53,0,0,0,1.26-.06,3.27,3.27,0,0,1,1.26-.12,3.33,3.33,0,0,0,1.38-.15,1.11,1.11,0,0,1,1,0c.33-.08.5-.1.53-.06s.07.06.15.06a1.57,1.57,0,0,1,.83,0,2.76,2.76,0,0,0,.46.15l.37,0a1.1,1.1,0,0,1,.43,0l1.31.12q.64.06,1.32.06a3.69,3.69,0,0,0,1.08-.18.89.89,0,0,1,1,.18,2.32,2.32,0,0,1,.92,0,.83.83,0,0,0,.43.1,4.75,4.75,0,0,0,1.84-.43H112a1.07,1.07,0,0,1,.92-.37,4.38,4.38,0,0,1,1,.24c.25.09.38.07.4-.06S114.41,34.25,114.62,34.25Zm-20,2.64A4.25,4.25,0,0,1,94,38.24a2.68,2.68,0,0,1,.12,1.35q-.12.61-.24,1.29a1.86,1.86,0,0,1,0,1.07.83.83,0,0,0-.16.52,3.88,3.88,0,0,1,0,1.26c-.06.27-.12.55-.18.86a4.41,4.41,0,0,0-.09.86,1.09,1.09,0,0,0,.12.58,1.87,1.87,0,0,0-.25,1.14,2.72,2.72,0,0,1-.12,1.13c-.08.25-.15.48-.21.71a2.69,2.69,0,0,0-.1.7.65.65,0,0,0,0,.46,1.22,1.22,0,0,1,.09.46,7.54,7.54,0,0,1-.31,1.26,1.5,1.5,0,0,0,.06,1.26.62.62,0,0,0-.24.43c0,.2-.09.43-.13.67s-.07.47-.09.68a.78.78,0,0,1-.09.37.75.75,0,0,0,0,.46q.09.27,0,.33a3.19,3.19,0,0,0-.06,1.14,1.38,1.38,0,0,0,.37,1c-.21,0-.29.11-.25.34a.85.85,0,0,1,0,.46,1.18,1.18,0,0,1-.09.46,1.18,1.18,0,0,0-.09.46,1.7,1.7,0,0,0,0,.71c.06.22.11.46.15.7a3,3,0,0,0-.43,1.44l-.12,1.81c0,.62-.08,1.21-.12,1.78a2.6,2.6,0,0,1-.43,1.35c.12.29.12.46,0,.52s-.17.2-.13.4A2.67,2.67,0,0,0,91,69.9a.42.42,0,0,1-.06.49,6.25,6.25,0,0,0-.18.92,7.72,7.72,0,0,0-.06.92,1.32,1.32,0,0,1,0,.89l-.3.58a1.85,1.85,0,0,0-.19.62.51.51,0,0,0,.22.49.57.57,0,0,0-.19.64,1.14,1.14,0,0,1,.07.65,3.65,3.65,0,0,0-.34,1.5,7.17,7.17,0,0,1,0,1.14,2,2,0,0,0,.83.15c.22,0,.48,0,.76,0l.77.09c.22,0,.46,0,.71,0s.59,0,1-.06a1.55,1.55,0,0,1,.74-.06l.76.15.83.19a1.54,1.54,0,0,0,.8,0,1.36,1.36,0,0,1,.21-.92,2.14,2.14,0,0,0,.34-.93,1.76,1.76,0,0,0-.06-.42,1.91,1.91,0,0,1-.06-.43,5.54,5.54,0,0,1,0-.59,1.93,1.93,0,0,0,0-.58,2.45,2.45,0,0,0-.25-.68,2.38,2.38,0,0,1,.13-1c.08-.16,0-.26-.25-.3a3,3,0,0,0,.12-.8,1,1,0,0,0-.3-.68c0-.28.07-.64.09-1.07s0-.88,0-1.35A9.77,9.77,0,0,0,97,68.09a3.35,3.35,0,0,0-.28-1,2.37,2.37,0,0,0,.34-1.69A6.91,6.91,0,0,1,97,63.64c0-1,.09-2,.15-3.07a6.48,6.48,0,0,0-.52-3,.62.62,0,0,0,.21-.62,2.15,2.15,0,0,1-.09-.61q0-.62,0-1.2a8,8,0,0,0,0-1.19,1.35,1.35,0,0,0-.12-.53,1,1,0,0,1-.13-.39,5.4,5.4,0,0,0,0-1.72A12.53,12.53,0,0,1,96.33,50a.78.78,0,0,1,0-.37,2.63,2.63,0,0,0,0-.43,5.84,5.84,0,0,0-.18-.83A4.35,4.35,0,0,1,96,47.5c0-.2-.07-.41-.09-.61a1.3,1.3,0,0,1,.09-.61,7,7,0,0,1-.33-1.69,2.39,2.39,0,0,1,.21-1.51c-.21-.49-.27-.77-.18-.85a.48.48,0,0,0,.06-.43,4.34,4.34,0,0,1-.13-1.35,3.54,3.54,0,0,0,0-.92,2.65,2.65,0,0,0-.15-.59c-.1-.3-.07-.46.09-.46a1.41,1.41,0,0,1-.15-.89,1,1,0,0,0-.09-.7Z"/><path class="cls-1" d="M128,56.89c-.09.33-.2.7-.34,1.11a1.06,1.06,0,0,0,.21,1.1,1.19,1.19,0,0,0-.39.83c0,.22,0,.44,0,.64a2.13,2.13,0,0,0,0,1.08,1.9,1.9,0,0,1,.12.64c0,.61,0,1.22,0,1.81s0,1.2,0,1.81q.06.56.12,1.08l.12,1a11.52,11.52,0,0,1-.21,2.76,7,7,0,0,0,0,2.7c0,.16.08.31.12.43l.12.37a4,4,0,0,1,.13,1.07,1.7,1.7,0,0,0,.3,1,1.66,1.66,0,0,0-.09.92,2.06,2.06,0,0,1,0,.92,2.76,2.76,0,0,0,.65.07,3.39,3.39,0,0,1,.64.06c.25,0,.37-.08.37-.25s.1-.24.3-.24l.8.36a.74.74,0,0,1,.16.37c0,.17.13.23.33.19a1.77,1.77,0,0,0-.12,1.16,1.58,1.58,0,0,1-.46.16.73.73,0,0,1-.46-.1,2,2,0,0,1-1.47.62,3,3,0,0,0-1.54-.19l-1,.19c-.33,0-.62,0-.89,0a3.91,3.91,0,0,0-.83,0,1.66,1.66,0,0,0-.61.12,1.57,1.57,0,0,1-.55.12,2.33,2.33,0,0,0-1.26-.18,4.1,4.1,0,0,1-.71.18,1,1,0,0,1-.3-.06,1.24,1.24,0,0,0-.37-.06,1.91,1.91,0,0,0-.68,0,4.94,4.94,0,0,0-.55.18A2,2,0,0,1,119,81a.64.64,0,0,1-.55-.22,2.45,2.45,0,0,1-1.23-.06,3.43,3.43,0,0,0-1.17-.18c-.16-.17-.21-.32-.15-.46s0-.22-.34-.22a1.2,1.2,0,0,1,.49-.73,4.6,4.6,0,0,0,.68-.56,1,1,0,0,1,.73,0,1.57,1.57,0,0,0,.62.22.8.8,0,0,0,.43-.4.49.49,0,0,0-.06-.52l.36-.8.13-.24a5.7,5.7,0,0,0,.15-1,5.73,5.73,0,0,1,.15-1,1.76,1.76,0,0,0,0-.55.79.79,0,0,1,.1-.49,4.4,4.4,0,0,1,.3-.62,1.75,1.75,0,0,0,.25-.67.78.78,0,0,0,0-.37,2.72,2.72,0,0,1,0-.43,2,2,0,0,0,.12-.31l.12-.36c.21-.74.41-1.52.62-2.34a3.51,3.51,0,0,0-.19-2.33,1.36,1.36,0,0,0,.16-.55.79.79,0,0,1,.21-.49,5.64,5.64,0,0,1,.25-2.82c0-.17.08-.31.12-.43a1.44,1.44,0,0,0,.06-.43,1.27,1.27,0,0,0,0-.55,1.32,1.32,0,0,1,0-.56.92.92,0,0,1,.19-.33,1.24,1.24,0,0,0,.18-.34l.4-1.41q.15-.56.27-1.11a1.67,1.67,0,0,0-1.38-.12,2.55,2.55,0,0,1-1.32.12.92.92,0,0,0-.49.25.58.58,0,0,1-.43.18,1.9,1.9,0,0,1-.79-.24,5.67,5.67,0,0,1-.74-.43,3.74,3.74,0,0,0,0-.52,1.66,1.66,0,0,1,0-.53.5.5,0,0,1,.37-.12c.16,0,.24-.1.24-.31a1.22,1.22,0,0,0,.62,0c.24-.06.41-.05.49,0a.8.8,0,0,1,.52-.21c.22,0,.32-.15.28-.4a1.41,1.41,0,0,0,1.41,0,1.67,1.67,0,0,1,1.35-.18.44.44,0,0,1,.33-.22.31.31,0,0,1,.34.22,4.22,4.22,0,0,1,2-.13,2.45,2.45,0,0,1,1.65,1.11c.49.33.76.56.8.7A.54.54,0,0,0,128,56.89Zm-4.11,2.89a.73.73,0,0,1-.07.55,1.41,1.41,0,0,0-.18.37.74.74,0,0,0,0,.36,2.81,2.81,0,0,1,0,.43,9.6,9.6,0,0,1-.31,1.2,6.08,6.08,0,0,0-.24,1.2A3.45,3.45,0,0,1,123,65a2.53,2.53,0,0,0-.09.64,1.11,1.11,0,0,0,0,.59c0,.1,0,.27-.13.52a10,10,0,0,1,.13,1.47,6.72,6.72,0,0,1-.13,1.29,8,8,0,0,0-.43,1.66,6.42,6.42,0,0,1-.24,1.22,2.23,2.23,0,0,0-.43,1.14,1,1,0,0,1-.06.58c-.25.09-.32.2-.22.34s.13.26.09.34c-.24.28-.32.48-.24.58a.35.35,0,0,1,.06.34,11.24,11.24,0,0,0-.58,1.38,2,2,0,0,0,0,1.44,2.91,2.91,0,0,0,1.5.09,3.32,3.32,0,0,1,1.14-.09,1.66,1.66,0,0,1,.33.15.59.59,0,0,0,.34.1c.49,0,.81,0,1-.19s.26-.24.34-.24a.41.41,0,0,1,.37-.06.26.26,0,0,0,.3-.07,2.82,2.82,0,0,0,0-.92,4.42,4.42,0,0,1-.09-.92,1.89,1.89,0,0,1-.18-.7c0-.19,0-.38,0-.59s-.05-.39-.07-.58a3.94,3.94,0,0,1,0-.4,2.28,2.28,0,0,0,0-.89,1.31,1.31,0,0,1-.09-.52.69.69,0,0,1,.09-.34.64.64,0,0,0,.1-.33.89.89,0,0,0,0-.46,1.43,1.43,0,0,1-.07-.46,2.38,2.38,0,0,1,.07-1,3.69,3.69,0,0,0,.12-1,3.63,3.63,0,0,0-.06-.64,3.63,3.63,0,0,1-.06-.64,3.6,3.6,0,0,0,.12-.8,1.94,1.94,0,0,0-.16-.8,2.11,2.11,0,0,1-.15-.8q.12-1,.15-1.5c0-.35,0-.69,0-1s0-.78-.07-1.35a2.25,2.25,0,0,1,.19-1.29c-.25-.13-.3-.34-.16-.65a1,1,0,0,0,0-1,.63.63,0,0,0,.19-.49v-.55a3,3,0,0,1-.37-.28,1.16,1.16,0,0,1-.31-.4,1.74,1.74,0,0,1-.37.31.94.94,0,0,0-.3.37.53.53,0,0,0-.06.43.7.7,0,0,1-.06.49,2.1,2.1,0,0,1-.25.52A1.45,1.45,0,0,0,123.84,59.78Zm2-13.07c.37-.13.59-.15.68-.07s.29.31.39.31a.38.38,0,0,1,.28.12,1.81,1.81,0,0,1,.55.83,3,3,0,0,0,.49.89,2,2,0,0,0-.15.89,5.35,5.35,0,0,0,.15,1c0,.21,0,.31-.18.31s-.21.12-.12.37a1.13,1.13,0,0,0-.37.67,14.47,14.47,0,0,1-1.9,1.14,3,3,0,0,1-2.09.27,1.29,1.29,0,0,1-.83-.52,2,2,0,0,0-.76-.64,2.07,2.07,0,0,1-.16-.65,6.17,6.17,0,0,0-.09-.64,2.49,2.49,0,0,1-.06-1.66,7.54,7.54,0,0,0,.43-1,4.59,4.59,0,0,0,.61-.4,3,3,0,0,0,.31-.28,2.55,2.55,0,0,0,1.23-.49,4.86,4.86,0,0,0,1-.15Zm.12,2.51a1.45,1.45,0,0,1-.86.25,1.56,1.56,0,0,1-.73-.13,3,3,0,0,0-.37,2.09,6.22,6.22,0,0,1,1.17-.25,1.08,1.08,0,0,0,.39-.58.7.7,0,0,1,.53-.46c0-.16-.09-.31-.13-.43A1,1,0,0,1,126,49.22Z"/><path class="cls-1" d="M159.69,53.58c.08.2.16.39.24.55a1,1,0,0,1,.06.61,1.09,1.09,0,0,1-.12.53,1.67,1.67,0,0,0-.18.52,7,7,0,0,0-.19,1.32q-.06.82-.06,1.38a3,3,0,0,1,.06,1,2.32,2.32,0,0,0-.06.55c0,.25.07.49.09.74a2.73,2.73,0,0,0,.16.73c.12.29.16.47.12.56a1.07,1.07,0,0,0-.09.27,1.38,1.38,0,0,0,0,.25q0,.09.12,0l-.8,1a1,1,0,0,1-.58-.06,1,1,0,0,0-.58-.06,4.9,4.9,0,0,0-.74-.65,2.16,2.16,0,0,0-.43-.15.74.74,0,0,1,.12-.46c.08-.1.08-.25,0-.46a1.7,1.7,0,0,0-.46-.83,1.76,1.76,0,0,1-.46-.89,26.36,26.36,0,0,1-2.39-2,1.15,1.15,0,0,1-.74-.13,2.6,2.6,0,0,0-.73-.24.9.9,0,0,0-.34.06.93.93,0,0,1-.34.06,2.74,2.74,0,0,1-.92-.09,2.87,2.87,0,0,0-.37-.15,1,1,0,0,0-.34.06.88.88,0,0,1-.33.06,2.71,2.71,0,0,0-.86,0l-.25.12a7.48,7.48,0,0,1-1.5.4,2.82,2.82,0,0,0-1,.28,1,1,0,0,1-.4.15.71.71,0,0,0-.4.21c-.21.25-.39.46-.55.62a3.11,3.11,0,0,0-.4.46.86.86,0,0,1-.28.27,1.82,1.82,0,0,1-.27,1,4.44,4.44,0,0,1-.52.86.56.56,0,0,1,0,.55c-.1.16-.09.28,0,.37a5.9,5.9,0,0,0-.34,1.68c0,.52,0,1,0,1.6s0,1.06.06,1.53.14.77.31.89a1.89,1.89,0,0,0-.19,1.35,6.59,6.59,0,0,0,.31,1.41,1.74,1.74,0,0,1,.21.71,1.72,1.72,0,0,0,0,.34c.08.2.16.41.25.61l.24.61c.21.58.39,1.19.56,1.85a4.63,4.63,0,0,0,.79,1.71.66.66,0,0,0,0,.46,2.87,2.87,0,0,1,.22.46,3.75,3.75,0,0,0,1.16.16,1.85,1.85,0,0,1,.86.15,2,2,0,0,1,1-.15.93.93,0,0,0,.52,0,1,1,0,0,0,.3-.06.59.59,0,0,1,.37,0,.9.9,0,0,1,.34.06l.34.12c.2.08.32.07.37,0s.14-.15.3-.15a1.23,1.23,0,0,1,.65,0c.1.06.31,0,.64-.28a2,2,0,0,0,1-.09,1.68,1.68,0,0,1,.74-.15c.61-.33,1.06-.59,1.35-.77a3,3,0,0,0,.67-.58,8.22,8.22,0,0,1,.92-.46l.5-.22.76-.77c.27-.26.54-.52.83-.76a3.8,3.8,0,0,0,.61.18,3.62,3.62,0,0,1,.62.18,2.83,2.83,0,0,0,.15.53,1.31,1.31,0,0,1,.09.52,4.39,4.39,0,0,1-.95.83,3,3,0,0,0-.89.89.54.54,0,0,0-.46.21,1.34,1.34,0,0,1-.33.34,2,2,0,0,1-.74.34.69.69,0,0,0-.55.58.7.7,0,0,0-.62,0,2,2,0,0,1-.49.28,1.28,1.28,0,0,0-.67.27,2.29,2.29,0,0,1-.49.34,7.19,7.19,0,0,1-1.17.15,7.4,7.4,0,0,0-1.23.16c-.2.08-.41.17-.61.27a2.65,2.65,0,0,1-.61.22,1,1,0,0,1-.53-.13,1,1,0,0,0-.52-.12c-.45,0-.68,0-.7.06a.11.11,0,0,1-.1.06,1.42,1.42,0,0,0-.7-.06,3.45,3.45,0,0,1-.58.06,2.21,2.21,0,0,0-.83-.06.79.79,0,0,1-.28.06,1.62,1.62,0,0,1-.77-.18,1.46,1.46,0,0,0-.7-.18.84.84,0,0,0-.37.09.48.48,0,0,1-.37,0,4.78,4.78,0,0,1-1.53-.52c-.49-.27-1-.5-1.41-.71a1.17,1.17,0,0,1-.28-.37.73.73,0,0,0-.28-.3l-.55-.49a1.88,1.88,0,0,1-.37-.56,1.55,1.55,0,0,1-.61-.36,1.11,1.11,0,0,0-.67-.31,3.06,3.06,0,0,0-1.05-1.41,7.64,7.64,0,0,0-.46-1.81,12,12,0,0,1-.52-1.81.92.92,0,0,0-.28-.43c-.1-.08-.13-.29-.09-.62a2.87,2.87,0,0,1-.33-1.07,1.23,1.23,0,0,0,0-.46,10.15,10.15,0,0,0-.24-1.5,4.14,4.14,0,0,1-.06-1.57,1.89,1.89,0,0,1,.27-.7.9.9,0,0,0,.1-.77,2.23,2.23,0,0,0,.46-.71c.1-.26.21-.52.33-.76a.39.39,0,0,0,.31-.28c0-.14.16-.19.37-.15a1.29,1.29,0,0,1,.24-.86,8.92,8.92,0,0,1,.74-1,7.93,7.93,0,0,1,.89-.93,5.91,5.91,0,0,1,.77-.58,2.06,2.06,0,0,0,.73-.49l.25-.31a5.47,5.47,0,0,1,1.53-.76,4,4,0,0,0,1.48-.83h.67a3.21,3.21,0,0,1,1.07-.43,2.78,2.78,0,0,0,1.08-.49,1.33,1.33,0,0,0,1.07-.09,2.87,2.87,0,0,1,1-.34,2,2,0,0,1,.4.06,5.21,5.21,0,0,0,.59.09l.52.06q.21,0,.21-.09a2,2,0,0,1,.49.06,2.4,2.4,0,0,0,.56.06,3.68,3.68,0,0,0,.82-.09,1.34,1.34,0,0,1,.83.09l.59.28a.65.65,0,0,0,.58,0,2.56,2.56,0,0,0,.55.55,3.25,3.25,0,0,0,.61.49,1.64,1.64,0,0,1,.68.56c.08.16.31.28.67.36a1.54,1.54,0,0,0,.62-1.28,5.54,5.54,0,0,1,.31-1.6.37.37,0,0,0,0-.34.63.63,0,0,1-.09-.33,1.24,1.24,0,0,0,.37-.43,2.72,2.72,0,0,1,.31-.5,2.5,2.5,0,0,1,.64.1A1.44,1.44,0,0,0,159.69,53.58Zm-19.33,7.91a5.64,5.64,0,0,1-.68.89,2.12,2.12,0,0,0-.49,1,1.63,1.63,0,0,0-.31.27.65.65,0,0,1-.36.22,2.11,2.11,0,0,0-.4,1,.9.9,0,0,1,0,.4,3.77,3.77,0,0,0-.22.33,2.07,2.07,0,0,0-.15.34,1.61,1.61,0,0,0,0,.52,3.94,3.94,0,0,1,0,.52,2.44,2.44,0,0,0,.12,1.23,2,2,0,0,1,.25.74,3.61,3.61,0,0,0,.15,1.23c.1.24.19.47.28.67a2.92,2.92,0,0,1,.18.31,2.94,2.94,0,0,0,.18.3,4.93,4.93,0,0,1,.19,1.23,1.83,1.83,0,0,0,.24.92c.29.33.41.51.37.55a.09.09,0,0,0,0,.13c.25.08.36.2.34.36a.42.42,0,0,0,.09.37.52.52,0,0,0,.31.16.54.54,0,0,1,.3.15c.09.25.19.37.31.37a.68.68,0,0,1,.37.12.41.41,0,0,0,.31.37.76.76,0,0,1,.36.18,1,1,0,0,0-.36-.79.87.87,0,0,0,0-.74c-.11-.25-.23-.5-.37-.77a6.76,6.76,0,0,1-.4-.89,3,3,0,0,1-.18-1,3.3,3.3,0,0,0-.19-.31.65.65,0,0,1-.12-.37,2,2,0,0,1,0-.76,1.21,1.21,0,0,0,0-.71.67.67,0,0,1-.06-.46,1.3,1.3,0,0,0,.06-.46,1.05,1.05,0,0,0-.12-.52,1,1,0,0,1-.13-.52.77.77,0,0,1,.07-.34.9.9,0,0,0,.06-.34.88.88,0,0,0-.1-.43,2.75,2.75,0,0,1-.15-.36,9.91,9.91,0,0,1,.22-2.77,16.54,16.54,0,0,0,.39-2.27Z"/><path class="cls-1" d="M177.68,38.48a.48.48,0,0,1-.37.4.66.66,0,0,0-.43.4h-.67a1.94,1.94,0,0,1-.16.8,3.23,3.23,0,0,0-.21.8,5.42,5.42,0,0,0,0,1.28,3.63,3.63,0,0,1,0,1.23,1.81,1.81,0,0,1-.09.58,1.92,1.92,0,0,0-.1.59,5.1,5.1,0,0,0-.06,1.35,5.1,5.1,0,0,1-.06,1.35c-.08.33-.14.58-.18.76a1.81,1.81,0,0,0,.06.77.81.81,0,0,0,.61,0,1.71,1.71,0,0,1,.62-.12,1.61,1.61,0,0,0,.89.09,2.47,2.47,0,0,1,.64-.09,2.12,2.12,0,0,1,.71.12.56.56,0,0,0,.64-.24,5.11,5.11,0,0,1,1.11.09c.24.06.49.11.73.15,0,.21,0,.32.16.34a.3.3,0,0,1,.27.21c0,.09,0,.2-.15.34a.45.45,0,0,0,0,.58c-.41.37-.68.54-.8.5s-.16,0-.12.18a21.6,21.6,0,0,0-5.16-.25,3.74,3.74,0,0,1-.21.83,2,2,0,0,0-.16.77,1,1,0,0,0,.13.52,1.05,1.05,0,0,1,.12.52,11.76,11.76,0,0,1-.06,1.2,11.76,11.76,0,0,0-.06,1.2,1.47,1.47,0,0,0,.12.58,1.43,1.43,0,0,1,.12.58,1.49,1.49,0,0,1-.06.4,1.36,1.36,0,0,0,0,.8,1.44,1.44,0,0,1,.06.4,3.29,3.29,0,0,1-.09.79,1,1,0,0,0,.21.8,5,5,0,0,0-.09,1.05.67.67,0,0,0,.22.42c-.08.7-.16,1.35-.22,2a12.66,12.66,0,0,0,0,2c-.08.45-.07.71,0,.77s.14.13.09.21a10.87,10.87,0,0,0-.24,2,9.11,9.11,0,0,0,.12,1.47.67.67,0,0,0,.09.34,1.26,1.26,0,0,1,.16.33,1.35,1.35,0,0,1-.06.43,1,1,0,0,0-.07.37,2.16,2.16,0,0,1-.09.86,1.12,1.12,0,0,0-.15.31,1.85,1.85,0,0,0,0,.73,2.42,2.42,0,0,0,.31.8,2.78,2.78,0,0,0,.46.62c.16.16.3.2.43.12a1.83,1.83,0,0,0,.67,1,1.89,1.89,0,0,1,.62.71,1.88,1.88,0,0,1,.95.49,1.62,1.62,0,0,0,.4.43,2.36,2.36,0,0,0,1.22.4,8.76,8.76,0,0,1,1.29.15c.49.21.77.28.83.21a.29.29,0,0,1,.21-.09,2.15,2.15,0,0,0,1.2.22.71.71,0,0,1,.77.4.84.84,0,0,1,.06.55,2.88,2.88,0,0,0-.06.55,5.81,5.81,0,0,1-.77.43,2,2,0,0,1-.83.18l-.37-.12-.36-.12-.4,0-.77-.06c-.29,0-.65,0-1.1,0a.48.48,0,0,0-.34-.22.46.46,0,0,1-.34-.21.79.79,0,0,1-.58-.1.68.68,0,0,0-.59,0q.06-.36-.18-.39a1.16,1.16,0,0,0-.49,0,1.89,1.89,0,0,0-.55-.8l-.74.18a1.7,1.7,0,0,1-.74-.06,1.77,1.77,0,0,1-.42-.46,2.46,2.46,0,0,0-.62-.58,1.16,1.16,0,0,0-.37-.09.36.36,0,0,1-.3-.16,2,2,0,0,0-.89-.73,3.25,3.25,0,0,1-.83-.5,1.28,1.28,0,0,0-.46-.58,1,1,0,0,1-.34-.21,3.79,3.79,0,0,1-.8-.8,5.72,5.72,0,0,0-1-1.38,1.38,1.38,0,0,1-.46-1.26,5.08,5.08,0,0,0-.31-.74,5.62,5.62,0,0,1-.3-.73l-.25-.8a1.24,1.24,0,0,1,.06-.37,1,1,0,0,0,.06-.3,8.68,8.68,0,0,0,0-1.23,4.34,4.34,0,0,1,.1-1.17c.08-.24.06-.38-.06-.4s-.19-.13-.19-.33a1.46,1.46,0,0,0,.4-1.11,4,4,0,0,1,.22-1.29c-.21-.57-.25-.9-.13-1a.55.55,0,0,0,.25-.37,5.68,5.68,0,0,0,.06-1.84c-.08-.61-.14-1.23-.18-1.84a.82.82,0,0,1,0-.49,1,1,0,0,0,0-.49c0-.12-.1-.25-.16-.37a.81.81,0,0,1-.09-.37,1,1,0,0,1,.06-.3,1.24,1.24,0,0,0,.06-.37,4.44,4.44,0,0,0,0-.55,1.82,1.82,0,0,1,0-.56,4.86,4.86,0,0,0,0-1.22,7.72,7.72,0,0,1-.09-1.23,2,2,0,0,1,.12-.65,1.05,1.05,0,0,0,0-.7,3.63,3.63,0,0,1-.64-.06,3.74,3.74,0,0,0-.65-.06,1,1,0,0,0-.3.06,1.24,1.24,0,0,1-.37.06,1.64,1.64,0,0,0-1.23-.12.74.74,0,0,1-.8-.13.68.68,0,0,1-.64.22l-.64-.22c-.54-.16-.82-.33-.86-.52a.66.66,0,0,0-.25-.4.9.9,0,0,1,.4-.52,5.14,5.14,0,0,1,.58-.27,1.77,1.77,0,0,1,1.14-.1,2.17,2.17,0,0,0,1.07.1.93.93,0,0,0,.52-.13,1.87,1.87,0,0,1,.52-.18.42.42,0,0,1,.34,0,.25.25,0,0,0,.34-.15.92.92,0,0,0,.74.15.81.81,0,0,1,.73.21,1.13,1.13,0,0,0,.22-1,2.35,2.35,0,0,1-.09-1,.67.67,0,0,1,.09-.34,1.52,1.52,0,0,0,.15-.34,5.33,5.33,0,0,0,0-1c0-.33,0-.65,0-1,.2-.08.28-.29.22-.61a1.78,1.78,0,0,1,0-.74,2.38,2.38,0,0,0,.25-1.11l-.12-.61a4.46,4.46,0,0,0-1,.25,1.75,1.75,0,0,1-1,.06,1,1,0,0,1-.43-.09.71.71,0,0,0-.37-.1,1.61,1.61,0,0,0-.92.31,1.89,1.89,0,0,1-.92.37,2.84,2.84,0,0,1-.52-.8.82.82,0,0,1,.16-.92,4.31,4.31,0,0,1,1.41-.67.63.63,0,0,1,.43,0,.94.94,0,0,0,.43.09,4,4,0,0,0,.64-.09c.31-.06.61-.14.92-.22l.86-.24a2.58,2.58,0,0,0,.58-.25,9,9,0,0,0,1-.06,1.22,1.22,0,0,0,.86-.43,3.43,3.43,0,0,0,1.72-.31,4.15,4.15,0,0,1,1.72-.37l.83-.36a.84.84,0,0,1,.83-.06c.4.2.63.36.67.49a.67.67,0,0,0,.19.3Zm-4.42,28.35a.86.86,0,0,1,.16-.3.45.45,0,0,0,0-.37c0-.17-.08-.3-.1-.4a2.17,2.17,0,0,1,0-.4,3.23,3.23,0,0,1,.1-1.2,1.63,1.63,0,0,0-.16-1.19,1.52,1.52,0,0,0,.22-1.23,5.42,5.42,0,0,1-.16-1.29,1.18,1.18,0,0,1,.1-.52.56.56,0,0,0-.1-.52,2.69,2.69,0,0,0,.1-1.2c-.07-.35-.12-.71-.16-1.07a1.63,1.63,0,0,0,.12-.86,6.22,6.22,0,0,1-.06-.86,13.48,13.48,0,0,1,.19-1.44,5.82,5.82,0,0,0,.06-1.45,4.56,4.56,0,0,0-.09-.92c-.06-.28-.12-.59-.16-.92a1.13,1.13,0,0,1,.06-.36,1.43,1.43,0,0,0,.07-.43,1.16,1.16,0,0,0-.07-.37,1.4,1.4,0,0,1-.06-.43,2.75,2.75,0,0,1,.16-1,5.21,5.21,0,0,0,.21-.95,2.48,2.48,0,0,0,0-.77,2.48,2.48,0,0,1,0-.77,7.48,7.48,0,0,1,.19-1.07,9.36,9.36,0,0,0,.18-1.08,2.09,2.09,0,0,0,.12-.95,5.06,5.06,0,0,1-.06-.76c0-.29.09-.58.15-.86a1.15,1.15,0,0,0-.15-.86l-1.56.12a3.44,3.44,0,0,0-1.26.37,8.26,8.26,0,0,1-.22,2.39,13.6,13.6,0,0,0-.33,2.4,5,5,0,0,0,0,.64,3.11,3.11,0,0,1,0,.43,4.57,4.57,0,0,1,0,.49c0,.18-.08.46-.16.83a.57.57,0,0,1,.19.55,3.23,3.23,0,0,0-.06.61v1.6c-.05.2-.1.41-.16.61a2.21,2.21,0,0,0-.09.62,2.09,2.09,0,0,0,.12.61,2.15,2.15,0,0,1,.13.55.41.41,0,0,1-.25.19c-.12,0-.08.2.12.49l-.12.37c0,.12-.08.26-.12.43a17.8,17.8,0,0,1,.27,2.27,14.12,14.12,0,0,0,.16,1.71c0,.21.09.42.15.65a2.47,2.47,0,0,1,.09.64,2.68,2.68,0,0,1-.12.77,2.87,2.87,0,0,0-.12.83,4.58,4.58,0,0,0,.15.49,1.41,1.41,0,0,1,.09.49,1.55,1.55,0,0,1-.09.55c-.06.17-.11.33-.15.49a3.74,3.74,0,0,0,0,.52,1.66,1.66,0,0,1,0,.53.88.88,0,0,1-.06.33,3.42,3.42,0,0,0-.13.34,2.72,2.72,0,0,0-.06,1,2.69,2.69,0,0,1-.06,1,2.4,2.4,0,0,0-.09,1.54,1.51,1.51,0,0,1,.09,1,1,1,0,0,1,.31.68,1.81,1.81,0,0,0,.12.67,1.61,1.61,0,0,0,.25.31l.24.24c.08.17.22.41.4.74a1.82,1.82,0,0,1,.28.8c.32,0,.53.11.61.33a.75.75,0,0,0,.55.46,20.17,20.17,0,0,0,.19-3.43C173.4,69.16,173.34,68,173.26,66.83Z"/><path class="cls-1" d="M198.8,56.89q-.12.49-.33,1.11a1,1,0,0,0,.21,1.1,1.21,1.21,0,0,0-.4.83c0,.22,0,.44,0,.64a2.38,2.38,0,0,0,0,1.08,1.9,1.9,0,0,1,.12.64c0,.61,0,1.22,0,1.81s0,1.2,0,1.81c0,.37.09.73.13,1.08l.12,1a11.52,11.52,0,0,1-.21,2.76,7,7,0,0,0,0,2.7c0,.16.09.31.13.43l.12.37a4.43,4.43,0,0,1,.12,1.07,1.64,1.64,0,0,0,.31,1,1.66,1.66,0,0,0-.09.92,2.06,2.06,0,0,1,0,.92,2.67,2.67,0,0,0,.64.07,3.42,3.42,0,0,1,.65.06c.24,0,.36-.08.36-.25s.11-.24.31-.24l.8.36a.66.66,0,0,1,.15.37c0,.17.13.23.34.19a1.71,1.71,0,0,0-.12,1.16,1.69,1.69,0,0,1-.46.16.72.72,0,0,1-.46-.1,2,2,0,0,1-1.48.62,2.94,2.94,0,0,0-1.53-.19l-1,.19c-.33,0-.63,0-.89,0a3.87,3.87,0,0,0-.83,0,1.62,1.62,0,0,0-.61.12,1.57,1.57,0,0,1-.56.12,2.29,2.29,0,0,0-1.25-.18,4.1,4.1,0,0,1-.71.18,1.1,1.1,0,0,1-.31-.06,1.15,1.15,0,0,0-.37-.06,1.85,1.85,0,0,0-.67,0,4.35,4.35,0,0,0-.55.18,2,2,0,0,1-.62.16.65.65,0,0,1-.55-.22,2.45,2.45,0,0,1-1.23-.06,3.33,3.33,0,0,0-1.16-.18c-.17-.17-.22-.32-.15-.46s-.06-.22-.34-.22a1.16,1.16,0,0,1,.49-.73,4.52,4.52,0,0,0,.67-.56,1,1,0,0,1,.74,0,1.52,1.52,0,0,0,.61.22.74.74,0,0,0,.43-.4.49.49,0,0,0-.06-.52l.37-.8.12-.24a6.78,6.78,0,0,0,.16-1,5.73,5.73,0,0,1,.15-1,1.76,1.76,0,0,0,0-.55.86.86,0,0,1,.09-.49,4.48,4.48,0,0,1,.31-.62,1.92,1.92,0,0,0,.24-.67.78.78,0,0,0,0-.37,1.85,1.85,0,0,1,0-.43,1.93,1.93,0,0,0,.13-.31l.12-.36c.2-.74.41-1.52.61-2.34a3.45,3.45,0,0,0-.18-2.33,1.54,1.54,0,0,0,.15-.55.75.75,0,0,1,.22-.49,5.63,5.63,0,0,1,.24-2.82,2.79,2.79,0,0,1,.13-.43,1.44,1.44,0,0,0,.06-.43,1.27,1.27,0,0,0,0-.55,1.32,1.32,0,0,1,0-.56,1.06,1.06,0,0,1,.18-.33,1.63,1.63,0,0,0,.19-.34l.39-1.41c.11-.37.2-.74.28-1.11a1.67,1.67,0,0,0-1.38-.12,2.55,2.55,0,0,1-1.32.12.89.89,0,0,0-.49.25.6.6,0,0,1-.43.18,1.94,1.94,0,0,1-.8-.24,5.42,5.42,0,0,1-.73-.43,3.74,3.74,0,0,0,0-.52,1.23,1.23,0,0,1,0-.53.49.49,0,0,1,.36-.12c.17,0,.25-.1.25-.31a1.18,1.18,0,0,0,.61,0c.25-.06.41-.05.49,0a.85.85,0,0,1,.53-.21c.22,0,.31-.15.27-.4a1.41,1.41,0,0,0,1.41,0,1.67,1.67,0,0,1,1.35-.18.46.46,0,0,1,.34-.22.32.32,0,0,1,.34.22,4.18,4.18,0,0,1,2-.13,2.44,2.44,0,0,1,1.66,1.11c.49.33.76.56.8.7A.57.57,0,0,0,198.8,56.89Zm-4.11,2.89a.79.79,0,0,1-.06.55,1.41,1.41,0,0,0-.18.37.56.56,0,0,0,0,.36,2.81,2.81,0,0,1,0,.43c-.09.41-.19.81-.31,1.2a6.09,6.09,0,0,0-.25,1.2,3.45,3.45,0,0,1,0,1.07,2.53,2.53,0,0,0-.09.64,1.38,1.38,0,0,0,0,.59c0,.1,0,.27-.12.52a9.9,9.9,0,0,1,.12,1.47,6.73,6.73,0,0,1-.12,1.29,7.37,7.37,0,0,0-.43,1.66,5.75,5.75,0,0,1-.25,1.22,2.33,2.33,0,0,0-.43,1.14,1,1,0,0,1-.06.58c-.24.09-.31.2-.21.34s.13.26.09.34c-.25.28-.33.48-.25.58a.33.33,0,0,1,.07.34,13,13,0,0,0-.59,1.38,2.1,2.1,0,0,0,0,1.44,3,3,0,0,0,1.51.09,3.26,3.26,0,0,1,1.13-.09,1.75,1.75,0,0,1,.34.15.57.57,0,0,0,.34.1c.49,0,.8,0,1-.19s.25-.24.33-.24a.42.42,0,0,1,.37-.06.27.27,0,0,0,.31-.07,2.82,2.82,0,0,0,0-.92,4.42,4.42,0,0,1-.09-.92,1.75,1.75,0,0,1-.19-.7c0-.19,0-.38,0-.59l-.06-.58a3.94,3.94,0,0,1,0-.4,2.28,2.28,0,0,0,0-.89,1.31,1.31,0,0,1-.09-.52.69.69,0,0,1,.09-.34.63.63,0,0,0,.09-.33.89.89,0,0,0,0-.46,1.76,1.76,0,0,1-.06-.46,2.57,2.57,0,0,1,.06-1,3.69,3.69,0,0,0,.12-1,3.63,3.63,0,0,0-.06-.64,3.63,3.63,0,0,1-.06-.64,3.6,3.6,0,0,0,.12-.8,2.11,2.11,0,0,0-.15-.8,2.11,2.11,0,0,1-.15-.8q.12-1,.15-1.5c0-.35,0-.69,0-1s0-.78-.06-1.35a2.35,2.35,0,0,1,.18-1.29c-.24-.13-.29-.34-.15-.65a1.06,1.06,0,0,0,0-1,.66.66,0,0,0,.18-.49v-.55a2.93,2.93,0,0,1-.36-.28,1.05,1.05,0,0,1-.31-.4,2,2,0,0,1-.37.31,1.05,1.05,0,0,0-.31.37.53.53,0,0,0-.06.43.7.7,0,0,1-.06.49,1.82,1.82,0,0,1-.24.52A1.31,1.31,0,0,0,194.69,59.78Zm2-13.07c.36-.13.59-.15.67-.07s.3.31.4.31a.41.41,0,0,1,.28.12,1.89,1.89,0,0,1,.55.83,2.63,2.63,0,0,0,.49.89,2,2,0,0,0-.15.89,5.35,5.35,0,0,0,.15,1c0,.21,0,.31-.18.31s-.21.12-.13.37a1.24,1.24,0,0,0-.37.67,13.84,13.84,0,0,1-1.9,1.14,2.94,2.94,0,0,1-2.08.27,1.27,1.27,0,0,1-.83-.52,2,2,0,0,0-.77-.64,2.37,2.37,0,0,1-.15-.65,6.17,6.17,0,0,0-.09-.64,2.58,2.58,0,0,1-.07-1.66,6.47,6.47,0,0,0,.43-1,4.86,4.86,0,0,0,.62-.4,2.8,2.8,0,0,0,.3-.28,2.55,2.55,0,0,0,1.23-.49,4.74,4.74,0,0,0,1-.15Zm.12,2.51a1.47,1.47,0,0,1-.86.25,1.61,1.61,0,0,1-.74-.13,2.94,2.94,0,0,0-.36,2.09,6,6,0,0,1,1.16-.25,1,1,0,0,0,.4-.58.68.68,0,0,1,.52-.46c0-.16-.08-.31-.12-.43A1,1,0,0,1,196.84,49.22Z"/><path class="cls-1" d="M220.23,52.9a10.07,10.07,0,0,0,1.14-.06,2.84,2.84,0,0,1,1,.06,3.81,3.81,0,0,1,1,.43,1,1,0,0,0,1,.12.71.71,0,0,1,.37.22A1.7,1.7,0,0,0,225,54a.62.62,0,0,1,.4-.1l.4.1a1.58,1.58,0,0,0,1,.3.4.4,0,0,1,.49.25,1.51,1.51,0,0,1,.92.06,4.67,4.67,0,0,1,.92.31,1.37,1.37,0,0,1,.43.33.39.39,0,0,0,.49.1,1.2,1.2,0,0,0,.68.7,2.25,2.25,0,0,1,.79.58c.49.62.9,1.1,1.23,1.45a2.68,2.68,0,0,1,.49.58.8.8,0,0,0,.19.61,1.53,1.53,0,0,1,.24.31,2.37,2.37,0,0,0,.34.74.45.45,0,0,1,.15.18,1.41,1.41,0,0,1,.09.64.65.65,0,0,0,.34.59c-.08.33-.05.55.09.67s.16.37,0,.74a.91.91,0,0,1,.22.31.45.45,0,0,0,.28.24,1.74,1.74,0,0,0,0,1,3.91,3.91,0,0,1,.15,1.08,17.62,17.62,0,0,1-.22,2.45,20,20,0,0,1-.46,2.46,1.31,1.31,0,0,0-.3.27,1,1,0,0,1-.37.28,3.34,3.34,0,0,1-.46,1.2,3.05,3.05,0,0,0-.46,1.19,4.08,4.08,0,0,0-.83.68,8.47,8.47,0,0,0-.64.79,4.62,4.62,0,0,1-.68.77,5,5,0,0,0-.67.77,2,2,0,0,1-.43.37.49.49,0,0,0-.19.06,2.94,2.94,0,0,0-.61.73.73.73,0,0,1-.18.31,6.18,6.18,0,0,0-1,.71,2.32,2.32,0,0,1-1.13.52,2,2,0,0,1-.74.46,1.89,1.89,0,0,0-.74.46,2.09,2.09,0,0,1-1.19.61.94.94,0,0,0-.77.43.78.78,0,0,0-.7.06,1.64,1.64,0,0,1-.65.31,7.59,7.59,0,0,0-2.33,0,1.2,1.2,0,0,0-.55.12.86.86,0,0,1-.55.06,2.94,2.94,0,0,1-1.26-.27,2,2,0,0,0-1.26-.16,5.14,5.14,0,0,0-1.32-.76,6.71,6.71,0,0,0-1.44-.4,2.82,2.82,0,0,0-1.35-1,4.43,4.43,0,0,0-.58-.62l-1-1c-.37-.35-.71-.65-1-.92a3,3,0,0,0-.68-.46c-.16-.29-.31-.55-.46-.8a2.41,2.41,0,0,0-.58-.67l-.24-.86a1.83,1.83,0,0,0-.43-.74,1.19,1.19,0,0,0-.07-.86,4.1,4.1,0,0,1-.3-.86,3.38,3.38,0,0,1-.06-1.1,2,2,0,0,0-.19-1.1.57.57,0,0,0,.22-.62c-.06-.24-.05-.41,0-.49a2.82,2.82,0,0,0,.21-1.44,5,5,0,0,1,0-1.44.71.71,0,0,1,.1-.37,2.16,2.16,0,0,0,.15-.43,1.22,1.22,0,0,0,0-.46.79.79,0,0,1,.09-.46,7.78,7.78,0,0,0,.65-1.11,3.62,3.62,0,0,0,.21-.67c0-.41.1-.6.18-.58a.19.19,0,0,0,.19,0l1.13-1.39c.23-.26.46-.56.71-.89s.81-.92,1.44-1.56a15.72,15.72,0,0,1,1.63-1.44c.45-.33.74-.55.89-.68a2.78,2.78,0,0,0,.4-.43.64.64,0,0,0,.76-.21.67.67,0,0,1,.71-.28,1.45,1.45,0,0,0,.67-.55,5,5,0,0,0,1.23-.31A1.68,1.68,0,0,1,219,53.3,1.43,1.43,0,0,0,220.23,52.9Zm-7.54,6.51a1,1,0,0,1-.4.24.9.9,0,0,0-.4.25.5.5,0,0,1-.34.4c-.18.06-.24.23-.15.52,0,0-.19,0-.43.24l-.49.43a3.19,3.19,0,0,1-.56,1.38,4.23,4.23,0,0,0-.55.89,6.83,6.83,0,0,0-.46,1.63,10.32,10.32,0,0,0-.21,1.69,1.55,1.55,0,0,0,.06.4.68.68,0,0,1,0,.4,1.83,1.83,0,0,1-.19.82,2.4,2.4,0,0,0-.12,1.14,1.23,1.23,0,0,0,.12.4,1,1,0,0,1,.13.4c-.09.28-.09.47,0,.55a.4.4,0,0,1,.09.24,1,1,0,0,1,0,.43,3.51,3.51,0,0,0,0,.37,1.61,1.61,0,0,0,.49.77,1.09,1.09,0,0,1,.37.83l.46.58a2.43,2.43,0,0,1,.34.64,2.56,2.56,0,0,1,.76.74,1.11,1.11,0,0,0,1,.43c.09-.41,0-.68-.12-.83a1.93,1.93,0,0,1-.43-.64,1.24,1.24,0,0,0-.12-.77,4.12,4.12,0,0,1-.31-.71,3.81,3.81,0,0,1-.12-.92,1.35,1.35,0,0,0-.25-.79,2.34,2.34,0,0,0,.28-1.2q0-.58,0-1.2c.2-1.39.38-2.5.52-3.34s.28-1.62.4-2.33.18-1.12.18-1.2a1.28,1.28,0,0,1,.19-.34,1.06,1.06,0,0,0,.18-.33,7.4,7.4,0,0,0,.37-1.38c.08-.47.19-.93.31-1.39a2.82,2.82,0,0,1-.34.16A.38.38,0,0,0,212.69,59.41Zm9.69,20a1,1,0,0,1,1-.31.9.9,0,0,0,.31-.33.58.58,0,0,1,.25-.28,3,3,0,0,1,.92-.31,11.94,11.94,0,0,0,1.32-.7,4.78,4.78,0,0,0,1.07-.89.51.51,0,0,0,.37-.12,2.79,2.79,0,0,0,.24-.31,3.07,3.07,0,0,1,.37-.43,2,2,0,0,1,.74-.43L230.08,74q.53-.65,1.14-1.32a5.05,5.05,0,0,0,.73-1.47,5.08,5.08,0,0,1,.74-1.47,7,7,0,0,0,.43-.92,1.18,1.18,0,0,0,.12-.65,1.6,1.6,0,0,1,0-.64,2.18,2.18,0,0,1,.09-.83,1.64,1.64,0,0,0,.16-.28,2.62,2.62,0,0,0-.25-1.5,2.91,2.91,0,0,1-.37-.89q-.12-.68-.24-1.5a1.64,1.64,0,0,0-.55-1.14.69.69,0,0,0-.07-.52,1.05,1.05,0,0,1-.12-.52,2.09,2.09,0,0,0-.49-.55.71.71,0,0,1-.18-.68,4.11,4.11,0,0,0-.74-.64c-.12-.07-.16-.2-.12-.4a4.53,4.53,0,0,1-.8-.46c-.33-.23-.65-.44-1-.65a6,6,0,0,0-1-.49,1.07,1.07,0,0,0-.86,0,1.57,1.57,0,0,0-.86-.4,8.69,8.69,0,0,1-1-.21.85.85,0,0,0-.65-.09.56.56,0,0,1-.4,0,1.85,1.85,0,0,1-.64-.37,1.77,1.77,0,0,0-.71-.37,1.64,1.64,0,0,0-.36.06,1.91,1.91,0,0,1-.43.06l-.43,0-.62-.06a2.52,2.52,0,0,0-.55,0c-.16,0-.24.09-.24.22a1.32,1.32,0,0,0-1.05-.07,3.27,3.27,0,0,1-1.1.19.55.55,0,0,0-.13.43v.49a1.69,1.69,0,0,0-.82.74,2.81,2.81,0,0,1-.77.85c0,.21,0,.35-.06.43a.38.38,0,0,0-.06.37,1,1,0,0,0-.59.55,5.7,5.7,0,0,0-.36,1,8.68,8.68,0,0,0-.25,1.07c-.06.35-.11.62-.15.83a2.78,2.78,0,0,0-.43,1.38,1.66,1.66,0,0,1-.06.77,2.69,2.69,0,0,0-.22.92.74.74,0,0,1,0,.36,1.34,1.34,0,0,0-.12.68l.12.25a7,7,0,0,0-.55,2.14,2.54,2.54,0,0,0,.09.65,1.4,1.4,0,0,1,0,.64.67.67,0,0,1-.09.34,1.52,1.52,0,0,0-.15.34,4.08,4.08,0,0,0,.12,1.81c.16.51.34,1.07.55,1.68a16.32,16.32,0,0,1,.74,2,1.08,1.08,0,0,1,.3.64v.4a2.86,2.86,0,0,0,.28.92.75.75,0,0,1,.09.55c.25.09.47.18.68.28a7.13,7.13,0,0,0,.67.28,5.86,5.86,0,0,0,1.08.15c.38,0,.74.05,1.07.09a2,2,0,0,1,.49.15.85.85,0,0,0,.43.1,5.62,5.62,0,0,0,1.38-.19A3.28,3.28,0,0,1,222.38,79.41Z"/><path class="cls-1" d="M251.3,57.69a.87.87,0,0,1-.22.4.81.81,0,0,0-.21.4.85.85,0,0,1,0,.46q-.06.33.12.33a2.86,2.86,0,0,0-.25,1.57,11.8,11.8,0,0,1,0,1.69c.21.08.31,0,.31-.13a.39.39,0,0,1,.19-.36l.36-.25a1.5,1.5,0,0,1,.43-.18,7.39,7.39,0,0,0,1.05-1,1.43,1.43,0,0,1,.86-.52.93.93,0,0,1,.36-.46.86.86,0,0,0,.37-.46,2,2,0,0,0,.62-.18c.28-.13.58-.27.89-.43s.59-.33.85-.49l.59-.37a1.74,1.74,0,0,1,.64-.19c.31,0,.54-.08.71-.12a4.36,4.36,0,0,0,1.07-.15c.39-.1.73-.17,1-.22l.28,0,.37-.09.43-.12.27-.06a3.75,3.75,0,0,1,1.84.06,8,8,0,0,0,1.72.37,1.67,1.67,0,0,1,.49.4.76.76,0,0,0,.68.15.73.73,0,0,0,.43.43.79.79,0,0,1,.43.37,1.28,1.28,0,0,0,.43.58,1.14,1.14,0,0,1,.3.21c.21.29.33.42.37.4s.1,0,.19.1a.69.69,0,0,1,.15.42c0,.21.15.29.4.25a1.14,1.14,0,0,0,.43.92,3.49,3.49,0,0,1,.73.68,6.71,6.71,0,0,1,0,1.1,1.76,1.76,0,0,0,.28,1,9.35,9.35,0,0,0-.09,1,2.22,2.22,0,0,0,.09.89,2.52,2.52,0,0,1-.24.89c-.17.39-.15.67.06.83,0,.17,0,.44-.06.83s-.15.6-.31.65a2.61,2.61,0,0,1,0,1.13,3.22,3.22,0,0,1-.31,1.07c-.08.17-.07.28,0,.34s.11.18,0,.34a1.47,1.47,0,0,0-.3.7,1,1,0,0,1-.37.65.83.83,0,0,1,.06.52,2,2,0,0,0-.06.52,1.48,1.48,0,0,0,.12.59.55.55,0,0,1-.12.58,2.63,2.63,0,0,0-.28,1,3.16,3.16,0,0,0,0,.95,1.33,1.33,0,0,0,.68.34A6.24,6.24,0,0,0,271,78a3.38,3.38,0,0,1,.71.12c.2.06.31.18.31.34a1.93,1.93,0,0,1,1,.49.58.58,0,0,1,0,.4,2,2,0,0,1-.28.55,3.3,3.3,0,0,1-.37.49,1,1,0,0,1-.3.28.9.9,0,0,1-1-.12,1.64,1.64,0,0,0-.95-.49.88.88,0,0,0-.33.06,1,1,0,0,1-.34.06.74.74,0,0,1-.49-.15.64.64,0,0,0-.55-.1q-.5,0-1,0l-.95.1a4.54,4.54,0,0,1-.89,0,.89.89,0,0,1-.64-.34,8.85,8.85,0,0,1-.89.09,6,6,0,0,1-1,0,3,3,0,0,1-1-.28,1.26,1.26,0,0,1-.64-.58,1.52,1.52,0,0,1,.22-.61,5.84,5.84,0,0,1,.39-.55,5.36,5.36,0,0,0,1.6,0c.24-.09.42-.09.52,0a.45.45,0,0,0,.28.12,8.77,8.77,0,0,1,1.41-.09,2,2,0,0,0,.86-.16.43.43,0,0,0,.12-.43l-.12-.49a.94.94,0,0,0,.49-.49c.08-.2,0-.37-.37-.49a2.13,2.13,0,0,0,.49-1,3.39,3.39,0,0,1,.43-1.08,2.12,2.12,0,0,1,.43-2,2.48,2.48,0,0,1,.12-1.32A6.82,6.82,0,0,0,268.6,69c.08-.45.14-.89.19-1.32a7.27,7.27,0,0,0,0-1.32,1.43,1.43,0,0,0-.07-.43.59.59,0,0,1,0-.37,2.78,2.78,0,0,1,.1-.82,2,2,0,0,0,0-.89,8.15,8.15,0,0,0-.59-1.72,4.49,4.49,0,0,0-1.07-1.47c-.21-.17-.4-.31-.58-.43s-.38-.25-.59-.37l-.24-.25-.25-.24a1,1,0,0,0-.52-.13,1.28,1.28,0,0,1-.58-.12A1.4,1.4,0,0,1,264,59a2,2,0,0,0-.4-.16,1.5,1.5,0,0,0-.86,0,3.12,3.12,0,0,1-.74.25,11.68,11.68,0,0,1-1.65.15,1.86,1.86,0,0,0-1.48.65.62.62,0,0,0-.89,0,1.89,1.89,0,0,1-.88.43,11.57,11.57,0,0,0-1.6,1,5.54,5.54,0,0,0-.92.95,1.48,1.48,0,0,0-.8.92,1,1,0,0,0-.49.22,1.08,1.08,0,0,1-.43.21c-.29.45-.58.9-.89,1.35s-.62.88-.95,1.29a1.74,1.74,0,0,0,.15.71,1.44,1.44,0,0,1,.16.64,1,1,0,0,1-.1.64,1.08,1.08,0,0,0-.09.65.69.69,0,0,0,.09.34.56.56,0,0,1,.1.33.4.4,0,0,1,0,.34.34.34,0,0,0,0,.34,1.35,1.35,0,0,0,.09.52,1.35,1.35,0,0,1,.09.52,1,1,0,0,1,0,.55,1,1,0,0,0,0,.62q.24.24.12.33a.62.62,0,0,0-.12.46l.12.77c0,.27.08.54.13.83q.06.73.18,1.5a4.29,4.29,0,0,0,.49,1.45,1.5,1.5,0,0,0,0,1,1.81,1.81,0,0,1,0,1A1,1,0,0,0,253,80a4.71,4.71,0,0,0,.92,0l.92-.06.74,0a1,1,0,0,0,.34.4,2.16,2.16,0,0,1,.4.4,1.36,1.36,0,0,1-.68.8,2.78,2.78,0,0,0-.86.67,2.56,2.56,0,0,1-.95.06,2.39,2.39,0,0,0-.95.07.93.93,0,0,0-.46.12.61.61,0,0,1-.46.06,1,1,0,0,1-.43-.09.81.81,0,0,0-.37-.09.47.47,0,0,0-.37,0l-.3.12a1.75,1.75,0,0,1-.89-.22,1.35,1.35,0,0,0-.83-.15,1.67,1.67,0,0,0-.52.09.29.29,0,0,1-.4-.21,3.36,3.36,0,0,0-.8.21,2.08,2.08,0,0,1-.8.16c-.41-.09-.62-.11-.64-.07a.16.16,0,0,1-.15.07,1.64,1.64,0,0,1-.46-.07,1.76,1.76,0,0,0-.46-.06,2.53,2.53,0,0,0-.83.13,6.06,6.06,0,0,1-.77.18,4.11,4.11,0,0,1-1,.12h-1a1.19,1.19,0,0,1-1.41-.27,1.42,1.42,0,0,1-.31-1.32,1.39,1.39,0,0,1,.7-.31,5.69,5.69,0,0,1,.83-.06,5.59,5.59,0,0,0,.83-.06,1.29,1.29,0,0,0,.71-.37q0-.61,0-1.14a7.32,7.32,0,0,0,0-1.13,10.44,10.44,0,0,0,.36-1.41,6.34,6.34,0,0,1,.25-1,2.16,2.16,0,0,0,.12-1.17,2.22,2.22,0,0,1-.12-.68c.2-1.1.35-2,.43-2.73s.16-1.44.25-2.17a2,2,0,0,1,.12-.65,1.9,1.9,0,0,0,.12-.64,2.73,2.73,0,0,1,.15-1.2c.15-.39.12-.66-.09-.83a1.44,1.44,0,0,0,0-.77c-.06-.1,0-.27.22-.52a8.72,8.72,0,0,1,.15-2.3,8.05,8.05,0,0,0,.22-1.87,4,4,0,0,0-1.48.15,6,6,0,0,1-1.41.28,1.63,1.63,0,0,1-.92.37,4,4,0,0,1-1,0,.8.8,0,0,1-.31-.43,2.43,2.43,0,0,0-.18-.49c-.25-.08-.34-.22-.28-.4a.32.32,0,0,0-.09-.4.73.73,0,0,1,.64-.4,1.43,1.43,0,0,0,.65-.09,2.55,2.55,0,0,0,.86-.22.5.5,0,0,1,.31-.09,6.23,6.23,0,0,1,1.22-.12,7.38,7.38,0,0,0,1.29-.12,2.27,2.27,0,0,0,.46-.16,2.52,2.52,0,0,0,.4-.21,3.67,3.67,0,0,1,1.32-.28,1.38,1.38,0,0,0,1.13-.52l.37.09a.84.84,0,0,0,.43-.09,4.69,4.69,0,0,1,.92-.31,4,4,0,0,1,1.08-.09,1.84,1.84,0,0,1,.92.31A1.16,1.16,0,0,1,251.3,57.69Zm-4.18,1.47a2.84,2.84,0,0,0-.49,1.69,11.09,11.09,0,0,1-.12,1.75.87.87,0,0,1-.09.37.8.8,0,0,0-.09.36,2.5,2.5,0,0,0,.18,1.66c-.33.21-.42.44-.28.71a.79.79,0,0,1,.1.7,4,4,0,0,0-.34,1.41,12.49,12.49,0,0,1-.15,1.42c-.05.24-.09.48-.13.7s-.08.46-.12.71a2.72,2.72,0,0,0,.06.58.77.77,0,0,1-.06.52.6.6,0,0,0-.06.43.89.89,0,0,1,.06.37,3.07,3.07,0,0,1-.09,1.1,2.39,2.39,0,0,0-.09,1c.08.25.06.43-.07.53a.3.3,0,0,0-.06.4q-.18.3-.06.39a.78.78,0,0,1,.19.4,1.37,1.37,0,0,0-.34.34,3.52,3.52,0,0,0-.28.46,2.48,2.48,0,0,1,0,.77l-.12.67c0,.23-.07.46-.09.71a2.31,2.31,0,0,0,.09.8,3.63,3.63,0,0,1,.55,0,.75.75,0,0,0,.49-.16,2,2,0,0,0,1.23,0,3,3,0,0,1,1-.18,2.48,2.48,0,0,1,.89.15,1,1,0,0,0,.83,0,4.79,4.79,0,0,0,0-1.41q-.09-.67-.21-1.35a.87.87,0,0,1,0-.4,2.8,2.8,0,0,0,0-.4c-.17-.45-.21-.71-.13-.79a1.4,1.4,0,0,1-.3-.74c0-.21,0-.42,0-.65s0-.42.06-.61a1.32,1.32,0,0,1,.09-.4,2.47,2.47,0,0,1-.3-1,7.05,7.05,0,0,1-.07-1,1.77,1.77,0,0,0-.06-.8,2.53,2.53,0,0,1-.12-.8.72.72,0,0,1,0-.46,1.14,1.14,0,0,0,.09-.46,1.66,1.66,0,0,0-.15-.33.69.69,0,0,1-.09-.34,4.22,4.22,0,0,0,0-1.57,4.24,4.24,0,0,1-.22-1,1,1,0,0,1,.06-.34.88.88,0,0,0,.06-.33,2.63,2.63,0,0,0,0-.43.77.77,0,0,1,0-.37c0-.2.09-.38.13-.52s.08-.32.12-.52a2.53,2.53,0,0,0-.12-.8,2.32,2.32,0,0,1-.13-.8,6,6,0,0,1,.1-1q.09-.53.15-1.08c-.33-.2-.59-.23-.8-.09A.73.73,0,0,1,247.12,59.16Z"/><path class="cls-1" d="M302.24,78.31c.29.08.54.16.77.24a1.82,1.82,0,0,0,.83.06,2.62,2.62,0,0,1,.83,0l.27.13a5.37,5.37,0,0,0,1.48.06,2,2,0,0,1,1.41.3c.12.09.13.21,0,.37s0,.27.21.31c-.08.2-.17.31-.27.31h-.46a5,5,0,0,0-.86.64l-.25.28a12.39,12.39,0,0,1-1.32.18,4.77,4.77,0,0,1-1.32-.06l-.43-.12-.37-.13a6.46,6.46,0,0,0-1,.1l-1.35.18-1.28.15-.65.06c-.24-.08-.4-.09-.46,0a.65.65,0,0,1-.21.16,1.18,1.18,0,0,1-.53,0,1.13,1.13,0,0,0-.52,0,2.25,2.25,0,0,0-.83.3,1.16,1.16,0,0,1-1.59-.39,5.13,5.13,0,0,0-.46-.71,13.59,13.59,0,0,1,0-3.13c-.21,0-.34,0-.4.06a2.28,2.28,0,0,1-.28.31,1.42,1.42,0,0,0-.58.27,1.54,1.54,0,0,1-.34.28,1.46,1.46,0,0,1-.4.25,1.32,1.32,0,0,0-.39.24c-.17.21-.31.3-.43.28s-.17.11-.13.4a1.07,1.07,0,0,0-.7.12c-.23.12-.44.22-.65.31a4.68,4.68,0,0,1-.76.18,4.56,4.56,0,0,0-.77.18,3,3,0,0,0-.37.16l-.43.21a1.35,1.35,0,0,1-.49,0,1.35,1.35,0,0,0-.49,0l-.43.13-.37.12a8.88,8.88,0,0,0-1,.31,2,2,0,0,1-1.07.06,1.56,1.56,0,0,1-.56-.25q-.12-.12-.36,0a2.68,2.68,0,0,0-1.72-.8,4.45,4.45,0,0,0-1.2-.92,4.08,4.08,0,0,1-1.2-.92c-.16-.45-.33-.93-.52-1.44a8.8,8.8,0,0,1-.4-1.5,1.26,1.26,0,0,0-.18-.62.41.41,0,0,1-.12-.3.49.49,0,0,1,0-.34,2.58,2.58,0,0,1,.12-.34v-.86a1.11,1.11,0,0,1,.31-.73,1.94,1.94,0,0,1,.09-1.17,4.56,4.56,0,0,0,.27-1.16,2.47,2.47,0,0,0,.68-1.48.68.68,0,0,0,.46-.3,3.91,3.91,0,0,1,.34-.49,1.85,1.85,0,0,1,.43-.34.51.51,0,0,0,.24-.46c.41-.13.63-.23.65-.31a.53.53,0,0,1,.15-.24,2,2,0,0,0,.61-.43c0-.09.15-.11.31-.07a1.14,1.14,0,0,1,.61-.61,1.16,1.16,0,0,0,.62-.61.51.51,0,0,1,.34.09q.09.09.39,0a4,4,0,0,0,.77-.4l.22-.21a5.91,5.91,0,0,1,1.47-.62c.57-.16,1.08-.28,1.53-.37.21-.08.41-.15.62-.21a6,6,0,0,1,.61-.15,3.9,3.9,0,0,1,1.13-.1,1.78,1.78,0,0,0,1.08-.27,2.08,2.08,0,0,1,.74.24.73.73,0,0,0,.73,0,1.24,1.24,0,0,0,1,.56,2.33,2.33,0,0,1,1.14.36,2.54,2.54,0,0,0,0-1.59,4.69,4.69,0,0,1-.28-1.6,3,3,0,0,1,0-.4.84.84,0,0,0,0-.39c0-.41,0-.63-.09-.65a.27.27,0,0,1-.15-.15,1.46,1.46,0,0,1-.06-.8,1.55,1.55,0,0,0-.07-.8,2.41,2.41,0,0,0-.15-.43.81.81,0,0,1-.09-.37,2.39,2.39,0,0,1-.58-.24,1,1,0,0,0-.65-.12,4.49,4.49,0,0,1-1.72-.07,1.76,1.76,0,0,0-1.35.19,1.19,1.19,0,0,0-1,0,.41.41,0,0,1-.4,0,.56.56,0,0,0-.4,0,2.07,2.07,0,0,0-.34.15l-.33.22a3.25,3.25,0,0,1-.92.09c-.25,0-.52.17-.8.58a2.69,2.69,0,0,0-1.26.49,4,4,0,0,1-1.13.62,3.63,3.63,0,0,0-.89,1.16,6.17,6.17,0,0,1-.83,1.23,1.11,1.11,0,0,1-.12.92,1.22,1.22,0,0,0-.25.8,9.23,9.23,0,0,1-1.23-.25.93.93,0,0,1-.8-.86.71.71,0,0,1,.13-.55c.12-.2.22-.37.3-.49.33-.65.64-1.31.92-2a5.12,5.12,0,0,1,1.23-1.72,1.75,1.75,0,0,0,.95-.28,1.66,1.66,0,0,0,.65-.64.71.71,0,0,0,.92-.43,1.64,1.64,0,0,0,1-.34,1.08,1.08,0,0,1,1-.21,1.63,1.63,0,0,1,.52-.46.94.94,0,0,1,.4-.1.71.71,0,0,1,.31.07.26.26,0,0,0,.24,0,2,2,0,0,1,.65-.19.75.75,0,0,0,.52-.24,1.47,1.47,0,0,0,1,.09,1,1,0,0,1,.92.15.94.94,0,0,1,.68-.24,10.12,10.12,0,0,1,2.05.27,21.64,21.64,0,0,0,2.31.4,4,4,0,0,0,.95.74,2.16,2.16,0,0,0,1.19.18q.67.68,1.35,1.38t1.41,1.38a2.24,2.24,0,0,0,.28,1.14c.18.3.32.46.4.46a1.14,1.14,0,0,0,.55,1.1,4.57,4.57,0,0,0,.49,1.54,3,3,0,0,1,.31,1.65c0,.25.06.38.18.4s.19.14.19.34c0,.53-.09,1-.13,1.56a11.08,11.08,0,0,0,0,1.63,1.66,1.66,0,0,0,.07.49,2.38,2.38,0,0,1,.06.55,4.57,4.57,0,0,0-.25,2,4.17,4.17,0,0,1,0,1.41,2.26,2.26,0,0,1-.06,1,1.4,1.4,0,0,0-.18.49,3.26,3.26,0,0,0,.06.62,3.15,3.15,0,0,1,.06.61,1.26,1.26,0,0,1-.22.71.47.47,0,0,0,.1.64,1.72,1.72,0,0,0-.19,1.66Zm-7.36-11a2.77,2.77,0,0,1-1-.92c-.09-.41-.19-.61-.31-.61a.75.75,0,0,1-.31-.06c-.36-.37-.59-.53-.67-.49a.28.28,0,0,1-.25,0,1.1,1.1,0,0,0-.7-.19,1.55,1.55,0,0,1-.4.06,4.28,4.28,0,0,0-2,.19,2.52,2.52,0,0,1-1.41.18,1.27,1.27,0,0,1-1,.43,1.23,1.23,0,0,0-1,.49,1.48,1.48,0,0,0-.65.13,2.7,2.7,0,0,0-.52.3,4.65,4.65,0,0,1-.46.31.49.49,0,0,1-.4.06,1.53,1.53,0,0,1-.55.61c-.25.17-.49.32-.74.46a4.81,4.81,0,0,0-.67.49,1.44,1.44,0,0,0-.43.71c-.41.37-.71.66-.89.86a1.94,1.94,0,0,0-.4.61,2.25,2.25,0,0,0-.18.86,1,1,0,0,1-.37.74.5.5,0,0,1,.09.58,2.16,2.16,0,0,0-.22.58,1.06,1.06,0,0,0,0,.5.42.42,0,0,1-.12.42,10.77,10.77,0,0,1,.62,1.54,6.91,6.91,0,0,0,.67,1.53A2.17,2.17,0,0,1,281,78a.87.87,0,0,0,.58.18,3.5,3.5,0,0,0,1.72.92,3.87,3.87,0,0,0,2,0,4,4,0,0,1,1.65-.58,1.45,1.45,0,0,0,1-.34c.2.21.4.2.61,0a3.67,3.67,0,0,1,.49-.46.64.64,0,0,0,.67-.21.58.58,0,0,1,.62-.22c.24-.36.42-.55.52-.55a.67.67,0,0,0,.34-.12,4.37,4.37,0,0,0,.83-.68,2.83,2.83,0,0,1,.82-.61,2,2,0,0,1,.92-1.35h.34a.47.47,0,0,0,.34-.12c0-.25.08-.48.12-.71s.08-.44.12-.64,0-.52-.06-1a1.86,1.86,0,0,1,.06-.89,3.67,3.67,0,0,0,.16-1.84A3.18,3.18,0,0,1,294.88,67.32ZM297,60.7A9.58,9.58,0,0,1,297,62a8.34,8.34,0,0,0,0,.89,1,1,0,0,1,.15.4.92.92,0,0,0,.15.4c0,.82-.08,1.43-.12,1.84s-.06.82-.06,1.23a8.08,8.08,0,0,0,0,1.2c0,.39,0,.8,0,1.25,0,.17,0,.4,0,.71a.93.93,0,0,1-.22.64l.25.8-.25.92c-.08.58-.19,1.16-.33,1.75a7.35,7.35,0,0,0-.22,1.81.62.62,0,0,0,0,.43,1,1,0,0,1,.09.43,3.41,3.41,0,0,1-.12.92,1.79,1.79,0,0,0,0,.92.82.82,0,0,0,.34.37.45.45,0,0,1,.21.43,3.4,3.4,0,0,0,1.72-.19.83.83,0,0,1,.52-.06.82.82,0,0,0,.52-.06,1,1,0,0,1-.06-.49,1.56,1.56,0,0,1,.06-.55,5.38,5.38,0,0,1,.16-.71.12.12,0,0,0,0-.09,9.14,9.14,0,0,0,.37-2.58c0-.9,0-1.75.12-2.57q.06-.61.09-1.2t0-1.2a1.11,1.11,0,0,0,0-.67.48.48,0,0,1,0-.37.69.69,0,0,1,.09-.34.56.56,0,0,0,.1-.33.64.64,0,0,0-.1-.53.65.65,0,0,1-.09-.52.8.8,0,0,0,.22-1,1.65,1.65,0,0,1-.22-1,3.06,3.06,0,0,1-.15-1,1,1,0,0,0-.09-.53,1.07,1.07,0,0,0-.25-.33.57.57,0,0,1-.18-.28,1.88,1.88,0,0,0,0-.67,6.15,6.15,0,0,1-.74-1.2c-.21-.43-.41-.86-.61-1.29a5.15,5.15,0,0,0-.77-1.17,3.4,3.4,0,0,0-1.14-.82,4,4,0,0,0,.07,1.59C296.66,59.65,296.8,60.16,297,60.7Z"/><path class="cls-1" d="M322.32,62.41a1.11,1.11,0,0,0,.92-.79l.68-.37a1.65,1.65,0,0,0,.31-.49.75.75,0,0,1,.36-.43,1.81,1.81,0,0,0,.59-.4,1.86,1.86,0,0,1,.21-.28,1,1,0,0,1,.34-.21.26.26,0,0,0,.15-.34.66.66,0,0,0,.68-.61c.45-.29.75-.47.92-.56a.56.56,0,0,0,.3-.43,2.19,2.19,0,0,0,.62-.15,6.15,6.15,0,0,0,.89-.4c.3-.16.61-.31.92-.46a3.53,3.53,0,0,1,.76-.27,1.62,1.62,0,0,1,.62,0,.54.54,0,0,0,.55-.25,2,2,0,0,0,.71.25.61.61,0,0,1,.52.36,1,1,0,0,1,.49,0l.34.16a1.66,1.66,0,0,0,.33.15,1,1,0,0,0,.49,0,4.39,4.39,0,0,0,.34.49.51.51,0,0,0,.52.12.34.34,0,0,0,.28.37c.18,0,.25.19.21.43a2.23,2.23,0,0,1,.31.25.8.8,0,0,0,.37.18,2.46,2.46,0,0,0,.25,1.32,3.1,3.1,0,0,1,.3,1.32,2.62,2.62,0,0,1-.06,1,.62.62,0,0,0,.43.77,5.42,5.42,0,0,0-.43,1.59,2.81,2.81,0,0,1-1.38.19,1.28,1.28,0,0,1-1.14-.68,7.38,7.38,0,0,0,.34-1.53,5.35,5.35,0,0,0,0-1,.74.74,0,0,0-.09-.31,2.39,2.39,0,0,1-.15-.37,5,5,0,0,1-.16-.76,1.34,1.34,0,0,0-.12-.46,1,1,0,0,0-.34-.37,4.25,4.25,0,0,0-.73-.43,2.44,2.44,0,0,1-.49-.25.67.67,0,0,0-.56,0,1,1,0,0,0-1.1-.34l-1.17.46c-.2.09-.43.17-.67.25a1,1,0,0,0-.55.43,1.9,1.9,0,0,0-1,.46,1.74,1.74,0,0,1-.7.46,2.41,2.41,0,0,1-.52.64.9.9,0,0,0-.28.28c-.16.29-.27.43-.31.43s-.1,0-.18.12a2.75,2.75,0,0,1-.37.74.73.73,0,0,0-.18.31.49.49,0,0,1-.34.12.45.45,0,0,0-.34.12,1,1,0,0,0-.46.37.67.67,0,0,1-.46.31,1.08,1.08,0,0,0-.34.49.54.54,0,0,1-.15.3c-.41.41-.61.72-.61.92a.74.74,0,0,1-.31.56q.06.3-.18.33a.67.67,0,0,0-.37.16,9.36,9.36,0,0,1,0,2.7A10.1,10.1,0,0,0,322,72c0,.12.09.23.13.33l.12.34a1.23,1.23,0,0,1,0,.46,3.44,3.44,0,0,0,0,.46,1.31,1.31,0,0,0,.09.52,4.06,4.06,0,0,1,.16.52.89.89,0,0,1-.07.34,1,1,0,0,0-.06.34,4.72,4.72,0,0,0,.31,1.69,2.26,2.26,0,0,1,0,1.62s.16.06.37.06a4.16,4.16,0,0,0,.61,0,3.39,3.39,0,0,0,.62-.12,1.08,1.08,0,0,0,.36-.15c.33-.21.53-.22.62,0s.22.19.43,0l.43.61a1.53,1.53,0,0,1,.18.65.73.73,0,0,1-.15.46l-.34.36a1,1,0,0,0-.25.43h-.4c-.18,0-.27.09-.27.25-.61-.16-1-.21-1.08-.12a.61.61,0,0,1-.39.12l-.68-.25a1.55,1.55,0,0,0-.74-.06c-.53,0-.84,0-.95-.09a.54.54,0,0,0-.4-.15,4.72,4.72,0,0,0-1.59,0l-1.6.24a5.49,5.49,0,0,1-.58,0,1.92,1.92,0,0,0-.58,0,1.81,1.81,0,0,0-.58.09,1.66,1.66,0,0,1-.59.1,2.93,2.93,0,0,1-.67-.13,3.82,3.82,0,0,0-.92.1,1.16,1.16,0,0,1-.86-.16,4.74,4.74,0,0,1-2.64,0,3.23,3.23,0,0,0-.31-.58.6.6,0,0,1-.06-.58,1.08,1.08,0,0,1,.74-.68,4.17,4.17,0,0,1,1-.12c.35,0,.68,0,1,0a1.4,1.4,0,0,0,.8-.15.58.58,0,0,0,.12-.4v-.4a.73.73,0,0,0,.43-.49c.08-.25.16-.47.25-.68a9.38,9.38,0,0,0,.43-1.81c.08-.63.16-1.23.24-1.81a2.3,2.3,0,0,1,.16-.37.71.71,0,0,0,.09-.3,2.93,2.93,0,0,1,0-1.29,2.77,2.77,0,0,0,.15-.92,4.84,4.84,0,0,0,0-.92,3,3,0,0,1,.09-.92l.22-.34a1.52,1.52,0,0,0,.15-.34,7.47,7.47,0,0,0,.1-1.5,4.52,4.52,0,0,1,.15-1.44c.16-.41.21-.67.15-.77a.29.29,0,0,1,0-.28,3.13,3.13,0,0,0,.31-1.1,2.06,2.06,0,0,0,0-.74,4.26,4.26,0,0,1,.09-.46c.06-.26.12-.57.18-.92s.13-.67.19-1a4,4,0,0,0,.09-.71c-.21,0-.65.13-1.35.25l-2.18.4a18.2,18.2,0,0,0-2,.49c-.6.18-.91.34-.95.46a.7.7,0,0,0-.5-.15,3.91,3.91,0,0,1-.49,0,1.72,1.72,0,0,1-.52-.09,1.16,1.16,0,0,1-.52-.46c-.08-.58,0-.91.12-1a.64.64,0,0,0,.31-.46,12,12,0,0,0,2.67-.52,12.58,12.58,0,0,1,2.61-.52,10.1,10.1,0,0,0,1.69-.4c.38-.14.76-.28,1.13-.4a1.3,1.3,0,0,1,.61-.09.38.38,0,0,0,.43-.28c.66.13,1.05,0,1.17-.24a2.32,2.32,0,0,0,1.69-.16,2.5,2.5,0,0,1,1.75-.15l.12.37c0,.12.14.18.31.18a1.16,1.16,0,0,0-.16,1,.88.88,0,0,1-.27,1c.08.08.08.29,0,.64a.92.92,0,0,0,0,.71,1.94,1.94,0,0,1-.19.86,2,2,0,0,0-.06,1.5A1.9,1.9,0,0,1,322.32,62.41Zm-2.88-4.11a2.39,2.39,0,0,1-.15.37,1.67,1.67,0,0,0-.16.43.83.83,0,0,0-.12.74.8.8,0,0,1,0,.61,1.44,1.44,0,0,0-.49,1.14,5.83,5.83,0,0,1-.12,1.25,3.25,3.25,0,0,1-.16.52,2.83,2.83,0,0,0-.15.53,4.58,4.58,0,0,0-.12,1.19,4.66,4.66,0,0,0,.12,1.2,4,4,0,0,0-.49,1.84,7,7,0,0,0,.12,1.9,5.24,5.24,0,0,0-.43.74c0,.16,0,.46,0,.89a5.39,5.39,0,0,1-.09.89,2,2,0,0,0-.19.89.77.77,0,0,1,.07.27,2.9,2.9,0,0,1-.25.86.87.87,0,0,0,.12.86,3.24,3.24,0,0,0-.43.68.74.74,0,0,1,0,.64,2.07,2.07,0,0,0-.21.65,1.27,1.27,0,0,1-.25.7.27.27,0,0,0,0,.4.48.48,0,0,0,.43.15,1.73,1.73,0,0,0,.46-.12,2.2,2.2,0,0,1,.37-.12q.15,0,.15.09a1.51,1.51,0,0,1,.65-.12h2.18a3.77,3.77,0,0,1,0-1,3.78,3.78,0,0,0,0-1,1.22,1.22,0,0,0-.1-.53,1.31,1.31,0,0,1-.09-.52,9,9,0,0,0-.21-2.54,5.68,5.68,0,0,1-.16-2.12,1,1,0,0,1,.1-.49,2.16,2.16,0,0,0,.15-.43,4.8,4.8,0,0,0,0-1.2,7.75,7.75,0,0,1-.09-1.19,17.18,17.18,0,0,1,0-2c0-.65.08-1.33.12-2q.06-1.29.18-2.55a12.08,12.08,0,0,0,0-2.55Z"/><path class="cls-1" d="M356.39,55.17c0,.29.07.55.1.77a1.38,1.38,0,0,1-.22.77c-.29.08-.54.14-.77.18a2.55,2.55,0,0,0-.82.37.6.6,0,0,1-.5,0,.4.4,0,0,0-.49.21.47.47,0,0,1-.43-.06.4.4,0,0,0-.36-.06,5.75,5.75,0,0,1-1.81.25,4.07,4.07,0,0,0-1.2.06c0,.08,0,.27,0,.55a8.31,8.31,0,0,0,.12.92c.06.33.13.64.19.92s.11.49.15.62a1.87,1.87,0,0,0,.18.52,4,4,0,0,1,.25.46l.28.86a2.43,2.43,0,0,0,.39.79,8.57,8.57,0,0,0,.68.71l.37.28c.12.41.25.82.4,1.22a3.25,3.25,0,0,0,.64,1.11c0,.08,0,.25.09.52s.22.57.34.92.25.67.37,1a1.65,1.65,0,0,0,.31.55,1.25,1.25,0,0,1,0,.49.49.49,0,0,0,.09.43,1.79,1.79,0,0,0,.34.56c.14.16.29.32.46.49a1.05,1.05,0,0,0,.12.52c.08.14.16.3.24.46.25.24.36.43.34.55a.51.51,0,0,0,.09.37c.25.33.47.61.68.86a7.11,7.11,0,0,1,.61.86,1.88,1.88,0,0,1,.28-.34,2.24,2.24,0,0,0,.27-.34,1,1,0,0,0,.16-.49.31.31,0,0,1,.34-.31.5.5,0,0,1,.06-.46c.08-.1.08-.25,0-.46a.42.42,0,0,0,.36-.36.56.56,0,0,1,.37-.43,1.45,1.45,0,0,1,.25-.86,4.31,4.31,0,0,0,.43-.86,2.75,2.75,0,0,0,.21-.89,3.1,3.1,0,0,1,.22-.95,1.5,1.5,0,0,1,.3-.43,1.33,1.33,0,0,0,.31-.49,1.09,1.09,0,0,0,.15-.46.48.48,0,0,1,.28-.4,4.67,4.67,0,0,1,.4-1.23,12,12,0,0,0,.52-1.23c.33-.86.7-1.75,1.11-2.7a9.37,9.37,0,0,0,.73-2.33,2.89,2.89,0,0,0-1.84,0,4.89,4.89,0,0,1-1.84.25,1.29,1.29,0,0,1-.43-.59,2.21,2.21,0,0,0-.37-.64,1.07,1.07,0,0,0,.22-.31.77.77,0,0,1,.27-.3l.68-.31a.65.65,0,0,1,.4,0,1.14,1.14,0,0,0,.52,0c.45-.16.7-.22.77-.18a.37.37,0,0,0,.21.06,1.74,1.74,0,0,0,.77-.16,2.82,2.82,0,0,1,.76-.21,1.15,1.15,0,0,1,.37.06,1.44,1.44,0,0,0,.43.06,2.24,2.24,0,0,1,1,0,.46.46,0,0,0,.55-.18,1.43,1.43,0,0,0,1,.24,6.13,6.13,0,0,0,1-.06,1.14,1.14,0,0,1,.46.09.66.66,0,0,0,.46,0,4,4,0,0,1,.92-.27l.65-.06,1-.1c.41.17.64.22.7.16a.18.18,0,0,1,.22,0,.47.47,0,0,1,.37.15c.08.1.26.11.55,0a1.71,1.71,0,0,0,.46.77.67.67,0,0,1,.09.83.79.79,0,0,1-.7.24.93.93,0,0,0-.77.25,1.36,1.36,0,0,1-.8,0,2.53,2.53,0,0,0-.8-.13.64.64,0,0,0-.33.1,2.07,2.07,0,0,1-.34.15,1,1,0,0,1-.34-.09.42.42,0,0,0-.34,0,2.91,2.91,0,0,0-1,.15,2.07,2.07,0,0,1-1.07,0,1.14,1.14,0,0,1-.46-.09.54.54,0,0,0-.46,0c-.53.12-.8.37-.8.74a3.1,3.1,0,0,1-.58,1.62,2.2,2.2,0,0,0-.34.59,3.47,3.47,0,0,0-.25,1,1,1,0,0,1-.55.83v.79a4.49,4.49,0,0,0-.55.89,1.62,1.62,0,0,0-.12,1.08c-.25,0-.35.14-.31.3a.73.73,0,0,1-.06.5,1.37,1.37,0,0,0-.37.55.53.53,0,0,1-.06.24,2.81,2.81,0,0,0-.49.74c-.08.2-.17.43-.25.67s-.16.49-.24.71-.15.38-.19.46a1.15,1.15,0,0,0-.09.55.84.84,0,0,1-.09.49,2.48,2.48,0,0,0-.55.92c-.09.29-.17.56-.25.8s-.16.24-.24.34a2.3,2.3,0,0,0-.25.34,3.7,3.7,0,0,0-.15.76c-.06.43-.1.69-.1.77a.76.76,0,0,0-.36.55A3.38,3.38,0,0,1,360,77a.85.85,0,0,1-.21.4.82.82,0,0,0-.22.4.78.78,0,0,0-.09.46,1.23,1.23,0,0,1,0,.46,12,12,0,0,1-.46,1.35,2.51,2.51,0,0,0-.15,1.41l-.43.55a2,2,0,0,0-.19.89c0,.1,0,.19-.24.28a3.29,3.29,0,0,1-.31,1.16,6.08,6.08,0,0,1-.61,1,1.94,1.94,0,0,1-.25,1c-.16.24-.35.55-.55.92a3,3,0,0,1-.46,1.41,2.91,2.91,0,0,0-.46,1.41c0,.2-.11.31-.22.31a.33.33,0,0,0-.27.18,1.91,1.91,0,0,1-.22,1,1.69,1.69,0,0,0-.09,1.08A1.84,1.84,0,0,1,355,93a.52.52,0,0,0,.19.16c.45-.17.67-.23.67-.19s0,.06.12.06l.8,0c.29,0,.55,0,.8-.09a3.62,3.62,0,0,0,.67-.21,1.33,1.33,0,0,1,1.85.64.86.86,0,0,0-.25.43c0,.16-.18.22-.43.18,0,.21-.14.38-.43.53a1.54,1.54,0,0,0-.61.46l-.8.24a3.26,3.26,0,0,1-1.07.06,9.51,9.51,0,0,0-1.08-.06q-.62,0-1.23.06c-.4,0-.81.06-1.22.06a2,2,0,0,1-.49-.06,2.12,2.12,0,0,0-.49-.06,2.76,2.76,0,0,1-.93.06,1.13,1.13,0,0,0-.36-.06c-.7,0-1.41,0-2.15.06a13.6,13.6,0,0,1-2.21-.06,1.57,1.57,0,0,0-.18-.27l-.25-.28a.88.88,0,0,1-.06-1,2,2,0,0,1,.86-.68,1.21,1.21,0,0,0,.89.15,3,3,0,0,1,1,0,.76.76,0,0,1,.37.1,2,2,0,0,0,.43.15,5.49,5.49,0,0,1,1.07-.09,1.6,1.6,0,0,0,.52,0,1.41,1.41,0,0,0,.95-.77,4.84,4.84,0,0,0,.4-1.2,2.3,2.3,0,0,1,.16-.37c.06-.12,0-.22-.16-.3a1.19,1.19,0,0,1,.34-.49,1.74,1.74,0,0,0,.34-.43,8.19,8.19,0,0,1,.33-1.2,5.62,5.62,0,0,1,.53-1.07A1,1,0,0,1,354,87a1,1,0,0,0,.15-.31,2.29,2.29,0,0,0,.16-.61,1.44,1.44,0,0,1,.21-.61,7.14,7.14,0,0,0,.28-.74,1.68,1.68,0,0,1,.27-.61c.17-.41.29-.62.37-.62a2.64,2.64,0,0,0,.12-.83,1,1,0,0,1,.31-.76,6.42,6.42,0,0,0-.67-.59c-.25-.18-.47-.35-.68-.52a.55.55,0,0,1-.12-.4V80a9.94,9.94,0,0,0-.62-1.13c-.24-.39-.47-.77-.67-1.14a2.22,2.22,0,0,0-.61-.79,4.59,4.59,0,0,1-.74-.8l-.28-.28-.27-.27c-.21-.45-.34-.67-.4-.65a.3.3,0,0,1-.22,0,1.78,1.78,0,0,1-.12-.4.88.88,0,0,0-.18-.4l-.25-.24-.24-.25a1.77,1.77,0,0,1-.43-.73.39.39,0,0,0-.13-.31c-.36-.29-.54-.45-.52-.49s0-.1,0-.19c-.24-.16-.37-.29-.37-.4a.37.37,0,0,0-.12-.27.91.91,0,0,0-.4-.4,1,1,0,0,1-.4-.4,2.22,2.22,0,0,0-.27-.74.47.47,0,0,1-.16-.18,2.47,2.47,0,0,1-.3-.67.54.54,0,0,0-.06-.25,4.1,4.1,0,0,0-.53-.77,2.3,2.3,0,0,0-.7-.58,3.3,3.3,0,0,0-.34-.71,1.14,1.14,0,0,0-.58-.46,12.8,12.8,0,0,0-.59-1.44,4.61,4.61,0,0,0-.88-1.26,4.91,4.91,0,0,0-.28-.95c-.19-.51-.4-1.05-.65-1.62s-.48-1.1-.7-1.57a5.09,5.09,0,0,0-.46-.83,7.67,7.67,0,0,0-1.23.25,5.69,5.69,0,0,0-1.16.49.81.81,0,0,1-.4-.21l-.28-.28a1.32,1.32,0,0,1-.49-.8c0-.2.21-.43.61-.67.21-.25.4-.35.59-.31a.43.43,0,0,0,.4-.06,1.66,1.66,0,0,0,.33-.15,2.14,2.14,0,0,1,.28-.16,4.23,4.23,0,0,1,1-.12,4.17,4.17,0,0,0,1-.12,2.33,2.33,0,0,1,1.2-.31,1.66,1.66,0,0,0,.77-.06,4.55,4.55,0,0,1,2.14-.28,15,15,0,0,0,1.6.22,6.68,6.68,0,0,0,1.63-.19,4.09,4.09,0,0,1,1.56-.06c.29,0,.45,0,.49-.18s.16-.23.37-.19a4,4,0,0,0,1.29.06q.68-.06,1.32-.15T355.2,55A2.6,2.6,0,0,1,356.39,55.17Zm-13.13,2.76a.93.93,0,0,1,.12.5.54.54,0,0,0,.13.42.92.92,0,0,1,.27.62,1,1,0,0,0,0,.43,1.45,1.45,0,0,1,.43.61,2.26,2.26,0,0,0,.19.49,3.56,3.56,0,0,0,.46.89c.18.27.38.55.58.83s.22.49.28.49.11,0,.15.12a.44.44,0,0,0,.12.46.53.53,0,0,1,.13.53q.36-.06.39.15a2.62,2.62,0,0,1,0,.52c.2,0,.31.11.33.22a1.39,1.39,0,0,0,.16.39,1.77,1.77,0,0,1,.43.62,1.39,1.39,0,0,0,.24.49A1.67,1.67,0,0,0,348,67a1.31,1.31,0,0,1,.27.3l.56.68a.68.68,0,0,1,.12.67l.43.52c.2.27.41.56.61.86a9.87,9.87,0,0,1,.52.86c.15.27.2.44.16.52a1.29,1.29,0,0,1,.79.71,3.59,3.59,0,0,0,.62.89,2.59,2.59,0,0,1,.7.77,3.16,3.16,0,0,1,.53,1,5.32,5.32,0,0,1,.95,1c.3.39.6.75.89,1.07a1,1,0,0,1,.15.37.57.57,0,0,0,.15.31c.33.08.47.19.43.34s0,.19.19.15c0-.29,0-.48-.13-.58a2,2,0,0,1-.36-.46,1.29,1.29,0,0,1-.25-.8.52.52,0,0,0-.06-.43,1.35,1.35,0,0,0-.49-.49c-.21-.13-.27-.35-.19-.68a1.5,1.5,0,0,1-.73-.89,1.91,1.91,0,0,0-.68-1,2,2,0,0,0-.15-.74c-.1-.24-.2-.49-.28-.73a2.42,2.42,0,0,1-.15-.68.66.66,0,0,0-.34-.55v-.73a.6.6,0,0,1-.3-.43l-.13-.56a1.41,1.41,0,0,1-.64-.92,2.55,2.55,0,0,0-.52-1,2.1,2.1,0,0,0-.34-.46,1.82,1.82,0,0,1-.34-.46l-.37-.68a1.15,1.15,0,0,1-.15-.39c-.06-.23-.13-.46-.21-.71s-.16-.47-.22-.68a2.09,2.09,0,0,1-.09-.36,2.26,2.26,0,0,1-.28-.49,1.12,1.12,0,0,0-.27-.43,4.76,4.76,0,0,0-.31-1.35,6.84,6.84,0,0,1-.37-1.29c0-.41,0-.67-.12-.77a.35.35,0,0,1-.12-.4,3.53,3.53,0,0,1-1.6-.12,2.69,2.69,0,0,0-1.59,0,1.17,1.17,0,0,1-.56.09A.68.68,0,0,0,343.26,57.93Z"/><path class="cls-1" d="M278.5,12.73H267.59q2.73-4.48,5.45-9Z"/><path class="cls-1" d="M269.11,12.73v9.58h7.73V12.73Zm1.37,5.68a5.87,5.87,0,0,1,.92-3A4.06,4.06,0,0,1,273,14a4,4,0,0,1,1.57,1.4,5.77,5.77,0,0,1,.92,3Z"/><path class="cls-1" d="M267.59,26.49h-8.78q2.19-4.48,4.39-9Q265.39,22,267.59,26.49Z"/><rect class="cls-1" x="260.03" y="26.49" width="6.22" height="9.58"/><path class="cls-1" d="M287.28,26.49H278.5l4.39-9Z"/><rect class="cls-1" x="279.72" y="26.49" width="6.22" height="9.58"/><rect class="cls-1" x="269.2" y="24.04" width="7.73" height="15.11"/><rect class="cls-1" x="267.98" y="22.31" width="9.99" height="1.74"/><path class="cls-1" d="M272.94,4.6c-.07-.81-.16-1.65-.28-2.52-.09-.71-.2-1.4-.31-2.06l.33,0a10.66,10.66,0,0,1,.38,2.63A11.62,11.62,0,0,1,272.94,4.6Z"/><path class="cls-1" d="M272.58.24l.06,0a2.29,2.29,0,0,1,1.12-.09,3.48,3.48,0,0,1,.44.11c.3.11.4.2.55.26.37.14.62,0,1-.06a2.15,2.15,0,0,1,1.29.31l-.64.36c-.81.48-.88.68-1.47,1a3.58,3.58,0,0,1-1.32.42,3.5,3.5,0,0,1-.74,0,13.15,13.15,0,0,0-.15-1.43C272.7.78,272.64.5,272.58.24Z"/><path class="cls-1" d="M258.81,22H247.89l5.46-9Z"/><path class="cls-1" d="M249.42,22v9.19a.38.38,0,0,0,.39.39h6.95a.39.39,0,0,0,.39-.39V22Zm1.37,5.69a5.7,5.7,0,0,1,.92-3,4,4,0,0,1,1.57-1.4,4.06,4.06,0,0,1,1.58,1.4,5.9,5.9,0,0,1,.92,3Z"/><path class="cls-1" d="M253.24,13.9c-.06-.81-.15-1.65-.27-2.53-.09-.71-.2-1.39-.32-2.06l.34,0a11.24,11.24,0,0,1,.38,2.63A10.71,10.71,0,0,1,253.24,13.9Z"/><path class="cls-1" d="M252.89,9.53l.06,0a2.42,2.42,0,0,1,1.12-.09,2.23,2.23,0,0,1,.44.12,5.48,5.48,0,0,1,.55.25c.37.15.62,0,1-.06a2.19,2.19,0,0,1,1.29.32c-.15.07-.38.19-.65.35-.8.48-.87.68-1.46,1a3.75,3.75,0,0,1-1.32.41,2.92,2.92,0,0,1-.74,0,13.88,13.88,0,0,0-.16-1.43C253,10.07,253,9.79,252.89,9.53Z"/><path class="cls-1" d="M298.19,22H287.28l5.46-9Z"/><path class="cls-1" d="M296.21,22h-7.09a.33.33,0,0,0-.32.33v8.93a.32.32,0,0,0,.32.32h7.09a.32.32,0,0,0,.33-.32V22.35A.33.33,0,0,0,296.21,22Zm-6,5.69a5.9,5.9,0,0,1,.92-3,4.06,4.06,0,0,1,1.58-1.4,4,4,0,0,1,1.57,1.4,5.7,5.7,0,0,1,.92,3Z"/><path class="cls-1" d="M292.63,13.9c-.07-.81-.16-1.65-.27-2.53-.1-.71-.2-1.39-.32-2.06l.34,0a11.8,11.8,0,0,1,.38,2.63A12.79,12.79,0,0,1,292.63,13.9Z"/><path class="cls-1" d="M292.27,9.53l.06,0a2.49,2.49,0,0,1,1.13-.09,2.11,2.11,0,0,1,.43.12,5.92,5.92,0,0,1,.56.25c.36.15.62,0,1-.06a2.21,2.21,0,0,1,1.29.32c-.15.07-.38.19-.65.35-.8.48-.88.68-1.46,1a3.75,3.75,0,0,1-1.32.41,3,3,0,0,1-.75,0,13.68,13.68,0,0,0-.15-1.43C292.39,10.07,292.33,9.79,292.27,9.53Z"/><rect class="cls-1" x="250.14" y="31.28" width="6.28" height="11.26"/><rect class="cls-1" x="289.37" y="31.28" width="6.59" height="11.26"/><rect class="cls-1" x="250.14" y="34.75" width="45.82" height="7.79"/><path class="cls-1" d="M259.09,48.43h-8.95v-5.9h19A15.5,15.5,0,0,0,262.23,45,9.6,9.6,0,0,0,259.09,48.43Z"/><path class="cls-1" d="M287,48.43h9v-5.9H277A15.57,15.57,0,0,1,283.89,45,9.65,9.65,0,0,1,287,48.43Z"/><rect class="cls-1" x="255.15" y="33.1" width="5.66" height="2.7"/><rect class="cls-1" x="284.45" y="33.1" width="5.66" height="2.7"/><path class="cls-1" d="M220,50.27a16.2,16.2,0,0,1,10.36,1.41,15.85,15.85,0,0,1,5.8,5.09,61.55,61.55,0,0,1,9.14-2.63c2-.41,3.87-.69,5.63-.88a2.42,2.42,0,0,1,2.6.79,2.53,2.53,0,0,1,.34,2.27,18.26,18.26,0,0,1,8.39-3c2.2-.18,5.93-.5,9.18,1.93A10.82,10.82,0,0,1,274.93,60a14.21,14.21,0,0,1,5.21-6.69c3.57-2.39,7.28-2.26,10.44-2.16a17.11,17.11,0,0,1,8.5,2A15.39,15.39,0,0,1,304,57.57a19.84,19.84,0,0,1,6.35-3l10.89-2.27a3.74,3.74,0,0,1,2.95.8,3.62,3.62,0,0,1,1.24,2.6A10.72,10.72,0,0,1,328,54.17a10.39,10.39,0,0,1,3.18-.8,9.72,9.72,0,0,0-4.54-5.44c-4.73-2.49-9.53.43-9.75.57a9.6,9.6,0,0,0-5-5.67c-4.63-2.09-8.94.74-9.18.91a12.32,12.32,0,0,0-4-3.86,12.6,12.6,0,0,0-7.71-1.7l-37.87.11a10.89,10.89,0,0,0-5.78.68,10.77,10.77,0,0,0-4.76,3.86A7.73,7.73,0,0,0,238,41a8.2,8.2,0,0,0-7.15,4.31,7,7,0,0,0-4-1C223.87,44.49,221.16,46.85,220,50.27Z"/></g></g></svg>